<?xml version="1.0" encoding="utf-8"?>
<!-- Generator: Adobe Illustrator 17.1.0, SVG Export Plug-In . SVG Version: 6.00 Build 0)  -->
<!DOCTYPE svg PUBLIC "-//W3C//DTD SVG 1.1//EN" "http://www.w3.org/Graphics/SVG/1.1/DTD/svg11.dtd">
<svg version="1.1" id="Layer_1" xmlns="http://www.w3.org/2000/svg" xmlns:xlink="http://www.w3.org/1999/xlink" x="0px" y="0px"
	 viewBox="0 0 50 50" enable-background="new 0 0 50 50" xml:space="preserve">
<path d="M30.65,38.5c0.552,0,1-0.447,1-1s-0.448-1-1-1H10.667c-0.552,0-1,0.447-1,1s0.448,1,1,1H30.65z"/>
<path d="M40.667,28.5h-30c-0.552,0-1,0.447-1,1s0.448,1,1,1h30c0.552,0,1-0.447,1-1S41.219,28.5,40.667,28.5z"/>
<path d="M40.667,12.5h-30c-0.552,0-1,0.447-1,1s0.448,1,1,1h30c0.552,0,1-0.447,1-1S41.219,12.5,40.667,12.5z"/>
<path d="M10.667,22.5H30.65c0.552,0,1-0.447,1-1s-0.448-1-1-1H10.667c-0.552,0-1,0.447-1,1S10.114,22.5,10.667,22.5z"/>
</svg>
