<svg width="24px" height="24px" viewBox="0 0 24 24" version="1.1" xmlns="http://www.w3.org/2000/svg" xmlns:xlink="http://www.w3.org/1999/xlink">
    <g class="align-left" stroke="none" stroke-width="1" fill="none" fill-rule="evenodd">
        <path d="M15.7639537,21.4678283 L0.751272634,21.4678283 C0.33657014,21.4678283 -1.24344979e-14,21.1397686 -1.24344979e-14,20.7339141 C-1.24344979e-14,20.3280596 0.33657014,20 0.751272634,20 L15.7639537,20 C16.1786562,20 16.5152263,20.3280596 16.5152263,20.7339141 C16.5152263,21.1397686 16.1786562,21.4678283 15.7639537,21.4678283 Z M23.25,14 C23.664,14 24,14.3280596 24,14.7339141 C24,15.1397686 23.664,15.4678283 23.25,15.4678283 L0.75,15.4678283 C0.336,15.4678283 0,15.1397686 0,14.7339141 C0,14.3280596 0.336,14 0.75,14 L23.25,14 Z M23.25,2 C23.664,2 24,2.32805962 24,2.73391413 C24,3.13976864 23.664,3.46782826 23.25,3.46782826 L0.75,3.46782826 C0.336,3.46782826 0,3.13976864 0,2.73391413 C0,2.32805962 0.336,2 0.75,2 L23.25,2 Z M0.751272634,9.46782826 C0.335818868,9.46782826 -1.24344979e-14,9.13976864 -1.24344979e-14,8.73391413 C-1.24344979e-14,8.32805962 0.33657014,8 0.751272634,8 L15.7639537,8 C16.1786562,8 16.5152263,8.32805962 16.5152263,8.73391413 C16.5152263,9.13976864 16.1786562,9.46782826 15.7639537,9.46782826 L0.751272634,9.46782826 Z" fill="#000000"></path>
    </g>
</svg>