<svg viewBox="0 0 24 24" version="1.1" xmlns="http://www.w3.org/2000/svg" xmlns:xlink="http://www.w3.org/1999/xlink">
    <g class="align-right" stroke="none" stroke-width="1" fill="none" fill-rule="evenodd">
        <path d="M23.2339537,21.4678283 L8.22127263,21.4678283 C7.80657014,21.4678283 7.47,21.1397686 7.47,20.7339141 C7.47,20.3280596 7.80657014,20 8.22127263,20 L23.2339537,20 C23.6486562,20 23.9852263,20.3280596 23.9852263,20.7339141 C23.9852263,21.1397686 23.6486562,21.4678283 23.2339537,21.4678283 Z M23.25,14 C23.664,14 24,14.3280596 24,14.7339141 C24,15.1397686 23.664,15.4678283 23.25,15.4678283 L0.75,15.4678283 C0.336,15.4678283 0,15.1397686 0,14.7339141 C0,14.3280596 0.336,14 0.75,14 L23.25,14 Z M23.25,2 C23.664,2 24,2.32805962 24,2.73391413 C24,3.13976864 23.664,3.46782826 23.25,3.46782826 L0.75,3.46782826 C0.336,3.46782826 0,3.13976864 0,2.73391413 C0,2.32805962 0.336,2 0.75,2 L23.25,2 Z M8.22127263,9.46782826 C7.80581887,9.46782826 7.47,9.13976864 7.47,8.73391413 C7.47,8.32805962 7.80657014,8 8.22127263,8 L23.2339537,8 C23.6486562,8 23.9852263,8.32805962 23.9852263,8.73391413 C23.9852263,9.13976864 23.6486562,9.46782826 23.2339537,9.46782826 L8.22127263,9.46782826 Z" fill="#000000"></path>
    </g>
</svg>