<?xml version="1.0" encoding="utf-8"?>
<!-- Generator: Adobe Illustrator 17.1.0, SVG Export Plug-In . SVG Version: 6.00 Build 0)  -->
<!DOCTYPE svg PUBLIC "-//W3C//DTD SVG 1.1//EN" "http://www.w3.org/Graphics/SVG/1.1/DTD/svg11.dtd">
<svg version="1.1" id="Layer_1" xmlns="http://www.w3.org/2000/svg" xmlns:xlink="http://www.w3.org/1999/xlink" x="0px" y="0px"
	 viewBox="0 0 50 50" enable-background="new 0 0 50 50" xml:space="preserve">
<path d="M40.667,36.5H20.683c-0.552,0-1,0.447-1,1s0.448,1,1,1h19.983c0.552,0,1-0.447,1-1S41.219,36.5,40.667,36.5z"/>
<path d="M41.667,29.5c0-0.553-0.448-1-1-1h-30c-0.552,0-1,0.447-1,1s0.448,1,1,1h30C41.219,30.5,41.667,30.053,41.667,29.5z"/>
<path d="M40.667,12.5h-30c-0.552,0-1,0.447-1,1s0.448,1,1,1h30c0.552,0,1-0.447,1-1S41.219,12.5,40.667,12.5z"/>
<path d="M40.667,20.5H20.683c-0.552,0-1,0.447-1,1s0.448,1,1,1h19.983c0.552,0,1-0.447,1-1S41.219,20.5,40.667,20.5z"/>
</svg>
