<svg width="24px" height="24px" viewBox="0 0 24 24" version="1.1" xmlns="http://www.w3.org/2000/svg" xmlns:xlink="http://www.w3.org/1999/xlink">
    <g class="bell" stroke="none" stroke-width="1" fill="none" fill-rule="evenodd">
        <path d="M14.5790662,20 C15.0330426,20 15.4,20.3829878 15.4,20.8548835 C15.4,22.5894422 13.9641868,24 12.2,24 C10.4358132,24 9,22.5885873 9,20.8548835 C9,20.3821329 9.36695741,20 9.82093381,20 C10.2749102,20 10.6418676,20.3821329 10.6418676,20.8548835 C10.6418676,21.6465057 11.3413032,22.290233 12.2,22.290233 C13.0586968,22.290233 13.7581324,21.6465057 13.7581324,20.8548835 C13.7581324,20.3821329 14.1250898,20 14.5790662,20 Z M19.6552559,12.8216546 C20.0675109,12.8216546 20.4007442,13.1556333 20.3999988,13.5671429 C20.3999988,14.9239318 20.4,19.0531919 17.1504149,19.0531919 L7.24883834,19.0531919 C5.18458103,19.0531919 4,17.0537921 4,13.5671429 C4,13.1548879 4.3332333,12.8216546 4.74548837,12.8216546 L5.90323182,12.8216546 C5.90323182,11.7742434 5.90323182,9.98805324 5.90397731,9.96792506 C5.95616149,7.04933807 8.38421713,4.63470122 11.4548837,4.29326755 L11.4548837,3.71327759 C10.7079044,3.42999201 10.1771167,2.73743331 10.1771167,1.92634196 C10.1771167,0.864021026 11.0851215,-1.0658141e-14 12.2003721,-1.0658141e-14 C13.3156227,-1.0658141e-14 14.2236276,0.864021026 14.2236276,1.92634196 C14.2236276,2.73743331 13.6928398,3.42999201 12.9458605,3.71327759 L12.9458605,4.29326755 C16.0292004,4.63544671 18.4580015,7.06126588 18.4967669,9.99849008 L18.4975124,12.8216546 L19.6552559,12.8216546 Z M12.2003721,1.49097675 C11.9118681,1.49097675 11.6680934,1.69076763 11.6680934,1.92634196 C11.6680934,2.16191629 11.9118681,2.36170717 12.2003721,2.36170717 C12.4888761,2.36170717 12.7326508,2.16191629 12.7326508,1.92634196 C12.7326508,1.69076763 12.4888761,1.49097675 12.2003721,1.49097675 Z M7.39495406,9.99998106 C7.39420857,10.0708025 7.39420857,11.7973535 7.39420857,12.8216546 L17.0065357,12.8216546 L17.0057902,10.0089269 C16.9744797,7.65840207 14.8185273,5.73876951 12.2003721,5.73876951 C9.59265379,5.73876951 7.4374469,7.65094719 7.39495406,9.99998106 Z M17.1511604,17.5629606 C18.2686475,17.5629606 18.8046536,16.5811524 18.8956032,14.3133768 L5.51781433,14.3133768 C5.60130903,15.5188315 5.9367788,17.5629606 7.24883834,17.5629606 L17.1511604,17.5629606 Z" fill="#000000"></path>
    </g>
</svg>