<?xml version="1.0" encoding="utf-8"?>
<!-- Generator: Adobe Illustrator 17.1.0, SVG Export Plug-In . SVG Version: 6.00 Build 0)  -->
<!DOCTYPE svg PUBLIC "-//W3C//DTD SVG 1.1//EN" "http://www.w3.org/Graphics/SVG/1.1/DTD/svg11.dtd">
<svg version="1.1" id="Layer_1" xmlns="http://www.w3.org/2000/svg" xmlns:xlink="http://www.w3.org/1999/xlink" x="0px" y="0px"
	 viewBox="0 0 50 50" enable-background="new 0 0 50 50" xml:space="preserve">
<path d="M29.942,36.98c-0.553,0-1,0.447-1,1c0,0.926-0.852,1.679-1.898,1.679s-1.898-0.753-1.898-1.679c0-0.553-0.447-1-1-1
	s-1,0.447-1,1c0,2.028,1.749,3.679,3.898,3.679s3.898-1.65,3.898-3.679C30.942,37.428,30.495,36.98,29.942,36.98z"/>
<path d="M37.044,26.858h-1.553l-0.001-3.787c-0.052-3.94-3.31-7.194-7.446-7.653V14.64c1.002-0.38,1.714-1.309,1.714-2.397
	c0-1.425-1.218-2.584-2.714-2.584s-2.714,1.159-2.714,2.584c0,1.088,0.712,2.017,1.714,2.397v0.778
	c-4.119,0.458-7.376,3.697-7.446,7.612c-0.001,0.027-0.001,2.423-0.001,3.828h-1.553c-0.553,0-1,0.447-1,1
	c0,4.677,1.589,7.359,4.358,7.359h13.282c4.359,0,4.359-5.539,4.359-7.359C38.044,27.306,37.597,26.858,37.044,26.858z
	 M27.044,11.659c0.387,0,0.714,0.268,0.714,0.584s-0.327,0.584-0.714,0.584s-0.714-0.268-0.714-0.584S26.657,11.659,27.044,11.659z
	 M20.598,23.073c0.057-3.151,2.948-5.716,6.446-5.716c3.512,0,6.404,2.575,6.446,5.728l0.001,3.773H20.597
	C20.597,25.484,20.597,23.168,20.598,23.073z M33.685,33.218H20.402c-1.76,0-2.21-2.742-2.322-4.359h17.945
	C35.903,31.901,35.184,33.218,33.685,33.218z"/>
</svg>
