<svg width="34" height="33" viewBox="0 0 34 33" fill="none" xmlns="http://www.w3.org/2000/svg">
<path fill-rule="evenodd" clip-rule="evenodd" d="M33.2539 16.1292C33.2539 25.0371 26.033 32.2584 17.1255 32.2584C8.21805 32.2584 0.997131 25.0371 0.997131 16.1292C0.997131 7.22128 8.21805 0 17.1255 0C26.033 0 33.2539 7.22128 33.2539 16.1292ZM21.0003 10.1366C23.2438 10.9071 24.8849 12.0607 24.563 14.2077C24.3291 15.7799 23.4544 16.5403 22.2921 16.8065C23.8867 17.6335 24.4301 19.2029 23.9252 21.1005C22.9664 23.8314 20.6875 24.0613 17.6563 23.4905L16.9203 26.4261L15.1435 25.9844L15.8694 23.0882C15.4087 22.9742 14.9379 22.8522 14.453 22.7221L13.7241 25.6325L11.9493 25.1908L12.6843 22.2491L9.1054 21.3496L9.98823 19.3226C9.98823 19.3226 11.2983 19.6685 11.2801 19.6433C11.7832 19.7673 12.007 19.4406 12.0951 19.2238L14.0895 11.256C14.1118 10.8798 13.9812 10.4059 13.2614 10.2264C13.2887 10.2072 11.9705 9.90669 11.9705 9.90669L12.4433 8.01585L16.0273 8.90026L16.7562 5.99188L18.532 6.43358L17.8183 9.28448C18.2961 9.39238 18.776 9.5023 19.2427 9.61828L19.9514 6.78553L21.7282 7.22724L21.0003 10.1366ZM16.7489 14.9882C17.9592 15.3091 20.5929 16.0074 21.0519 14.1765C21.5203 12.3033 18.9615 11.7376 17.7087 11.4606L17.7087 11.4606L17.7086 11.4606C17.5667 11.4292 17.4415 11.4015 17.3394 11.3761L16.4546 14.9117C16.5388 14.9325 16.6379 14.9588 16.7489 14.9882ZM15.3775 20.6807C16.8272 21.0626 19.9977 21.8977 20.5022 19.8803C21.0185 17.8175 17.9445 17.1305 16.4446 16.7952L16.4442 16.7951C16.2768 16.7577 16.129 16.7247 16.0081 16.6946L15.0321 20.5913C15.1312 20.6158 15.2473 20.6464 15.3772 20.6806L15.3775 20.6807Z" fill="#F7931A"/>
</svg>
