<svg width="34" height="34" viewBox="0 0 34 34" fill="none" xmlns="http://www.w3.org/2000/svg">
<path fill-rule="evenodd" clip-rule="evenodd" d="M31.1707 9.20077C35.5496 16.958 32.8113 26.7962 25.0544 31.175C17.2975 35.5537 7.45942 32.8149 3.08047 25.0576C-1.29849 17.3003 1.43988 7.46211 9.19678 3.08337C16.9537 -1.29536 26.7917 1.44349 31.1707 9.20077ZM17.554 10.0059C19.8865 9.57396 21.8828 9.77186 22.6578 11.7998C23.227 13.2839 22.8391 14.376 21.9578 15.1792C23.7529 15.1155 24.9976 16.215 25.4908 18.1158C25.9983 20.9652 24.1267 22.2858 21.2065 23.2788L22.0086 26.197L20.2442 26.6858L19.4526 23.8068C18.9954 23.934 18.5255 24.0592 18.0392 24.1843L18.8351 27.0771L17.0725 27.5649L16.2665 24.6418L12.7077 25.6178L12.48 23.4187C12.48 23.4187 13.7909 23.0759 13.7627 23.0629C14.2618 22.9236 14.296 22.529 14.2662 22.2969L12.0862 14.3779C11.9207 14.0394 11.574 13.6908 10.8589 13.8884C10.8732 13.8582 9.57762 14.2445 9.57762 14.2445L9.05984 12.3655L12.6156 11.3739L11.8207 8.48282L13.5842 7.99453L14.3641 10.828C14.8333 10.6871 15.3052 10.5469 15.7687 10.4185L14.9933 7.60326L16.7577 7.11447L17.554 10.0059ZM16.2367 16.3207C17.4485 16.0052 20.0852 15.3186 19.585 13.4986C19.072 11.6371 16.5656 12.4023 15.3385 12.7769L15.3384 12.7769L15.3384 12.777C15.1993 12.8194 15.0767 12.8568 14.9753 12.8849L15.9428 16.3988C16.0264 16.3755 16.1256 16.3497 16.2367 16.3207ZM17.8408 21.9521C19.2909 21.572 22.4625 20.7407 21.9101 18.7359C21.3457 16.6857 18.331 17.5985 16.8601 18.0439L16.8596 18.044C16.6954 18.0937 16.5505 18.1376 16.4304 18.1709L17.496 22.044C17.5944 22.0167 17.7105 21.9862 17.8405 21.9522L17.8408 21.9521Z" fill="#8FC258"/>
</svg>
