<svg width="53" height="20" viewBox="0 0 53 20" fill="none" xmlns="http://www.w3.org/2000/svg">
<path fill-rule="evenodd" clip-rule="evenodd" d="M5.27948 12.5335C4.89664 12.7459 4.48903 12.8519 4.05693 12.8519H3.72349C3.63687 12.8519 3.51317 12.8447 3.15594 12.7814L4.36379 7.64224C4.586 7.44257 4.8257 7.31294 5.10359 7.25025C5.38149 7.18784 5.56046 7.171 5.73355 7.171C6.26429 7.171 6.67498 7.32511 6.8727 7.66248C7.07014 7.99957 7.16907 8.46797 7.16907 9.06742C7.16907 9.55465 7.08861 10.0231 6.92825 10.4727C6.76761 10.9222 6.54849 11.325 6.27073 11.681C5.99283 12.0369 5.66218 12.3212 5.27948 12.5335ZM8.00275 5.152C7.57023 4.93973 7.05796 4.83346 6.46509 4.83346C6.18089 4.83346 5.91545 4.86473 5.66862 4.92714C5.42136 4.98983 5.18852 5.07063 4.94169 5.18299L6.07623 0.355835L3.20477 0.805423L0 14.4257C0.358075 14.6007 0.737699 14.738 1.13929 14.8377C1.54047 14.9376 1.92023 15.0125 2.27844 15.0626C2.63652 15.1124 2.95472 15.1404 3.23261 15.1469C3.51051 15.153 3.70501 15.1563 3.81611 15.1563C4.68045 15.1563 5.48335 14.9906 6.22427 14.6597C6.96533 14.329 7.60732 13.8794 8.15094 13.311C8.69427 12.7426 9.12343 12.0744 9.43841 11.3063C9.75339 10.5381 9.91081 9.72316 9.91081 8.86135C9.91081 8.2994 9.84266 7.77481 9.70693 7.28772C9.57092 6.80049 9.36103 6.37609 9.07712 6.01368C8.79292 5.65155 8.43485 5.36441 8.00275 5.152ZM15.5973 3.63118L16.0192 1.83636H13.2685L12.8466 3.63118H15.5973ZM19.5776 12.7775C19.2232 12.7775 18.9446 12.7265 18.7424 12.6239C18.5396 12.5216 18.3973 12.3775 18.3152 12.1919C18.2326 12.0065 18.2013 11.7856 18.2202 11.5295C18.2392 11.2736 18.2866 10.9985 18.3626 10.7039L19.198 7.17099H22.3305L22.9 4.82852H19.7484L20.4699 1.85236L17.5272 2.31326L15.6666 10.2622C15.5148 10.915 15.4261 11.5361 15.4009 12.1247C15.3753 12.7136 15.464 13.2353 15.6666 13.6895C15.869 14.1441 16.2107 14.5025 16.6919 14.7647C17.1727 15.027 17.8499 15.1583 18.7233 15.1583C19.3308 15.1583 19.8559 15.1071 20.2991 15.0047C20.3448 14.9941 20.4144 14.9771 20.4594 14.9661L21.0323 12.5427C20.8399 12.6091 20.6466 12.6535 20.4604 12.6911C20.1756 12.7487 19.8814 12.7775 19.5776 12.7775ZM53 4.83174H50.2494L48.6495 11.6391H48.6523L48.4325 12.5755C48.279 12.6191 48.1262 12.6583 47.9745 12.689C47.6897 12.7466 47.3955 12.7754 47.0917 12.7754C46.7371 12.7754 46.4586 12.7244 46.2563 12.6218C46.0537 12.5194 45.9114 12.3755 45.8291 12.1897C45.7467 12.0043 45.7152 11.7836 45.7342 11.5273C45.7533 11.2714 45.8007 10.9963 45.8767 10.7017L46.7119 7.16883L47.2625 4.82636L47.2627 4.82565H44.4526L43.1807 10.2602C43.0289 10.913 42.9402 11.5339 42.915 12.1226C42.8894 12.7115 42.9781 13.2332 43.1807 13.6874C43.383 14.1419 43.7247 14.5005 44.206 14.7627C44.6867 15.0248 45.364 15.1563 46.2373 15.1563C46.8449 15.1563 47.37 15.105 47.8132 15.0026C47.8311 14.9985 47.8483 14.9941 47.8658 14.9897L47.8645 14.9948C47.7414 15.5555 47.492 16.0102 47.0918 16.3651C46.6912 16.7203 46.0968 16.8979 45.3086 16.8979C44.9721 16.8979 44.6663 16.8776 44.3893 16.8389L43.8479 19.1424C44.2141 19.1904 44.62 19.2151 45.0683 19.2151C45.9059 19.2151 46.6392 19.1184 47.2674 18.9253C47.8957 18.7322 48.4344 18.4395 48.8842 18.047C49.3337 17.6545 49.7095 17.1622 50.0114 16.5708C50.3131 15.9789 50.5564 15.2784 50.7413 14.4684L52.6446 6.3765L52.6377 6.37353L53 4.83174ZM39.5085 7.17097C38.2259 7.17097 37.981 7.17097 37.4555 7.44664C37.0824 7.64221 36.7736 7.93628 36.5024 8.27931C36.2309 8.62248 36.0183 9.01843 35.8642 9.46745C35.7097 9.91676 35.6328 10.3845 35.6328 10.871C35.6328 11.4697 35.7314 11.9441 35.929 12.2932C36.126 12.6426 36.4901 12.8171 37.0206 12.8171C37.3042 12.8171 37.5601 12.761 37.7885 12.6487C38.0166 12.5364 38.2603 12.3492 38.5193 12.0873C38.5439 11.7757 38.5841 11.4482 38.6397 11.1049C38.6903 10.7914 38.7535 10.4987 38.8112 10.2313L38.8273 10.1568L39.5085 7.17097ZM41.4614 10.6464C41.2885 11.3576 41.2392 12.0717 41.3133 12.789C41.3874 13.5067 41.6587 14.6059 41.9233 15.1563H39.2615C39.0192 14.7418 38.9656 14.4914 38.9285 14.3184C38.9159 14.2592 38.9051 14.209 38.8894 14.1644C38.5439 14.4515 38.1615 14.6884 37.7423 14.8755C37.3228 15.0626 36.854 15.1563 36.3359 15.1563C35.7191 15.1563 35.1917 15.0469 34.754 14.8288C34.3159 14.6106 33.9582 14.3174 33.6808 13.9493C33.4031 13.5815 33.2025 13.151 33.0795 12.6581C32.9559 12.1654 32.8944 11.6383 32.8944 11.0769C32.8944 10.2161 33.0452 9.40518 33.3477 8.64427C33.6498 7.88335 34.0693 7.21894 34.606 6.65119C35.1424 6.08358 36.4375 4.8319 38.5626 4.8319L42.8299 4.83176L41.4614 10.6464ZM26.15 12.8573C25.8393 12.8573 25.5786 12.8322 25.3675 12.7819L26.6995 7.171C26.6995 7.171 27.3771 7.171 27.7852 7.17256C28.3688 7.17497 28.7826 7.37521 29.0186 7.75206C29.2544 8.12877 29.3725 8.58741 29.3725 9.12729C29.3725 9.68003 29.2947 10.1854 29.1397 10.6437C28.9842 11.1024 28.7672 11.4947 28.4877 11.8211C28.2083 12.1479 27.8698 12.4022 27.4726 12.5842C27.0749 12.7663 26.6343 12.8573 26.15 12.8573ZM31.6823 11.4349C31.9804 10.6753 32.1294 9.83697 32.1294 8.91996C32.1294 8.3549 32.0516 7.8245 31.8965 7.32808C31.7411 6.83221 31.5021 6.3989 31.1794 6.02828C30.8563 5.65794 30.4437 5.36599 29.9406 5.15231C29.4377 4.93891 28.8384 4.83207 28.1431 4.83207L27.1857 4.83202C26.1673 4.83195 24.8038 4.83186 24.4696 4.83207L21.2694 18.4523H24.0263L24.8646 15.0425C25.2866 15.118 25.7089 15.1556 26.1312 15.1556C27.0005 15.1556 27.8046 15.0016 28.5436 14.6941C29.2823 14.3865 29.9156 13.9564 30.4437 13.4035C30.9713 12.8512 31.3844 12.195 31.6823 11.4349ZM10.1334 15.1583L12.5617 4.82581H15.3124L12.8841 15.1583H10.1334Z" fill="#002855"/>
</svg>
