<svg viewBox="0 0 24 24" version="1.1" xmlns="http://www.w3.org/2000/svg" xmlns:xlink="http://www.w3.org/1999/xlink">
    <g class="blank" stroke="none" stroke-width="1" fill="none" fill-rule="evenodd">
        <path d="M20.25,24 L3.75,24 C3.336,24 3,23.66475 3,23.25 L3,0.75 C3,0.33525 3.336,0 3.75,0 L16.125,0 C16.1415,0 16.155,0.00825 16.17,0.009 C16.2375,0.0135 16.30275,0.027 16.3665,0.04875 C16.39125,0.057 16.41525,0.063 16.4385,0.0735 C16.515,0.1095 16.58775,0.15375 16.65,0.2145 L20.775,4.2645 C20.77575,4.266 20.7765,4.2675 20.77725,4.26825 C20.7825,4.27275 20.78475,4.2795 20.78925,4.284 C20.84625,4.34325 20.88975,4.41075 20.9235,4.48275 C20.93475,4.50675 20.9415,4.53075 20.9505,4.55625 C20.973,4.62 20.98575,4.68525 20.99025,4.75275 C20.99175,4.76925 21,4.7835 21,4.8 L21,23.25 C21,23.66475 20.664,24 20.25,24 Z M16.875,2.538 L16.875,4.05075 L18.4155,4.05075 L16.875,2.538 Z M4.5,1.5 L4.5,22.5 L19.5,22.5 L19.5,5.55 L16.125,5.55 C15.711,5.55 15.375,5.21475 15.375,4.8 L15.375,1.5 L4.5,1.5 Z M16.9498182,11.9789091 C17.3512727,11.9789091 17.6763636,12.304 17.6763636,12.7061818 C17.6763636,13.1083636 17.3505455,13.4334545 16.9490909,13.4334545 L6.87054545,13.4334545 C6.46909091,13.4334545 6.14327273,13.1083636 6.14327273,12.7061818 C6.14327273,12.304 6.46909091,11.9789091 6.87054545,11.9789091 L16.9498182,11.9789091 Z M16.9498182,8.92436364 C17.3512727,8.92436364 17.6763636,9.24945455 17.6763636,9.65163636 C17.6763636,10.0538182 17.3505455,10.3789091 16.9490909,10.3789091 L6.87054545,10.3789091 C6.46909091,10.3789091 6.14327273,10.0538182 6.14327273,9.65163636 C6.14327273,9.24945455 6.46909091,8.92436364 6.87054545,8.92436364 L16.9498182,8.92436364 Z M16.9498182,15.0327273 C17.3512727,15.0327273 17.6763636,15.3578182 17.6763636,15.76 C17.6763636,16.1621818 17.3505455,16.4872727 16.9490909,16.4872727 L6.87054545,16.4872727 C6.46909091,16.4872727 6.14327273,16.1621818 6.14327273,15.76 C6.14327273,15.3578182 6.46909091,15.0327273 6.87054545,15.0327273 L16.9498182,15.0327273 Z M16.9498182,18.0872727 C17.3512727,18.0872727 17.6763636,18.4123636 17.6763636,18.8145455 C17.6763636,19.2167273 17.3505455,19.5418182 16.9490909,19.5418182 L6.87054545,19.5418182 C6.46909091,19.5418182 6.14327273,19.2167273 6.14327273,18.8145455 C6.14327273,18.4123636 6.46909091,18.0872727 6.87054545,18.0872727 L16.9498182,18.0872727 Z" fill="#000000" fill-rule="nonzero"></path>
    </g>
</svg>