<?xml version="1.0" encoding="utf-8"?>
<!-- Generator: Adobe Illustrator 17.1.0, SVG Export Plug-In . SVG Version: 6.00 Build 0)  -->
<!DOCTYPE svg PUBLIC "-//W3C//DTD SVG 1.1//EN" "http://www.w3.org/Graphics/SVG/1.1/DTD/svg11.dtd">
<svg version="1.1" id="Layer_1" xmlns="http://www.w3.org/2000/svg" xmlns:xlink="http://www.w3.org/1999/xlink" x="0px" y="0px"
	 viewBox="0 0 50 50" enable-background="new 0 0 50 50" xml:space="preserve">
<path d="M34.454,18.285c0.271-0.189,0.432-0.499,0.429-0.83c-0.003-0.33-0.168-0.638-0.442-0.821l-10-6.714
	c-0.307-0.206-0.702-0.226-1.028-0.053c-0.325,0.174-0.529,0.514-0.529,0.883V23.9l-1.075,0.748l-7.348-5.191
	c-0.452-0.319-1.075-0.212-1.394,0.239c-0.319,0.451-0.212,1.075,0.239,1.394l6.756,4.773l-6.75,4.696
	c-0.453,0.315-0.565,0.939-0.25,1.393s0.939,0.565,1.393,0.25l7.345-5.111l1.084,0.766V40.75c0,0.365,0.198,0.7,0.519,0.876
	c0.15,0.083,0.315,0.124,0.481,0.124c0.187,0,0.373-0.052,0.536-0.155l10-6.347c0.281-0.179,0.455-0.486,0.464-0.82
	c0.008-0.333-0.15-0.648-0.423-0.841l-9.577-6.767v-1.876L34.454,18.285z M24.883,12.626l7.228,4.853l-7.228,5.029V12.626z
	 M32.087,34.358l-7.204,4.572V29.27L32.087,34.358z"/>
</svg>
