<svg viewBox="0 0 24 24" version="1.1" xmlns="http://www.w3.org/2000/svg" xmlns:xlink="http://www.w3.org/1999/xlink">
    <g class="bluetooth" stroke="none" stroke-width="1" fill="none" fill-rule="evenodd">
        <path d="M19.6878971,6.40121833 C19.8849881,6.25946807 20.002079,6.02696765 19.9998971,5.77871721 C19.9977153,5.53121676 19.8777153,5.30021635 19.6784426,5.1629661 L12.4057153,0.127457036 C12.1824426,-0.0270432421 11.8951699,-0.0420432691 11.658079,0.0877069644 C11.4217153,0.218207199 11.2733517,0.473207658 11.2733517,0.749958156 L11.2733517,10.6124759 L10.4915335,11.1734769 L5.14753351,7.28021991 C4.81880624,7.04096948 4.36571533,7.12121962 4.13371533,7.45947023 C3.90171533,7.79772084 3.97953351,8.26572168 4.30753351,8.50497211 L9.22098805,12.0847286 L4.31189715,15.6067349 C3.9824426,15.8429853 3.90098805,16.3109862 4.13007896,16.6514868 C4.35916987,16.9919874 4.81298805,17.0752375 5.14316987,16.8389871 L10.4849881,13.0057302 L11.2733517,13.5802312 L11.2733517,23.2499987 C11.2733517,23.5237491 11.4173517,23.7749996 11.6508062,23.9069998 C11.7598971,23.9692499 11.8798971,24 12.0006244,24 C12.1366244,24 12.2718971,23.9609999 12.3904426,23.8837498 L19.6631699,19.1234912 C19.8675335,18.989241 19.994079,18.7589906 20.0006244,18.5084901 C20.0064426,18.2587397 19.8915335,18.0224892 19.6929881,17.877739 L12.7278971,12.8024798 L12.7278971,11.3954773 L19.6878971,6.40121833 Z M12.7271699,2.15696069 L17.9838971,5.79671724 L12.7271699,9.56847403 L12.7271699,2.15696069 Z M17.9664426,18.45599 L12.7271699,21.8849962 L12.7271699,14.6399832 L17.9664426,18.45599 Z" fill="#000000" fill-rule="nonzero"></path>
    </g>
</svg>