<svg viewBox="0 0 24 24" version="1.1" xmlns="http://www.w3.org/2000/svg" xmlns:xlink="http://www.w3.org/1999/xlink">
    <g class="browser" stroke="none" stroke-width="1" fill="none" fill-rule="evenodd">
        <path d="M0.75,22 C0.33525,22 1.33226763e-15,21.6561274 0,21.2307101 L0,2.76928995 C0,2.34387261 0.33525,2 0.75,2 L23.25,2 C23.66475,2 24,2.34387261 24,2.76928995 L24,21.2307101 C24,21.6561274 23.66475,22 23.25,22 L0.75,22 Z M1.5,20.4614201 L22.5,20.4614201 L22.5,9.04900377 L1.5,9.04900377 L1.5,20.4614201 Z M22.5,3.53857989 L1.5,3.53857989 L1.5,7.51042388 L22.5,7.51042388 L22.5,3.53857989 Z M4.41090909,6.18090909 C4.04338869,6.18090909 3.74545455,5.88297494 3.74545455,5.51545455 C3.74545455,5.14793415 4.04338869,4.85 4.41090909,4.85 C4.77842949,4.85 5.07636364,5.14793415 5.07636364,5.51545455 C5.07636364,5.88297494 4.77842949,6.18090909 4.41090909,6.18090909 Z M7.00072727,6.18090909 C6.63320688,6.18090909 6.33527273,5.88297494 6.33527273,5.51545455 C6.33527273,5.14793415 6.63320688,4.85 7.00072727,4.85 C7.36824767,4.85 7.66618182,5.14793415 7.66618182,5.51545455 C7.66618182,5.88297494 7.36824767,6.18090909 7.00072727,6.18090909 Z M9.59054545,6.18090909 C9.22302506,6.18090909 8.92509091,5.88297494 8.92509091,5.51545455 C8.92509091,5.14793415 9.22302506,4.85 9.59054545,4.85 C9.95806585,4.85 10.256,5.14793415 10.256,5.51545455 C10.256,5.88297494 9.95806585,6.18090909 9.59054545,6.18090909 Z" fill="#000000" fill-rule="nonzero"></path>
    </g>
</svg>