<svg viewBox="0 0 24 24" version="1.1" xmlns="http://www.w3.org/2000/svg" xmlns:xlink="http://www.w3.org/1999/xlink">
    <g class="camera" stroke="none" stroke-width="1" fill="none" fill-rule="evenodd">
        <path d="M18.147,6.69163636 L23.25,6.69163636 C23.664,6.69163636 24,7.01672727 24,7.41890909 L24,19.7272727 C24,20.1294545 23.664,20.4545455 23.25,20.4545455 L0.75,20.4545455 C0.336,20.4545455 0,20.1294545 0,19.7272727 L0,7.41890909 C0,7.01672727 0.336,6.69163636 0.75,6.69163636 L5.85075,6.69163636 L6.384,3.60727273 C6.44475,3.25672727 6.7575,3 7.1235,3 L16.87275,3 C17.23875,3 17.5515,3.25672727 17.61225,3.60654545 L18.147,6.69163636 Z M22.5,19 L22.5,8.14618182 L17.5125,8.14618182 C17.1465,8.14618182 16.83375,7.88945455 16.773,7.53963636 L16.23825,4.45454545 L7.758,4.45454545 L7.22475,7.53890909 C7.164,7.88945455 6.85125,8.14618182 6.48525,8.14618182 L1.5,8.14618182 L1.5,19 L22.5,19 Z M12.0036364,8.5 C14.4101818,8.5 16.3672727,10.4425455 16.3672727,12.8294545 C16.3672727,15.2163636 14.4101818,17.1589091 12.0036364,17.1589091 C9.59709091,17.1589091 7.64,15.2163636 7.64,12.8294545 C7.64,10.4425455 9.59709091,8.5 12.0036364,8.5 Z M12.0036364,15.7043636 C13.608,15.7043636 14.9127273,14.4149091 14.9127273,12.8294545 C14.9127273,11.244 13.608,9.95454545 12.0036364,9.95454545 C10.3992727,9.95454545 9.09454545,11.244 9.09454545,12.8294545 C9.09454545,14.4149091 10.3992727,15.7043636 12.0036364,15.7043636 Z" fill="#000000" fill-rule="nonzero"></path>
    </g>
</svg>