<?xml version="1.0" encoding="utf-8"?>
<!-- Generator: Adobe Illustrator 17.1.0, SVG Export Plug-In . SVG Version: 6.00 Build 0)  -->
<!DOCTYPE svg PUBLIC "-//W3C//DTD SVG 1.1//EN" "http://www.w3.org/Graphics/SVG/1.1/DTD/svg11.dtd">
<svg version="1.1" id="Layer_1" xmlns="http://www.w3.org/2000/svg" xmlns:xlink="http://www.w3.org/1999/xlink" x="0px" y="0px"
	 viewBox="0 0 50 50" enable-background="new 0 0 50 50" xml:space="preserve">
<path d="M35.628,19.066l-0.713-4.242c-0.081-0.481-0.498-0.834-0.986-0.834H20.93c-0.488,0-0.905,0.353-0.986,0.835l-0.711,4.241
	h-6.801c-0.552,0-1,0.447-1,1V36.99c0,0.553,0.448,1,1,1h30c0.552,0,1-0.447,1-1V20.066c0-0.553-0.448-1-1-1H35.628z M41.432,35.99
	h-28V21.066h6.647c0.488,0,0.905-0.353,0.986-0.835l0.711-4.241h11.307l0.713,4.242c0.081,0.481,0.498,0.834,0.986,0.834h6.65V35.99
	z"/>
<path d="M27.432,21.384c-3.309,0-6,2.671-6,5.953s2.691,5.953,6,5.953s6-2.671,6-5.953S30.741,21.384,27.432,21.384z M27.432,31.29
	c-2.206,0-4-1.773-4-3.953s1.794-3.953,4-3.953s4,1.773,4,3.953S29.638,31.29,27.432,31.29z"/>
</svg>
