<svg width="24px" height="24px" viewBox="0 0 24 24" version="1.1" xmlns="http://www.w3.org/2000/svg" xmlns:xlink="http://www.w3.org/1999/xlink">
    <g class="cart" stroke="none" stroke-width="1" fill="none" fill-rule="evenodd">
        <path d="M23.1064555,3.01442866 L18.6066431,3.8587923 C18.2541578,3.92497411 17.9991684,4.22388321 17.9991684,4.57224684 L17.9991684,7.50824684 L0.749887476,7.50824684 C0.471649075,7.50824684 0.215909735,7.65806502 0.0861651437,7.89661048 C-0.043579448,8.13515593 -0.0255801983,8.42461048 0.131913237,8.64642866 L4.27774042,14.5046105 C4.41798457,14.7024287 4.64897494,14.8209741 4.89571466,14.8209741 L17.1082056,14.8209741 L17.1127054,16.4347923 L6.75038735,16.4347923 C6.73838785,16.4347923 6.72863825,16.4406105 6.71663875,16.4413378 C6.69413969,16.4406105 6.67389054,16.4347923 6.65139147,16.4347923 C5.33519634,16.4347923 4.26424098,17.4995196 4.26424098,18.8086105 C4.26424098,20.1177014 5.33519634,21.1831559 6.65139147,21.1831559 C7.96683664,21.1831559 9.037792,20.1177014 9.037792,18.8086105 C9.037792,18.4827923 8.97104478,18.1722468 8.85104978,17.8893378 L15.0165428,17.8893378 C14.8965478,18.1722468 14.8298006,18.4827923 14.8298006,18.8086105 C14.8298006,20.1177014 15.9007559,21.1831559 17.2162011,21.1831559 C18.5316462,21.1831559 19.6026016,20.1177014 19.6026016,18.8086105 C19.6026016,18.0209741 19.210368,17.3264287 18.6148928,16.8944287 L18.609643,14.8217014 L18.7506371,14.8217014 C19.1653698,14.8217014 19.5006059,14.4966105 19.5006059,14.0944287 L19.5006059,8.23624684 C19.5006059,8.21588321 19.4901063,8.19915593 19.4886064,8.1787923 C19.4901063,8.15915593 19.5006059,8.14170139 19.5006059,8.12133775 L19.5006059,5.17224684 L23.3929436,4.44133775 C23.7994267,4.36570139 24.0649156,3.98388321 23.9861689,3.58897411 C23.9074222,3.19551957 23.5159385,2.93442866 23.1064555,3.01442866 Z M6.65139147,19.7286105 C6.16241186,19.7286105 5.76417846,19.3162468 5.76417846,18.8086105 C5.76417846,18.3009741 6.16166189,17.8893378 6.65139147,17.8893378 C7.13962112,17.8893378 7.53785452,18.3009741 7.53785452,18.8086105 C7.53785452,19.3162468 7.13962112,19.7286105 6.65139147,19.7286105 Z M17.2162011,19.7286105 C16.7279714,19.7286105 16.329738,19.3162468 16.329738,18.8086105 C16.329738,18.3009741 16.7272215,17.8893378 17.2162011,17.8893378 C17.7051807,17.8893378 18.1026641,18.3009741 18.1026641,18.8086105 C18.1026641,19.3162468 17.7044307,19.7286105 17.2162011,19.7286105 Z M2.17482808,8.96351957 L17.9999184,8.96351957 L17.9999184,13.3671559 L5.29169815,13.3671559 L2.17482808,8.96351957 Z" fill="#000000" fill-rule="nonzero"></path>
    </g>
</svg>