<svg width="24px" height="24px" viewBox="0 0 24 24" version="1.1" xmlns="http://www.w3.org/2000/svg" xmlns:xlink="http://www.w3.org/1999/xlink">
    <g class="chat" stroke="none" stroke-width="1" fill="none" fill-rule="evenodd">
        <path d="M4.31175,18.4745 C4.36275,18.506 4.37475,18.527 4.38375,18.57575 C4.45425,18.959 4.011,19.793 3.66375,20.2475 C3.507,20.453 3.4665,20.72525 3.55725,20.96675 C3.648,21.20825 3.85575,21.3875 4.10925,21.43925 C4.31775,21.48125 4.51725,21.5 4.70775,21.5 C5.87625,21.5 6.6945,20.7785 7.2135,20.32175 C7.3245,20.2235 7.46775,20.09675 7.56225,20.02925 C8.66325,20.282 10.359,20.48225 11.4345,20.48225 C12.033,20.48225 12.63225,20.4395 13.2225,20.36525 C14.121,20.65625 15.0975,20.82125 16.12125,20.82125 C16.8315,20.82125 17.8905,20.7005 18.6465,20.53775 C18.68625,20.57225 18.7275,20.61125 18.77325,20.651 C19.1325,20.96825 19.7355,21.5 20.61075,21.5 C20.75325,21.5 20.9025,21.48575 21.05925,21.45425 C21.312,21.4025 21.51975,21.224 21.61125,20.9825 C21.702,20.741 21.6615,20.468 21.50475,20.26325 C21.2925,19.9835 21.09825,19.5905 21.0735,19.4015 C22.90725,18.233 24,16.37075 24,14.40425 C24,13.193 23.57775,12.06275 22.8585,11.09525 C22.761,6.06725 17.6775,2 11.43375,2 C5.12925,2 0,6.14525 0,11.24075 C0.00075,14.0945 1.6125,16.79825 4.31175,18.4745 Z M20.21475,18.16925 C19.88025,18.377 19.6665,18.6905 19.59675,19.07525 C19.5795,19.16975 19.572,19.265 19.5735,19.36025 C19.341,19.1705 19.0755,19.0025 18.73725,19.0025 C18.6765,19.0025 18.564,19.01675 18.504,19.031 C17.86875,19.18775 16.7775,19.3205 16.12125,19.3205 C12.60375,19.3205 9.74175,17.1155 9.74175,14.4035 C9.74175,11.693 12.603,9.48725 16.12125,9.48725 C19.6395,9.48725 22.50075,11.69225 22.50075,14.4035 C22.50075,15.8945 21.6675,17.267 20.21475,18.16925 Z M11.4345,3.5 C16.1085,3.5 20.028,6.03125 21.081,9.425 C19.72575,8.528 18,7.988 16.12125,7.988 C11.7765,7.988 8.24175,10.8665 8.24175,14.40425 C8.24175,16.1765 9.129,17.78375 10.56075,18.9455 C9.62175,18.8765 8.50275,18.7175 7.7745,18.5375 C7.1415,18.38 6.654,18.81425 6.22125,19.196 C6.042,19.35425 5.8725,19.49825 5.70525,19.619 C5.85375,19.19675 5.93775,18.7385 5.859,18.30725 C5.7735,17.837 5.51175,17.45375 5.10225,17.1995 C2.847,15.79925 1.5,13.571 1.5,11.24 C1.50075,6.9725 5.95725,3.5 11.4345,3.5 Z" fill="#000000" fill-rule="nonzero"></path>
    </g>
</svg>