<?xml version="1.0" encoding="utf-8"?>
<!-- Generator: Adobe Illustrator 17.1.0, SVG Export Plug-In . SVG Version: 6.00 Build 0)  -->
<!DOCTYPE svg PUBLIC "-//W3C//DTD SVG 1.1//EN" "http://www.w3.org/Graphics/SVG/1.1/DTD/svg11.dtd">
<svg version="1.1" id="Layer_1" xmlns="http://www.w3.org/2000/svg" xmlns:xlink="http://www.w3.org/1999/xlink" x="0px" y="0px"
	 viewBox="0 0 50 50" enable-background="new 0 0 50 50" xml:space="preserve">
<path d="M15.526,33.729c0.068,0.042,0.084,0.07,0.096,0.135c0.094,0.511-0.497,1.623-0.96,2.229
	c-0.209,0.274-0.263,0.637-0.142,0.959s0.398,0.561,0.736,0.63c0.278,0.056,0.544,0.081,0.798,0.081
	c1.558,0,2.649-0.962,3.341-1.571c0.148-0.131,0.339-0.3,0.465-0.39c1.468,0.337,3.729,0.604,5.163,0.604
	c0.798,0,1.597-0.057,2.384-0.156c1.198,0.388,2.5,0.608,3.865,0.608c0.947,0,2.359-0.161,3.367-0.378
	c0.053,0.046,0.108,0.098,0.169,0.151c0.479,0.423,1.283,1.132,2.45,1.132c0.19,0,0.389-0.019,0.598-0.061
	c0.337-0.069,0.614-0.307,0.736-0.629c0.121-0.322,0.067-0.686-0.142-0.959c-0.283-0.373-0.542-0.897-0.575-1.149
	c2.445-1.558,3.902-4.041,3.902-6.663c0-1.615-0.563-3.122-1.522-4.412c-0.13-6.704-6.908-12.127-15.233-12.127
	c-8.406,0-15.245,5.527-15.245,12.321C9.778,27.889,11.927,31.494,15.526,33.729z M36.73,33.322
	c-0.446,0.277-0.731,0.695-0.824,1.208c-0.023,0.126-0.033,0.253-0.031,0.38c-0.31-0.253-0.664-0.477-1.115-0.477
	c-0.081,0-0.231,0.019-0.311,0.038c-0.847,0.209-2.302,0.386-3.177,0.386c-4.69,0-8.506-2.94-8.506-6.556
	c0-3.614,3.815-6.555,8.506-6.555s8.506,2.94,8.506,6.555C39.778,30.289,38.667,32.119,36.73,33.322z M25.023,13.763
	c6.232,0,11.458,3.375,12.862,7.9c-1.807-1.196-4.108-1.916-6.613-1.916c-5.793,0-10.506,3.838-10.506,8.555
	c0,2.363,1.183,4.506,3.092,6.055c-1.252-0.092-2.744-0.304-3.715-0.544c-0.844-0.21-1.494,0.369-2.071,0.878
	c-0.239,0.211-0.465,0.403-0.688,0.564c0.198-0.563,0.31-1.174,0.205-1.749c-0.114-0.627-0.463-1.138-1.009-1.477
	c-3.007-1.867-4.803-4.838-4.803-7.946C11.778,18.393,17.72,13.763,25.023,13.763z"/>
</svg>
