<?xml version="1.0" encoding="utf-8"?>
<!-- Generator: Adobe Illustrator 17.1.0, SVG Export Plug-In . SVG Version: 6.00 Build 0)  -->
<!DOCTYPE svg PUBLIC "-//W3C//DTD SVG 1.1//EN" "http://www.w3.org/Graphics/SVG/1.1/DTD/svg11.dtd">
<svg version="1.1" id="Layer_1" xmlns="http://www.w3.org/2000/svg" xmlns:xlink="http://www.w3.org/1999/xlink" x="0px" y="0px"
	 viewBox="0 0 50 50" enable-background="new 0 0 50 50" xml:space="preserve">
<path fill="#231F20" d="M24.273,41.136c8.822,0,16-7.178,16-16s-7.178-16-16-16s-16,7.178-16,16S15.451,41.136,24.273,41.136z
	 M24.273,11.136c7.72,0,14,6.28,14,14s-6.28,14-14,14s-14-6.28-14-14S16.554,11.136,24.273,11.136z"/>
<path fill="#231F20" d="M29.73,32.007c0.195,0.195,0.451,0.293,0.707,0.293s0.512-0.098,0.707-0.293
	c0.391-0.391,0.391-1.023,0-1.414l-5.871-5.871V13.926c0-0.552-0.447-1-1-1s-1,0.448-1,1v11.21c0,0.265,0.105,0.52,0.293,0.707
	L29.73,32.007z"/>
</svg>
