<svg width="24px" height="24px" viewBox="0 0 24 24" version="1.1" xmlns="http://www.w3.org/2000/svg" xmlns:xlink="http://www.w3.org/1999/xlink">
    <g class="clock" stroke="none" stroke-width="1" fill="none" fill-rule="evenodd">
        <path d="M12,24 C5.3835,24 0,18.6165 0,12 C0,5.3835 5.3835,0 12,0 C18.6165,0 24,5.3835 24,12 C24,18.6165 18.6165,24 12,24 Z M12,1.5 C6.21075,1.5 1.5,6.21 1.5,12 C1.5,17.79 6.21,22.5 12,22.5 C17.79,22.5 22.5,17.79 22.5,12 C22.5,6.21 17.79,1.5 12,1.5 Z M15.8036364,16.7323636 L11.3207273,12.2494545 C11.184,12.1134545 11.1076364,11.928 11.1076364,11.7352727 L11.1076364,3.58254545 C11.1076364,3.18109091 11.4327273,2.85527273 11.8349091,2.85527273 C12.2370909,2.85527273 12.5621818,3.18109091 12.5621818,3.58254545 L12.5621818,11.4341818 L16.832,15.704 C17.1163636,15.9883636 17.1163636,16.448 16.832,16.7323636 C16.6901818,16.8741818 16.504,16.9454545 16.3178182,16.9454545 C16.1316364,16.9454545 15.9454545,16.8741818 15.8036364,16.7323636 Z" fill="#231F20" fill-rule="nonzero"></path>
    </g>
</svg>