<svg viewBox="0 0 24 24" version="1.1" xmlns="http://www.w3.org/2000/svg" xmlns:xlink="http://www.w3.org/1999/xlink">
    <g class="close" stroke="none" stroke-width="1" fill="none" fill-rule="evenodd">
        <path d="M0.738909091,23.1541818 C0.880727273,23.296 1.06690909,23.3665455 1.25309091,23.3665455 C1.43927273,23.3665455 1.62545455,23.2952727 1.768,23.1534545 L12.1621818,12.7469091 L22.5563636,23.1534545 C22.6981818,23.296 22.8843636,23.3665455 23.0712727,23.3665455 C23.2574545,23.3665455 23.4436364,23.2952727 23.5854545,23.1541818 C23.8698182,22.8705455 23.8698182,22.4101818 23.5861818,22.1258182 L13.2021818,11.7301818 L23.5854545,1.33527273 C23.8690909,1.05090909 23.8690909,0.590545455 23.5847273,0.306909091 C23.2996364,0.0225454545 22.84,0.0225454545 22.5563636,0.307636364 L12.1614545,10.7141818 L1.76727273,0.307636364 C1.48290909,0.0232727273 1.02254545,0.0232727273 0.738909091,0.306909091 C0.454545455,0.590545455 0.454545455,1.05090909 0.738181818,1.33527273 L11.1207273,11.7301818 L0.738181818,22.1258182 C0.454545455,22.4094545 0.454545455,22.8705455 0.738909091,23.1541818 Z" fill="#231F20"></path>
    </g>
</svg>