<?xml version="1.0" encoding="utf-8"?>
<!-- Generator: Adobe Illustrator 17.1.0, SVG Export Plug-In . SVG Version: 6.00 Build 0)  -->
<!DOCTYPE svg PUBLIC "-//W3C//DTD SVG 1.1//EN" "http://www.w3.org/Graphics/SVG/1.1/DTD/svg11.dtd">
<svg version="1.1" id="Layer_1" xmlns="http://www.w3.org/2000/svg" xmlns:xlink="http://www.w3.org/1999/xlink" x="0px" y="0px"
	 viewBox="0 0 50 50" enable-background="new 0 0 50 50" xml:space="preserve">
<path fill="#231F20" d="M23.76,41.231c8.822,0,16-7.178,16-16s-7.178-16-16-16s-16,7.178-16,16S14.938,41.231,23.76,41.231z
	 M23.76,11.231c7.72,0,14,6.28,14,14s-6.28,14-14,14s-14-6.28-14-14S16.04,11.231,23.76,11.231z"/>
<path fill="#231F20" d="M16.76,33.231c0.148,0,0.299-0.033,0.438-0.102l9.403-4.594c0.2-0.098,0.362-0.259,0.459-0.459l4.597-9.406
	c0.188-0.384,0.111-0.844-0.191-1.146c-0.301-0.301-0.761-0.379-1.146-0.191l-9.406,4.597c-0.2,0.098-0.362,0.259-0.459,0.459
	l-4.594,9.403c-0.188,0.384-0.111,0.844,0.191,1.146C16.245,33.13,16.5,33.231,16.76,33.231z M22.101,23.576l6.481-3.167
	l-3.167,6.481l-6.479,3.165L22.101,23.576z"/>
</svg>
