<svg width="24px" height="24px" viewBox="0 0 24 24" version="1.1" xmlns="http://www.w3.org/2000/svg" xmlns:xlink="http://www.w3.org/1999/xlink">
    <g class="compass" stroke="none" stroke-width="1" fill="none" fill-rule="evenodd">
        <path d="M12,24 C5.3835,24 0,18.6165 0,12 C0,5.3835 5.3835,0 12,0 C18.6165,0 24,5.3835 24,12 C24,18.6165 18.6165,24 12,24 Z M12,1.5 C6.21,1.5 1.5,6.21 1.5,12 C1.5,17.79 6.21,22.5 12,22.5 C17.79,22.5 22.5,17.79 22.5,12 C22.5,6.21 17.79,1.5 12,1.5 Z M7.09818182,17.6225455 C6.90909091,17.6225455 6.72363636,17.5490909 6.58327273,17.4094545 C6.36363636,17.1898182 6.30763636,16.8552727 6.44436364,16.576 L9.78545455,9.73745455 C9.856,9.592 9.97381818,9.47490909 10.1192727,9.40363636 L16.96,6.06036364 C17.24,5.92363636 17.5745455,5.98036364 17.7934545,6.19927273 C18.0130909,6.41890909 18.0690909,6.75345455 17.9323636,7.03272727 L14.5890909,13.8734545 C14.5185455,14.0189091 14.4007273,14.136 14.2552727,14.2072727 L7.41672727,17.5483636 C7.31563636,17.5985455 7.20581818,17.6225455 7.09818182,17.6225455 Z M10.9825455,10.6007273 L8.68072727,15.3127273 L13.3927273,13.0109091 L15.696,8.29745455 L10.9825455,10.6007273 Z" fill="#231F20" fill-rule="nonzero"></path>
    </g>
</svg>