<svg viewBox="0 0 24 24" version="1.1" xmlns="http://www.w3.org/2000/svg" xmlns:xlink="http://www.w3.org/1999/xlink">
    <g class="connection" stroke="none" stroke-width="1" fill="none" fill-rule="evenodd">
        <path d="M1.29541839,23.9838182 C0.856347439,23.9838182 0.5,23.658 0.5,23.2565455 L0.5,17.9372727 C0.5,17.5350909 0.856347439,17.21 1.29541839,17.21 L4.70458161,17.21 C5.14365256,17.21 5.5,17.5350909 5.5,17.9372727 L5.5,23.2565455 C5.5,23.6587273 5.14365256,23.9838182 4.70458161,23.9838182 L1.29541839,23.9838182 Z M2.09083678,18.6638182 L2.09083678,22.5285455 L3.90916322,22.5285455 L3.90916322,18.6638182 L2.09083678,18.6638182 Z M10.7045816,12.35 C11.1436526,12.35 11.5,12.6750909 11.5,13.0772727 L11.5,23.2590909 C11.5,23.6612727 11.1436526,23.9863636 10.7045816,23.9863636 L7.29541839,23.9863636 C6.85634744,23.9863636 6.5,23.6612727 6.5,23.2590909 L6.5,13.0772727 C6.5,12.6750909 6.85634744,12.35 7.29541839,12.35 L10.7045816,12.35 Z M9.90916322,22.5318182 L9.90916322,13.8045455 L8.09083678,13.8045455 L8.09083678,22.5318182 L9.90916322,22.5318182 Z M12.5,8.24727273 C12.5,7.84509091 12.8563474,7.52 13.2954184,7.52 L16.7045816,7.52 C17.1436526,7.52 17.5,7.84509091 17.5,8.24727273 L17.5,23.2581818 C17.5,23.6603636 17.1436526,23.9854545 16.7045816,23.9854545 L13.2954184,23.9854545 C12.8563474,23.9854545 12.5,23.6603636 12.5,23.2581818 L12.5,8.24727273 Z M14.0908368,8.97454545 L14.0908368,22.5309091 L15.9091632,22.5309091 L15.9091632,8.97454545 L14.0908368,8.97454545 Z M18.5,0.75 C18.5,0.33525 18.8563474,1.33226763e-15 19.2954184,0 L22.7045816,0 C23.1436526,0 23.5,0.33525 23.5,0.75 L23.5,23.25 C23.5,23.66475 23.1436526,24 22.7045816,24 L19.2954184,24 C18.8563474,24 18.5,23.66475 18.5,23.25 L18.5,0.75 Z M20.0908368,1.5 L20.0908368,22.5 L21.9091632,22.5 L21.9091632,1.5 L20.0908368,1.5 Z" fill="#231F20" fill-rule="nonzero"></path>
    </g>
</svg>