<?xml version="1.0" encoding="utf-8"?>
<!-- Generator: Adobe Illustrator 17.1.0, SVG Export Plug-In . SVG Version: 6.00 Build 0)  -->
<!DOCTYPE svg PUBLIC "-//W3C//DTD SVG 1.1//EN" "http://www.w3.org/Graphics/SVG/1.1/DTD/svg11.dtd">
<svg version="1.1" id="Layer_1" xmlns="http://www.w3.org/2000/svg" xmlns:xlink="http://www.w3.org/1999/xlink" x="0px" y="0px"
	 viewBox="0 0 50 50" enable-background="new 0 0 50 50" xml:space="preserve">
<path fill="#231F20" d="M9.037,40.763h4.286c0.552,0,1-0.447,1-1v-7.314c0-0.553-0.448-1-1-1H9.037c-0.552,0-1,0.447-1,1v7.314
	C8.037,40.315,8.485,40.763,9.037,40.763z M10.037,33.448h2.286v5.314h-2.286V33.448z"/>
<path fill="#231F20" d="M33.751,9.763v30c0,0.553,0.448,1,1,1h4.286c0.552,0,1-0.447,1-1v-30c0-0.553-0.448-1-1-1h-4.286
	C34.199,8.763,33.751,9.21,33.751,9.763z M35.751,10.763h2.286v28h-2.286V10.763z"/>
<path fill="#231F20" d="M21.891,24.909h-4.286c-0.552,0-1,0.447-1,1v14c0,0.553,0.448,1,1,1h4.286c0.552,0,1-0.447,1-1v-14
	C22.891,25.356,22.443,24.909,21.891,24.909z M20.891,38.909h-2.286v-12h2.286V38.909z"/>
<path fill="#231F20" d="M25.177,19.27v20.64c0,0.553,0.448,1,1,1h4.286c0.552,0,1-0.447,1-1V19.27c0-0.553-0.448-1-1-1h-4.286
	C25.625,18.27,25.177,18.717,25.177,19.27z M27.177,20.27h2.286v18.64h-2.286V20.27z"/>
</svg>
