<?xml version="1.0" encoding="utf-8"?>
<!-- Generator: Adobe Illustrator 17.1.0, SVG Export Plug-In . SVG Version: 6.00 Build 0)  -->
<!DOCTYPE svg PUBLIC "-//W3C//DTD SVG 1.1//EN" "http://www.w3.org/Graphics/SVG/1.1/DTD/svg11.dtd">
<svg version="1.1" id="Layer_1" xmlns="http://www.w3.org/2000/svg" xmlns:xlink="http://www.w3.org/1999/xlink" x="0px" y="0px"
	 viewBox="0 0 50 50" enable-background="new 0 0 50 50" xml:space="preserve">
<path d="M41.324,10.031h-30c-0.553,0-1,0.447-1,1v22.922c0,0.553,0.447,1,1,1h14v3.078h-6.337c-0.553,0-1,0.447-1,1s0.447,1,1,1
	h14.674c0.553,0,1-0.447,1-1s-0.447-1-1-1h-6.337v-3.078h14c0.553,0,1-0.447,1-1V11.031C42.324,10.479,41.877,10.031,41.324,10.031z
	 M40.324,12.031v14.026h-28V12.031H40.324z M12.324,32.953v-4.896h28v4.896H12.324z"/>
<ellipse cx="26.324" cy="30.595" rx="0.915" ry="0.923"/>
</svg>
