<svg width="24px" height="24px" viewBox="0 0 24 24" version="1.1" xmlns="http://www.w3.org/2000/svg" xmlns:xlink="http://www.w3.org/1999/xlink">
    <g class="display" stroke="none" stroke-width="1" fill="none" fill-rule="evenodd">
        <path d="M23.25,1 C23.66475,1 24,1.32853333 24,1.73333333 L24,18.5428 C24,18.9483333 23.66475,19.2761333 23.25,19.2761333 L12.75,19.2761333 L12.75,21.5333333 L17.50275,21.5333333 C17.9175,21.5333333 18.25275,21.8611333 18.25275,22.2666667 C18.25275,22.6722 17.9175,23 17.50275,23 L6.49725,23 C6.0825,23 5.74725,22.6722 5.74725,22.2666667 C5.74725,21.8611333 6.0825,21.5333333 6.49725,21.5333333 L11.25,21.5333333 L11.25,19.2761333 L0.75,19.2761333 C0.33525,19.2761333 0,18.9483333 0,18.5428 L0,1.73333333 C0,1.3278 0.33525,1 0.75,1 L23.25,1 Z M22.5,2.46666667 L1.5,2.46666667 L1.5,12.7524 L22.5,12.7524 L22.5,2.46666667 Z M1.5,17.8094667 L22.5,17.8094667 L22.5,14.2190667 L1.5,14.2190667 L1.5,17.8094667 Z M11.872,16.6494545 C11.5044796,16.6494545 11.2065455,16.3489155 11.2065455,15.9781818 C11.2065455,15.6074481 11.5044796,15.3069091 11.872,15.3069091 C12.2395204,15.3069091 12.5374545,15.6074481 12.5374545,15.9781818 C12.5374545,16.3489155 12.2395204,16.6494545 11.872,16.6494545 Z" fill="#000000" fill-rule="nonzero"></path>
    </g>
</svg>