<svg viewBox="0 0 24 24" version="1.1" xmlns="http://www.w3.org/2000/svg" xmlns:xlink="http://www.w3.org/1999/xlink">c>
    <g class="download" stroke="none" stroke-width="1" fill="none" fill-rule="evenodd">
        <path d="M1.72727273,18 C2.12945455,18 2.45454545,18.3305053 2.45454545,18.7377352 L2.45454545,22.5245297 L21.3636364,22.5245297 L21.3636364,18.7377352 C21.3636364,18.3305053 21.6887273,18 22.0909091,18 C22.4930909,18 22.8181818,18.3305053 22.8181818,18.7377352 L22.8181818,23.2622648 C22.8181818,23.6694947 22.4930909,24 22.0909091,24 L1.72727273,24 C1.32509091,24 1,23.6694947 1,23.2622648 L1,18.7377352 C1,18.3305053 1.32509091,18 1.72727273,18 Z M11.9090909,0 C12.3112727,0 12.6363636,0.329093369 12.6363636,0.734583414 L12.6363636,16.5354726 L17.2465455,12.0332109 C17.5352727,11.7511309 17.9956364,11.7592113 18.2749091,12.0508409 C18.5541818,12.3424705 18.5461818,12.8074618 18.2581818,13.0895419 L12.4138182,18.7935821 C12.384,18.8229654 12.3461818,18.8369225 12.3127273,18.8596946 C12.2705455,18.8898125 12.232,18.9243379 12.1832727,18.9441717 C12.0952727,18.9801662 12.0021818,19 11.9083636,19 C11.8145455,19 11.7214545,18.9809008 11.6334545,18.9441717 C11.5810909,18.9228687 11.5389091,18.8861396 11.4938182,18.8530833 C11.4647273,18.8317804 11.4305455,18.8207616 11.4036364,18.7943166 L11.3949091,18.7862362 C11.3941818,18.7855016 11.3941818,18.7855016 11.3934545,18.7847671 L5.55854545,13.091011 C5.26981818,12.808931 5.26181818,12.3439397 5.54109091,12.0523101 C5.81963636,11.7606805 6.28145455,11.7526 6.56872727,12.0346801 L11.1818182,16.5354726 L11.1818182,0.734583414 C11.1818182,0.329093369 11.5069091,0 11.9090909,0 Z" fill="#231F20"></path>
    </g>
</svg>