<?xml version="1.0" encoding="utf-8"?>
<!-- Generator: Adobe Illustrator 17.1.0, SVG Export Plug-In . SVG Version: 6.00 Build 0)  -->
<!DOCTYPE svg PUBLIC "-//W3C//DTD SVG 1.1//EN" "http://www.w3.org/Graphics/SVG/1.1/DTD/svg11.dtd">
<svg version="1.1" id="Layer_1" xmlns="http://www.w3.org/2000/svg" xmlns:xlink="http://www.w3.org/1999/xlink" x="0px" y="0px"
	 viewBox="0 0 50 50" enable-background="new 0 0 50 50" xml:space="preserve">
<path fill="#231F20" d="M11,32.996c-0.553,0-1,0.448-1,1v6.133c0,0.552,0.447,1,1,1h28c0.553,0,1-0.448,1-1v-6.133
	c0-0.552-0.447-1-1-1s-1,0.448-1,1v5.133H12v-5.133C12,33.444,11.553,32.996,11,32.996z"/>
<path fill="#231F20" d="M25,9.129c-0.553,0-1,0.448-1,1v21.51l-6.343-6.127c-0.395-0.384-1.03-0.373-1.413,0.024
	c-0.384,0.397-0.373,1.03,0.024,1.414l8.023,7.751c0.001,0.001,0.001,0.001,0.002,0.002l0.012,0.011
	c0.037,0.036,0.084,0.051,0.124,0.08c0.062,0.045,0.12,0.095,0.192,0.124c0.121,0.05,0.249,0.076,0.378,0.076
	s0.257-0.027,0.378-0.076c0.067-0.027,0.12-0.074,0.178-0.115c0.046-0.031,0.098-0.05,0.139-0.09l8.036-7.765
	c0.396-0.384,0.407-1.017,0.023-1.414c-0.384-0.397-1.017-0.408-1.414-0.024L26,31.639v-21.51C26,9.577,25.553,9.129,25,9.129z"/>
</svg>
