<?xml version="1.0" encoding="UTF-8"?>
<svg viewBox="0 0 24 24" version="1.1" xmlns="http://www.w3.org/2000/svg" xmlns:xlink="http://www.w3.org/1999/xlink">
    <!-- Generator: Sketch 57.1 (83088) - https://sketch.com -->
    <title>drag</title>
    <desc>Created with Sketch.</desc>
    <g id="drag" stroke="none" stroke-width="1" fill="none" fill-rule="evenodd">
        <g id="drag-(1)" transform="translate(0.000000, 8.000000)" fill="#000000" fill-rule="nonzero">
            <path d="M11.9999883,0 C10.018295,0 8.37310266,1.44175 8.05560173,3.33334375 L2.27611604,3.33334375 L3.80471427,1.80475 C4.06505878,1.54440625 4.06505878,1.12228125 3.80471427,0.8619375 C3.54436976,0.60159375 3.12224352,0.60159375 2.86189901,0.8619375 L0.195203697,3.52859375 C0.195078697,3.52871875 0.195016196,3.52884375 0.194891196,3.5289375 C0.179484901,3.544375 0.164891108,3.5605625 0.151047318,3.5774375 C0.144703549,3.58515625 0.139203533,3.59328125 0.133266015,3.60121875 C0.126172245,3.6106875 0.118828473,3.61996875 0.112234704,3.62984375 C0.105890935,3.63934375 0.100390919,3.6491875 0.0945784021,3.6589375 C0.0892346364,3.667875 0.08364087,3.67659375 0.0787033556,3.68578125 C0.07339084,3.69571875 0.0688908268,3.70590625 0.0641095628,3.7160625 C0.0595782995,3.72565625 0.0547970355,3.73509375 0.0507032735,3.74490625 C0.0466407616,3.75475 0.0433282519,3.7648125 0.0397657415,3.7748125 C0.0359844804,3.78534375 0.0319532186,3.79571875 0.0287032091,3.80646875 C0.0256719502,3.81646875 0.0234531937,3.82665625 0.0209219363,3.83675 C0.0181406781,3.84771875 0.0150781692,3.8585625 0.0128594127,3.86971875 C0.0105469059,3.8814375 0.00914065178,3.89325 0.00745314684,3.90503125 C0.00607814281,3.91475 0.00420313731,3.9243125 0.00323438448,3.9341875 C-0.00107812816,3.9779375 -0.00107812816,4.02203125 0.00323438448,4.06578125 C0.00420313731,4.075625 0.00604689272,4.08521875 0.00745314684,4.0949375 C0.00914065178,4.10671875 0.0105156558,4.11853125 0.0128281626,4.13025 C0.0150469191,4.1414375 0.0181094281,4.15228125 0.0208906862,4.16325 C0.0234219436,4.17334375 0.0256407001,4.18353125 0.028671959,4.19353125 C0.0319219685,4.20428125 0.0359532303,4.2146875 0.0397344914,4.2251875 C0.0433282519,4.2351875 0.0466095116,4.24525 0.0506720235,4.25509375 C0.0547657854,4.2649375 0.0595470495,4.274375 0.0640783127,4.28396875 C0.0688595767,4.29409375 0.0733283398,4.30428125 0.0786408554,4.31421875 C0.0835783699,4.3234375 0.0892033863,4.3321875 0.094547152,4.341125 C0.100359669,4.35084375 0.105859685,4.3606875 0.112203454,4.37015625 C0.118828473,4.38003125 0.126172245,4.38934375 0.133297266,4.39884375 C0.139234783,4.40675 0.144703549,4.41484375 0.151016067,4.4225625 C0.164953608,4.4395625 0.179641151,4.45590625 0.195172447,4.4714375 L2.86183651,7.13809375 C3.12218102,7.3984375 3.54430726,7.3984375 3.80465177,7.13809375 C4.06499628,6.87775 4.06499628,6.455625 3.80465177,6.19528125 L2.27605354,4.6666875 L8.05560173,4.6666875 C8.37310266,6.55825 10.018295,8 11.9999883,8 C14.2088385,8 16,6.20884375 16,4 C16,1.79115625 14.2088385,0 11.9999883,0 Z M11.9999883,6.66665625 C10.5275152,6.66665625 9.33332422,5.47246875 9.33332422,4 C9.33332422,2.52753125 10.5275152,1.33334375 11.9999883,1.33334375 C13.4724613,1.33334375 14.6666523,2.52753125 14.6666523,4 C14.6666523,5.47246875 13.4724613,6.66665625 11.9999883,6.66665625 Z" id="Shape"></path>
        </g>
        <g id="drag-(1)" transform="translate(16.000000, 12.000000) rotate(180.000000) translate(-16.000000, -12.000000) translate(8.000000, 8.000000)" fill="#000000" fill-rule="nonzero">
            <path d="M11.9999883,0 C10.018295,0 8.37310266,1.44175 8.05560173,3.33334375 L2.27611604,3.33334375 L3.80471427,1.80475 C4.06505878,1.54440625 4.06505878,1.12228125 3.80471427,0.8619375 C3.54436976,0.60159375 3.12224352,0.60159375 2.86189901,0.8619375 L0.195203697,3.52859375 C0.195078697,3.52871875 0.195016196,3.52884375 0.194891196,3.5289375 C0.179484901,3.544375 0.164891108,3.5605625 0.151047318,3.5774375 C0.144703549,3.58515625 0.139203533,3.59328125 0.133266015,3.60121875 C0.126172245,3.6106875 0.118828473,3.61996875 0.112234704,3.62984375 C0.105890935,3.63934375 0.100390919,3.6491875 0.0945784021,3.6589375 C0.0892346364,3.667875 0.08364087,3.67659375 0.0787033556,3.68578125 C0.07339084,3.69571875 0.0688908268,3.70590625 0.0641095628,3.7160625 C0.0595782995,3.72565625 0.0547970355,3.73509375 0.0507032735,3.74490625 C0.0466407616,3.75475 0.0433282519,3.7648125 0.0397657415,3.7748125 C0.0359844804,3.78534375 0.0319532186,3.79571875 0.0287032091,3.80646875 C0.0256719502,3.81646875 0.0234531937,3.82665625 0.0209219363,3.83675 C0.0181406781,3.84771875 0.0150781692,3.8585625 0.0128594127,3.86971875 C0.0105469059,3.8814375 0.00914065178,3.89325 0.00745314684,3.90503125 C0.00607814281,3.91475 0.00420313731,3.9243125 0.00323438448,3.9341875 C-0.00107812816,3.9779375 -0.00107812816,4.02203125 0.00323438448,4.06578125 C0.00420313731,4.075625 0.00604689272,4.08521875 0.00745314684,4.0949375 C0.00914065178,4.10671875 0.0105156558,4.11853125 0.0128281626,4.13025 C0.0150469191,4.1414375 0.0181094281,4.15228125 0.0208906862,4.16325 C0.0234219436,4.17334375 0.0256407001,4.18353125 0.028671959,4.19353125 C0.0319219685,4.20428125 0.0359532303,4.2146875 0.0397344914,4.2251875 C0.0433282519,4.2351875 0.0466095116,4.24525 0.0506720235,4.25509375 C0.0547657854,4.2649375 0.0595470495,4.274375 0.0640783127,4.28396875 C0.0688595767,4.29409375 0.0733283398,4.30428125 0.0786408554,4.31421875 C0.0835783699,4.3234375 0.0892033863,4.3321875 0.094547152,4.341125 C0.100359669,4.35084375 0.105859685,4.3606875 0.112203454,4.37015625 C0.118828473,4.38003125 0.126172245,4.38934375 0.133297266,4.39884375 C0.139234783,4.40675 0.144703549,4.41484375 0.151016067,4.4225625 C0.164953608,4.4395625 0.179641151,4.45590625 0.195172447,4.4714375 L2.86183651,7.13809375 C3.12218102,7.3984375 3.54430726,7.3984375 3.80465177,7.13809375 C4.06499628,6.87775 4.06499628,6.455625 3.80465177,6.19528125 L2.27605354,4.6666875 L8.05560173,4.6666875 C8.37310266,6.55825 10.018295,8 11.9999883,8 C14.2088385,8 16,6.20884375 16,4 C16,1.79115625 14.2088385,0 11.9999883,0 Z M11.9999883,6.66665625 C10.5275152,6.66665625 9.33332422,5.47246875 9.33332422,4 C9.33332422,2.52753125 10.5275152,1.33334375 11.9999883,1.33334375 C13.4724613,1.33334375 14.6666523,2.52753125 14.6666523,4 C14.6666523,5.47246875 13.4724613,6.66665625 11.9999883,6.66665625 Z" id="Shape"></path>
        </g>
    </g>
</svg>