<svg width="24px" height="24px" viewBox="0 0 24 24" version="1.1" xmlns="http://www.w3.org/2000/svg" xmlns:xlink="http://www.w3.org/1999/xlink">
    <g class="drop" stroke="none" stroke-width="1" fill="none" fill-rule="evenodd">
        <path d="M12,24 C16.96275,24 21,20.109 21,15.327 C21,13.7415 20.55075,12.189 19.68825,10.818 L12.615,0.33075 C12.4755,0.12375 12.24225,0 11.99325,0 C11.7435,0 11.51025,0.1245 11.3715,0.33075 L4.2945,10.84425 C3.44775,12.19275 3,13.743 3,15.32625 C3,20.109 7.03725,24 12,24 Z M5.5515,11.6625 L11.994,2.0925 L18.432,11.637 C19.13175,12.7485 19.50075,14.025 19.50075,15.327 C19.50075,19.2825 16.13625,22.5 12.00075,22.5 C7.86525,22.5 4.50075,19.28175 4.50075,15.327 C4.5,14.02575 4.869,12.7515 5.5515,11.6625 Z" fill="#231F20" fill-rule="nonzero"></path>
    </g>
</svg>