<svg width="55" height="20" viewBox="0 0 55 20" fill="none" xmlns="http://www.w3.org/2000/svg">
<path d="M7.99824 4.45063C8.59995 4.25334 9.24365 4.14623 9.91343 4.14623C12.8365 4.14623 15.2747 6.18309 15.834 8.88889L19.9762 8.06036C19.0257 3.46168 14.8821 0 9.91343 0C8.77584 0 7.68085 0.181795 6.65869 0.516688L7.99824 4.45063Z" fill="#FECA2F"/>
<path d="M3.06883 17.7778L5.54895 14.5755C4.44189 13.4557 3.74316 11.8209 3.74316 9.99872C3.74316 8.17788 4.44124 6.5431 5.54797 5.4242L3.06655 2.22224C1.18543 4.12467 0 6.90361 0 9.99872C0 13.0954 1.18716 15.8754 3.06883 17.7778Z" fill="#1BA7DE"/>
<path d="M15.8353 11.1111C15.274 13.8165 12.8374 15.8508 9.91692 15.8508C9.24687 15.8508 8.60191 15.7434 8.00014 15.5455L6.65869 19.4814C7.68243 19.818 8.77777 20 9.91692 20C14.8811 20 19.0219 16.5407 19.9762 11.9438L15.8353 11.1111Z" fill="#EC412A"/>
<path fill-rule="evenodd" clip-rule="evenodd" d="M39.9051 2.22224V13.6028L41.9474 14.4214L40.9813 16.666L38.9616 15.8542C38.5075 15.6638 38.2002 15.3737 37.9667 15.046C37.7425 14.7107 37.5763 14.2525 37.5763 13.6341V2.22224H39.9051ZM24.416 10.6806C24.4668 7.4261 27.2383 4.82821 30.6014 4.87807C33.4559 4.92136 35.8209 6.85469 36.4421 9.42609L25.4022 13.9889C24.7609 13.0408 24.3964 11.9003 24.416 10.6806ZM26.9421 11.1369C26.927 11.0003 26.9162 10.8603 26.9203 10.7191C26.952 8.80161 28.5837 7.27159 30.5651 7.30337C31.6436 7.3173 32.6013 7.79487 33.2487 8.53404L26.9421 11.1369ZM33.0163 13.2498C32.3509 13.8756 31.4486 14.257 30.4523 14.2433C29.7695 14.2322 29.1368 14.0345 28.5988 13.7051L27.2651 15.76C28.1785 16.3183 29.2555 16.6486 30.4165 16.666C32.1066 16.6903 33.647 16.0483 34.767 14.9883L33.0163 13.2498ZM48.405 7.30331C48.0072 7.30331 47.6248 7.36548 47.2676 7.48142L46.473 5.17874C47.0795 4.98289 47.729 4.87651 48.405 4.87651C51.3547 4.87651 53.8153 6.90264 54.3796 9.59413L51.9196 10.0791C51.5881 8.49506 50.1405 7.30331 48.405 7.30331ZM44.366 15.187L46.0282 13.3694C45.2858 12.7339 44.8184 11.8057 44.8184 10.7711C44.8184 9.73751 45.2858 8.80976 46.0275 8.17468L44.3641 6.35706C43.1031 7.43701 42.3085 9.01504 42.3085 10.7711C42.3085 12.5293 43.1037 14.1067 44.366 15.187ZM48.4048 14.2401C50.1388 14.2401 51.5862 13.0494 51.9196 11.4677L54.3789 11.9547C53.8119 14.6433 51.3519 16.6667 48.4048 16.6667C47.7284 16.6667 47.078 16.5599 46.4698 16.3632L47.2664 14.0613C47.6242 14.1769 48.0068 14.2401 48.4048 14.2401Z" fill="black"/>
</svg>
