<svg width="24" height="15" viewBox="0 0 24 15" fill="none" xmlns="http://www.w3.org/2000/svg">
<path d="M2.5 9.78619e-06C2.22385 9.78619e-06 2 0.224647 2 0.501752C2 0.778857 2.22385 1.00349 2.5 1.00349H16.4766L19.0781 5.04095C19.1375 5.13099 19.2267 5.20089 19.3281 5.23695L23 6.61675V11.5401H21.4844C21.3613 10.4134 20.404 9.53313 19.25 9.53313C18.096 9.53313 17.1387 10.4134 17.0156 11.5401H8.98438C8.86128 10.4134 7.90402 9.53313 6.75 9.53313C5.59597 9.53313 4.63872 10.4134 4.51562 11.5401H3V8.52964C3 8.25253 2.77615 8.0279 2.5 8.0279C2.22385 8.0279 2 8.25253 2 8.52964V12.0418C2.00002 12.3045 2.2382 12.5435 2.5 12.5436H4.63282C4.94405 13.4177 5.77657 14.0488 6.75 14.0488C7.72342 14.0488 8.55595 13.4177 8.8672 12.5436H17.1328C17.444 13.4177 18.2766 14.0488 19.25 14.0488C20.2234 14.0488 21.0559 13.4177 21.3672 12.5436H23.5C23.7618 12.5435 24 12.3045 24 12.0418V6.27179C24 6.06803 23.8626 5.87146 23.6719 5.80141L19.8359 4.3589L17.1719 0.227362C17.0808 0.0875237 16.9164 -0.00107147 16.75 9.78619e-06H2.5ZM0.5 2.00698C0.22385 2.00698 0 2.23162 0 2.50872C0 2.78583 0.22385 3.01046 0.5 3.01046H7.5C7.77615 3.01046 8 2.78583 8 2.50872C8 2.23162 7.77615 2.00698 7.5 2.00698H0.5ZM1 4.01395C0.72385 4.01395 0.5 4.23859 0.5 4.51569C0.5 4.7928 0.72385 5.01743 1 5.01743H7.5C7.77615 5.01743 8 4.7928 8 4.51569C8 4.23859 7.77615 4.01395 7.5 4.01395H1ZM2 6.02092C1.72385 6.02092 1.5 6.24555 1.5 6.52264C1.5 6.79978 1.72385 7.02442 2 7.02442H7.5C7.77615 7.02442 8 6.79978 8 6.52264C8 6.24555 7.77615 6.02092 7.5 6.02092H2ZM6.75 10.5366C7.44627 10.5366 8 11.0923 8 11.791C8 12.4896 7.44627 13.0453 6.75 13.0453C6.05373 13.0453 5.5 12.4896 5.5 11.791C5.5 11.0923 6.05373 10.5366 6.75 10.5366ZM19.25 10.5366C19.9463 10.5366 20.5 11.0923 20.5 11.791C20.5 12.4896 19.9463 13.0453 19.25 13.0453C18.5537 13.0453 18 12.4896 18 11.791C18 11.0923 18.5537 10.5366 19.25 10.5366Z" fill="black"/>
</svg>
