<svg width="72" height="72" viewBox="0 0 72 72" fill="none" xmlns="http://www.w3.org/2000/svg">
<path d="M47.73 40.02L55.638 27.942L54.276 26.724L43.257 36.021C41.232 35.607 39.051 36.225 37.575 37.875C35.367 40.344 35.58 44.139 38.052 46.347C40.524 48.555 44.316 48.342 46.524 45.87C48 44.22 48.369 41.985 47.73 40.02V40.02ZM36 8.082V0H48V8.082C43.683 7.353 40.224 7.368 36 8.082ZM62.553 14.274L66.774 10.053L71.016 14.295L67.053 18.258C65.667 16.806 64.161 15.477 62.553 14.274V14.274ZM6 27H30V33H6V27ZM0 39H24V45H0V39ZM9 51H30V57H9V51ZM72 42C72 58.569 58.569 72 42 72C33.63 72 26.1 68.535 20.667 63H30.507C33.921 64.893 37.824 66 42 66C55.233 66 66 55.233 66 42C66 28.767 55.233 18 42 18C37.824 18 33.921 19.107 30.507 21H20.667C26.1 15.465 33.63 12 42 12C58.569 12 72 25.431 72 42Z" fill="black"/>
</svg>
