<?xml version="1.0" encoding="utf-8"?>
<!-- Generator: Adobe Illustrator 17.1.0, SVG Export Plug-In . SVG Version: 6.00 Build 0)  -->
<!DOCTYPE svg PUBLIC "-//W3C//DTD SVG 1.1//EN" "http://www.w3.org/Graphics/SVG/1.1/DTD/svg11.dtd">
<svg version="1.1" id="Layer_1" xmlns="http://www.w3.org/2000/svg" xmlns:xlink="http://www.w3.org/1999/xlink" x="0px" y="0px"
	 viewBox="0 0 50 50" enable-background="new 0 0 50 50" xml:space="preserve">
<path d="M35.75,41.75c0.097,0,0.194-0.014,0.29-0.043c0.422-0.128,0.71-0.517,0.71-0.957v-30c0-0.553-0.447-1-1-1h-20
	c-0.553,0-1,0.447-1,1v30c0,0.44,0.288,0.829,0.71,0.957c0.421,0.129,0.878-0.036,1.122-0.402l9.168-13.752l9.168,13.752
	C35.106,41.588,35.422,41.75,35.75,41.75z M34.75,37.447l-8.168-12.252c-0.186-0.278-0.498-0.445-0.832-0.445
	s-0.646,0.167-0.832,0.445L16.75,37.447V11.75h18V37.447z"/>
</svg>
