<svg viewBox="0 0 24 24" version="1.1" xmlns="http://www.w3.org/2000/svg" xmlns:xlink="http://www.w3.org/1999/xlink">
    <g class="flag" stroke="none" stroke-width="1" fill="none" fill-rule="evenodd">
        <path d="M19.7497596,23.9996336 C19.8225084,23.9996336 19.8952573,23.9891338 19.9672562,23.9673841 C20.2837514,23.8713856 20.4997481,23.57964 20.4997481,23.2496451 L20.4997481,0.74998855 C20.4997481,0.335244882 20.1645032,0 19.7497596,0 L4.74998855,0 C4.33524488,0 4,0.335244882 4,0.74998855 L4,23.2496451 C4,23.57964 4.2159967,23.8713856 4.53249187,23.9673841 C4.84823705,24.0641326 5.19098182,23.9403845 5.37397902,23.6658887 L12.2498741,13.3520462 L19.1257691,23.6658887 C19.2667669,23.8781355 19.5037633,23.9996336 19.7497596,23.9996336 Z M18.999771,20.7724329 L12.8738645,11.5835732 C12.7343667,11.3750763 12.5003702,11.2498283 12.2498741,11.2498283 C11.9993779,11.2498283 11.7653815,11.3750763 11.6258836,11.5835732 L5.4999771,20.7724329 L5.4999771,1.4999771 L18.999771,1.4999771 L18.999771,20.7724329 Z" fill="#000000" fill-rule="nonzero"></path>
    </g>
</svg>