<svg width="29" height="30" viewBox="0 0 29 30" fill="none" xmlns="http://www.w3.org/2000/svg">
<path fill-rule="evenodd" clip-rule="evenodd" d="M9.146 11.4776H0.25768H0.109955C0.788686 2.74776 4.33476 0.107035 13.5722 0.000878839C13.7143 -1.51105e-05 13.8526 -1.52588e-05 13.993 -1.52588e-05H14.2426C14.3834 -1.52588e-05 14.5213 -1.51105e-05 14.6639 0.000878839C15.8339 0.0142881 16.9117 0.068819 17.9051 0.170506C17.8323 0.172964 17.761 0.175422 17.6808 0.184138C17.6064 0.191518 17.5132 0.19706 17.4031 0.203604C16.3101 0.268605 13.5538 0.43252 11.032 3.47901C9.54112 5.28189 9.3934 11.4776 9.3934 11.4776H9.146ZM8.48828 22.1004C7.44615 23.4038 5.94589 23.3162 5.92488 23.3149V28.6122C2.2132 27.1137 0.540169 23.9891 0.103922 18.2278C0.0511787 17.5337 0.0196669 16.9236 0 16.418L9.39362 16.4145L9.38733 16.9741C9.37629 17.9403 9.35483 19.8177 9.3572 19.8803C9.36435 20.1554 9.29484 21.0929 8.48828 22.1004ZM20.8791 0.693909C25.5993 1.95103 27.6438 5.09281 28.1319 11.5471C28.2839 13.5518 28.2664 14.8871 28.2664 14.8871C28.2664 14.8871 28.2841 16.2232 28.1321 18.2276C27.4677 27.0134 23.9257 29.6673 14.6641 29.7739C14.5215 29.7748 13.7145 29.7748 13.5724 29.7739C11.9659 29.7551 10.5367 29.6579 9.25974 29.4679C9.26526 29.4679 9.27076 29.4678 9.27625 29.4678C9.3154 29.4674 9.35381 29.4671 9.3936 29.4643C11.0693 29.3682 13.4023 28.0758 14.7908 25.0692C15.3974 23.7545 15.5603 21.4074 15.5603 21.4074V16.4156H15.5607V16.4142H20.6335H20.8795V11.4772H20.6335H15.5612C15.5612 11.4772 15.5612 11.4765 15.5607 11.4763C15.5607 11.4763 15.5585 11.4711 15.5567 11.4618C15.5565 11.4609 15.5562 11.4596 15.556 11.4583C15.5558 11.4572 15.5556 11.4561 15.5554 11.4553C15.5541 11.4512 15.553 11.447 15.5518 11.4423C15.5503 11.4365 15.5486 11.4299 15.546 11.4218C15.5458 11.4201 15.5455 11.4179 15.5451 11.4156C15.5446 11.4125 15.544 11.4091 15.5438 11.4061C15.54 11.3918 15.5366 11.3779 15.5339 11.359C15.5326 11.3543 15.5318 11.3487 15.531 11.343C15.5305 11.3392 15.5299 11.3354 15.5292 11.3317C15.5257 11.3131 15.5227 11.2944 15.5198 11.2722C15.5177 11.2635 15.517 11.2528 15.5163 11.2426C15.5161 11.2402 15.516 11.2379 15.5158 11.2356C15.5122 11.2121 15.5098 11.1898 15.5069 11.163C15.5065 11.1575 15.5063 11.1517 15.5061 11.1458C15.5058 11.1373 15.5054 11.1286 15.5046 11.1205C15.5043 11.1149 15.5039 11.1093 15.5036 11.1037C15.502 11.0808 15.5005 11.0579 15.5002 11.0322C15.5 11.0246 15.5 11.0166 15.5 11.0085C15.5 11.0004 15.5 10.9923 15.4997 10.9846C15.4997 10.9735 15.4995 10.9624 15.4993 10.9512C15.4988 10.9286 15.4984 10.9055 15.4997 10.8807C15.4997 10.8721 15.5003 10.8628 15.5009 10.8534C15.5013 10.8462 15.5018 10.8388 15.502 10.8317C15.5029 10.7922 15.5044 10.7529 15.5087 10.7091C15.5091 10.7027 15.5098 10.696 15.5106 10.6891C15.5114 10.6817 15.5122 10.6741 15.5127 10.6668C15.5169 10.619 15.5225 10.5707 15.5299 10.5193C15.5304 10.5145 15.5313 10.5094 15.5323 10.5044C15.5332 10.4995 15.5342 10.4947 15.5346 10.49C15.5435 10.4319 15.5531 10.3729 15.5659 10.3108C15.5659 10.3095 15.5663 10.3074 15.5668 10.3054C15.6566 9.87388 15.8493 9.34265 16.2352 8.7408C17.2731 7.12588 20.2205 7.20186 20.7857 7.23181C20.8449 7.23539 20.8782 7.23784 20.8791 7.23784V0.693909ZM9.07208 29.4371L9.07176 29.4371C9.07505 29.4372 9.07835 29.4372 9.08165 29.4373C9.07846 29.4372 9.07527 29.4372 9.07208 29.4371Z" fill="#659AD2"/>
</svg>
