<?xml version="1.0" encoding="utf-8"?>
<!-- Generator: Adobe Illustrator 17.1.0, SVG Export Plug-In . SVG Version: 6.00 Build 0)  -->
<!DOCTYPE svg PUBLIC "-//W3C//DTD SVG 1.1//EN" "http://www.w3.org/Graphics/SVG/1.1/DTD/svg11.dtd">
<svg version="1.1" id="Layer_1" xmlns="http://www.w3.org/2000/svg" xmlns:xlink="http://www.w3.org/1999/xlink" x="0px" y="0px"
	 viewBox="0 0 50 50" enable-background="new 0 0 50 50" xml:space="preserve">
<path fill="#231F20" d="M11.766,40.861c0.151,0.084,0.317,0.125,0.484,0.125c0.185,0,0.369-0.051,0.531-0.153L35.25,26.736v13.487
	c0,0.553,0.448,1,1,1s1-0.447,1-1v-30c0-0.552-0.448-1-1-1s-1,0.448-1,1v13.487L12.781,9.614c-0.309-0.194-0.698-0.205-1.015-0.028
	c-0.318,0.176-0.516,0.511-0.516,0.875v29.525C11.25,40.351,11.448,40.686,11.766,40.861z M13.25,12.27l20.648,12.954L13.25,38.179
	V12.27z"/>
</svg>
