<svg width="24px" height="24px" viewBox="0 0 24 24" version="1.1" xmlns="http://www.w3.org/2000/svg" xmlns:xlink="http://www.w3.org/1999/xlink">
    <g class="forward-2" stroke="none" stroke-width="1" fill="none" fill-rule="evenodd">
        <path d="M3.37527273,23.7285 C3.48509091,23.7915 3.60581818,23.82225 3.72727273,23.82225 C3.86181818,23.82225 3.99563636,23.784 4.11345455,23.7075 L20.4545455,13.13475 L20.4545455,23.25 C20.4545455,23.66475 20.7803636,24 21.1818182,24 C21.5832727,24 21.9090909,23.66475 21.9090909,23.25 L21.9090909,0.75 C21.9090909,0.336 21.5832727,0 21.1818182,0 C20.7803636,0 20.4545455,0.336 20.4545455,0.75 L20.4545455,10.86525 L4.11345455,0.29325 C3.88872727,0.14775 3.60581818,0.1395 3.37527273,0.27225 C3.144,0.40425 3,0.6555 3,0.9285 L3,23.07225 C3,23.346 3.144,23.59725 3.37527273,23.7285 Z M4.45454545,2.28525 L19.4712727,12.00075 L4.45454545,21.717 L4.45454545,2.28525 Z" fill="#231F20" fill-rule="nonzero"></path>
    </g>
</svg>