<svg viewBox="0 0 24 24" version="1.1" xmlns="http://www.w3.org/2000/svg" xmlns:xlink="http://www.w3.org/1999/xlink">
    <g class="forward" stroke="none" stroke-width="1" fill="none" fill-rule="evenodd">
        <path d="M0.380238118,19.2436731 C0.494984532,19.3076731 0.622480547,19.3389458 0.75072654,19.3389458 C0.883472391,19.3389458 1.01621824,19.304764 1.13471454,19.2356731 L11.361395,13.3214913 L11.361395,18.8182185 C11.361395,19.0793094 11.5061404,19.320764 11.7408831,19.4502185 C11.8556295,19.5142185 11.9831255,19.5454913 12.1113715,19.5454913 C12.2441174,19.5454913 12.3768632,19.5113094 12.4953595,19.4422185 L23.6340114,13.000764 C23.8612543,12.8698549 24,12.632764 24,12.376764 C24,12.120764 23.8612543,11.8836731 23.6340114,11.7520367 L12.4953595,5.31058217 C12.2628668,5.17530944 11.9741258,5.17312762 11.7408831,5.30258217 C11.5061404,5.43203671 11.361395,5.67349126 11.361395,5.93530944 L11.361395,11.0182185 L1.13396456,5.10330944 C0.901471829,4.96803671 0.612730852,4.9658549 0.379488141,5.09530944 C0.144745477,5.22476399 0,5.46621853 0,5.72803671 L0,18.6116731 C0,18.872764 0.145495453,19.1142185 0.380238118,19.2436731 Z M12.8613481,7.21603671 L21.7853192,12.3774913 L12.8613481,17.5389458 L12.8613481,7.21603671 Z M1.49995313,7.00876399 L10.4239243,12.1702185 L1.49995313,17.3309458 L1.49995313,7.00876399 Z" fill="#231F20" fill-rule="nonzero"></path>
    </g>
</svg>