<?xml version="1.0" encoding="utf-8"?>
<!-- Generator: Adobe Illustrator 17.1.0, SVG Export Plug-In . SVG Version: 6.00 Build 0)  -->
<!DOCTYPE svg PUBLIC "-//W3C//DTD SVG 1.1//EN" "http://www.w3.org/Graphics/SVG/1.1/DTD/svg11.dtd">
<svg version="1.1" id="Layer_1" xmlns="http://www.w3.org/2000/svg" xmlns:xlink="http://www.w3.org/1999/xlink" x="0px" y="0px"
	 viewBox="0 0 50 50" enable-background="new 0 0 50 50" xml:space="preserve">
<path fill="#231F20" d="M8.641,34.049c0.153,0.088,0.323,0.131,0.494,0.131c0.177,0,0.354-0.047,0.512-0.142l13.636-8.132v7.558
	c0,0.359,0.193,0.691,0.506,0.869c0.153,0.088,0.323,0.131,0.494,0.131c0.177,0,0.354-0.047,0.512-0.142l14.852-8.857
	c0.303-0.18,0.488-0.506,0.488-0.858s-0.185-0.678-0.488-0.859l-14.852-8.857c-0.31-0.186-0.695-0.189-1.006-0.011
	c-0.313,0.178-0.506,0.51-0.506,0.87v6.989L9.646,14.606c-0.31-0.186-0.695-0.189-1.006-0.011c-0.313,0.178-0.506,0.51-0.506,0.87
	V33.18C8.134,33.539,8.328,33.871,8.641,34.049z M25.283,17.511l11.899,7.097l-11.899,7.097V17.511z M10.134,17.226l11.899,7.097
	l-11.899,7.096V17.226z"/>
</svg>
