<svg viewBox="0 0 24 24" version="1.1" xmlns="http://www.w3.org/2000/svg" xmlns:xlink="http://www.w3.org/1999/xlink">
    <g class="gift" stroke="none" stroke-width="1" fill="none" fill-rule="evenodd">
        <path d="M23.2790909,6.27709091 L16.8463409,6.27709091 C17.6428409,5.46545455 18.1175909,4.45309091 18.1175909,3.53090909 C18.1175909,2.86327273 17.8813409,2.28581818 17.4343409,1.86327273 C16.9918409,1.44436364 16.3910909,1.22254545 15.6973409,1.22254545 C14.6810909,1.22254545 13.5530909,1.71636364 12.6808409,2.54181818 C12.4333409,2.77672727 12.2173409,3.032 12.0298409,3.29818182 C11.8423409,3.032 11.6263409,2.77672727 11.3780909,2.54181818 C10.5058409,1.71563636 9.37784091,1.22254545 8.36159091,1.22254545 C7.66709091,1.22254545 7.06634091,1.44436364 6.62534091,1.86254545 C6.17759091,2.28581818 5.94134091,2.86327273 5.94134091,3.53090909 C5.94134091,4.45309091 6.41609091,5.46545455 7.21259091,6.27709091 L0.779090909,6.27709091 C0.364340909,6.27709091 0.0290909091,6.60218182 0.0290909091,7.00436364 L0.0290909091,12.0712727 C0.0290909091,12.4734545 0.364340909,12.7985455 0.779090909,12.7985455 L1.97309091,12.7985455 L1.97309091,20.8589091 C1.97309091,21.2610909 2.30834091,21.5861818 2.72309091,21.5861818 L21.3343409,21.5861818 C21.7490909,21.5861818 22.0843409,21.2610909 22.0843409,20.8589091 L22.0843409,12.7985455 L23.2790909,12.7985455 C23.6938409,12.7985455 24.0290909,12.4734545 24.0290909,12.0712727 L24.0290909,7.00436364 C24.0290909,6.60218182 23.6938409,6.27709091 23.2790909,6.27709091 Z M8.88959091,11.344 L8.88959091,7.73163636 L15.1670909,7.73163636 L15.1670909,11.344 L8.88959091,11.344 Z M15.1678409,12.7985455 L15.1678409,20.1316364 L8.89034091,20.1316364 L8.89034091,12.7985455 L15.1678409,12.7985455 Z M15.6973409,2.67709091 C15.9020909,2.67709091 16.1885909,2.71636364 16.3865909,2.904 C16.5403409,3.04945455 16.6183409,3.26036364 16.6183409,3.53090909 C16.6183409,4.112 16.2545909,4.81672727 15.6688409,5.37090909 C15.0785909,5.93018182 14.3233409,6.27709091 13.6993409,6.27709091 C13.4945909,6.27709091 13.2080909,6.23781818 13.0108409,6.05090909 C12.8570909,5.90545455 12.7790909,5.69381818 12.7790909,5.42254545 C12.7790909,4.84218182 13.1420909,4.13672727 13.7278409,3.58327273 C14.3180909,3.024 15.0725909,2.67709091 15.6973409,2.67709091 Z M7.67159091,2.90254545 C7.86884091,2.71563636 8.15534091,2.67636364 8.36009091,2.67636364 C8.98484091,2.67636364 9.73934091,3.024 10.3295909,3.58254545 C10.9145909,4.13672727 11.2783409,4.84072727 11.2790909,5.42109091 C11.2790909,5.69309091 11.2010909,5.90472727 11.0473409,6.04945455 C10.8493409,6.23709091 10.5628409,6.27636364 10.3580909,6.27636364 C9.73409091,6.27636364 8.97884091,5.92872727 8.38859091,5.37018182 C7.80359091,4.81527273 7.43909091,4.11127273 7.43909091,3.53018182 C7.43984091,3.25963636 7.51709091,3.04872727 7.67159091,2.90254545 Z M1.52909091,7.73163636 L7.38959091,7.73163636 L7.38959091,11.344 L2.72234091,11.344 L1.52909091,11.344 L1.52909091,7.73163636 Z M3.47309091,12.7985455 L7.39034091,12.7985455 L7.39034091,20.1316364 L3.47309091,20.1316364 L3.47309091,12.7985455 Z M20.5843409,20.1316364 L16.6670909,20.1316364 L16.6670909,12.7985455 L20.5843409,12.7985455 L20.5843409,20.1316364 Z M22.5290909,11.344 L21.3343409,11.344 L16.6670909,11.344 L16.6670909,7.73163636 L22.5283409,7.73163636 L22.5283409,11.344 L22.5290909,11.344 Z" fill="#000000" fill-rule="nonzero"></path>
    </g>
</svg>