<?xml version="1.0" encoding="utf-8"?>
<!-- Generator: Adobe Illustrator 17.1.0, SVG Export Plug-In . SVG Version: 6.00 Build 0)  -->
<!DOCTYPE svg PUBLIC "-//W3C//DTD SVG 1.1//EN" "http://www.w3.org/Graphics/SVG/1.1/DTD/svg11.dtd">
<svg version="1.1" id="Layer_1" xmlns="http://www.w3.org/2000/svg" xmlns:xlink="http://www.w3.org/1999/xlink" x="0px" y="0px"
	 viewBox="0 0 50 50" enable-background="new 0 0 50 50" xml:space="preserve">
<path d="M42.04,18.256h-8.577c1.062-1.116,1.695-2.508,1.695-3.776c0-0.918-0.315-1.712-0.911-2.293
	c-0.59-0.576-1.391-0.881-2.316-0.881c-1.355,0-2.859,0.679-4.022,1.814c-0.33,0.323-0.618,0.674-0.868,1.04
	c-0.25-0.366-0.538-0.717-0.869-1.04c-1.163-1.136-2.667-1.814-4.022-1.814c-0.926,0-1.727,0.305-2.315,0.88
	c-0.597,0.582-0.912,1.376-0.912,2.294c0,1.268,0.633,2.66,1.695,3.776H12.04c-0.553,0-1,0.447-1,1v6.967c0,0.553,0.447,1,1,1h1.592
	v11.083c0,0.553,0.447,1,1,1h24.815c0.553,0,1-0.447,1-1V27.223h1.593c0.553,0,1-0.447,1-1v-6.967
	C43.04,18.703,42.593,18.256,42.04,18.256z M22.854,25.223v-4.967h8.37v4.967H22.854z M31.225,27.223v10.083h-8.37V27.223H31.225z
	 M31.931,13.306c0.273,0,0.655,0.054,0.919,0.312c0.205,0.2,0.309,0.49,0.309,0.862c0,0.799-0.485,1.768-1.266,2.53
	c-0.787,0.769-1.794,1.246-2.626,1.246c-0.273,0-0.655-0.054-0.918-0.311c-0.205-0.2-0.309-0.491-0.309-0.864
	c0-0.798,0.484-1.768,1.265-2.529C30.092,13.783,31.098,13.306,31.931,13.306z M21.23,13.616c0.263-0.257,0.645-0.311,0.918-0.311
	c0.833,0,1.839,0.478,2.626,1.246c0.78,0.762,1.265,1.73,1.266,2.528c0,0.374-0.104,0.665-0.309,0.864
	c-0.264,0.258-0.646,0.312-0.919,0.312c-0.832,0-1.839-0.478-2.626-1.246c-0.78-0.763-1.266-1.731-1.266-2.53
	C20.921,14.107,21.024,13.817,21.23,13.616z M13.04,20.256h7.814v4.967h-6.223H13.04V20.256z M15.632,27.223h5.223v10.083h-5.223
	V27.223z M38.447,37.306h-5.223V27.223h5.223V37.306z M41.04,25.223h-1.593h-6.223v-4.967h7.815V25.223z"/>
</svg>
