<svg width="54" height="21" viewBox="0 0 54 21" fill="none" xmlns="http://www.w3.org/2000/svg">
<path fill-rule="evenodd" clip-rule="evenodd" d="M4.72566 1.48555C3.48452 1.48753 2.48036 2.37659 2.47794 3.47529V3.47533V16.6854V16.6854C2.47825 16.8227 2.4942 16.9567 2.52431 17.0862C2.55778 17.23 2.60873 17.3682 2.67512 17.4989C3.02689 18.1914 3.81207 18.6736 4.72566 18.6752H28.1121V18.6751V1.48558V1.48555H4.72566ZM4.72565 0H49.4839C51.6521 0.000329101 53.4088 1.55517 53.4095 3.4753V16.6854C53.4088 18.6049 51.6521 20.1599 49.4839 20.1605H4.72565C2.55723 20.1599 0.800731 18.6049 0.799988 16.6854V3.4753C0.800731 1.55517 2.55723 0.000329101 4.72565 0Z" fill="#0F3365"/>
<path fill-rule="evenodd" clip-rule="evenodd" d="M31.9395 14.5245H29.9761V7.46417H31.787V8.37216H31.809C32.2016 7.66706 33.031 7.34833 33.9256 7.34833C35.4967 7.34833 36.3579 8.67164 36.3579 9.88833C36.3579 11.3759 35.4525 12.6121 33.7616 12.6121C33.0744 12.6121 32.3325 12.3903 31.9614 11.7915H31.9395V14.5245ZM33.1403 11.2793C33.8817 11.2793 34.329 10.729 34.329 9.92716C34.329 9.2604 33.9036 8.68118 33.1403 8.68118C32.4199 8.68118 31.9394 9.24148 31.9394 9.99463C31.9394 10.729 32.4854 11.2793 33.1403 11.2793ZM43.8817 14.5245C44.2857 14.602 44.689 14.6407 45.1037 14.6407C46.8021 14.6407 47.2767 13.5487 47.7918 12.3636C47.8227 12.2924 47.8539 12.2208 47.8854 12.1491L49.9695 7.46417H48.0057L46.8381 10.7479H46.8164L45.5944 7.46417H43.4787L45.7796 12.6121C45.6386 13.0564 45.2675 13.3077 44.7882 13.3077C44.5147 13.3077 44.2745 13.2792 44.0132 13.2012L43.8817 14.5245ZM43.1499 12.6599C43.0628 12.264 43.0405 11.8682 43.0405 11.472V9.59825C43.0405 8.0625 41.7862 7.51224 40.3352 7.51224C39.4949 7.51224 38.7641 7.61805 38.066 7.86964L38.0983 9.04782C38.6443 8.77763 39.2768 8.67117 39.9092 8.67117C40.6186 8.67117 41.1971 8.85464 41.2079 9.54065C40.957 9.50165 40.6082 9.47236 40.2918 9.47236C39.2443 9.47236 37.3571 9.6565 37.3571 11.1921C37.3571 12.2839 38.3607 12.7764 39.4845 12.7764C40.2918 12.7764 40.8372 12.4958 41.2842 11.8682H41.3056C41.3056 12.0214 41.3171 12.1746 41.3288 12.3296C41.337 12.4386 41.3452 12.5485 41.3496 12.6599H43.1499ZM39.1895 11.0667C39.1895 10.5838 39.713 10.4003 40.3786 10.4003C40.5873 10.4003 40.7904 10.4099 40.9803 10.419L40.9803 10.419C41.0586 10.4227 41.1346 10.4263 41.2078 10.4291C41.2078 11.018 40.7391 11.6176 39.9966 11.6176C39.5386 11.6176 39.1895 11.4139 39.1895 11.0667Z" fill="#FFFFFE"/>
<path fill-rule="evenodd" clip-rule="evenodd" d="M12.9104 12.496H14.874V7.46417H12.9104V12.496ZM12.9104 6.64307H14.874V5.36813H12.9104V6.64307ZM19.6765 7.34834C19.9053 7.34834 20.1452 7.37731 20.3417 7.40577L20.2433 8.85464C20.0254 8.79688 19.807 8.79688 19.5782 8.79688C18.6619 8.79688 18.1489 9.38614 18.1489 10.3716V12.496H16.1854V7.46419H17.9746V8.3911H17.9961C18.3345 7.75396 18.8255 7.34834 19.6765 7.34834ZM27.0279 9.98526C27.0279 11.6466 25.5987 12.6121 23.7227 12.6121C21.8465 12.6121 20.4172 11.6466 20.4172 9.98526C20.4172 8.31393 21.8465 7.34834 23.7227 7.34834C25.5987 7.34834 27.0279 8.31393 27.0279 9.98526ZM22.4463 9.98525C22.4463 10.729 22.8172 11.3951 23.7228 11.3951C24.6281 11.3951 24.9992 10.729 24.9992 9.98525C24.9992 9.23178 24.6281 8.56535 23.7228 8.56535C22.8172 8.56535 22.4463 9.23178 22.4463 9.98525ZM9.77685 7.46419H11.5554V11.9074C11.5554 13.974 10.4209 14.6407 8.12992 14.6407C7.19187 14.6407 6.41725 14.4665 5.95891 14.3222L6.05734 12.9505C6.6572 13.2113 7.159 13.3656 7.97727 13.3656C9.11199 13.3656 9.72262 12.8925 9.72262 11.9074V11.6364H9.70052C9.23178 12.2263 8.57731 12.496 7.79192 12.496C6.23172 12.496 5.2608 11.4537 5.2608 9.96568C5.2608 8.46844 6.05734 7.34834 7.82442 7.34834C8.66423 7.34834 9.34079 7.75396 9.75549 8.37185H9.77685V7.46419ZM8.4028 8.6812C7.67183 8.6812 7.28999 9.25104 7.28999 9.93656C7.28999 10.7187 7.81371 11.1634 8.4028 11.1634C9.10072 11.1634 9.65731 10.642 9.65731 9.86893C9.65731 9.30847 9.28625 8.6812 8.4028 8.6812Z" fill="#D8232A"/>
</svg>
