<svg width="50" height="21" viewBox="0 0 50 21" fill="none" xmlns="http://www.w3.org/2000/svg">
<path fill-rule="evenodd" clip-rule="evenodd" d="M23.0603 16.5161V10.4742H26.1786C27.4564 10.4742 28.535 10.046 29.4142 9.2016L29.6252 8.98752C31.2313 7.23917 31.1258 4.51555 29.4142 2.89803C28.5584 2.0417 27.3861 1.57785 26.1786 1.60164H21.1729V16.5161H23.0603ZM23.0605 8.64258V3.43322H26.2262C26.9063 3.43322 27.5512 3.69487 28.0319 4.17062C29.052 5.16967 29.0754 6.83476 28.0905 7.8695C27.6098 8.38092 26.9297 8.66637 26.2262 8.64258H23.0605ZM38.4293 7.10835C37.6204 6.35906 36.5185 5.97847 35.1234 5.97847C33.3298 5.97847 31.9816 6.64451 31.0906 7.96469L32.7553 9.02321C33.3649 8.1193 34.1973 7.66735 35.2524 7.66735C35.9206 7.66735 36.5653 7.91711 37.0694 8.36907C37.5618 8.79723 37.8432 9.4157 37.8432 10.0698V10.5099C37.1163 10.1055 36.2019 9.89144 35.0765 9.89144C33.7635 9.89144 32.7084 10.2007 31.923 10.831C31.1375 11.4614 30.739 12.2939 30.739 13.3525C30.7155 14.3158 31.1258 15.2316 31.8527 15.8501C32.5912 16.5161 33.5291 16.8491 34.631 16.8491C35.9323 16.8491 36.9639 16.2664 37.7494 15.1008H37.8314V16.5161H39.6368V10.2245C39.6368 8.90427 39.2382 7.85765 38.4293 7.10835ZM33.3066 14.6369C32.9197 14.3515 32.6852 13.8877 32.6852 13.3881C32.6852 12.8291 32.9432 12.3653 33.4473 11.9966C33.9632 11.6279 34.6081 11.4376 35.3702 11.4376C36.4255 11.4257 37.2462 11.6636 37.8325 12.1393C37.8325 12.9481 37.5159 13.6498 36.8945 14.2445C36.3317 14.8153 35.5696 15.1365 34.7723 15.1365C34.2446 15.1484 33.7287 14.97 33.3066 14.6369ZM43.693 21L50.0001 6.31149H47.9485L45.0295 13.6379H44.9943L42.0049 6.31149H39.9534L44.0916 15.862L41.747 21H43.693Z" fill="#3C4043"/>
<path d="M16.5442 9.16593C16.5442 8.58315 16.4973 8.00036 16.4035 7.42947H8.44354V10.724H13.0038C12.8163 11.7825 12.2067 12.734 11.3157 13.3287V15.4695H14.0355C15.6298 13.9828 16.5442 11.7825 16.5442 9.16593Z" fill="#4285F4"/>
<path d="M8.44388 17.539C10.7182 17.539 12.6408 16.7778 14.0358 15.4695L11.316 13.3287C10.554 13.852 9.58102 14.1493 8.44388 14.1493C6.23993 14.1493 4.37596 12.6388 3.70774 10.6169H0.905914V12.8291C2.33613 15.7193 5.25519 17.539 8.44388 17.539Z" fill="#34A853"/>
<path d="M3.70806 10.6169C3.35631 9.55842 3.35631 8.40475 3.70806 7.33433V5.13403H0.905785C-0.301888 7.54842 -0.301888 10.4029 0.905785 12.8172L3.70806 10.6169Z" fill="#FBBC04"/>
<path d="M8.44388 3.80195C9.65136 3.77816 10.8119 4.24201 11.6795 5.08645L14.0944 2.63638C12.5587 1.18537 10.5423 0.388504 8.44388 0.412291C5.25519 0.412291 2.33613 2.24389 0.905914 5.13402L3.70774 7.34622C4.37596 5.31242 6.23993 3.80195 8.44388 3.80195Z" fill="#EA4335"/>
</svg>
