<svg viewBox="0 0 24 24" version="1.1" xmlns="http://www.w3.org/2000/svg" xmlns:xlink="http://www.w3.org/1999/xlink">
    <g class="graphic" stroke="none" stroke-width="1" fill="none" fill-rule="evenodd">
        <path d="M22.0757639,6.4547027 C21.0147365,6.4547027 20.1521938,7.29535135 20.1521938,8.328 C20.1521938,8.57902703 20.2048123,8.81837838 20.2973941,9.03762162 L14.6032803,14.1989189 C14.2982266,14.0004324 13.9325618,13.8836757 13.5389227,13.8836757 C13.3391058,13.8836757 13.1459495,13.9154595 12.9607859,13.9725405 L11.1411206,11.7398919 C11.2769961,11.4797838 11.3569228,11.1943784 11.3569228,10.8940541 C11.3569228,9.86140541 10.4943802,9.02075676 9.43335276,9.02075676 C8.37232537,9.02075676 7.5097827,9.86140541 7.5097827,10.8940541 C7.5097827,10.9887568 7.52776621,11.0795676 7.54175339,11.1716757 L2.94929648,14.6789189 C2.65156939,14.4953514 2.30188993,14.3844324 1.92357006,14.3844324 C0.862542669,14.3844324 0,15.2250811 0,16.2577297 C0,17.291027 0.862542669,18.1316757 1.92357006,18.1316757 C2.98459745,18.1316757 3.84714012,17.291027 3.84714012,16.2577297 C3.84714012,16.067027 3.80917492,15.8860541 3.75455832,15.7128649 L8.19515444,12.3217297 C8.20714345,12.3314595 8.21580218,12.3444324 8.22779119,12.3535135 C8.56814587,12.6207568 8.99641995,12.768 9.43401882,12.768 C9.68845225,12.768 9.93555907,12.7193514 10.1640163,12.6278919 L11.9137457,14.7749189 C11.72725,15.0668108 11.6153526,15.4008649 11.6153526,15.756973 C11.6153526,16.7902703 12.4778953,17.6309189 13.5389227,17.6309189 C14.599284,17.6309189 15.4624927,16.7902703 15.4624927,15.756973 C15.4624927,15.5844324 15.430522,15.420973 15.3858963,15.2627027 L21.2045625,9.98918919 C21.4676546,10.1208649 21.7607193,10.2019459 22.0764299,10.2019459 C23.1367913,10.2019459 24,9.3612973 24,8.32864865 C24,7.296 23.1367913,6.4547027 22.0757639,6.4547027 Z M1.92357006,16.8330811 C1.59720256,16.8330811 1.33211223,16.5749189 1.33211223,16.2564324 C1.33211223,15.9392432 1.59720256,15.6804324 1.92357006,15.6804324 C2.24993756,15.6804324 2.51502789,15.9385946 2.51502789,16.2564324 C2.51569395,16.5749189 2.24993756,16.8330811 1.92357006,16.8330811 Z M9.06369162,11.3429189 C8.92315378,11.232 8.84189493,11.0685405 8.84189493,10.8934054 C8.84189493,10.5762162 9.10698526,10.3174054 9.43335276,10.3174054 C9.75972026,10.3174054 10.0248106,10.5755676 10.0248106,10.8934054 C10.0248106,11.0471351 9.96353343,11.1917838 9.85230206,11.3001081 C9.85230206,11.3001081 9.85230206,11.3001081 9.85230206,11.3007568 C9.85230206,11.3014054 9.85230206,11.3007568 9.851636,11.3007568 C9.61718425,11.5277838 9.20489551,11.4531892 9.06369162,11.3429189 Z M13.5389227,16.332973 C13.2125552,16.332973 12.9474648,16.0748108 12.9474648,15.7563243 C12.9474648,15.576 13.0313879,15.4105946 13.1792524,15.2996757 C13.1819166,15.2977297 13.1859129,15.2970811 13.1885771,15.2944865 C13.1885771,15.2944865 13.1892432,15.2938378 13.1892432,15.2938378 C13.2618433,15.2412973 13.3784031,15.1803243 13.5395887,15.1803243 C13.8652902,15.1803243 14.1310465,15.4384865 14.1310465,15.7563243 C14.1303805,16.0741622 13.8652902,16.332973 13.5389227,16.332973 Z M22.0757639,8.904 C21.7493964,8.904 21.4843061,8.64583784 21.4843061,8.328 C21.4843061,8.01016216 21.7493964,7.752 22.0757639,7.752 C22.4014653,7.752 22.6672217,8.01016216 22.6672217,8.328 C22.6672217,8.64583784 22.4021314,8.904 22.0757639,8.904 Z" fill="#000000" fill-rule="nonzero"></path>
    </g>
</svg>