<svg width="24px" height="24px" viewBox="0 0 24 24" version="1.1" xmlns="http://www.w3.org/2000/svg" xmlns:xlink="http://www.w3.org/1999/xlink">
    <g class="grid" stroke="none" stroke-width="1" fill="none" fill-rule="evenodd">
        <path d="M0.737562022,11 C0.330427786,11 0,10.6695722 0,10.262438 L0,0.737562022 C0,0.329690224 0.329690224,8.8817842e-16 0.737562022,8.8817842e-16 L10.262438,8.8817842e-16 C10.6703098,8.8817842e-16 11,0.329690224 11,0.737562022 L11,10.262438 C11,10.6703098 10.6703098,11 10.262438,11 L0.737562022,11 Z M1.47512404,1.47512404 L1.47512404,9.52487596 L9.52487596,9.52487596 L9.52487596,1.47512404 L1.47512404,1.47512404 Z M13.737562,11 C13.3304278,11 13,10.6695722 13,10.262438 L13,0.737562022 C13,0.329690224 13.3296902,-8.8817842e-16 13.737562,-8.8817842e-16 L23.262438,-8.8817842e-16 C23.6703098,-8.8817842e-16 24,0.329690224 24,0.737562022 L24,10.262438 C24,10.6703098 23.6703098,11 23.262438,11 L13.737562,11 Z M14.475124,1.47512404 L14.475124,9.52487596 L22.524876,9.52487596 L22.524876,1.47512404 L14.475124,1.47512404 Z M0.737512571,24 C0.330405632,24 9.50350909e-14,23.6695944 9.50350909e-14,23.2617499 L9.50350909e-14,13.7375126 C9.50350909e-14,13.3296681 0.329668119,13 0.737512571,13 L10.2617499,13 C10.6695944,13 10.9992625,13.3296681 10.9992625,13.7375126 L10.9992625,23.2624874 C10.9992625,23.6703319 10.6695944,24 10.2617499,24 L0.737512571,24 Z M1.47502514,14.4750251 L1.47502514,22.5242373 L9.52423734,22.5242373 L9.52423734,14.4750251 L1.47502514,14.4750251 Z M13,23.2624874 L13,13.7375126 C13,13.3296681 13.3296681,13 13.7375126,13 L23.2617499,13 C23.6695944,13 23.9992625,13.3296681 23.9992625,13.7375126 L23.9992625,23.2624874 C23.9992625,23.6703319 23.6695944,24 23.2617499,24 L13.7375126,24 C13.3296681,24 13,23.6703319 13,23.2624874 Z M14.4750251,14.4750251 L14.4750251,22.5242373 L22.5242373,22.5242373 L22.5242373,14.4750251 L14.4750251,14.4750251 Z" fill="#000000" fill-rule="nonzero"></path>
    </g>
</svg>