<svg width="24px" height="24px" viewBox="0 0 24 24" version="1.1" xmlns="http://www.w3.org/2000/svg" xmlns:xlink="http://www.w3.org/1999/xlink">
    <g class="hamburger-menu" stroke="none" stroke-width="1" fill="none" fill-rule="evenodd">
        <path d="M0.75,5.45454545 C0.33525,5.45454545 0,5.12945455 0,4.72727273 C0,4.32509091 0.336,4 0.75,4 L23.25,4 C23.664,4 24,4.32509091 24,4.72727273 C24,5.12945455 23.664,5.45454545 23.25,5.45454545 L0.75,5.45454545 Z M0.75,19.4545455 C0.33525,19.4545455 0,19.1294545 0,18.7272727 C0,18.3250909 0.336,18 0.75,18 L23.25,18 C23.664,18 24,18.3250909 24,18.7272727 C24,19.1294545 23.664,19.4545455 23.25,19.4545455 L0.75,19.4545455 Z M0.75,12.4545455 C0.33525,12.4545455 0,12.1294545 0,11.7272727 C0,11.3250909 0.336,11 0.75,11 L23.25,11 C23.664,11 24,11.3250909 24,11.7272727 C24,12.1294545 23.664,12.4545455 23.25,12.4545455 L0.75,12.4545455 Z" fill="#231F20"></path>
    </g>
</svg>