<?xml version="1.0" encoding="utf-8"?>
<!-- Generator: Adobe Illustrator 17.1.0, SVG Export Plug-In . SVG Version: 6.00 Build 0)  -->
<!DOCTYPE svg PUBLIC "-//W3C//DTD SVG 1.1//EN" "http://www.w3.org/Graphics/SVG/1.1/DTD/svg11.dtd">
<svg version="1.1" id="Layer_1" xmlns="http://www.w3.org/2000/svg" xmlns:xlink="http://www.w3.org/1999/xlink" x="0px" y="0px"
	 viewBox="0 0 50 50" enable-background="new 0 0 50 50" xml:space="preserve">
<path d="M36.899,24.204h-1.71c-0.671-5.689-5.221-10.123-10.67-10.123c-5.442,0-10.001,4.438-10.672,10.123h-1.709
	c-1.995,0-3.619,1.722-3.619,3.838v4.201c0,2.116,1.624,3.838,3.619,3.838h2.62c0.266,0,0.52-0.105,0.707-0.293
	s0.293-0.442,0.293-0.707l-0.001-2.838l0-1.714c0-0.001,0.001-0.002,0.001-0.004c0-0.058,0-4.892,0.001-5.031
	c0.078-5.19,4.008-9.413,8.76-9.413c4.771,0,8.701,4.241,8.76,9.453c0.001,0.099,0.001,2.401,0.001,3.844c0,0.656,0,1.134,0,1.148
	v4.556c0,0.553,0.447,1,1,1h2.619c1.996,0,3.62-1.722,3.62-3.838v-4.201C40.52,25.926,38.896,24.204,36.899,24.204z M12.139,34.081
	c-0.893,0-1.619-0.824-1.619-1.838v-4.201c0-1.014,0.727-1.838,1.619-1.838h1.62l-0.001,1.838l0.001,6.039H12.139z M38.52,32.243
	c0,1.014-0.727,1.838-1.62,1.838H35.28v-3.556c0-0.014,0-0.505,0-1.175v-3.146h1.619c0.894,0,1.62,0.824,1.62,1.838V32.243z"/>
</svg>
