<svg width="24px" height="24px" viewBox="0 0 24 24" version="1.1" xmlns="http://www.w3.org/2000/svg" xmlns:xlink="http://www.w3.org/1999/xlink">
    <g class="headphones" stroke="none" stroke-width="1" fill="none" fill-rule="evenodd">
        <path d="M21.2849997,11.3621818 L20.0024997,11.3621818 C19.4992497,7.22472727 16.0867498,4 11.9999998,4 C7.91849989,4 4.49924994,7.22763636 3.99599994,11.3621818 L2.71424996,11.3621818 C1.21799998,11.3621818 0,12.6145455 0,14.1534545 L0,17.2087273 C0,18.7476364 1.21799998,20 2.71424996,20 L4.67924993,20 C4.87874993,20 5.06924993,19.9236364 5.20949992,19.7869091 C5.34974992,19.6501818 5.42924992,19.4654545 5.42924992,19.2727273 L5.42849992,17.2087273 L5.42849992,15.9621818 C5.42849992,15.9614545 5.42924992,15.9607273 5.42924992,15.9592727 C5.42924992,15.9170909 5.42924992,12.4014545 5.42999992,12.3003636 C5.48849992,8.52581818 8.43599988,5.45454545 11.9999998,5.45454545 C15.5782498,5.45454545 18.5257497,8.53890909 18.5699997,12.3294545 C18.5707497,12.4014545 18.5707497,14.0756364 18.5707497,15.1250909 C18.5707497,15.6021818 18.5707497,15.9498182 18.5707497,15.96 L18.5707497,19.2734545 C18.5707497,19.6756364 18.9059997,20.0007273 19.3207497,20.0007273 L21.2849997,20.0007273 C22.7819997,20.0007273 23.9999997,18.7483636 23.9999997,17.2094545 L23.9999997,14.1541818 C24.0007497,12.6145455 22.7827497,11.3621818 21.2849997,11.3621818 Z M2.71499996,18.5454545 C2.04524997,18.5454545 1.50074998,17.9461818 1.50074998,17.2087273 L1.50074998,14.1534545 C1.50074998,13.416 2.04599997,12.8167273 2.71499996,12.8167273 L3.92999994,12.8167273 L3.92924994,14.1534545 L3.92999994,18.5454545 L2.71499996,18.5454545 Z M22.5007497,17.2087273 C22.5007497,17.9461818 21.9554997,18.5454545 21.2857497,18.5454545 L20.0707497,18.5454545 L20.0707497,15.9592727 C20.0707497,15.9490909 20.0707497,15.592 20.0707497,15.1047273 L20.0707497,12.8167273 L21.2849997,12.8167273 C21.9554997,12.8167273 22.4999997,13.416 22.4999997,14.1534545 L22.4999997,17.2087273 L22.5007497,17.2087273 Z" fill="#000000" fill-rule="nonzero"></path>
    </g>
</svg>