<svg viewBox="0 0 24 24" version="1.1" xmlns="http://www.w3.org/2000/svg" xmlns:xlink="http://www.w3.org/1999/xlink">
    <g class="heart" stroke="none" stroke-width="1" fill="none" fill-rule="evenodd">
        <path d="M11.45025,22.576 C11.592,22.7301818 11.796,22.8181818 12.009,22.8181818 L12.00975,22.8181818 C12.22275,22.8181818 12.42675,22.7294545 12.5685,22.5752727 L22.4565,11.8327273 C23.45175,10.6545455 24,9.17454545 24,7.664 C24,3.98909091 20.85525,1 16.989,1 C15.0855,1 13.311,1.71272727 12,2.98181818 C10.689,1.71345455 8.9145,1 7.011,1 C3.1455,1 0,3.98909091 0,7.664 C0,9.17527273 0.54825,10.6567273 1.5705,11.8654545 C1.6665,11.9789091 9.1575,20.0923636 11.45025,22.576 Z M7.01025,2.45454545 C8.751,2.45454545 10.35375,3.20945455 11.40675,4.52436364 C11.691,4.87927273 12.3075,4.87927273 12.59175,4.52436364 C13.64475,3.20872727 15.2475,2.45454545 16.98825,2.45454545 C20.02725,2.45454545 22.49925,4.79127273 22.49925,7.664 C22.49925,8.85672727 22.083,9.97963636 21.3165,10.888 L12.009,21 C8.577,17.2829091 2.88525,11.1163636 2.70525,10.9134545 C1.917,9.98036364 1.50075,8.85672727 1.50075,7.664 C1.5,4.792 3.972,2.45454545 7.01025,2.45454545 Z" fill="#231F20" fill-rule="nonzero"></path>
    </g>
</svg>