<?xml version="1.0" encoding="utf-8"?>
<!-- Generator: Adobe Illustrator 17.1.0, SVG Export Plug-In . SVG Version: 6.00 Build 0)  -->
<!DOCTYPE svg PUBLIC "-//W3C//DTD SVG 1.1//EN" "http://www.w3.org/Graphics/SVG/1.1/DTD/svg11.dtd">
<svg version="1.1" id="Layer_1" xmlns="http://www.w3.org/2000/svg" xmlns:xlink="http://www.w3.org/1999/xlink" x="0px" y="0px"
	 viewBox="0 0 50 50" enable-background="new 0 0 50 50" xml:space="preserve">
<path fill="#231F20" d="M23.024,39.274c0.189,0.212,0.461,0.333,0.745,0.333h0.001c0.284,0,0.556-0.122,0.745-0.334l13.184-14.771
	c1.327-1.62,2.058-3.655,2.058-5.732c0-5.053-4.193-9.163-9.348-9.163c-2.538,0-4.904,0.98-6.652,2.725
	c-1.748-1.744-4.114-2.725-6.652-2.725c-5.154,0-9.348,4.11-9.348,9.163c0,2.078,0.731,4.115,2.094,5.777
	C9.979,24.703,19.967,35.859,23.024,39.274z M17.104,11.607c2.321,0,4.458,1.038,5.862,2.846c0.379,0.488,1.201,0.488,1.58,0
	c1.404-1.809,3.541-2.846,5.862-2.846c4.052,0,7.348,3.213,7.348,7.163c0,1.64-0.555,3.184-1.577,4.433L23.769,37.107
	c-4.576-5.111-12.165-13.59-12.405-13.869c-1.051-1.283-1.606-2.828-1.606-4.468C9.757,14.821,13.053,11.607,17.104,11.607z"/>
</svg>
