<svg width="24px" height="24px" viewBox="0 0 24 24" version="1.1" xmlns="http://www.w3.org/2000/svg" xmlns:xlink="http://www.w3.org/1999/xlink">
    <g class="home" stroke="none" stroke-width="1" fill="none" fill-rule="evenodd">
        <path d="M23.6911168,10.4983732 L12.4412091,2.14698565 C12.1779612,1.95100478 11.8217141,1.95100478 11.5584663,2.14698565 L0.308558526,10.4983732 C-0.0259387319,10.7464115 -0.100188123,11.2256459 0.143559878,11.5670813 C0.38730788,11.9092823 0.855304043,11.9835407 1.19130129,11.7362679 L2.67178915,10.6369378 L2.67178915,21.138756 C2.67178915,21.5621053 3.0077864,21.9043062 3.421783,21.9043062 L9.47798335,21.9043062 C9.89197996,21.9043062 10.2279772,21.5621053 10.2279772,21.138756 L10.2279772,13.9479426 L13.7716981,13.9479426 L13.7716981,21.138756 C13.7716981,21.5621053 14.1076954,21.9043062 14.521692,21.9043062 L20.5778923,21.9043062 C20.991889,21.9043062 21.3278862,21.5621053 21.3278862,21.138756 L21.3278862,10.6377033 L22.8083741,11.7370335 C22.941873,11.8357895 23.0963717,11.8832536 23.2486205,11.8832536 C23.4803686,11.8832536 23.7091167,11.7737799 23.8561155,11.5678469 C24.1006135,11.2264115 24.0256141,10.747177 23.6911168,10.4983732 Z M19.8278985,20.3739713 L15.2716858,20.3739713 L15.2716858,13.1831579 C15.2716858,12.7598086 14.9356886,12.4176077 14.521692,12.4176077 L9.47798335,12.4176077 C9.06398674,12.4176077 8.7279895,12.7598086 8.7279895,13.1831579 L8.7279895,20.3739713 L4.17177685,20.3739713 L4.17177685,9.52382775 L12.0002127,3.71253589 L19.8286485,9.52382775 L19.8286485,20.3739713 L19.8278985,20.3739713 Z" fill="#000000" fill-rule="nonzero"></path>
    </g>
</svg>