<svg width="24px" height="24px" viewBox="0 0 24 24" version="1.1" xmlns="http://www.w3.org/2000/svg" xmlns:xlink="http://www.w3.org/1999/xlink">
    <g class="hyperlink" stroke="none" stroke-width="1" fill="none" fill-rule="evenodd">
        <path d="M9.97445121,11.2576476 C10.3487287,11.389946 10.5441288,11.8005026 10.411228,12.1758275 C10.2783272,12.5497144 9.86597539,12.744567 9.49457145,12.6129875 C8.36455518,12.2117782 7.13109179,12.4842842 6.27621617,13.3269677 C6.17276903,13.4305056 5.71228561,13.890674 5.35740447,14.2458666 C5.35740447,14.2465856 5.35740447,14.2465856 5.35668609,14.2473046 C5.35668609,14.2473046 2.38545452,17.2211433 2.31577138,17.2916066 C1.13259479,18.5002678 1.14337053,20.4610169 2.34091478,21.6596119 C3.54205095,22.861083 5.50323619,22.8689922 6.71442972,21.6768683 C6.91845046,21.4719495 8.56570239,19.8239712 9.34155589,19.0474369 C9.34227428,19.0474369 9.34227428,19.0467179 9.34227428,19.0467179 L10.6791848,17.7086343 C11.5103538,16.8587606 11.7804658,15.626372 11.3803265,14.4975212 C11.2474257,14.1243533 11.4428258,13.7130778 11.8171033,13.5800603 C12.1885072,13.4477619 12.6001406,13.6426145 12.7337598,14.0172204 C13.3192419,15.6673557 12.9234129,17.4692029 11.7007253,18.7195669 L10.7445576,19.6765735 C10.6231509,19.7988057 10.107352,20.3150572 7.74459076,22.6798917 C6.8494857,23.5614019 5.68642383,24 4.52767225,24 C3.36461038,24 2.20514042,23.5578069 1.32440301,22.6762967 C-0.428451201,20.9226234 -0.442818859,18.0544796 1.28992063,16.2835501 C1.28992063,16.2835501 1.32368463,16.2490374 4.34017432,13.2299009 C4.3408927,13.2299009 4.3408927,13.2299009 4.34161109,13.2291819 C4.68571648,12.8847745 5.15122859,12.418854 5.24677351,12.3232252 C6.49891486,11.0893985 8.34803238,10.68028 9.97445121,11.2576476 Z M15.5326074,13 C15.025412,13 14.5160615,12.9159192 14.0261079,12.7405713 C13.6525363,12.6083416 13.4564111,12.1979987 13.5893164,11.8235877 C13.7215033,11.4491767 14.1331505,11.2537068 14.5060038,11.3866551 C15.6195346,11.7797507 16.8810573,11.5009187 17.7237488,10.6730464 L18.6433097,9.75318821 L19.0484913,9.34787571 L21.688637,6.70687675 C22.8675429,5.50171885 22.8567668,3.54198982 21.6591823,2.34401832 C20.4580058,1.14460954 18.4967547,1.13526723 17.2869573,2.32748962 C17.2330768,2.38066892 15.4708244,4.14349081 14.6583061,4.95555308 L13.3213506,6.29365922 C12.4901537,7.14309073 12.2193143,8.37411963 12.6201854,9.5016645 C12.7530907,9.87535687 12.5584024,10.2856998 12.1841123,10.4193667 C12.1050876,10.4473937 12.0231892,10.4610478 11.943446,10.4610478 C11.6481807,10.4610478 11.371594,10.2770762 11.2667066,9.98315275 C10.6804865,8.33387584 11.0763287,6.53296607 12.2997759,5.28325254 L13.2365786,4.34542842 C13.237297,4.34542842 13.237297,4.34470978 13.237297,4.34470978 C16.2797507,1.30127288 16.2826243,1.29839832 16.2998661,1.28258826 C18.0477503,-0.440708483 20.9170679,-0.429210256 22.6757282,1.32786253 C24.4279229,3.08062347 24.4430095,5.9465565 22.7109302,7.71800207 L20.0650372,10.3647501 L19.6598556,10.7700626 L18.7359842,11.6942326 C17.8731774,12.5436641 16.7100765,13 15.5326074,13 Z M7.49503776,16.5091402 C7.21001772,16.2241143 7.21001772,15.7626787 7.49503776,15.4783818 L15.0367702,7.93649664 C15.3217903,7.65147082 15.7824876,7.65147082 16.0675077,7.93649664 C16.3525277,8.22152245 16.3525277,8.68222915 16.0675077,8.96725496 L8.52577522,16.5091402 C8.38362967,16.6512886 8.19701808,16.7227273 8.01040649,16.7227273 C7.8237949,16.7227273 7.63718331,16.6512886 7.49503776,16.5091402 Z" fill="#000000"></path>
    </g>
</svg>