<?xml version="1.0" encoding="utf-8"?>
<!-- Generator: Adobe Illustrator 17.1.0, SVG Export Plug-In . SVG Version: 6.00 Build 0)  -->
<!DOCTYPE svg PUBLIC "-//W3C//DTD SVG 1.1//EN" "http://www.w3.org/Graphics/SVG/1.1/DTD/svg11.dtd">
<svg version="1.1" id="Layer_1" xmlns="http://www.w3.org/2000/svg" xmlns:xlink="http://www.w3.org/1999/xlink" x="0px" y="0px"
	 viewBox="0 0 50 50" enable-background="new 0 0 50 50" xml:space="preserve">
<path d="M24.077,23.059c-2.264-0.803-4.838-0.234-6.581,1.482c-0.133,0.133-0.781,0.781-1.26,1.26
	c-0.001,0.001-0.001,0.001-0.002,0.001c-4.199,4.199-4.246,4.247-4.246,4.247c-2.412,2.463-2.392,6.452,0.048,8.891
	c1.226,1.226,2.84,1.841,4.459,1.841c1.613,0,3.232-0.61,4.478-1.836c3.289-3.289,4.007-4.007,4.176-4.177l1.331-1.331
	c1.702-1.739,2.253-4.245,1.438-6.54c-0.186-0.521-0.759-0.792-1.276-0.608c-0.521,0.185-0.793,0.757-0.608,1.276
	c0.557,1.57,0.181,3.284-0.976,4.466l-1.861,1.861c0,0,0,0.001-0.001,0.001c-1.08,1.08-3.373,3.372-3.657,3.657
	c-1.686,1.658-4.416,1.647-6.088-0.024c-1.667-1.667-1.682-4.394-0.035-6.075c0.097-0.098,4.233-4.234,4.233-4.234
	c0.001-0.001,0.001-0.001,0.001-0.002c0.494-0.494,1.135-1.134,1.279-1.278c1.19-1.172,2.907-1.551,4.48-0.993
	c0.517,0.183,1.091-0.088,1.276-0.608C24.87,23.814,24.598,23.243,24.077,23.059z"/>
<path d="M30.39,26.886c1.639,0,3.258-0.635,4.459-1.817l1.286-1.286l0.564-0.564l3.683-3.683c2.411-2.465,2.39-6.453-0.049-8.892
	c-2.448-2.445-6.442-2.461-8.875-0.063c-0.024,0.022-0.028,0.026-4.263,4.261c0,0,0,0.001-0.001,0.001l-1.304,1.305
	c-1.703,1.739-2.254,4.245-1.438,6.54c0.146,0.409,0.531,0.665,0.942,0.665c0.111,0,0.225-0.019,0.335-0.058
	c0.521-0.186,0.792-0.757,0.607-1.277c-0.558-1.569-0.181-3.282,0.976-4.464l1.861-1.862c1.131-1.13,3.584-3.583,3.659-3.657
	c1.684-1.659,4.414-1.646,6.086,0.023c1.667,1.667,1.682,4.394,0.041,6.071l-3.675,3.675l-0.564,0.564l-1.28,1.28
	c-1.173,1.152-2.929,1.54-4.479,0.993c-0.519-0.185-1.092,0.087-1.276,0.608c-0.185,0.521,0.088,1.092,0.608,1.276
	C28.975,26.769,29.684,26.886,30.39,26.886z"/>
<path d="M20.305,30.672c0.195,0.195,0.451,0.293,0.707,0.293s0.512-0.098,0.707-0.293l10.346-10.346
	c0.391-0.391,0.391-1.023,0-1.414s-1.023-0.391-1.414,0L20.305,29.258C19.914,29.648,19.914,30.281,20.305,30.672z"/>
</svg>
