<svg width="33" height="29" viewBox="0 0 33 29" fill="none" xmlns="http://www.w3.org/2000/svg">
<path fill-rule="evenodd" clip-rule="evenodd" d="M0.0264893 0.911865H16.6838C28.0029 0.911865 32.3526 7.09776 32.3526 14.9167C32.3526 24.2698 26.2729 28.9711 16.6838 28.9711H0.0264893V0.911865ZM1.60806 2.59443V27.3875H16.6837C25.7785 27.3875 30.7213 23.1316 30.7213 14.9662C30.7213 6.5534 25.3831 2.59443 16.6837 2.59443H1.60806ZM6.05671 15.4116C7.72191 15.4116 9.07183 14.06 9.07183 12.3928C9.07183 10.7257 7.72191 9.37413 6.05671 9.37413C4.3915 9.37413 3.04158 10.7257 3.04158 12.3928C3.04158 14.06 4.3915 15.4116 6.05671 15.4116ZM3.63486 16.6983H8.47883V25.309H3.63486V16.6983Z" fill="black"/>
<path fill-rule="evenodd" clip-rule="evenodd" d="M25.2349 9.62159H26.6189V13.7785H28.6455C28.1018 6.20698 22.1209 4.52441 16.6838 4.52441H10.9007V9.62159H11.741C13.3227 9.62159 14.2618 10.6608 14.2618 12.3929C14.2618 14.1249 13.3227 15.1642 11.7904 15.1642H10.9007V25.309H16.6838C25.5315 25.309 28.5466 21.2016 28.6949 15.1642H25.2349V9.62159ZM18.5621 13.7785V15.1642H15.1021V9.62159H18.4632V11.0072H16.4861V11.6506H18.3644V13.0362H16.5355V13.7785H18.5621ZM20.8357 9.62159H22.8128L24.4933 15.1642H23.0599L22.7634 14.1249H20.9345L20.6379 15.1642H19.1551L20.8357 9.62159ZM21.3455 12.6898H21.33V12.7393L21.3455 12.6898ZM21.3455 12.6898H22.3186L21.8737 11.1557H21.8243L21.3455 12.6898ZM10.9007 13.7785V11.0072H11.741C12.2847 11.0072 12.8778 11.1557 12.8778 12.3929C12.8778 13.6301 12.3341 13.7785 11.741 13.7785H10.9007Z" fill="#D50072"/>
</svg>
