<svg width="34" height="34" viewBox="0 0 34 34" fill="none" xmlns="http://www.w3.org/2000/svg">
<path fill-rule="evenodd" clip-rule="evenodd" d="M33.4217 30.6847C33.4217 31.4098 33.1336 32.1052 32.6209 32.618C32.1081 33.1307 31.4127 33.4188 30.6876 33.4188H3.31863C2.95932 33.4192 2.60345 33.3487 2.27138 33.2115C1.9393 33.0743 1.63753 32.873 1.38332 32.6191C1.1291 32.3651 0.927434 32.0636 0.789839 31.7317C0.652243 31.3997 0.581421 31.044 0.581421 30.6847V3.31694C0.581421 2.95763 0.652243 2.60185 0.789839 2.26993C0.927434 1.93801 1.1291 1.63647 1.38332 1.38254C1.63753 1.12862 1.9393 0.927289 2.27138 0.79007C2.60345 0.652852 2.95932 0.582433 3.31863 0.582842H30.6857C31.4108 0.582842 32.1063 0.870898 32.619 1.38364C33.1318 1.89638 33.4198 2.59181 33.4198 3.31694L33.4217 30.6847Z" fill="#EDAA00"/>
<path d="M18.9179 17.3553V11.4751L20.4534 11.1116V11.8815C20.4534 11.8815 20.8504 10.868 21.7726 10.6325C22.0565 10.5611 22.1994 10.604 22.1994 10.604V12.104C21.9231 12.1078 21.6501 12.1647 21.3954 12.2718C20.8262 12.4961 20.5403 12.987 20.5403 13.7326V16.9794L18.9179 17.3553ZM10.8268 19.2673C10.8268 19.2673 10.5783 18.8945 10.5783 17.5697V14.6423L9.78788 14.8288V13.6239L10.5789 13.4375V12.1226L12.2113 11.7374V13.0491L13.3646 12.7757V13.9812L12.2113 14.2552V17.2379C12.2113 18.5931 12.5711 18.8535 12.5711 18.8535L10.8268 19.2673ZM13.5348 15.7695C13.5348 14.7237 13.684 13.9613 14.0034 13.376C14.383 12.6812 15.0075 12.2289 15.916 12.022C17.7062 11.6149 18.3518 12.675 18.3263 14.0955C18.3183 14.6032 18.3201 14.8511 18.3201 14.8511L15.166 15.5924V15.6434C15.166 16.6376 15.3748 17.108 16.0036 16.9738C16.5467 16.8594 16.6977 16.5189 16.7406 16.0989C16.748 16.0299 16.7505 15.8578 16.7505 15.8578L18.2288 15.5036C18.2288 15.5036 18.2325 15.6248 18.2288 15.7596C18.2151 16.3244 18.0511 17.725 15.9974 18.2097C14.0525 18.6714 13.533 17.4833 13.533 15.7695H13.5348ZM15.9794 13.1168C15.4568 13.2355 15.1828 13.7482 15.1716 14.5976L16.7586 14.2198C16.7617 14.1813 16.7617 14.0955 16.7617 13.9638C16.7586 13.3231 16.5604 12.9851 15.98 13.1168H15.9794ZM27.7211 12.3308C27.6589 10.54 28.1237 9.11822 30.1215 8.66461C31.3966 8.37504 31.8794 8.70562 32.1242 9.02563C32.3597 9.33135 32.4505 9.74333 32.4505 10.3206V10.4275L30.8858 10.8003V10.5822C30.8858 9.89868 30.6994 9.6377 30.2023 9.76197C29.6113 9.91049 29.3727 10.471 29.3727 11.587V12.1071C29.3727 13.2411 29.5281 13.7606 30.2085 13.6177C30.8001 13.4934 30.8808 12.9764 30.892 12.5216C30.892 12.4501 30.8964 12.2214 30.8964 12.2214L32.4585 11.8536V12.0965C32.4542 13.5829 31.6706 14.5199 30.2017 14.8617C28.1803 15.3364 27.7838 14.1664 27.7217 12.3308H27.7211ZM22.3169 14.8375C22.3169 13.4754 23.116 13.0448 24.3171 12.5483C25.3965 12.1015 25.4195 11.8797 25.4244 11.4919C25.43 11.1657 25.279 10.8854 24.7409 11.0228C24.2469 11.147 24.1158 11.5062 24.0897 11.792C24.0806 11.8924 24.0773 11.9933 24.0798 12.094L22.5654 12.4513C22.5553 12.1495 22.5904 11.8479 22.6698 11.5565C22.9122 10.7419 23.6311 10.1938 24.8702 9.90738C26.4808 9.53455 27.0183 10.2429 27.0208 11.3428V13.947C27.0208 15.2066 27.2544 15.3905 27.2544 15.3905L25.7675 15.7428C25.6853 15.5709 25.6183 15.3921 25.5674 15.2084C25.5674 15.2084 25.2424 16.028 24.1202 16.2927C22.9395 16.5699 22.3181 15.8404 22.3181 14.8381L22.3169 14.8375ZM25.4157 12.9783C25.165 13.154 24.9002 13.3088 24.6241 13.4412C24.127 13.6842 23.9039 13.9824 23.9039 14.4423C23.9039 14.8406 24.1525 15.1028 24.5999 14.9909C25.0814 14.8704 25.4157 14.4211 25.4157 13.7979V12.9783ZM2.29396 23.389C2.12427 23.3886 1.95781 23.3425 1.8121 23.2556C1.6664 23.1686 1.54683 23.0439 1.466 22.8947C1.38517 22.7455 1.34605 22.5773 1.35277 22.4077C1.35949 22.2382 1.41179 22.0735 1.50418 21.9312L1.51412 21.9182L1.53214 21.9138L3.75049 21.39V23.0758L3.7157 23.0839C3.21237 23.205 2.61087 23.3424 2.48659 23.3678C2.42296 23.3821 2.35793 23.3892 2.29272 23.389H2.29396ZM2.29396 25.5458C2.04466 25.5458 1.80552 25.447 1.62895 25.271C1.45238 25.095 1.35276 24.8562 1.35194 24.6069C1.35095 24.4249 1.40393 24.2467 1.50418 24.0949L1.51412 24.0781L1.53214 24.0744L3.75049 23.5505V25.2364L3.7157 25.2457C3.21237 25.3662 2.61087 25.506 2.48659 25.5303C2.42273 25.5428 2.3578 25.549 2.29272 25.5489L2.29396 25.5458ZM2.29396 27.7064C2.04407 27.7062 1.80446 27.6068 1.62782 27.4301C1.45117 27.2533 1.35194 27.0136 1.35194 26.7637C1.35095 26.5818 1.40393 26.4036 1.50418 26.2517L1.51412 26.2343L3.75111 25.7074V27.3932L3.71632 27.4019C3.18503 27.5299 2.59409 27.6635 2.48722 27.6877C2.42331 27.6999 2.3584 27.7062 2.29334 27.7064" fill="#231F20"/>
<path d="M2.03297 21.3229L2.03235 11.8908L3.75172 11.4845V20.9159L2.03297 21.3229Z" fill="#231F20"/>
<path d="M6.31625 20.5206C6.30954 20.2437 6.19482 19.9803 5.99657 19.7868C5.79832 19.5933 5.53227 19.485 5.25523 19.485C4.9782 19.485 4.71214 19.5933 4.51389 19.7868C4.31564 19.9803 4.20092 20.2437 4.19421 20.5206V29.3369C4.19553 30.0982 4.49852 30.8281 5.03683 31.3665C5.57514 31.9049 6.30489 32.2081 7.06626 32.2095C7.86909 32.2095 10.0688 32.2058 10.0688 32.2058V24.4267C10.0692 24.198 10.0131 23.9728 9.90543 23.771C9.79778 23.5693 9.64194 23.3973 9.45176 23.2703L6.77483 21.4521V25.5806C6.77645 25.6115 6.77175 25.6424 6.76104 25.6714C6.75032 25.7005 6.73381 25.727 6.7125 25.7495C6.6912 25.7719 6.66554 25.7898 6.63711 25.802C6.60867 25.8142 6.57804 25.8205 6.54709 25.8205C6.51614 25.8205 6.48552 25.8142 6.45708 25.802C6.42864 25.7898 6.40299 25.7719 6.38168 25.7495C6.36038 25.727 6.34386 25.7005 6.33315 25.6714C6.32243 25.6424 6.31774 25.6115 6.31935 25.5806C6.31935 25.5365 6.31376 21.0656 6.31376 20.5206H6.31625ZM7.74917 13.9433C7.42407 14.0184 7.11901 14.1628 6.85478 14.3665C6.59056 14.5703 6.37338 14.8286 6.21807 15.1239V14.4634L4.6702 14.83V19.0635C4.94169 18.9564 5.23751 18.9263 5.525 18.9766C5.8125 19.027 6.08051 19.1557 6.29947 19.3487V16.6146C6.29947 15.9603 6.62632 15.4371 7.09112 15.3346C7.4422 15.2575 7.73425 15.383 7.73425 16.0063V19.9949L9.36415 19.6122V15.3936C9.36415 14.3702 8.97143 13.6537 7.74854 13.9433H7.74917ZM31.4457 7.9065C31.2463 7.90662 31.0512 7.84759 30.8853 7.73688C30.7194 7.62617 30.59 7.46874 30.5136 7.2845C30.4372 7.10027 30.4171 6.89751 30.4559 6.70185C30.4946 6.50619 30.5906 6.32644 30.7315 6.18531C30.8725 6.04418 31.0521 5.94801 31.2477 5.90898C31.4434 5.86995 31.6461 5.88979 31.8305 5.96601C32.0148 6.04223 32.1724 6.1714 32.2833 6.33718C32.3942 6.50296 32.4535 6.6979 32.4536 6.89737C32.4531 7.16447 32.3468 7.42048 32.1578 7.60929C31.9689 7.7981 31.7128 7.90431 31.4457 7.90464V7.9065ZM31.4457 6.015C31.2714 6.015 31.1009 6.0667 30.9559 6.16356C30.8109 6.26042 30.6979 6.39809 30.6312 6.55917C30.5644 6.72026 30.5469 6.89751 30.5809 7.06854C30.6148 7.23956 30.6988 7.39668 30.822 7.52002C30.9453 7.64336 31.1023 7.72738 31.2733 7.76148C31.4443 7.79557 31.6216 7.7782 31.7827 7.71155C31.9439 7.64491 32.0816 7.53199 32.1786 7.38707C32.2755 7.24215 32.3274 7.07174 32.3275 6.89737C32.3271 6.66356 32.2342 6.43941 32.0689 6.27402C31.9036 6.10864 31.6795 6.01549 31.4457 6.015Z" fill="#231F20"/>
<path d="M31.0785 6.29774H31.5135C31.6868 6.29774 31.8242 6.38412 31.8242 6.61341C31.8242 6.7731 31.7533 6.89614 31.6191 6.91727C31.7434 6.9297 31.8055 6.9968 31.8111 7.17017C31.8111 7.24784 31.8148 7.34478 31.8186 7.41873C31.8185 7.43985 31.8239 7.46063 31.8341 7.47911C31.8443 7.49759 31.8591 7.51317 31.877 7.52436H31.6558C31.6335 7.4925 31.6218 7.45448 31.6222 7.41562C31.6147 7.34167 31.616 7.2727 31.6135 7.18322C31.6135 7.049 31.5694 6.98997 31.4339 6.98997H31.278V7.52436H31.081L31.0785 6.29774ZM31.4321 6.84581C31.4588 6.84828 31.4857 6.84477 31.5109 6.83553C31.5361 6.82629 31.559 6.81156 31.5778 6.79241C31.5966 6.77325 31.6109 6.75014 31.6196 6.72477C31.6284 6.6994 31.6314 6.6724 31.6284 6.64572C31.6284 6.51461 31.5725 6.44626 31.442 6.44626H31.278V6.84581H31.4321Z" fill="#231F20"/>
</svg>
