<svg width="38" height="30" viewBox="0 0 38 30" fill="none" xmlns="http://www.w3.org/2000/svg">
<path d="M28.6363 15.5746C29.6637 15.5969 30.6968 15.5292 31.7201 15.6098C32.7563 15.8031 33.0061 17.3719 32.0855 17.8856C31.4573 18.2241 30.7111 18.0117 30.0301 18.0714H28.6363V15.5746ZM32.3141 12.7486C32.5423 13.5542 31.7657 14.2776 30.9898 14.1666H28.6363C28.6528 13.4069 28.604 12.5822 28.6602 11.8625C29.603 11.889 30.5545 11.8083 31.4919 11.9047C31.8946 12.0059 32.2317 12.337 32.3141 12.7486ZM37.978 0.800898C38.0218 2.3395 37.9844 3.95943 37.9969 5.52924C37.994 11.9115 38.0031 18.2936 37.9919 24.6763C37.9506 27.0682 35.8308 29.1466 33.4554 29.1943C31.0778 29.204 28.6998 29.1958 26.3218 29.1985V19.5498C28.9127 19.5364 31.505 19.5769 34.0948 19.5296C35.2963 19.4541 36.6123 18.6614 36.6682 17.3392C36.8096 16.0114 35.5577 15.0929 34.3691 14.9479C33.9122 14.936 33.9256 14.8147 34.3691 14.7617C35.5028 14.5167 36.393 13.3434 36.0595 12.1683C35.7752 10.9324 34.4092 10.4541 33.273 10.4564C30.9563 10.4407 28.6391 10.4542 26.3223 10.4497C26.3372 8.64838 26.2911 6.84515 26.3472 5.04518C26.5307 2.69644 28.7039 0.75949 31.0459 0.801513C33.3569 0.801162 35.6676 0.801162 37.978 0.801074V0.800898Z" fill="url(#paint0_linear)"/>
<path d="M0.141213 5.28845C0.20038 2.90032 2.32925 0.838976 4.70155 0.804074C7.07042 0.796777 9.43965 0.803019 11.8085 0.800909C11.802 8.79108 11.8214 16.7821 11.7988 24.7719C11.7075 27.131 9.60185 29.153 7.25539 29.1948C4.88204 29.2034 2.50842 29.196 0.134971 29.1984V19.2244C2.44037 19.769 4.85795 20.0009 7.20986 19.6396C8.61571 19.4134 10.1539 18.723 10.6298 17.2645C10.9801 16.0169 10.7829 14.7039 10.835 13.4234V10.4497H6.76483C6.74654 12.4164 6.80228 14.3866 6.73538 16.351C6.62566 17.5584 5.42992 18.3256 4.29116 18.2846C2.87889 18.2995 0.0802874 17.2611 0.0802874 17.2611C0.0732541 13.5762 0.121257 8.96146 0.141213 5.2888V5.28845Z" fill="url(#paint1_linear)"/>
<path d="M13.3264 11.6492C13.1121 11.6946 13.2833 10.9194 13.2285 10.6253C13.2431 8.76593 13.198 6.9045 13.2534 5.04641C13.4365 2.68774 15.6263 0.745957 17.9778 0.801167H24.9026C24.8961 8.79134 24.9154 16.7824 24.8929 24.7721C24.8015 27.1312 22.6957 29.1532 20.3492 29.195C17.9757 29.204 15.6021 29.1965 13.2284 29.1987V18.2709C14.8495 19.601 17.0527 19.808 19.0723 19.8116C20.5948 19.8111 22.1084 19.5763 23.587 19.2252V17.2232C21.9207 18.0536 19.962 18.5811 18.1149 18.104C16.8264 17.7833 15.8911 16.5381 15.912 15.2084C15.7627 13.8255 16.5732 12.3656 17.9321 11.9545C19.6193 11.4263 21.4581 11.8303 23.0396 12.517C23.3784 12.6944 23.7224 12.9145 23.5869 12.3481V10.7745C20.9419 10.1452 18.127 9.91366 15.4697 10.5983C14.7006 10.8152 13.9512 11.1443 13.3264 11.6494V11.6492Z" fill="url(#paint2_linear)"/>
<defs>
<linearGradient id="paint0_linear" x1="26.2421" y1="14.3925" x2="37.9233" y2="14.3925" gradientUnits="userSpaceOnUse">
<stop stop-color="#58B03A"/>
<stop offset="1" stop-color="#55B330"/>
</linearGradient>
<linearGradient id="paint1_linear" x1="-0.113399" y1="15.2716" x2="11.6171" y2="15.2716" gradientUnits="userSpaceOnUse">
<stop stop-color="#0F6EB6"/>
<stop offset="1" stop-color="#006DBA"/>
</linearGradient>
<linearGradient id="paint2_linear" x1="13.2113" y1="14.6679" x2="24.9004" y2="14.6679" gradientUnits="userSpaceOnUse">
<stop stop-color="#DE0D3D"/>
<stop offset="1" stop-color="#E30138"/>
</linearGradient>
</defs>
</svg>
