<svg viewBox="0 0 24 24" version="1.1" xmlns="http://www.w3.org/2000/svg" xmlns:xlink="http://www.w3.org/1999/xlink">
    <g class="justify-all" stroke="none" stroke-width="1" fill="none" fill-rule="evenodd">
        <path d="M0.74598631,21.4545455 C0.33378967,21.4545455 0,21.1294545 0,20.7272727 C0,20.3250909 0.334536403,20 0.746733043,20 L15.6686994,20 L23.253267,20 C23.6654636,20 24,20.3250909 24,20.7272727 C24,21.1294545 23.6654636,21.4545455 23.253267,21.4545455 L15.6686994,21.4545455 L0.74598631,21.4545455 Z M0.75,15.4545455 C0.336,15.4545455 0,15.1294545 0,14.7272727 C0,14.3250909 0.336,14 0.75,14 L23.25,14 C23.664,14 24,14.3250909 24,14.7272727 C24,15.1294545 23.664,15.4545455 23.25,15.4545455 L0.75,15.4545455 Z M23.25,2 C23.664,2 24,2.32509091 24,2.72727273 C24,3.12945455 23.664,3.45454545 23.25,3.45454545 L0.75,3.45454545 C0.336,3.45454545 0,3.12945455 0,2.72727273 C0,2.32509091 0.336,2 0.75,2 L23.25,2 Z M23.253267,8 C23.6654636,8 24,8.32509091 24,8.72727273 C24,9.12945455 23.6654636,9.45454545 23.253267,9.45454545 L15.6686994,9.45454545 L0.746733043,9.45454545 C0.334536403,9.45454545 0,9.12945455 0,8.72727273 C0,8.32509091 0.334536403,8 0.746733043,8 L15.6686994,8 L23.253267,8 Z" fill="#000000"></path>
    </g>
</svg>