<?xml version="1.0" encoding="utf-8"?>
<!-- Generator: Adobe Illustrator 17.1.0, SVG Export Plug-In . SVG Version: 6.00 Build 0)  -->
<!DOCTYPE svg PUBLIC "-//W3C//DTD SVG 1.1//EN" "http://www.w3.org/Graphics/SVG/1.1/DTD/svg11.dtd">
<svg version="1.1" id="Layer_1" xmlns="http://www.w3.org/2000/svg" xmlns:xlink="http://www.w3.org/1999/xlink" x="0px" y="0px"
	 viewBox="0 0 50 50" enable-background="new 0 0 50 50" xml:space="preserve">
<path d="M9.719,38.5L9.719,38.5h19.984H39.86c0.552,0,1-0.447,1-1s-0.448-1-1-1H29.703H9.72h0c-0.552,0-1,0.447-1,1
	S9.167,38.5,9.719,38.5z"/>
<path d="M9.719,30.5h30c0.552,0,1-0.447,1-1s-0.448-1-1-1h-30c-0.552,0-1,0.447-1,1S9.167,30.5,9.719,30.5z"/>
<path d="M39.719,12.5h-30c-0.552,0-1,0.447-1,1s0.448,1,1,1h30c0.552,0,1-0.447,1-1S40.271,12.5,39.719,12.5z"/>
<path d="M39.86,20.5H29.703H9.72h0c-0.552,0-1,0.447-1,1s0.448,1,1,1h0h19.983H39.86c0.552,0,1-0.447,1-1S40.412,20.5,39.86,20.5z"
	/>
</svg>
