<?xml version="1.0" encoding="utf-8"?>
<!-- Generator: Adobe Illustrator 17.1.0, SVG Export Plug-In . SVG Version: 6.00 Build 0)  -->
<!DOCTYPE svg PUBLIC "-//W3C//DTD SVG 1.1//EN" "http://www.w3.org/Graphics/SVG/1.1/DTD/svg11.dtd">
<svg version="1.1" id="Layer_1" xmlns="http://www.w3.org/2000/svg" xmlns:xlink="http://www.w3.org/1999/xlink" x="0px" y="0px"
	 viewBox="0 0 50 50" enable-background="new 0 0 50 50" xml:space="preserve">
<path d="M14.126,30.481c2.614,0,4.795-1.96,5.275-4.546h14.482v2.722c0,0.553,0.448,1,1,1s1-0.447,1-1v-2.722h2.867v4.314
	c0,0.553,0.448,1,1,1s1-0.447,1-1v-5.314c0-0.553-0.448-1-1-1H19.422c-0.426-2.655-2.635-4.686-5.296-4.686
	c-2.964,0-5.376,2.519-5.376,5.615S11.162,30.481,14.126,30.481z M14.126,21.25c1.861,0,3.376,1.622,3.376,3.615
	c0,1.994-1.515,3.616-3.376,3.616s-3.376-1.622-3.376-3.616C10.75,22.872,12.265,21.25,14.126,21.25z"/>
</svg>
