<svg viewBox="0 0 24 24" version="1.1" xmlns="http://www.w3.org/2000/svg" xmlns:xlink="http://www.w3.org/1999/xlink">
    <g class="key" stroke="none" stroke-width="1" fill="none" fill-rule="evenodd">
        <path d="M4.032,16.1687273 C5.9925,16.1687273 7.62825,14.7432727 7.98825,12.8625455 L18.84975,12.8625455 L18.84975,14.8421818 C18.84975,15.2443636 19.18575,15.5694545 19.59975,15.5694545 C20.01375,15.5694545 20.34975,15.2443636 20.34975,14.8421818 L20.34975,12.8625455 L22.5,12.8625455 L22.5,16 C22.5,16.4021818 22.836,16.7272727 23.25,16.7272727 C23.664,16.7272727 24,16.4021818 24,16 L24,12.1352727 C24,11.7330909 23.664,11.408 23.25,11.408 L8.004,11.408 C7.6845,9.47709091 6.02775,8 4.032,8 C1.809,8 0,9.832 0,12.0836364 C0,14.3352727 1.809,16.1687273 4.032,16.1687273 Z M4.032,9.45527273 C5.42775,9.45527273 6.564,10.6349091 6.564,12.0843636 C6.564,13.5345455 5.42775,14.7141818 4.032,14.7141818 C2.63625,14.7141818 1.5,13.5345455 1.5,12.0843636 C1.5,10.6349091 2.63625,9.45527273 4.032,9.45527273 Z" fill="#000000" fill-rule="nonzero"></path>
    </g>
</svg>