<svg viewBox="0 0 24 24" version="1.1" xmlns="http://www.w3.org/2000/svg" xmlns:xlink="http://www.w3.org/1999/xlink">
    <g class="label" stroke="none" stroke-width="1" fill="none" fill-rule="evenodd">
        <path d="M11.0327614,0.2205 L23.7800574,12.96675 C24.0733142,13.26 24.0733142,13.734 23.7800574,14.02725 L14.026831,23.78025 C13.8865777,23.92125 13.6960733,24 13.4965686,24 C13.297064,24 13.1073096,23.92125 12.9663063,23.78025 L0.21976041,11.034 C0.0780071194,10.89225 -0.000744708953,10.701 5.30846e-06,10.50075 L0.0345061094,0.747 C0.0360061443,0.33375 0.371263928,0 0.784523522,0 L10.5024991,0.00075 C10.7020038,0.00075 10.8917582,0.0795 11.0327614,0.2205 Z M13.4965686,22.1895 L22.1892705,13.497 L10.1927419,1.50075 L1.53229088,1.5 L1.50154017,10.194 L13.4965686,22.1895 Z M5.89818182,7.79636364 C4.84984495,7.79636364 4,6.94651869 4,5.89818182 C4,4.84984495 4.84984495,4 5.89818182,4 C6.94651869,4 7.79636364,4.84984495 7.79636364,5.89818182 C7.79636364,6.94651869 6.94651869,7.79636364 5.89818182,7.79636364 Z" fill="#000000" fill-rule="nonzero"></path>
    </g>
</svg>