<?xml version="1.0" encoding="utf-8"?>
<!-- Generator: Adobe Illustrator 17.1.0, SVG Export Plug-In . SVG Version: 6.00 Build 0)  -->
<!DOCTYPE svg PUBLIC "-//W3C//DTD SVG 1.1//EN" "http://www.w3.org/Graphics/SVG/1.1/DTD/svg11.dtd">
<svg version="1.1" id="Layer_1" xmlns="http://www.w3.org/2000/svg" xmlns:xlink="http://www.w3.org/1999/xlink" x="0px" y="0px"
	 viewBox="0 0 50 50" enable-background="new 0 0 50 50" xml:space="preserve">
<path d="M24.896,9.463c-0.188-0.188-0.441-0.293-0.707-0.293L11.232,9.169c-0.551,0-0.998,0.445-1,0.996L10.186,23.17
	c-0.001,0.267,0.104,0.522,0.293,0.711l16.995,16.995c0.188,0.188,0.441,0.293,0.707,0.293s0.52-0.105,0.707-0.293l13.004-13.004
	c0.391-0.391,0.391-1.023,0-1.414L24.896,9.463z M28.181,38.755L12.188,22.761l0.041-11.592l11.547,0.001l15.995,15.995
	L28.181,38.755z"/>
<circle cx="20.362" cy="19.346" r="2.61"/>
</svg>
