<?xml version="1.0" encoding="utf-8"?>
<!-- Generator: Adobe Illustrator 17.1.0, SVG Export Plug-In . SVG Version: 6.00 Build 0)  -->
<!DOCTYPE svg PUBLIC "-//W3C//DTD SVG 1.1//EN" "http://www.w3.org/Graphics/SVG/1.1/DTD/svg11.dtd">
<svg version="1.1" id="Layer_1" xmlns="http://www.w3.org/2000/svg" xmlns:xlink="http://www.w3.org/1999/xlink" x="0px" y="0px"
	 viewBox="0 0 50 50" enable-background="new 0 0 50 50" xml:space="preserve">
<path d="M23.243,35.239c0,0.552,0.448,1,1,1h2.362c0.552,0,1-0.448,1-1v-3.231c0.815-0.653,1.301-1.639,1.301-2.695
	c0-1.916-1.562-3.475-3.482-3.475s-3.482,1.559-3.482,3.475c0,1.056,0.486,2.042,1.301,2.695V35.239z M25.425,27.839
	c0.817,0,1.482,0.662,1.482,1.475c0,0.531-0.298,1.024-0.779,1.285c-0.322,0.175-0.522,0.512-0.522,0.878v2.762h-0.362v-2.762
	c0-0.366-0.2-0.704-0.522-0.878c-0.48-0.261-0.779-0.754-0.779-1.285C23.942,28.5,24.607,27.839,25.425,27.839z"/>
<path d="M14.425,40.587h22c0.552,0,1-0.448,1-1V22.643c0-0.552-0.448-1-1-1H16.51c-1.015-3.006-0.255-6.328,2.036-8.59
	c3.292-3.249,8.675-3.277,11.998-0.067c0.072,0.07,2.477,2.444,2.477,2.444l1.405-1.424c0,0-2.466-2.434-2.489-2.456
	c-4.101-3.963-10.738-3.927-14.795,0.08c-2.678,2.644-3.686,6.462-2.735,10.016c-0.543,0.01-0.981,0.451-0.981,0.996v16.944
	C13.425,40.139,13.872,40.587,14.425,40.587z M35.425,38.587h-20V23.643h20V38.587z"/>
</svg>
