<svg width="24px" height="24px" viewBox="0 0 24 24" version="1.1" xmlns="http://www.w3.org/2000/svg" xmlns:xlink="http://www.w3.org/1999/xlink">
    <g class="lock-open" stroke="none" stroke-width="1" fill="none" fill-rule="evenodd">
        <path d="M10.4494545,19.8101818 L10.4494545,17.4603636 C9.85672727,16.9854545 9.50327273,16.2683636 9.50327273,15.5003636 C9.50327273,14.1069091 10.6392727,12.9730909 12.0356364,12.9730909 C13.432,12.9730909 14.568,14.1069091 14.568,15.5003636 C14.568,16.2683636 14.2145455,16.9854545 13.6218182,17.4603636 L13.6218182,19.8101818 C13.6218182,20.2116364 13.296,20.5374545 12.8945455,20.5374545 L11.1767273,20.5374545 C10.7752727,20.5374545 10.4494545,20.2116364 10.4494545,19.8101818 Z M12.0363636,14.4283636 C11.4414545,14.4283636 10.9578182,14.9090909 10.9585455,15.5010909 C10.9585455,15.8872727 11.176,16.2458182 11.5250909,16.4356364 C11.7592727,16.5621818 11.9047273,16.808 11.9047273,17.0741818 L11.9047273,19.0829091 L12.168,19.0829091 L12.168,17.0741818 C12.168,16.808 12.3134545,16.5629091 12.5476364,16.4356364 C12.8974545,16.2458182 13.1141818,15.8872727 13.1141818,15.5010909 C13.1141818,14.9098182 12.6305455,14.4283636 12.0363636,14.4283636 Z M3.74928242,24 C3.33451517,24 2.99925122,23.663852 3.00000126,23.2489192 L3.00000126,10.5353206 C3.00000126,10.1263905 3.32851492,9.79549482 3.73578186,9.78799151 C3.02250219,7.1213172 3.77853364,4.25655565 5.78711719,2.27268202 C8.82999377,-0.733891971 13.8079508,-0.760903867 16.8838288,2.21265559 C16.9010795,2.22916286 18.7506564,4.0554671 18.7506564,4.0554671 L17.6968626,5.12393762 C17.6968626,5.12393762 15.8930376,3.3426532 15.8390353,3.29013007 C13.3466816,0.881569423 9.3092637,0.902578675 6.84016099,3.34040221 C5.12183952,5.03764962 4.55181581,7.53024728 5.31309747,9.78574052 L20.2499688,9.78574052 C20.663986,9.78574052 21,10.1218885 21,10.5360709 L21,23.2496696 C21,23.663852 20.663986,24 20.2499688,24 L3.74928242,24 Z M19.4999376,22.4993392 L19.4999376,11.2864014 L4.49931362,11.2864014 L4.49931362,22.4993392 L19.4999376,22.4993392 Z" fill="#000000" fill-rule="nonzero"></path>
    </g>
</svg>