<?xml version="1.0" encoding="utf-8"?>
<!-- Generator: Adobe Illustrator 17.1.0, SVG Export Plug-In . SVG Version: 6.00 Build 0)  -->
<!DOCTYPE svg PUBLIC "-//W3C//DTD SVG 1.1//EN" "http://www.w3.org/Graphics/SVG/1.1/DTD/svg11.dtd">
<svg version="1.1" id="Layer_1" xmlns="http://www.w3.org/2000/svg" xmlns:xlink="http://www.w3.org/1999/xlink" x="0px" y="0px"
	 viewBox="0 0 50 50" enable-background="new 0 0 50 50" xml:space="preserve">
<path d="M14.425,40.594h22c0.552,0,1-0.448,1-1v-17.11c0-0.552-0.448-1-1-1h-0.474c0-1.03,0-2.488,0-2.508
	c-0.062-5.725-4.783-10.382-10.525-10.382c-5.759,0-10.48,4.671-10.526,10.42l0,2.47h-0.474c-0.552,0-1,0.448-1,1v17.11
	C13.425,40.146,13.872,40.594,14.425,40.594z M35.425,38.594h-20v-15.11h20V38.594z M16.899,19.022
	c0.037-4.647,3.861-8.428,8.526-8.428c4.651,0,8.476,3.77,8.525,8.399c0,0.065,0,1.482,0,2.491H16.898L16.899,19.022z"/>
<path d="M23.243,35.239c0,0.552,0.448,1,1,1h2.362c0.552,0,1-0.448,1-1v-3.231c0.815-0.653,1.301-1.639,1.301-2.695
	c0-1.916-1.562-3.475-3.482-3.475s-3.482,1.559-3.482,3.475c0,1.056,0.486,2.042,1.301,2.695V35.239z M25.425,27.839
	c0.817,0,1.482,0.662,1.482,1.475c0,0.531-0.298,1.024-0.779,1.285c-0.322,0.175-0.522,0.512-0.522,0.878v2.762h-0.362v-2.762
	c0-0.366-0.2-0.704-0.522-0.878c-0.48-0.261-0.779-0.754-0.779-1.285C23.942,28.5,24.607,27.839,25.425,27.839z"/>
</svg>
