<svg viewBox="0 0 24 24" version="1.1" xmlns="http://www.w3.org/2000/svg" xmlns:xlink="http://www.w3.org/1999/xlink">
    <g class="lock-closed" stroke="none" stroke-width="1" fill="none" fill-rule="evenodd">
        <path d="M3.74928242,24 C3.33451517,24 2.99925122,23.664 3.00000126,23.25 L3.00000126,10.4175 C3.00000126,10.0035 3.33601523,9.6675 3.75003245,9.6675 L4.10554724,9.6675 L4.10554724,7.815 C4.14004868,3.50325 7.68094597,0 12.0003756,0 C16.3070548,0 19.8479521,3.49275 19.894454,7.7865 C19.894454,7.8015 19.894454,8.895 19.894454,9.6675 L20.2499688,9.6675 C20.663986,9.6675 21,10.0035 21,10.4175 L21,23.25 C21,23.664 20.663986,24 20.2499688,24 L3.74928242,24 Z M19.4999376,22.5 L19.4999376,11.1675 L4.49931362,11.1675 L4.49931362,22.5 L19.4999376,22.5 Z M5.60485961,7.821 L5.60410958,9.6675 L18.3936416,9.6675 C18.3936416,8.91075 18.3936416,7.848 18.3936416,7.79925 C18.3568901,4.3275 15.4880207,1.5 11.9996256,1.5 C8.50073007,1.5 5.63261076,4.33575 5.60485961,7.821 Z M10.4494545,19.8101818 L10.4494545,17.4603636 C9.85672727,16.9854545 9.50327273,16.2683636 9.50327273,15.5003636 C9.50327273,14.1069091 10.6392727,12.9730909 12.0356364,12.9730909 C13.432,12.9730909 14.568,14.1069091 14.568,15.5003636 C14.568,16.2683636 14.2145455,16.9854545 13.6218182,17.4603636 L13.6218182,19.8101818 C13.6218182,20.2116364 13.296,20.5374545 12.8945455,20.5374545 L11.1767273,20.5374545 C10.7752727,20.5374545 10.4494545,20.2116364 10.4494545,19.8101818 Z M12.0363636,14.4283636 C11.4414545,14.4283636 10.9578182,14.9090909 10.9585455,15.5010909 C10.9585455,15.8872727 11.176,16.2458182 11.5250909,16.4356364 C11.7592727,16.5621818 11.9047273,16.808 11.9047273,17.0741818 L11.9047273,19.0829091 L12.168,19.0829091 L12.168,17.0741818 C12.168,16.808 12.3134545,16.5629091 12.5476364,16.4356364 C12.8974545,16.2458182 13.1141818,15.8872727 13.1141818,15.5010909 C13.1141818,14.9098182 12.6305455,14.4283636 12.0363636,14.4283636 Z" fill="#000000" fill-rule="nonzero"></path>
    </g>
</svg>