<svg width="46" height="29" viewBox="0 0 46 29" fill="none" xmlns="http://www.w3.org/2000/svg">
<path d="M28.1899 14.2539C28.1899 21.8787 22.0796 28.0599 14.5423 28.0599C7.00499 28.0599 0.894775 21.8787 0.894775 14.2539C0.894775 6.62908 7.00499 0.447937 14.5423 0.447937C22.0796 0.447937 28.1899 6.62908 28.1899 14.2539Z" fill="#ED0006"/>
<path d="M45.8948 14.2539C45.8948 21.8787 39.7845 28.0599 32.2472 28.0599C24.7099 28.0599 18.5997 21.8787 18.5997 14.2539C18.5997 6.62908 24.7099 0.447937 32.2472 0.447937C39.7845 0.447937 45.8948 6.62908 45.8948 14.2539Z" fill="#0099DF"/>
<path fill-rule="evenodd" clip-rule="evenodd" d="M23.3948 3.74606C26.3292 6.27833 28.1898 10.0463 28.1898 14.2539C28.1898 18.4615 26.3292 22.2295 23.3948 24.7618C20.4605 22.2295 18.5998 18.4615 18.5998 14.2539C18.5998 10.0463 20.4605 6.27833 23.3948 3.74606Z" fill="#6C6BBD"/>
</svg>
