<?xml version="1.0" encoding="utf-8"?>
<!-- Generator: Adobe Illustrator 17.1.0, SVG Export Plug-In . SVG Version: 6.00 Build 0)  -->
<!DOCTYPE svg PUBLIC "-//W3C//DTD SVG 1.1//EN" "http://www.w3.org/Graphics/SVG/1.1/DTD/svg11.dtd">
<svg version="1.1" id="Layer_1" xmlns="http://www.w3.org/2000/svg" xmlns:xlink="http://www.w3.org/1999/xlink" x="0px" y="0px"
	 viewBox="0 0 50 50" enable-background="new 0 0 50 50" xml:space="preserve">
<path fill="#231F20" d="M20.921,31.898c2.758,0,5.367-0.956,7.458-2.704l1.077,1.077l-0.358,0.358
	c-0.188,0.188-0.293,0.442-0.293,0.707s0.105,0.52,0.293,0.707l8.257,8.256c0.195,0.195,0.451,0.293,0.707,0.293
	s0.512-0.098,0.707-0.293l2.208-2.208c0.188-0.188,0.293-0.442,0.293-0.707s-0.105-0.52-0.293-0.707l-8.257-8.256
	c-0.391-0.391-1.023-0.391-1.414,0l-0.436,0.436l-1.073-1.073c1.793-2.104,2.777-4.743,2.777-7.537c0-3.112-1.212-6.038-3.413-8.239
	s-5.127-3.413-8.239-3.413s-6.038,1.212-8.238,3.413c-2.201,2.201-3.413,5.126-3.413,8.239c0,3.112,1.212,6.038,3.413,8.238
	C14.883,30.687,17.809,31.898,20.921,31.898z M38.855,37.385l-0.794,0.793l-6.843-6.842l0.794-0.793L38.855,37.385z M14.097,13.423
	c1.823-1.823,4.246-2.827,6.824-2.827s5.002,1.004,6.825,2.827c1.823,1.823,2.827,4.247,2.827,6.825
	c0,2.578-1.004,5.001-2.827,6.824c-1.823,1.823-4.247,2.827-6.825,2.827s-5.001-1.004-6.824-2.827
	c-1.823-1.823-2.827-4.247-2.827-6.824C11.27,17.669,12.273,15.246,14.097,13.423z"/>
</svg>
