<svg width="24px" height="24px" viewBox="0 0 24 24" version="1.1" xmlns="http://www.w3.org/2000/svg" xmlns:xlink="http://www.w3.org/1999/xlink">
    <g class="magnifying-glass-plus" stroke="none" stroke-width="1" fill="none" fill-rule="evenodd">
        <path d="M9.03834985,17.8522206 C6.66048411,17.8522206 4.4252012,16.9521925 2.74316938,15.3184614 C-0.726346156,11.9465961 -0.726346156,6.4600246 2.74316938,3.0874392 C4.42445858,1.45298813 6.65974149,0.55296 9.03760723,0.55296 C11.415473,0.55296 13.6507559,1.45298813 15.3320451,3.0874392 C18.6151633,6.27857893 18.7867082,11.3612178 15.8555914,14.7554038 L23.6850226,22.3646016 C23.9746439,22.6461304 23.9739013,23.1019047 23.6835373,23.3827134 C23.5387266,23.5223978 23.3486162,23.59296 23.1592484,23.59296 C22.9691379,23.59296 22.7782849,23.5223978 22.6334742,23.3812734 L14.8107266,15.7778358 C13.2014714,17.1163576 11.1793202,17.8522206 9.03834985,17.8522206 Z M3.79546037,4.10411097 C0.902959726,6.91579884 0.902959726,11.4893818 3.79546037,14.3017897 C5.19603963,15.6633522 7.05778523,16.4128956 9.03834985,16.4128956 C11.0189145,16.4128956 12.8806601,15.6633522 14.2812393,14.3017897 C17.17374,11.4901018 17.17374,6.91579884 14.2812393,4.10411097 C12.8806601,2.74254842 11.0189145,1.993005 9.03834985,1.993005 C7.05778523,1.993005 5.19603963,2.74254842 3.79546037,4.10411097 Z M5.72727273,9.91127273 C5.32509091,9.91127273 5,9.58618182 5,9.184 C5,8.78181818 5.32581818,8.45672727 5.72727273,8.45672727 L8.45672727,8.45672727 L8.45672727,5.72727273 C8.45672727,5.32509091 8.78254545,5 9.184,5 C9.58545455,5 9.91127273,5.32509091 9.91127273,5.72727273 L9.91127273,8.45672727 L12.64,8.45672727 C13.0414545,8.45672727 13.3672727,8.78181818 13.3672727,9.184 C13.3672727,9.58618182 13.0414545,9.91127273 12.64,9.91127273 L9.91127273,9.91127273 L9.91127273,12.6407273 C9.91127273,13.0429091 9.58545455,13.368 9.184,13.368 C8.78254545,13.368 8.45672727,13.0429091 8.45672727,12.6407273 L8.45672727,9.91127273 L5.72727273,9.91127273 Z" fill="#000000" fill-rule="nonzero"></path>
    </g>
</svg>