<svg viewBox="0 0 24 24" version="1.1" xmlns="http://www.w3.org/2000/svg" xmlns:xlink="http://www.w3.org/1999/xlink">
    <g class="magnet" stroke="none" stroke-width="1" fill="none" fill-rule="evenodd">
        <path d="M23.7799364,13.188 C24.0733545,12.89475 24.0733545,12.42075 23.7799364,12.1275 L20.2641711,8.613 C20.1230902,8.472 19.932481,8.39325 19.733617,8.39325 C19.534753,8.39325 19.3433933,8.472 19.2030629,8.613 L11.7145204,16.09725 C11.1149267,16.6785 10.3464863,16.99875 9.55103031,16.99875 C8.84787727,16.99875 8.19950562,16.73775 7.72598419,16.2645 C6.68513758,15.22425 6.76468317,13.4325 7.89933356,12.27225 C7.95636625,12.21525 10.4537978,9.7185 12.5520005,7.6215 C12.5520005,7.6215 12.5520005,7.6215 12.5520005,7.6215 C12.5520005,7.6215 12.5520005,7.6215 12.5520005,7.6215 C13.9793186,6.195 15.2235318,4.9515 15.3803717,4.79475 C15.6737899,4.5015 15.6737899,4.0275 15.3803717,3.73425 L11.8646065,0.21975 C11.7235256,0.07875 11.5329163,5.16253706e-15 11.3333019,5.16253706e-15 C11.3333019,5.16253706e-15 11.3333019,5.16253706e-15 11.3325515,5.16253706e-15 C11.1329371,0.00075 10.9415774,0.08025 10.8012469,0.22125 C10.7697289,0.2535 9.49024547,1.53225 7.97437657,3.04725 C7.94586023,3.07575 7.91809431,3.1035 7.88957797,3.132 C5.6577987,5.3625 2.95925189,8.0595 2.94499372,8.0745 C-0.815411755,11.919 -0.999267142,17.9205 2.53525886,21.453 C4.17870088,23.0955 6.40897928,24 8.81485834,24 C11.429357,24 13.9425475,22.95975 15.8876625,21.07425 C15.9334387,21.03075 23.7011412,13.26675 23.7799364,13.188 Z M11.3348028,1.81125 L13.7894598,4.2645 C13.1343343,4.91925 12.5595048,5.49375 12.0214464,6.03075 L9.56678935,3.5775 C10.284951,2.8605 10.9168132,2.229 11.3348028,1.81125 Z M14.845315,19.995 C13.1786097,21.6105 11.036882,22.50075 8.81485834,22.50075 C6.80970898,22.50075 4.95614652,21.75225 3.59636709,20.3925 C0.641173163,17.439 0.83028156,12.38325 4.01660797,9.12675 C4.07063894,9.07275 6.39997412,6.74475 8.50643155,4.63875 L10.9610886,7.092 C6.8524835,11.19825 6.83072103,11.22075 6.8299706,11.2215 C5.11974029,12.969 5.04619813,15.70725 6.66487596,17.3265 C7.42205998,18.08325 8.44714757,18.4995 9.55103031,18.4995 C10.7382108,18.4995 11.8781142,18.02925 12.7673739,17.16675 L16.8984919,13.038 L19.3531489,15.49125 C17.2436898,17.59875 14.9121033,19.929 14.845315,19.995 Z M20.4142571,14.43075 L17.9596001,11.9775 L19.733617,10.2045 L22.188274,12.65775 C21.769534,13.07625 21.1346701,13.71 20.4142571,14.43075 Z" fill="#000000" fill-rule="nonzero"></path>
    </g>
</svg>