<?xml version="1.0" encoding="utf-8"?>
<!-- Generator: Adobe Illustrator 17.1.0, SVG Export Plug-In . SVG Version: 6.00 Build 0)  -->
<!DOCTYPE svg PUBLIC "-//W3C//DTD SVG 1.1//EN" "http://www.w3.org/Graphics/SVG/1.1/DTD/svg11.dtd">
<svg version="1.1" id="Layer_1" xmlns="http://www.w3.org/2000/svg" xmlns:xlink="http://www.w3.org/1999/xlink" x="0px" y="0px"
	 viewBox="0 0 50 50" enable-background="new 0 0 50 50" xml:space="preserve">
<path d="M42.56,26.854c0.391-0.391,0.391-1.023,0-1.414l-4.685-4.686c-0.188-0.188-0.442-0.293-0.707-0.293s-0.52,0.105-0.707,0.293
	l-9.979,9.979c-0.799,0.775-1.823,1.202-2.883,1.202c-0.937,0-1.801-0.348-2.432-0.979c-1.387-1.387-1.281-3.776,0.231-5.323
	c0.076-0.076,3.404-3.405,6.2-6.201c0,0,0,0,0,0s0,0,0,0c1.902-1.902,3.56-3.56,3.769-3.769c0.391-0.391,0.391-1.023,0-1.414
	l-4.685-4.686c-0.188-0.188-0.442-0.293-0.708-0.293c0,0,0,0-0.001,0c-0.266,0.001-0.521,0.107-0.708,0.295
	c-0.042,0.043-1.747,1.748-3.767,3.768l0,0l0,0c-0.038,0.038-0.075,0.075-0.113,0.113c-2.974,2.974-6.57,6.57-6.589,6.59
	C9.785,25.162,9.54,33.164,14.25,37.874c2.19,2.19,5.162,3.396,8.368,3.396c3.484,0,6.833-1.387,9.425-3.901
	C32.104,37.311,42.455,26.959,42.56,26.854z M25.976,11.685l3.271,3.271c-0.873,0.873-1.639,1.639-2.356,2.355l-3.271-3.271
	C24.577,13.084,25.419,12.242,25.976,11.685z M30.654,35.93c-2.221,2.154-5.075,3.341-8.036,3.341c-2.672,0-5.142-0.998-6.954-2.811
	c-3.938-3.938-3.686-10.679,0.56-15.021c0.072-0.072,3.176-3.176,5.983-5.984l3.271,3.271c-5.475,5.475-5.504,5.505-5.505,5.506
	c-2.279,2.33-2.377,5.981-0.22,8.14c1.009,1.009,2.375,1.564,3.846,1.564c1.582,0,3.101-0.627,4.286-1.777l5.505-5.505l3.271,3.271
	C33.85,32.735,30.743,35.842,30.654,35.93z M38.075,28.511l-3.271-3.271l2.364-2.364l3.271,3.271
	C39.881,26.705,39.035,27.55,38.075,28.511z"/>
</svg>
