<?xml version="1.0" encoding="utf-8"?>
<!-- Generator: Adobe Illustrator 17.1.0, SVG Export Plug-In . SVG Version: 6.00 Build 0)  -->
<!DOCTYPE svg PUBLIC "-//W3C//DTD SVG 1.1//EN" "http://www.w3.org/Graphics/SVG/1.1/DTD/svg11.dtd">
<svg version="1.1" id="Layer_1" xmlns="http://www.w3.org/2000/svg" xmlns:xlink="http://www.w3.org/1999/xlink" x="0px" y="0px"
	 viewBox="0 0 50 50" enable-background="new 0 0 50 50" xml:space="preserve">
<path d="M22.183,33.818c2.883,0,5.606-1.022,7.773-2.881l10.534,10.56c0.195,0.196,0.452,0.294,0.708,0.294
	c0.255,0,0.511-0.098,0.706-0.292c0.391-0.39,0.392-1.023,0.002-1.414L31.363,29.517c3.947-4.714,3.716-11.773-0.705-16.205
	c-2.264-2.27-5.274-3.52-8.476-3.52s-6.212,1.25-8.476,3.52c-4.672,4.684-4.672,12.304,0,16.987
	C15.971,32.568,18.981,33.818,22.183,33.818z M15.123,14.724c1.886-1.891,4.393-2.932,7.06-2.932s5.174,1.041,7.06,2.932
	c3.895,3.905,3.895,10.258,0,14.163c-1.886,1.891-4.393,2.932-7.06,2.932s-5.174-1.041-7.06-2.932
	C11.228,24.981,11.228,18.629,15.123,14.724z"/>
<path d="M17.475,22.822h9.775c0.552,0,1-0.447,1-1s-0.448-1-1-1h-9.775c-0.552,0-1,0.447-1,1S16.922,22.822,17.475,22.822z"/>
</svg>
