<svg viewBox="0 0 24 24" version="1.1" xmlns="http://www.w3.org/2000/svg" xmlns:xlink="http://www.w3.org/1999/xlink">
    <g class="magnifying-glass-minus" stroke="none" stroke-width="1" fill="none" fill-rule="evenodd">
        <path d="M9.03834985,17.8522206 C6.66048411,17.8522206 4.4252012,16.9521925 2.74316938,15.3184614 C-0.726346156,11.9465961 -0.726346156,6.4600246 2.74316938,3.0874392 C4.42445858,1.45298813 6.65974149,0.55296 9.03760723,0.55296 C11.415473,0.55296 13.6507559,1.45298813 15.3320451,3.0874392 C18.6151633,6.27857893 18.7867082,11.3612178 15.8555914,14.7554038 L23.6850226,22.3646016 C23.9746439,22.6461304 23.9739013,23.1019047 23.6835373,23.3827134 C23.5387266,23.5223978 23.3486162,23.59296 23.1592484,23.59296 C22.9691379,23.59296 22.7782849,23.5223978 22.6334742,23.3812734 L14.8107266,15.7778358 C13.2014714,17.1163576 11.1793202,17.8522206 9.03834985,17.8522206 Z M3.79546037,4.10411097 C0.902959726,6.91579884 0.902959726,11.4893818 3.79546037,14.3017897 C5.19603963,15.6633522 7.05778523,16.4128956 9.03834985,16.4128956 C11.0189145,16.4128956 12.8806601,15.6633522 14.2812393,14.3017897 C17.17374,11.4901018 17.17374,6.91579884 14.2812393,4.10411097 C12.8806601,2.74254842 11.0189145,1.993005 9.03834985,1.993005 C7.05778523,1.993005 5.19603963,2.74254842 3.79546037,4.10411097 Z M5.49818182,9.89636364 C5.11208727,9.89636364 4.8,9.58427636 4.8,9.19818182 C4.8,8.81208727 5.11278545,8.5 5.49818182,8.5 L12.3229091,8.5 C12.7083055,8.5 13.0210909,8.81208727 13.0210909,9.19818182 C13.0210909,9.58427636 12.7083055,9.89636364 12.3229091,9.89636364 L5.49818182,9.89636364 Z" fill="#000000" fill-rule="nonzero"></path>
    </g>
</svg>