<?xml version="1.0" encoding="utf-8"?>
<!-- Generator: Adobe Illustrator 17.1.0, SVG Export Plug-In . SVG Version: 6.00 Build 0)  -->
<!DOCTYPE svg PUBLIC "-//W3C//DTD SVG 1.1//EN" "http://www.w3.org/Graphics/SVG/1.1/DTD/svg11.dtd">
<svg version="1.1" id="Layer_1" xmlns="http://www.w3.org/2000/svg" xmlns:xlink="http://www.w3.org/1999/xlink" x="0px" y="0px"
	 viewBox="0 0 50 50" enable-background="new 0 0 50 50" xml:space="preserve">
<path d="M22.954,33.818c2.883,0,5.606-1.022,7.773-2.881l10.534,10.56c0.195,0.196,0.452,0.294,0.708,0.294
	c0.255,0,0.511-0.098,0.706-0.292c0.391-0.39,0.392-1.023,0.002-1.414L32.134,29.517c3.947-4.714,3.717-11.773-0.705-16.205
	c-2.264-2.27-5.274-3.52-8.476-3.52s-6.212,1.25-8.476,3.52c-4.671,4.684-4.671,12.304,0,16.987
	C16.742,32.568,19.752,33.818,22.954,33.818z M15.895,14.724c1.886-1.891,4.393-2.932,7.06-2.932s5.174,1.041,7.06,2.932
	c3.895,3.905,3.895,10.258,0,14.163c-1.886,1.891-4.393,2.932-7.06,2.932s-5.174-1.041-7.06-2.932
	C12,24.981,12,18.629,15.895,14.724z"/>
<path d="M18.475,22.782h3.753v3.753c0,0.553,0.448,1,1,1s1-0.447,1-1v-3.753h3.752c0.552,0,1-0.447,1-1s-0.448-1-1-1h-3.752v-3.753
	c0-0.553-0.448-1-1-1s-1,0.447-1,1v3.753h-3.753c-0.552,0-1,0.447-1,1S17.922,22.782,18.475,22.782z"/>
</svg>
