<svg viewBox="0 0 24 24" version="1.1" xmlns="http://www.w3.org/2000/svg" xmlns:xlink="http://www.w3.org/1999/xlink">
    <g class="magnifying-glass-2" stroke="none" stroke-width="1" fill="none" fill-rule="evenodd">
        <path d="M8.73777306,17.4788886 C10.8063377,17.4788886 12.7631488,16.7618214 14.3314479,15.4506985 L15.1392231,16.2585242 L14.8707147,16.5270494 C14.7297103,16.6680626 14.6509578,16.8585805 14.6509578,17.0573491 C14.6509578,17.2561178 14.7297103,17.4473857 14.8707147,17.5876488 L21.0636582,23.7802294 C21.2099128,23.9264931 21.4019188,24 21.5939248,24 C21.7859308,24 21.9779368,23.9264931 22.1241914,23.7802294 L23.7802431,22.1240741 C23.9212475,21.9830609 24,21.7925431 24,21.5937744 C24,21.3950058 23.9212475,21.2037379 23.7802431,21.0634747 L17.5872996,14.8708941 C17.2940404,14.5776167 16.8200256,14.5776167 16.5267665,14.8708941 L16.1997562,15.1979248 L15.3949811,14.3930994 C16.7397731,12.8149514 17.4777962,10.8355158 17.4777962,8.73981936 C17.4777962,6.40560053 16.5687678,4.21089477 14.9179662,2.55999 C13.2671646,0.909085227 11.072596,0 8.73852308,0 C6.40445014,0 4.20988156,0.909085227 2.55982999,2.55999 C0.909028407,4.21089477 0,6.40485045 0,8.73981936 C0,11.0740382 0.909028407,13.2687439 2.55982999,14.9188986 C4.20913154,16.5705535 6.40370012,17.4788886 8.73777306,17.4788886 Z M22.1886934,21.5945245 L21.5931748,22.1893302 L16.4607644,17.0573491 L17.056283,16.4625434 L22.1886934,21.5945245 Z M3.61961311,3.6213395 C4.98690584,2.25396131 6.80421263,1.50089071 8.73777306,1.50089071 C10.6713335,1.50089071 12.4893903,2.25396131 13.856683,3.6213395 C15.2239757,4.98871769 15.9769993,6.80688815 15.9769993,8.74056943 C15.9769993,10.6742507 15.2239757,12.4916711 13.856683,13.8590493 C12.4893903,15.2264275 10.6713335,15.9794981 8.73777306,15.9794981 C6.80421263,15.9794981 4.98690584,15.2264275 3.61961311,13.8590493 C2.25232039,12.4916711 1.49929685,10.6735006 1.49929685,8.74056943 C1.49929685,6.80613808 2.25157036,4.98871769 3.61961311,3.6213395 Z" fill="#231F20" fill-rule="nonzero"></path>
    </g>
</svg>