<svg viewBox="0 0 24 24" version="1.1" xmlns="http://www.w3.org/2000/svg" xmlns:xlink="http://www.w3.org/1999/xlink">
    <g class="mail" stroke="none" stroke-width="1" fill="none" fill-rule="evenodd">
        <path d="M24,19.2507113 L24,5.75003744 C24,5.36526823 23.7074909,5.06075303 23.3347292,5.01725086 C23.327979,5.01575079 23.3219788,5.01425071 23.3159786,5.01350067 C23.2934779,5.01125056 23.2732273,5 23.2499766,5 L0.749273415,5 C0.725272665,5 0.704272009,5.01125056 0.681021282,5.01350067 C0.632269758,5.0180009 0.586518329,5.02775139 0.539266852,5.0420021 C0.490515329,5.05625281 0.445513922,5.07275363 0.402012563,5.09600479 C0.362261321,5.11700584 0.327010219,5.14250711 0.291759117,5.1702585 C0.249757805,5.20326015 0.213006656,5.23776187 0.178505578,5.27901393 C0.164255133,5.29626479 0.144754524,5.30526524 0.132004125,5.32401617 C0.11775368,5.34426718 0.115503609,5.36901842 0.103503234,5.39001947 C0.0780024376,5.43502171 0.0592518516,5.48002396 0.0435013594,5.53027647 C0.0285008907,5.5790289 0.018750586,5.6270313 0.0142504453,5.67728381 C0.012000375,5.70203504 0,5.72378613 0,5.7492874 L0,19.2499613 C0,19.664732 0.335260477,19.9999987 0.750023438,19.9999987 L23.2507266,19.9999987 C23.6647395,20.0007488 24,19.664732 24,19.2507113 Z M20.7778993,6.50007488 L11.968874,12.5693778 L3.15984875,6.50007488 L20.7778993,6.50007488 Z M1.49929685,18.5006739 L1.49929685,7.17735869 L11.5436107,14.0979541 C11.6718647,14.1864586 11.8203694,14.2307108 11.968874,14.2307108 C12.1173787,14.2307108 12.2658833,14.1864586 12.3941373,14.0979541 L22.4999531,7.13535659 L22.4999531,18.5006739 L1.49929685,18.5006739 Z" fill="#000000" fill-rule="nonzero"></path>
    </g>
</svg>