<svg viewBox="0 0 24 24" version="1.1" xmlns="http://www.w3.org/2000/svg" xmlns:xlink="http://www.w3.org/1999/xlink">
    <g class="map-pin" stroke="none" stroke-width="1" fill="none" fill-rule="evenodd">
        <path d="M11.851625,23.6692397 L4.384625,13.182412 C3.47420833,11.8113691 3,10.2588206 3,8.67327104 C3,3.8911216 7.26154167,0 12.5,0 C17.7384583,0 22,3.8911216 22,8.67327104 C22,10.2565705 21.527375,11.8061189 20.634375,13.1554111 L13.1642083,23.6692397 C13.01775,23.8754961 12.7715417,24 12.5079167,24 C12.2450833,24 11.998875,23.8762461 11.851625,23.6692397 Z M12.5007917,1.49929685 C8.13554167,1.49929685 4.584125,4.71764743 4.584125,8.67252102 C4.584125,9.97531173 4.973625,11.2511016 5.71145833,12.3626363 L12.507125,21.9074346 L19.3075417,12.3371355 C20.02875,11.2473515 20.4174583,9.97306166 20.4174583,8.67252102 C20.4174583,4.71764743 16.8660417,1.49929685 12.5007917,1.49929685 Z M12.5,13 C10.0189061,13 8,10.9815455 8,8.5 C8,6.01845455 10.0181147,4 12.5,4 C14.9818853,4 17,6.01845455 17,8.5 C17,10.9815455 14.9810939,13 12.5,13 Z M12.5,5.63636364 C10.8918396,5.63636364 9.58283503,6.92090909 9.58283503,8.5 C9.58283503,10.0790909 10.8910482,11.3636364 12.5,11.3636364 C14.1089518,11.3636364 15.417165,10.0790909 15.417165,8.5 C15.417165,6.92090909 14.1081604,5.63636364 12.5,5.63636364 Z" fill="#000000" fill-rule="nonzero"></path>
    </g>
</svg>