<svg width="24px" height="24px" viewBox="0 0 24 24" version="1.1" xmlns="http://www.w3.org/2000/svg" xmlns:xlink="http://www.w3.org/1999/xlink">
    <g class="map" stroke="none" stroke-width="1" fill="none" fill-rule="evenodd">
        <path d="M0.75,22 C0.80925,22 0.8685,21.9928569 0.92775,21.9799993 L8.25,20.2799435 L15.57225,21.9799993 C15.6315,21.9935712 15.69075,22 15.75,22 C15.80925,22 15.8685,21.9928569 15.92775,21.9799993 L23.42775,20.2385136 C23.763,20.1606539 24,19.8735016 24,19.5442051 L24,2.71365225 C24,2.49435933 23.89425,2.28720967 23.7135,2.15220523 C23.532,2.0172008 23.29725,1.96934208 23.07225,2.01934373 L15.75,3.71939957 L8.42775,2.01934373 C8.424,2.01862942 8.42025,2.02005804 8.4165,2.01934373 C8.3625,2.00791478 8.30625,2.01791511 8.25,2.01791511 C8.19375,2.01791511 8.1375,2.00791478 8.0835,2.01934373 C8.07975,2.02005804 8.076,2.01862942 8.07225,2.01934373 L0.57225,3.7608295 C0.237,3.8386892 0,4.12584149 0,4.45513802 L0,21.2864051 C0,21.5056981 0.10575,21.7128477 0.2865,21.8478521 C0.42,21.9464268 0.5835,22 0.75,22 Z M22.5,18.9834723 L16.5,20.3756609 L16.5,5.01515641 L22.5,3.62296783 L22.5,18.9834723 Z M15,20.3756609 L9,18.9834723 L9,3.62296783 L15,5.01515641 L15,20.3756609 Z M1.5,5.01515641 L7.5,3.62296783 L7.5,18.9834723 L1.5,20.3756609 L1.5,5.01515641 Z" fill="#000000" fill-rule="nonzero"></path>
    </g>
</svg>