<?xml version="1.0" encoding="utf-8"?>
<!-- Generator: Adobe Illustrator 17.1.0, SVG Export Plug-In . SVG Version: 6.00 Build 0)  -->
<!DOCTYPE svg PUBLIC "-//W3C//DTD SVG 1.1//EN" "http://www.w3.org/Graphics/SVG/1.1/DTD/svg11.dtd">
<svg version="1.1" id="Layer_1" xmlns="http://www.w3.org/2000/svg" xmlns:xlink="http://www.w3.org/1999/xlink" x="0px" y="0px"
	 viewBox="0 0 50 50" enable-background="new 0 0 50 50" xml:space="preserve">
<path d="M10.687,39.475c0.079,0,0.158-0.01,0.237-0.028l9.763-2.38l9.763,2.38c0.079,0.019,0.158,0.028,0.237,0.028
	s0.158-0.01,0.237-0.028l10-2.438c0.447-0.109,0.763-0.511,0.763-0.972V12.475c0-0.307-0.141-0.597-0.382-0.786
	c-0.242-0.189-0.555-0.256-0.855-0.186l-9.763,2.38l-9.763-2.38c-0.005-0.001-0.01,0.001-0.015,0
	c-0.072-0.016-0.147-0.002-0.222-0.002c-0.075,0-0.15-0.014-0.222,0.002c-0.005,0.001-0.01-0.001-0.015,0l-10,2.438
	c-0.447,0.109-0.763,0.511-0.763,0.972v23.563c0,0.307,0.141,0.597,0.382,0.786C10.247,39.4,10.465,39.475,10.687,39.475z
	 M39.687,35.252l-8,1.949V15.697l8-1.949V35.252z M29.687,37.201l-8-1.949V13.748l8,1.949V37.201z M11.687,15.697l8-1.949v21.504
	l-8,1.949V15.697z"/>
</svg>
