<svg width="46" height="29" viewBox="0 0 46 29" fill="none" xmlns="http://www.w3.org/2000/svg">
<path fill-rule="evenodd" clip-rule="evenodd" d="M23.3948 24.7618C21.0116 26.8184 17.9203 28.0599 14.5423 28.0599C7.00499 28.0599 0.894775 21.8787 0.894775 14.2539C0.894775 6.62908 7.00499 0.447937 14.5423 0.447937C17.9203 0.447937 21.0116 1.68944 23.3948 3.746C25.7779 1.68944 28.8693 0.447937 32.2472 0.447937C39.7846 0.447937 45.8948 6.62908 45.8948 14.2539C45.8948 21.8787 39.7846 28.0599 32.2472 28.0599C28.8693 28.0599 25.7779 26.8184 23.3948 24.7618Z" fill="#ED0006"/>
<path fill-rule="evenodd" clip-rule="evenodd" d="M23.3948 24.7618C26.3292 22.2295 28.1899 18.4615 28.1899 14.2539C28.1899 10.0463 26.3292 6.27827 23.3948 3.746C25.7779 1.68944 28.8693 0.447937 32.2472 0.447937C39.7846 0.447937 45.8948 6.62908 45.8948 14.2539C45.8948 21.8787 39.7846 28.0599 32.2472 28.0599C28.8693 28.0599 25.7779 26.8184 23.3948 24.7618Z" fill="#F9A000"/>
<path fill-rule="evenodd" clip-rule="evenodd" d="M23.3948 3.74606C26.3292 6.27833 28.1898 10.0463 28.1898 14.2539C28.1898 18.4615 26.3292 22.2295 23.3948 24.7618C20.4605 22.2295 18.5998 18.4615 18.5998 14.2539C18.5998 10.0463 20.4605 6.27833 23.3948 3.74606Z" fill="#FF5E00"/>
</svg>
