<svg viewBox="0 0 24 24" version="1.1" xmlns="http://www.w3.org/2000/svg" xmlns:xlink="http://www.w3.org/1999/xlink">
    <g class="maximize" stroke="none" stroke-width="1" fill="none" fill-rule="evenodd">
        <path d="M23.4099691,0.0735161513 C23.643881,0.170901183 23.8291011,0.357078449 23.9264848,0.590993476 C23.9751767,0.707473612 24,0.831591789 24,0.955709967 L24,11.6079139 C24,12.1358935 23.5732301,12.5626691 23.0452574,12.5626691 C22.5172848,12.5626691 22.0905149,12.1358935 22.0905149,11.6079139 L22.0905149,3.26048905 L7.62998422,17.7202567 C7.44380942,17.906434 7.19939533,18 6.95498124,18 C6.71056714,18 6.46615305,17.906434 6.27997825,17.7202567 C5.90667392,17.3469474 5.90667392,16.7435421 6.27997825,16.3702329 L20.7405089,1.90951042 L12.3931948,1.90951042 C11.8652222,1.90951042 11.4384523,1.48273484 11.4384523,0.954755211 C11.4384523,0.426775579 11.8652222,0 12.3931948,0 L23.0452574,0 C23.169374,0 23.2934905,0.0257783907 23.4099691,0.0735161513 Z M23.25,13.755 C23.66475,13.755 24,14.091 24,14.505 L24,23.25 C24,23.66475 23.66475,24 23.25,24 L0.75,24 C0.33525,24 0,23.66475 0,23.25 L0,0.75 C0,0.33525 0.33525,0 0.75,0 L9.51225,0 C9.927,0 10.26225,0.33525 10.26225,0.75 C10.26225,1.16475 9.927,1.5 9.51225,1.5 L1.5,1.5 L1.5,22.5 L22.5,22.5 L22.5,14.505 C22.5,14.09025 22.83525,13.755 23.25,13.755 Z" fill="#000000"></path>
    </g>
</svg>