<?xml version="1.0" encoding="utf-8"?>
<!-- Generator: Adobe Illustrator 17.1.0, SVG Export Plug-In . SVG Version: 6.00 Build 0)  -->
<!DOCTYPE svg PUBLIC "-//W3C//DTD SVG 1.1//EN" "http://www.w3.org/Graphics/SVG/1.1/DTD/svg11.dtd">
<svg version="1.1" id="Layer_1" xmlns="http://www.w3.org/2000/svg" xmlns:xlink="http://www.w3.org/1999/xlink" x="0px" y="0px"
	 viewBox="0 0 50 50" enable-background="new 0 0 50 50" xml:space="preserve">
<path d="M39.642,9.722c-0.122-0.05-0.252-0.077-0.382-0.077H28.103c-0.553,0-1,0.447-1,1s0.447,1,1,1h8.743L21.7,26.791
	c-0.391,0.391-0.391,1.023,0,1.414c0.195,0.195,0.451,0.293,0.707,0.293s0.512-0.098,0.707-0.293L38.26,13.06v8.743
	c0,0.553,0.447,1,1,1s1-0.447,1-1V10.646c0-0.13-0.026-0.26-0.077-0.382C40.081,10.019,39.887,9.824,39.642,9.722z"/>
<path d="M39.26,27.985c-0.553,0-1,0.447-1,1v10.66h-28v-28h10.683c0.553,0,1-0.447,1-1s-0.447-1-1-1H9.26c-0.553,0-1,0.447-1,1v30
	c0,0.553,0.447,1,1,1h30c0.553,0,1-0.447,1-1v-11.66C40.26,28.433,39.813,27.985,39.26,27.985z"/>
</svg>
