<?xml version="1.0" encoding="utf-8"?>
<!-- Generator: Adobe Illustrator 17.1.0, SVG Export Plug-In . SVG Version: 6.00 Build 0)  -->
<!DOCTYPE svg PUBLIC "-//W3C//DTD SVG 1.1//EN" "http://www.w3.org/Graphics/SVG/1.1/DTD/svg11.dtd">
<svg version="1.1" id="Layer_1" xmlns="http://www.w3.org/2000/svg" xmlns:xlink="http://www.w3.org/1999/xlink" x="0px" y="0px"
	 viewBox="0 0 50 50" enable-background="new 0 0 50 50" xml:space="preserve">
<path d="M15,18.405c-0.553,0-1,0.447-1,1c0,0.046,0,5.124,0.001,5.16c0.076,6.14,4.928,11.185,11.007,11.687
	C25.007,36.266,25,36.278,25,36.292v2.71h-4.546c-0.553,0-1,0.447-1,1s0.447,1,1,1h11.092c0.553,0,1-0.447,1-1s-0.447-1-1-1H27
	v-2.71c0-0.014-0.007-0.026-0.008-0.04c6.055-0.501,10.905-5.524,11.006-11.636C37.999,24.555,38,19.467,38,19.405
	c0-0.553-0.447-1-1-1s-1,0.447-1,1c0,0.061-0.001,5.039-0.002,5.178c-0.088,5.359-4.573,9.719-9.998,9.719
	c-5.447,0-9.933-4.379-9.999-9.759C16,24.397,16,19.45,16,19.405C16,18.853,15.553,18.405,15,18.405z"/>
<path d="M32.9,24.482v-8.642c0-3.771-3.096-6.839-6.9-6.839s-6.9,3.068-6.9,6.839v8.642c0,3.771,3.096,6.839,6.9,6.839
	S32.9,28.253,32.9,24.482z M21.1,24.482v-8.642c0-2.668,2.198-4.839,4.9-4.839s4.9,2.171,4.9,4.839v8.642
	c0,2.668-2.198,4.839-4.9,4.839S21.1,27.15,21.1,24.482z"/>
</svg>
