<svg width="24px" height="24px" viewBox="0 0 24 24" version="1.1" xmlns="http://www.w3.org/2000/svg" xmlns:xlink="http://www.w3.org/1999/xlink">
    <g class="microphone" stroke="none" stroke-width="1" fill="none" fill-rule="evenodd">
        <path d="M3.75,8 C4.16475,8 4.5,8.31721025 4.5,8.70805859 C4.5,8.73992123 4.5,12.2426871 4.50075,12.3460636 C4.55025,16.1554189 7.91475,19.2560074 12,19.2560074 C16.06875,19.2560074 19.4325,16.168872 19.4985,12.374386 C19.49925,12.2759658 19.5,8.75125017 19.5,8.70805859 C19.5,8.31650219 19.83525,8 20.25,8 C20.66475,8 21,8.31650219 21,8.70805859 C21,8.75195822 20.99925,12.3545603 20.9985,12.3977519 C20.92275,16.725406 17.28525,20.2819843 12.744,20.6367217 C12.74475,20.6466345 12.75,20.6551312 12.75,20.665044 L12.75,22.5838828 L16.1595,22.5838828 C16.57425,22.5838828 16.9095,22.900385 16.9095,23.2919414 C16.9095,23.6834978 16.57425,24 16.1595,24 L7.8405,24 C7.42575,24 7.0905,23.6834978 7.0905,23.2919414 C7.0905,22.900385 7.42575,22.5838828 7.8405,22.5838828 L11.25,22.5838828 L11.25,20.665044 C11.25,20.6551312 11.25525,20.6466345 11.256,20.6367217 C6.69675,20.2812763 3.05775,16.7091207 3.00075,12.3616409 C3,12.3361508 3,8.74062929 3,8.70805859 C3,8.31650219 3.33525,8 3.75,8 Z M17,11.7910842 C17,14.6632616 14.7565217,17 12,17 C9.24347826,17 7,14.6632616 7,11.7910842 L7,5.20891577 C7,2.33673835 9.24347826,0 12,0 C14.7565217,0 17,2.33673835 17,5.20891577 L17,11.7910842 Z M8.44927536,11.7910842 C8.44927536,13.8231631 10.042029,15.4767025 12,15.4767025 C13.957971,15.4767025 15.5507246,13.8231631 15.5507246,11.7910842 L15.5507246,5.20891577 C15.5507246,3.17683692 13.957971,1.52329749 12,1.52329749 C10.042029,1.52329749 8.44927536,3.17683692 8.44927536,5.20891577 L8.44927536,11.7910842 Z" fill="#000000"></path>
    </g>
</svg>