<?xml version="1.0" encoding="utf-8"?>
<!-- Generator: Adobe Illustrator 17.1.0, SVG Export Plug-In . SVG Version: 6.00 Build 0)  -->
<!DOCTYPE svg PUBLIC "-//W3C//DTD SVG 1.1//EN" "http://www.w3.org/Graphics/SVG/1.1/DTD/svg11.dtd">
<svg version="1.1" id="Layer_1" xmlns="http://www.w3.org/2000/svg" xmlns:xlink="http://www.w3.org/1999/xlink" x="0px" y="0px"
	 viewBox="0 0 50 50" enable-background="new 0 0 50 50" xml:space="preserve">
<path d="M15.243,19.194c0.553,0,1-0.447,1-1s-0.447-1-1-1h-3.77c-0.553,0-1,0.447-1,1v21.951c0,0.553,0.447,1,1,1h21.951
	c0.553,0,1-0.447,1-1v-3.765c0-0.553-0.447-1-1-1s-1,0.447-1,1v2.765H12.474V19.194H15.243z"/>
<path d="M41.474,9.146H19.522c-0.553,0-1,0.447-1,1v21.951c0,0.553,0.447,1,1,1h21.951c0.553,0,1-0.447,1-1V10.146
	C42.474,9.593,42.026,9.146,41.474,9.146z M40.474,31.097H20.522V11.146h19.951V31.097z"/>
</svg>
