<svg width="24px" height="24px" viewBox="0 0 24 24" version="1.1" xmlns="http://www.w3.org/2000/svg" xmlns:xlink="http://www.w3.org/1999/xlink">
    <g class="minimize" stroke="none" stroke-width="1" fill="none" fill-rule="evenodd">
        <path d="M3.38566239,8.41956495 L1.42027473,8.41956495 L1.42027473,22.5804351 L15.5804351,22.5804351 L15.5804351,20.6178865 C15.5804351,20.2253768 15.8977078,19.908104 16.2902175,19.908104 C16.6827272,19.908104 17,20.2253768 17,20.6178865 L17,23.2902175 C17,23.6827272 16.6827272,24 16.2902175,24 L0.709782473,24 C0.317272765,24 0,23.6827272 0,23.2902175 L0,7.70978247 C0,7.31727277 0.317272765,7 0.709782473,7 L3.38566239,7 C3.7781721,7 4.09544487,7.31727277 4.09544487,7.70978247 C4.09544487,8.10229218 3.7781721,8.41956495 3.38566239,8.41956495 Z M23.2909262,0 C23.6827261,0 24.0007086,0.317272765 23.9999988,0.709782473 L23.9999988,16.2902175 C23.9999988,16.6827272 23.6827261,17 23.2902164,17 L7.70978242,17 C7.31727274,17 7,16.6827272 7,16.2902175 L7,0.709782473 C7,0.317272765 7.31727274,0 7.70978242,0 L23.2909262,0 Z M22.5811438,15.5804351 L22.580434,15.5804351 L22.580434,1.41956495 L8.41956485,1.41956495 L8.41956485,15.5804351 L22.5811438,15.5804351 Z" fill="#000000"></path>
    </g>
</svg>