<svg viewBox="0 0 24 24" version="1.1" xmlns="http://www.w3.org/2000/svg" xmlns:xlink="http://www.w3.org/1999/xlink">
    <g class="mouse" stroke="none" stroke-width="1" fill="none" fill-rule="evenodd">
        <path d="M19,16.5 C19,20.63475 15.6355,24 11.5,24 C7.3645,24 4,20.6355 4,16.5 L4,7.5 C4,3.3645 7.3645,0 11.5,0 C15.6355,0 19,3.3645 19,7.5 L19,16.5 Z M5.5,16.5 C5.5,19.80825 8.19175,22.5 11.5,22.5 C14.80825,22.5 17.5,19.80825 17.5,16.5 L17.5,7.5 C17.5,4.19175 14.80825,1.5 11.5,1.5 C8.19175,1.5 5.5,4.19175 5.5,7.5 L5.5,16.5 Z M13.5,8.125 C13.5,9.15925 12.6032,10 11.5,10 C10.3968,10 9.5,9.15925 9.5,8.125 L9.5,5.875 C9.5,4.84075 10.3968,4 11.5,4 C12.6032,4 13.5,4.84075 13.5,5.875 L13.5,8.125 Z M11.1,8.125 C11.1,8.332 11.28,8.5 11.5,8.5 C11.72,8.5 11.9,8.33125 11.9,8.125 L11.9,5.875 C11.9,5.66875 11.72,5.5 11.5,5.5 C11.28,5.5 11.1,5.66875 11.1,5.875 L11.1,8.125 Z" fill="#000000" fill-rule="nonzero"></path>
    </g>
</svg>