<?xml version="1.0" encoding="utf-8"?>
<!-- Generator: Adobe Illustrator 17.1.0, SVG Export Plug-In . SVG Version: 6.00 Build 0)  -->
<!DOCTYPE svg PUBLIC "-//W3C//DTD SVG 1.1//EN" "http://www.w3.org/Graphics/SVG/1.1/DTD/svg11.dtd">
<svg version="1.1" id="Layer_1" xmlns="http://www.w3.org/2000/svg" xmlns:xlink="http://www.w3.org/1999/xlink" x="0px" y="0px"
	 viewBox="0 0 50 50" enable-background="new 0 0 50 50" xml:space="preserve">
<path d="M33.053,27.25c-2.557,0-4.636,2.103-4.636,4.688s2.079,4.688,4.636,4.688c2.244,0,4.118-1.621,4.543-3.766
	c0.057-0.126,0.092-0.263,0.092-0.41V10.625c0-0.302-0.137-0.588-0.371-0.777c-0.234-0.19-0.541-0.266-0.838-0.2l-18.729,4
	c-0.461,0.098-0.791,0.506-0.791,0.978v18.464c-0.749-0.526-1.656-0.839-2.636-0.839c-2.556,0-4.635,2.103-4.635,4.688
	s2.079,4.688,4.635,4.688c2.557,0,4.636-2.103,4.636-4.688c0-0.112-0.025-0.217-0.033-0.326c0.009-0.055,0.033-0.104,0.033-0.162
	V21.434l16.729-3.573v10.229C34.938,27.563,34.032,27.25,33.053,27.25z M33.053,34.625c-1.453,0-2.636-1.206-2.636-2.688
	s1.183-2.688,2.636-2.688s2.635,1.206,2.635,2.688S34.506,34.625,33.053,34.625z M14.322,39.625c-1.453,0-2.635-1.206-2.635-2.688
	s1.182-2.688,2.635-2.688s2.636,1.206,2.636,2.688S15.775,39.625,14.322,39.625z M18.958,19.389v-3.956l16.729-3.572v3.955
	L18.958,19.389z"/>
</svg>
