<svg viewBox="0 0 24 24" version="1.1" xmlns="http://www.w3.org/2000/svg" xmlns:xlink="http://www.w3.org/1999/xlink">
    <g class="music" stroke="none" stroke-width="1" fill="none" fill-rule="evenodd">
        <path d="M18.6892857,13.2180489 C16.8628571,13.2180489 15.3778571,14.7951821 15.3778571,16.7337884 C15.3778571,18.6723948 16.8628571,20.2495279 18.6892857,20.2495279 C20.2921429,20.2495279 21.6307143,19.033868 21.9342857,17.4252372 C21.975,17.3307442 22,17.2280018 22,17.11776 L22,0.750222759 C22,0.523739541 21.9021429,0.309255434 21.735,0.167515936 C21.5678571,0.0250264945 21.3485714,-0.0319692823 21.1364286,0.0175270501 L7.75857143,3.01730477 C7.42928571,3.09079933 7.19357143,3.39677665 7.19357143,3.75075043 L7.19357143,17.5977244 C6.65857143,17.2032536 6.01071429,16.968521 5.31071429,16.968521 C3.485,16.968521 2,18.5456542 2,20.4842605 C2,22.4228669 3.485,24 5.31071429,24 C7.13714286,24 8.62214286,22.4228669 8.62214286,20.4842605 C8.62214286,20.4002667 8.60428571,20.3215226 8.59857143,20.2397786 C8.605,20.1985317 8.62214286,20.1617844 8.62214286,20.1182876 L8.62214286,8.85637211 L20.5714286,6.17682066 L20.5714286,13.8480022 C20.0357143,13.4527815 19.3885714,13.2180489 18.6892857,13.2180489 Z M18.6892857,18.7488891 C17.6514286,18.7488891 16.8064286,17.8444561 16.8064286,16.7330385 C16.8064286,15.6216208 17.6514286,14.7171878 18.6892857,14.7171878 C19.7271429,14.7171878 20.5714286,15.6216208 20.5714286,16.7330385 C20.5714286,17.8444561 19.7271429,18.7488891 18.6892857,18.7488891 Z M5.31,22.4986112 C4.27214286,22.4986112 3.42785714,21.5941783 3.42785714,20.4827606 C3.42785714,19.371343 4.27214286,18.46691 5.31,18.46691 C6.34785714,18.46691 7.19285714,19.371343 7.19285714,20.4827606 C7.19285714,21.5941783 6.34785714,22.4986112 5.31,22.4986112 Z M8.62142857,7.32273575 L8.62142857,4.35595558 L20.5707143,1.67715408 L20.5707143,4.6431843 L8.62142857,7.32273575 Z" fill="#000000" fill-rule="nonzero"></path>
    </g>
</svg>