<?xml version="1.0" encoding="utf-8"?>
<!-- Generator: Adobe Illustrator 17.1.0, SVG Export Plug-In . SVG Version: 6.00 Build 0)  -->
<!DOCTYPE svg PUBLIC "-//W3C//DTD SVG 1.1//EN" "http://www.w3.org/Graphics/SVG/1.1/DTD/svg11.dtd">
<svg version="1.1" id="Layer_1" xmlns="http://www.w3.org/2000/svg" xmlns:xlink="http://www.w3.org/1999/xlink" x="0px" y="0px"
	 viewBox="0 0 50 50" enable-background="new 0 0 50 50" xml:space="preserve">
<path d="M24.292,25.828l1.948,13.879c0.062,0.442,0.409,0.79,0.852,0.852c0.047,0.007,0.093,0.01,0.139,0.01
	c0.392,0,0.752-0.229,0.914-0.594l13.321-30c0.168-0.379,0.086-0.821-0.207-1.113c-0.293-0.293-0.735-0.373-1.113-0.207l-30,13.321
	c-0.407,0.182-0.646,0.61-0.584,1.053c0.062,0.442,0.409,0.79,0.852,0.852L24.292,25.828z M38.584,11.536L27.735,35.968
	l-1.567-11.164c-0.062-0.442-0.409-0.79-0.852-0.852l-11.164-1.567L38.584,11.536z"/>
</svg>
