<svg width="24px" height="24px" viewBox="0 0 24 24" version="1.1" xmlns="http://www.w3.org/2000/svg" xmlns:xlink="http://www.w3.org/1999/xlink">
    <g class="navigation" stroke="none" stroke-width="1" fill="none" fill-rule="evenodd">
        <path d="M11.0548167,12.9440167 L12.5158194,23.3534864 C12.5623194,23.6849934 12.8225699,23.9459989 13.1548205,23.9924998 C13.1900706,23.99775 13.2245707,24 13.2590707,24 C13.5530713,24 13.8230718,23.8282464 13.944572,23.5544906 L23.9353403,1.05401581 C24.0613405,0.769759815 23.9998404,0.438252819 23.78009,0.219248198 C23.5603396,-0.000506438885 23.228839,-0.060507705 22.9453385,0.0639949222 L0.445297237,10.0549557 C0.140046677,10.1914586 -0.0392036512,10.5124654 0.00729643398,10.8447224 C0.0537965192,11.1762294 0.314046996,11.4372349 0.646297605,11.4837359 L11.0548167,12.9440167 Z M21.7738363,2.22479052 L13.6370714,20.5491772 L12.4618193,12.1760005 C12.4153192,11.8444935 12.1550687,11.583488 11.8228181,11.536987 L3.44980274,10.3617122 L21.7738363,2.22479052 Z" fill="#000000" fill-rule="nonzero"></path>
    </g>
</svg>