<svg width="24px" height="24px" viewBox="0 0 24 24" version="1.1" xmlns="http://www.w3.org/2000/svg" xmlns:xlink="http://www.w3.org/1999/xlink">
    <g class="notifications" stroke="none" stroke-width="1" fill="none" fill-rule="evenodd">
        <path d="M16.1985455,0 C14.7258182,0 13.2661818,0.298700506 11.8545455,0.587883595 C10.4516364,0.874870356 9.12727273,1.14648283 7.80072727,1.14648283 C6.77018182,1.14648283 5.85381818,0.976633518 5.00072727,0.627417485 C4.92145455,0.595204685 4.83854545,0.582758831 4.75563636,0.579098286 C4.74545455,0.578366177 4.73745455,0.573241413 4.72727273,0.573241413 C4.71854545,0.573241413 4.712,0.577634067 4.70327273,0.578366177 C4.61890909,0.581294613 4.53672727,0.596668904 4.45818182,0.628149594 C4.44436364,0.634006467 4.432,0.642059667 4.41818182,0.648648649 C4.38545455,0.66329083 4.352,0.676468794 4.32145455,0.697699957 C4.29090909,0.718199012 4.26545455,0.745287048 4.23854545,0.770178757 C4.22763636,0.780428284 4.21527273,0.788481484 4.20509091,0.79946312 C4.14836364,0.858763956 4.104,0.926850101 4.06981818,1.00079312 C4.06254545,1.01689952 4.05745455,1.03300592 4.05090909,1.04984443 C4.02109091,1.13110854 4,1.21603319 4,1.30461839 L4,11.2305534 L4,23.2678909 C4,23.6720151 4.32581818,24 4.72727273,24 C5.12872727,24 5.45454545,23.6720151 5.45454545,23.2678909 L5.45454545,12.2364712 C6.192,12.4319444 6.96509091,12.5359038 7.80145455,12.5359038 C9.27418182,12.5359038 10.7338182,12.2372033 12.1454545,11.9480203 C13.5483636,11.6610335 14.8727273,11.389421 16.1992727,11.389421 C17.2298182,11.389421 18.1454545,11.5592703 18.9985455,11.9084864 C19.2218182,12 19.4770909,11.9736441 19.6785455,11.8374718 C19.8792727,11.7012995 20,11.4736136 20,11.2298212 L20,1.30461839 C20,1.00664999 19.8203636,0.738698066 19.5469091,0.626685376 C18.5163636,0.204258435 17.4210909,0 16.1985455,0 Z M18.5454545,10.2165823 C17.8094545,10.0218413 17.0341818,9.92593496 16.1992727,9.92593496 C14.7265455,9.92593496 13.2669091,10.2246355 11.8552727,10.5138186 C10.4530909,10.8015374 9.128,11.0724178 7.80145455,11.0724178 C6.95054545,11.0724178 6.17818182,10.9567446 5.45454545,10.7202733 L5.45454545,2.31932158 C6.19054545,2.5140626 6.96654545,2.60996889 7.80145455,2.60996889 C9.27418182,2.60996889 10.7338182,2.31126838 12.1454545,2.02208529 C13.5483636,1.73436642 14.8727273,1.46348606 16.1992727,1.46348606 C17.0494545,1.46348606 17.8225455,1.57915929 18.5461818,1.81563053 L18.5461818,10.2165823 L18.5454545,10.2165823 Z" fill="#231F20" fill-rule="nonzero"></path>
    </g>
</svg>