<?xml version="1.0" encoding="utf-8"?>
<!-- Generator: Adobe Illustrator 17.1.0, SVG Export Plug-In . SVG Version: 6.00 Build 0)  -->
<!DOCTYPE svg PUBLIC "-//W3C//DTD SVG 1.1//EN" "http://www.w3.org/Graphics/SVG/1.1/DTD/svg11.dtd">
<svg version="1.1" id="Layer_1" xmlns="http://www.w3.org/2000/svg" xmlns:xlink="http://www.w3.org/1999/xlink" x="0px" y="0px"
	 viewBox="0 0 50 50" enable-background="new 0 0 50 50" xml:space="preserve">
<path fill="#231F20" d="M30.023,7.347c-2.025,0-4.032,0.408-5.973,0.803c-1.929,0.392-3.75,0.763-5.574,0.763
	c-1.417,0-2.677-0.232-3.85-0.709c-0.109-0.044-0.223-0.061-0.337-0.066c-0.014-0.001-0.025-0.008-0.039-0.008
	c-0.012,0-0.021,0.006-0.033,0.007c-0.116,0.004-0.229,0.025-0.337,0.068c-0.019,0.008-0.036,0.019-0.055,0.028
	C13.78,8.253,13.734,8.271,13.692,8.3c-0.042,0.028-0.077,0.065-0.114,0.099c-0.015,0.014-0.032,0.025-0.046,0.04
	c-0.078,0.081-0.139,0.174-0.186,0.275c-0.01,0.022-0.017,0.044-0.026,0.067c-0.041,0.111-0.07,0.227-0.07,0.348v13.558v16.442
	c0,0.552,0.448,1,1,1s1-0.448,1-1V24.061c1.014,0.267,2.077,0.409,3.227,0.409c2.025,0,4.032-0.408,5.973-0.803
	c1.929-0.392,3.75-0.763,5.574-0.763c1.417,0,2.676,0.232,3.849,0.709c0.307,0.125,0.658,0.089,0.935-0.097
	c0.276-0.186,0.442-0.497,0.442-0.83V9.129c0-0.407-0.247-0.773-0.623-0.926C33.21,7.626,31.704,7.347,30.023,7.347z M33.25,21.302
	c-1.012-0.266-2.078-0.397-3.226-0.397c-2.025,0-4.032,0.408-5.973,0.803c-1.928,0.393-3.75,0.763-5.574,0.763
	c-1.17,0-2.232-0.158-3.227-0.481V10.515c1.012,0.266,2.079,0.397,3.227,0.397c2.025,0,4.032-0.408,5.973-0.803
	c1.929-0.393,3.75-0.763,5.574-0.763c1.169,0,2.232,0.158,3.227,0.481V21.302z"/>
</svg>
