<svg width="24px" height="24px" viewBox="0 0 24 24" version="1.1" xmlns="http://www.w3.org/2000/svg" xmlns:xlink="http://www.w3.org/1999/xlink">
    <g class="pause" stroke="none" stroke-width="1" fill="none" fill-rule="evenodd">
        <path d="M10,0.75 L10,23.25 C10,23.66475 9.67079572,24 9.26516901,24 L3.73483099,24 C3.32920428,24 3,23.66475 3,23.25 L3,0.75 C3,0.336 3.32920428,0 3.73483099,0 L9.26516901,0 C9.67079572,0 10,0.336 10,0.75 Z M8.53033802,22.5 L8.53033802,1.5 L4.46966198,1.5 L4.46966198,22.5 L8.53033802,22.5 Z M20.265169,0 C20.6707957,0 21,0.336 21,0.75 L21,23.25 C21,23.66475 20.6707957,24 20.265169,24 L14.734831,24 C14.3292043,24 14,23.66475 14,23.25 L14,0.75 C14,0.336 14.3292043,0 14.734831,0 L20.265169,0 Z M19.530338,22.5 L19.530338,1.5 L15.469662,1.5 L15.469662,22.5 L19.530338,22.5 Z" fill="#231F20" fill-rule="nonzero"></path>
    </g>
</svg>