<svg width="23" height="27" viewBox="0 0 23 27" fill="none" xmlns="http://www.w3.org/2000/svg">
<path fill-rule="evenodd" clip-rule="evenodd" d="M7.08803 25.8965L7.54247 22.9983L6.53015 22.9746H1.69617L5.05562 1.58737C5.06608 1.5226 5.09992 1.46248 5.14933 1.41971C5.19898 1.37695 5.26227 1.35349 5.32847 1.35349H13.4793C16.1855 1.35349 18.0529 1.91876 19.0277 3.03464C19.4848 3.55812 19.7759 4.10531 19.9168 4.70724C20.0646 5.33899 20.067 6.09366 19.9229 7.01428L19.9125 7.08124V7.6712L20.3696 7.93123C20.7544 8.13627 21.0603 8.37088 21.295 8.63947C21.6859 9.08719 21.9388 9.65613 22.0456 10.3304C22.1561 11.024 22.1196 11.8495 21.9388 12.7841C21.7302 13.8589 21.3931 14.7951 20.9377 15.5611C20.519 16.2669 19.9855 16.8524 19.3519 17.306C18.747 17.7371 18.0285 18.0643 17.216 18.2738C16.4286 18.4796 15.531 18.5834 14.5464 18.5834H13.9121C13.4586 18.5834 13.0181 18.7474 12.6722 19.0414C12.3253 19.3415 12.0961 19.7516 12.0257 20.2001L11.9778 20.4611L11.1748 25.5695L11.1385 25.757C11.1288 25.8164 11.1122 25.8459 11.0879 25.866C11.0662 25.8843 11.0351 25.8965 11.0046 25.8965H7.08803Z" fill="#28356A"/>
<path fill-rule="evenodd" clip-rule="evenodd" d="M20.8029 7.14935C20.7788 7.30552 20.7508 7.4651 20.7196 7.62909C19.6448 13.1704 15.9672 15.0847 11.2705 15.0847H8.87904C8.30461 15.0847 7.82048 15.5033 7.73115 16.0722L6.15999 26.0788C6.10181 26.4524 6.38854 26.789 6.76387 26.789H11.0054C11.5076 26.789 11.9342 26.4226 12.0133 25.9253L12.055 25.709L12.8536 20.6206L12.9049 20.3415C12.9831 19.8424 13.4107 19.4759 13.9129 19.4759H14.5472C18.6566 19.4759 21.8736 17.8008 22.8139 12.9531C23.2065 10.9281 23.0032 9.23717 21.9639 8.04797C21.6494 7.68945 21.2593 7.39179 20.8029 7.14935Z" fill="#298FC2"/>
<path fill-rule="evenodd" clip-rule="evenodd" d="M19.6779 6.69926C19.5136 6.65112 19.3442 6.60762 19.1704 6.56827C18.9957 6.5299 18.8168 6.49593 18.6325 6.46611C17.9877 6.36152 17.2811 6.3119 16.5244 6.3119H10.1358C9.9783 6.3119 9.82885 6.34759 9.69522 6.4121C9.40046 6.55434 9.18164 6.83441 9.12858 7.17729L7.76941 15.8204L7.73047 16.0723C7.8198 15.5034 8.30393 15.0847 8.87836 15.0847H11.2698C15.9665 15.0847 19.6441 13.1695 20.7189 7.62916C20.7511 7.46518 20.7781 7.30559 20.8022 7.14943C20.5303 7.0045 20.2358 6.8806 19.9186 6.77502C19.8403 6.74887 19.7595 6.7237 19.6779 6.69926Z" fill="#22284F"/>
<path fill-rule="evenodd" clip-rule="evenodd" d="M9.12891 7.17731C9.18197 6.83443 9.40079 6.55436 9.69555 6.4131C9.83015 6.34834 9.97863 6.31266 10.1361 6.31266H16.5247C17.2815 6.31266 17.9881 6.36251 18.6328 6.46711C18.8171 6.49668 18.996 6.5309 19.1707 6.56927C19.3445 6.60837 19.5139 6.65211 19.6782 6.70001C19.7598 6.72445 19.8406 6.74987 19.9197 6.77504C20.2369 6.88062 20.5316 7.0055 20.8035 7.14945C21.1233 5.10171 20.8008 3.70747 19.6982 2.44495C18.4824 1.05487 16.2884 0.460022 13.4807 0.460022H5.32963C4.75617 0.460022 4.26693 0.878661 4.17833 1.44858L0.783347 23.0558C0.716411 23.4832 1.04476 23.8689 1.47412 23.8689H6.50624L9.12891 7.17731Z" fill="#28356A"/>
</svg>
