<svg width="52" height="22" viewBox="0 0 52 22" fill="none" xmlns="http://www.w3.org/2000/svg">
<path d="M50.5109 5.96861C51.3333 5.96861 52 5.30193 52 4.47954C52 3.65716 51.3333 2.99048 50.5109 2.99048C49.6885 2.99048 49.0219 3.65716 49.0219 4.47954C49.0219 5.30193 49.6885 5.96861 50.5109 5.96861Z" fill="#7887E6"/>
<path d="M50.5109 10.6303C51.3333 10.6303 52 9.96362 52 9.14123C52 8.31884 51.3333 7.65216 50.5109 7.65216C49.6885 7.65216 49.0219 8.31884 49.0219 9.14123C49.0219 9.96362 49.6885 10.6303 50.5109 10.6303Z" fill="#FF5073"/>
<path fill-rule="evenodd" clip-rule="evenodd" d="M3.7911 6.85258H2.34628V10.4595H0V0.58657H3.7911C6.05197 0.58657 7.12529 1.90275 7.12529 3.64806C7.12529 5.66504 5.69385 6.85258 3.7911 6.85258ZM3.43916 2.30306H2.34628V5.13507H3.53383C4.35503 5.13507 4.89529 4.59172 4.84693 3.6141C4.80988 2.8742 4.18009 2.30306 3.43916 2.30306ZM13.5981 10.4585H11.3085H11.3074V10.1343C10.8505 10.4214 10.2526 10.6293 9.70208 10.6293C8.30666 10.6293 7.24569 9.57757 7.24569 8.32519C7.24569 7.04296 8.15333 5.65475 11.3085 5.87908V5.39233C11.3085 4.83458 10.8361 4.64831 10.3072 4.64831C9.56316 4.64831 8.69051 4.97762 8.27579 5.16388L7.646 3.8621C8.33239 3.43298 9.44893 2.98945 10.8649 2.98945C12.5536 2.98945 13.5981 3.73347 13.5981 5.37895V10.4585ZM9.53332 8.28402C9.53332 8.81297 9.92025 9.14227 10.4924 9.14227C10.8505 9.14227 11.1798 9.01363 11.3928 8.85619V7.32493C10.0067 7.09545 9.53332 7.68305 9.53332 8.28402ZM36.3736 3.16131V2.86082C36.3736 1.12992 37.346 0 39.1922 0C39.6079 0 39.965 0.0576279 40.2799 0.143041V1.77309C40.0947 1.71649 39.823 1.67327 39.6079 1.67327C38.9061 1.67327 38.6488 2.13121 38.6488 2.77541V3.16131H40.2223V4.72138H38.6488V10.4585H36.3736V4.72138H35.1572V3.16131H36.3736ZM28.5495 3.86313C29.2359 3.43401 30.3525 2.99048 31.7685 2.99048C33.4572 2.99048 34.5017 3.7345 34.5006 5.37895V10.4585H32.211V10.1353C31.7541 10.4224 31.1562 10.6303 30.6056 10.6303C29.2102 10.6303 28.1492 9.5786 28.1492 8.32622C28.1492 7.04399 29.0569 5.65578 32.212 5.88011V5.39336C32.212 4.83561 31.7396 4.64934 31.2107 4.64934C30.4667 4.64934 29.594 4.97865 29.1793 5.16491L28.5495 3.86313ZM31.3105 9.14227C31.6686 9.14227 31.9969 9.01363 32.212 8.85619H32.211V7.32493C30.8248 7.09545 30.3514 7.68305 30.3514 8.28402C30.3514 8.81297 30.7384 9.14227 31.3105 9.14227ZM21.7381 3.16234L18.0406 12.5063H15.8621L16.8253 10.1158L13.7391 3.16234H16.0823L17.8894 7.52251L19.4639 3.16234H21.7381ZM47.5338 6.69822V7.26833V7.27039H42.7898C42.8258 7.64497 42.9215 7.9506 43.0656 8.19346C43.0666 8.19449 43.0666 8.19552 43.0677 8.19655C43.0913 8.23463 43.116 8.27167 43.1418 8.30666C43.1572 8.32827 43.1726 8.34783 43.1891 8.36841C43.1923 8.37222 43.1955 8.37614 43.1987 8.38009C43.2058 8.38892 43.2132 8.39795 43.221 8.40648C43.2488 8.43941 43.2786 8.47131 43.3095 8.50116L43.3126 8.50424C43.3887 8.57731 43.4741 8.64317 43.5688 8.7008C43.5709 8.70183 43.5719 8.70183 43.5729 8.70286C43.6151 8.72858 43.6604 8.75225 43.7067 8.77489C43.716 8.77901 43.7242 8.78312 43.7324 8.78724C43.7602 8.80062 43.7901 8.81297 43.8199 8.82429C43.8466 8.83457 43.8734 8.84382 43.9001 8.85307L43.9002 8.8531C43.9119 8.8568 43.924 8.8605 43.9362 8.8642C43.9444 8.86667 43.9526 8.86915 43.9609 8.87162L43.961 8.87165C43.999 8.88193 44.0371 8.89221 44.0762 8.90147C44.0828 8.90301 44.0895 8.9043 44.0962 8.90558C44.1029 8.90687 44.1096 8.90816 44.1163 8.9097C44.1544 8.91793 44.1924 8.92411 44.2315 8.93028L44.2361 8.93111C44.2457 8.93287 44.2547 8.93454 44.2645 8.93543C44.3128 8.9416 44.3622 8.94674 44.4116 8.94983C44.424 8.95086 44.4353 8.95086 44.4476 8.95189C44.5001 8.95498 44.5526 8.95704 44.6072 8.95704C45.2287 8.95704 45.9223 8.78209 46.6066 8.39413L47.2447 9.81219C46.2351 10.512 44.9251 10.6313 44.2634 10.6313C41.8883 10.6313 40.4003 9.15668 40.4003 6.85361C40.4003 4.60715 41.9748 2.99048 44.0062 2.99048C46.0376 2.99048 47.5338 4.55878 47.5338 6.69822ZM45.2225 6.06637C45.1361 5.0939 44.636 4.59274 44.0062 4.59274C43.3764 4.59274 42.8763 5.09287 42.7898 6.06637H45.2225ZM24.1791 8.97041C24.8521 8.97041 25.2524 8.76974 25.2524 8.36944C25.2524 7.94171 24.706 7.75517 24.0492 7.53093C23.0594 7.19301 21.8188 6.76947 21.8194 5.30589C21.8194 3.76126 23.1922 2.98842 24.8953 2.98842C25.8256 2.98842 26.7414 3.2745 27.3424 3.57499L26.6982 5.07744C26.2403 4.8778 25.6105 4.66272 25.0095 4.66272C24.4374 4.66272 24.0936 4.87677 24.0936 5.22048C24.0936 5.59854 24.6039 5.76913 25.2278 5.97766C26.2086 6.30552 27.47 6.7272 27.47 8.19655C27.47 9.77103 26.0396 10.6293 24.3797 10.6293C23.4494 10.6293 22.4482 10.4152 21.5899 9.95729L22.3195 8.48366C22.8341 8.74196 23.4927 8.97041 24.1791 8.97041ZM32.3787 15.3465V14.3854H31.966V14.1158H33.1073L33.1495 14.3854H32.7595V15.3465H32.3787ZM34.4626 15.3465L34.4163 14.4554L34.3844 14.5752L34.3842 14.5757C34.3158 14.8328 34.2476 15.0893 34.1755 15.3465H33.841L33.6002 14.4554L33.5539 15.3465H33.2133C33.2503 14.938 33.2833 14.5253 33.3152 14.1168H33.7937L34.0118 14.9894L34.0143 14.9794C34.0834 14.6906 34.1516 14.4057 34.2248 14.1168H34.7034L34.8011 15.3465H34.4626ZM0.0102906 14.478V19.9691H1.31515V17.9635H2.11886C3.17777 17.9635 3.97324 17.3028 3.97324 16.1811C3.97324 15.2097 3.37638 14.478 2.11886 14.478H0.0102906ZM2.70852 16.2284C2.70852 16.7296 2.4142 17.0085 1.97685 17.0085H1.31618V15.433H1.97685C2.4461 15.433 2.70852 15.7592 2.70852 16.2284ZM6.46463 19.5637L6.53666 19.9691V19.9702H7.69848V17.1454C7.69848 16.2295 7.11808 15.8158 6.17854 15.8158C5.39027 15.8158 4.76974 16.0628 4.38796 16.3015L4.73784 17.026C4.96836 16.922 5.45408 16.7389 5.86776 16.7389C6.16208 16.7389 6.42449 16.8418 6.42449 17.1526V17.4232C4.72961 17.3913 4.16465 17.9717 4.16465 18.8474C4.16465 19.6594 4.80165 20.0648 5.43041 20.0648C5.9398 20.0648 6.24132 19.8106 6.46463 19.5637ZM6.13944 18.2022C6.20574 18.2022 6.26222 18.2086 6.32181 18.2154L6.32184 18.2154L6.32187 18.2154L6.3219 18.2154C6.35477 18.2191 6.38859 18.223 6.42552 18.2259V19.0769C6.30615 19.1644 6.12297 19.2364 5.92436 19.2364C5.60638 19.2364 5.3913 19.0533 5.3913 18.7589C5.3913 18.4255 5.63005 18.2022 6.13944 18.2022ZM8.93234 21.6959L9.60124 19.9691H9.21945C9.07168 19.5043 8.92488 19.0395 8.77809 18.5748L8.77798 18.5744C8.49752 17.6865 8.2171 16.7987 7.93002 15.9105H9.21945L9.98302 18.9184L10.8423 15.9105H12.1081C11.7413 16.9707 11.3795 18.0312 11.0185 19.0892L11.0185 19.0893L11.0185 19.0893L11.0184 19.0896C10.7211 19.961 10.4244 20.8306 10.1261 21.6969H8.93234V21.6959ZM14.408 14.478V19.9691H17.806V19.0224H15.7129V14.478H14.408ZM20.5361 19.9691L20.4641 19.5637C20.2408 19.8106 19.9393 20.0648 19.4299 20.0648C18.8011 20.0648 18.1641 19.6594 18.1641 18.8474C18.1641 17.9717 18.7291 17.3913 20.424 17.4232V17.1526C20.424 16.8418 20.1616 16.7389 19.8673 16.7389C19.4536 16.7389 18.9678 16.922 18.7373 17.026L18.3874 16.3015C18.7692 16.0628 19.3898 15.8158 20.178 15.8158C21.1176 15.8158 21.698 16.2295 21.698 17.1454V19.9702H20.5361V19.9691ZM20.425 18.2259C20.388 18.223 20.3542 18.2191 20.3213 18.2154C20.2617 18.2086 20.2052 18.2022 20.1389 18.2022C19.6295 18.2022 19.3908 18.4255 19.3908 18.7589C19.3908 19.0533 19.6059 19.2364 19.9238 19.2364C20.1225 19.2364 20.3056 19.1644 20.425 19.0769V18.2259ZM22.7486 18.8629C22.7486 19.9218 23.505 19.9691 23.8868 19.9691V19.9712H24.7944V19.1191H24.4446C24.1657 19.1191 24.0144 18.9915 24.0144 18.5778V16.779H24.7944V15.9115H24.0144V14.7013L22.7486 15.1387V15.9105H22.1281V16.778H22.7486V18.8629ZM28.8366 19.6666C28.5825 19.858 27.9208 20.0648 27.2683 20.0648C25.947 20.0648 25.1196 19.2447 25.1196 17.9635C25.1196 16.7142 25.9954 15.8148 27.1253 15.8148C27.9928 15.8148 28.8521 16.284 28.8521 17.7165V18.194H26.4492C26.513 18.8629 26.9184 19.1335 27.4597 19.1335C27.8662 19.1335 28.3272 18.9668 28.4785 18.8711L28.8366 19.6666ZM27.683 17.5261C27.683 16.9766 27.4443 16.7059 27.1099 16.7059C26.76 16.7059 26.4976 16.9848 26.4492 17.5261H27.683ZM29.3697 15.9105V19.9691H30.6427V17.3429C30.866 17.1196 31.2241 16.9848 31.5585 16.9848H31.5586C31.6378 16.9848 31.8045 16.9848 31.8765 17.0003V15.8148C31.328 15.8148 30.8423 16.1492 30.5799 16.6504V15.9105H29.3697Z" fill="#2D2341"/>
</svg>
