<svg width="24px" height="24px" viewBox="0 0 24 24" version="1.1" xmlns="http://www.w3.org/2000/svg" xmlns:xlink="http://www.w3.org/1999/xlink">
    <g class="play" stroke="none" stroke-width="1" fill="none" fill-rule="evenodd">
        <path d="M3.89427066,24.1628249 C4.02165527,24.1628249 4.14903989,24.1245751 4.26119373,24.0488254 L20.8765783,12.798866 C21.0787322,12.6616165 21.201963,12.4216174 21.201963,12.1628683 C21.201963,11.9041193 21.0787322,11.6641201 20.8765783,11.5268706 L4.26119373,0.276911308 C4.04727066,0.132911829 3.77865527,0.123911861 3.55850142,0.257411379 C3.33834758,0.389410901 3.20196296,0.640659993 3.20196296,0.913659006 L3.20196296,23.4135776 C3.20196296,23.6858267 3.33834758,23.9370758 3.55850142,24.0698253 C3.66373219,24.1313251 3.77865527,24.1628249 3.89427066,24.1628249 Z M4.58657835,2.26590412 L19.2032707,12.1628683 L4.58657835,22.0590825 L4.58657835,2.26590412 Z" fill="#231F20" fill-rule="nonzero"></path>
    </g>
</svg>