<svg width="24px" height="24px" viewBox="0 0 24 24" version="1.1" xmlns="http://www.w3.org/2000/svg" xmlns:xlink="http://www.w3.org/1999/xlink">
    <g class="plus" stroke="none" stroke-width="1" fill="none" fill-rule="evenodd">
        <path d="M0.75,12.75 L11.25,12.75 L11.25,23.25 C11.25,23.66475 11.586,24 12,24 C12.414,24 12.75,23.66475 12.75,23.25 L12.75,12.75 L23.25,12.75 C23.664,12.75 24,12.41475 24,12 C24,11.58525 23.664,11.25 23.25,11.25 L12.75,11.25 L12.75,0.75 C12.75,0.33525 12.414,2.58681965e-14 12,2.58681965e-14 C11.586,2.58681965e-14 11.25,0.33525 11.25,0.75 L11.25,11.25 L0.75,11.25 C0.336,11.25 -4.13419299e-14,11.58525 -4.13419299e-14,12 C-4.13419299e-14,12.41475 0.336,12.75 0.75,12.75 Z" fill="#000000"></path>
    </g>
</svg>