<?xml version="1.0" encoding="utf-8"?>
<!-- Generator: Adobe Illustrator 17.1.0, SVG Export Plug-In . SVG Version: 6.00 Build 0)  -->
<!DOCTYPE svg PUBLIC "-//W3C//DTD SVG 1.1//EN" "http://www.w3.org/Graphics/SVG/1.1/DTD/svg11.dtd">
<svg version="1.1" id="Layer_1" xmlns="http://www.w3.org/2000/svg" xmlns:xlink="http://www.w3.org/1999/xlink" x="0px" y="0px"
	 viewBox="0 0 50 50" enable-background="new 0 0 50 50" xml:space="preserve">
<path fill="#231F20" d="M21.409,16.614c0.531-0.148,0.842-0.7,0.693-1.232s-0.705-0.84-1.232-0.693
	c-5.652,1.581-9.601,6.921-9.601,12.988c0,7.418,5.832,13.453,13,13.453s13-6.035,13-13.453c0-6.067-3.948-11.409-9.602-12.988
	c-0.529-0.146-1.084,0.161-1.232,0.694c-0.148,0.532,0.162,1.083,0.693,1.232c4.793,1.34,8.141,5.889,8.141,11.063
	c0,6.315-4.935,11.453-11,11.453s-11-5.138-11-11.453C13.27,22.503,16.616,17.955,21.409,16.614z"/>
<path fill="#231F20" d="M25.27,24.633V10.129c0-0.552-0.447-1-1-1s-1,0.448-1,1v14.504c0,0.552,0.447,1,1,1
	S25.27,25.186,25.27,24.633z"/>
</svg>
