<svg viewBox="0 0 24 24" version="1.1" xmlns="http://www.w3.org/2000/svg" xmlns:xlink="http://www.w3.org/1999/xlink">
    <g class="power" stroke="none" stroke-width="1" fill="none" fill-rule="evenodd">
        <path d="M9.8,5.48174606 C6.11307692,6.49467552 3.53923077,9.93002463 3.53846154,13.8389806 C3.53846154,18.6090399 7.33461538,22.4900477 12,22.4900477 C16.6653846,22.4900477 20.4615385,18.6090399 20.4615385,13.8389806 C20.4615385,9.93077999 17.8861538,6.49467552 14.1992308,5.48250142 C13.7907692,5.3699537 13.5523077,4.95375375 13.6661538,4.55190552 C13.78,4.14930195 14.2069231,3.91740833 14.6138462,4.02768998 C18.9630769,5.22039364 22,9.25549368 22,13.8382252 C22,19.4414398 17.5138462,24 12,24 C6.48615385,24 2,19.4414398 2,13.8382252 C2,9.25549368 5.03769231,5.22190435 9.38538462,4.02768998 C9.79076923,3.91665297 10.2184615,4.14930195 10.3330769,4.55115017 C10.4476923,4.9529984 10.2084615,5.3699537 9.8,5.48174606 Z M12.8551724,12.9376552 C12.8551724,13.3953103 12.4852414,13.7652414 12.0275862,13.7652414 C11.569931,13.7652414 11.2,13.3944828 11.2,12.9376552 L11.2,0.934344828 C11.2,0.477517241 11.569931,0.106758621 12.0275862,0.106758621 C12.4852414,0.106758621 12.8551724,0.477517241 12.8551724,0.934344828 L12.8551724,12.9376552 Z" fill="#231F20"></path>
    </g>
</svg>