<?xml version="1.0" encoding="utf-8"?>
<!-- Generator: Adobe Illustrator 17.1.0, SVG Export Plug-In . SVG Version: 6.00 Build 0)  -->
<!DOCTYPE svg PUBLIC "-//W3C//DTD SVG 1.1//EN" "http://www.w3.org/Graphics/SVG/1.1/DTD/svg11.dtd">
<svg version="1.1" id="Layer_1" xmlns="http://www.w3.org/2000/svg" xmlns:xlink="http://www.w3.org/1999/xlink" x="0px" y="0px"
	 viewBox="0 0 50 50" enable-background="new 0 0 50 50" xml:space="preserve">
<path d="M39.387,21.471H32.29V11.199c0-0.553-0.447-1-1-1H17.484c-0.553,0-1,0.447-1,1v10.271H9.387c-0.553,0-1,0.447-1,1V35.45
	c0,0.553,0.447,1,1,1h6.894v3.565c0,0.553,0.447,1,1,1h13.806c0.553,0,1-0.447,1-1V36.45h7.301c0.553,0,1-0.447,1-1V22.471
	C40.387,21.918,39.939,21.471,39.387,21.471z M18.484,12.199H30.29v9.271H18.484V12.199z M30.086,39.016H18.28v-6.329h11.806V39.016
	z M38.387,34.45h-6.301v-2.764c0-0.553-0.447-1-1-1H17.28c-0.553,0-1,0.447-1,1v2.764h-5.894V23.471h6.894
	c0.068,0.014,0.131,0.041,0.203,0.041H31.29c0.072,0,0.136-0.027,0.203-0.041h6.893V34.45z"/>
</svg>
