<svg width="24px" height="24px" viewBox="0 0 24 24" version="1.1" xmlns="http://www.w3.org/2000/svg" xmlns:xlink="http://www.w3.org/1999/xlink">
    <g class="print" stroke="none" stroke-width="1" fill="none" fill-rule="evenodd">
        <path d="M23.2492735,8.7788162 L17.9266898,8.7788162 L17.9266898,0.778816199 C17.9266898,0.348130841 17.5914503,6.46704912e-15 17.1767132,6.46704912e-15 L6.8225368,6.46704912e-15 C6.40779976,6.46704912e-15 6.07256023,0.348130841 6.07256023,0.778816199 L6.07256023,8.77803738 L0.749976563,8.77803738 C0.335239524,8.77803738 -6.20059559e-14,9.12616822 -6.20059559e-14,9.55685358 L-6.20059559e-14,19.6658879 C-6.20059559e-14,20.0965732 0.335239524,20.444704 0.749976563,20.444704 L5.92031499,20.444704 L5.92031499,23.2211838 C5.92031499,23.6518692 6.25555451,24 6.67029155,24 L17.024468,24 C17.439205,24 17.7744445,23.6518692 17.7744445,23.2211838 L17.7744445,20.444704 L23.2500234,20.444704 C23.6647605,20.444704 24,20.0965732 24,19.6658879 L24,9.5576324 C23.99925,9.12694704 23.6632605,8.7788162 23.2492735,8.7788162 Z M7.57251336,1.5576324 L16.4267367,1.5576324 L16.4267367,8.77803738 L7.57251336,8.77803738 L7.57251336,1.5576324 Z M16.2737414,22.4431464 L7.41951814,22.4431464 L7.41951814,17.5140187 L16.2737414,17.5140187 L16.2737414,22.4431464 Z M22.4992969,18.8870717 L17.7736946,18.8870717 L17.7736946,16.7344237 C17.7736946,16.3037383 17.438455,15.9556075 17.023718,15.9556075 L6.66954158,15.9556075 C6.25480454,15.9556075 5.91956501,16.3037383 5.91956501,16.7344237 L5.91956501,18.8870717 L1.49920315,18.8870717 L1.49920315,10.3364486 L6.66954158,10.3364486 C6.72053998,10.347352 6.76778851,10.3683801 6.82178682,10.3683801 L17.1767132,10.3683801 C17.2307115,10.3683801 17.27871,10.347352 17.3289585,10.3364486 L22.4985469,10.3364486 L22.4985469,18.8870717 L22.4992969,18.8870717 Z" fill="#000000" fill-rule="nonzero"></path>
    </g>
</svg>