<svg width="31" height="32" viewBox="0 0 31 32" fill="none" xmlns="http://www.w3.org/2000/svg">
<path fill-rule="evenodd" clip-rule="evenodd" d="M0 14.1347C0 21.8787 6.3155 28.1942 14.1347 28.1942C15.0944 28.1942 16.0541 28.1102 17.1568 28.0136C18.3866 27.906 19.7942 27.7827 21.5779 27.7431C24.2846 27.7431 27.2168 28.7205 30.4497 31.5775C30.7505 31.8782 31.2016 31.5023 30.9008 31.1264C27.6679 27.1416 24.7357 26.3898 21.8035 25.7131C18.1946 24.8861 16.315 22.9313 15.0369 20.6757C14.8113 20.2246 14.661 20.2998 14.661 20.9013C14.5858 21.8035 14.661 22.6305 14.8113 23.4576H14.3602C9.24769 23.4576 5.03736 19.2472 5.03736 14.1347C5.03736 9.02214 9.24769 4.81181 14.3602 4.81181C19.4728 4.81181 23.6831 9.02214 23.6831 14.1347C23.6831 14.4354 23.6831 14.8113 23.6079 15.1873C22.8561 15.0369 21.5779 15.0369 20.6005 15.1121C20.2246 15.1121 20.2246 15.2625 20.5254 15.3376C23.5327 15.9391 25.6379 17.8187 26.1642 21.2772C26.1642 21.4276 26.2394 21.4276 26.3146 21.3524C27.5175 19.2472 28.2694 16.7661 28.2694 14.1347C28.2694 6.3155 21.9539 0 14.1347 0C6.3155 0 0 6.39068 0 14.1347ZM24.3597 19.9239C24.886 20.1495 25.1115 20.9013 25.1115 21.2772C25.1867 21.8787 25.0363 22.1794 24.8108 22.1794C24.5852 22.1794 24.2845 21.9539 23.9838 21.4276C23.683 20.9013 23.5326 20.375 23.683 20.0743C23.9086 19.9239 24.1341 19.8487 24.3597 19.9239ZM21.2771 22.2546C21.5779 22.2546 21.9538 22.405 22.3297 22.7057C22.9312 23.232 23.1567 23.8335 22.856 24.2846C22.7056 24.5102 22.3297 24.6605 22.029 24.6605C21.6531 24.6605 21.2771 24.5102 21.0516 24.2846C20.4501 23.7583 20.2997 23.0065 20.6757 22.5554C20.7508 22.405 20.9764 22.2546 21.2771 22.2546Z" fill="#F28A1A"/>
</svg>
