<svg width="24px" height="24px" viewBox="0 0 24 24" version="1.1" xmlns="http://www.w3.org/2000/svg" xmlns:xlink="http://www.w3.org/1999/xlink">
    <g class="repeat" stroke="none" stroke-width="1" fill="none" fill-rule="evenodd">
        <path d="M21.7350426,13.4029002 L23.87358,17.6500366 C24.0620335,18.0247839 23.9175277,18.4840779 23.5517938,18.6760217 C23.443042,18.7339095 23.3260966,18.7605683 23.2113857,18.7605683 C22.9409959,18.7605683 22.6802895,18.6105171 22.5484466,18.3477369 L21.2128849,15.6940384 C19.5935257,19.4818808 15.9719413,22 11.877361,22 C7.21890995,22 3.14891052,18.7201992 1.97945608,14.0251941 C1.87815302,13.6176944 2.11874778,13.202578 2.51800102,13.0989893 C2.91576451,12.9923539 3.32172163,13.2414237 3.42376956,13.6489234 C4.42488216,17.6690787 7.90196073,20.4766369 11.8781059,20.4766369 C15.3939179,20.4766369 18.5022832,18.2974659 19.8758335,15.0237586 L17.1287329,16.0718324 C16.7436323,16.2180753 16.3138391,16.0192764 16.1700782,15.6247253 C16.0263172,15.230936 16.2214746,14.7922074 16.60732,14.6452029 L20.8136317,13.0395781 C20.8337433,13.0311996 20.8545998,13.0342464 20.8747115,13.0281529 C20.9238732,13.0144426 20.9715453,13.0045408 21.0236866,13.0014941 C21.075083,12.9976856 21.1242447,13.0014941 21.1748963,13.0091109 C21.200222,13.0129193 21.2248029,13.0060641 21.2508736,13.0129193 C21.2650262,13.0167277 21.2754545,13.0273912 21.2896071,13.0319613 C21.3447279,13.0487183 21.3938897,13.0761388 21.4437963,13.1058444 C21.4765708,13.1256482 21.5100902,13.1408818 21.5391404,13.1652556 C21.5793636,13.1980079 21.6106484,13.2406621 21.6434229,13.2825546 C21.6694936,13.3153069 21.6985437,13.3442508 21.7186553,13.3815732 C21.7231246,13.38919 21.7305734,13.3945217 21.7350426,13.4029002 Z M11.9991055,3.61377084 C8.55009626,3.61377084 5.49334814,5.72135557 4.00944554,8.98924153 L6.88298643,8.14766003 C7.2874107,8.0274341 7.70703889,8.28160301 7.81802751,8.71086606 C7.92977632,9.1401291 7.69183497,9.58472297 7.2874107,9.70252824 L2.95581389,10.9709521 C2.88967683,10.9903174 2.82201939,11 2.75588234,11 C2.75512214,11 2.75436195,11 2.75360175,11 C2.67986274,11 2.60764412,10.9878967 2.53846628,10.9661108 C2.53694589,10.9653039 2.5346653,10.9661108 2.53314491,10.9653039 C2.52630315,10.9636902 2.52174197,10.958042 2.5156604,10.9556213 C2.43736021,10.9281872 2.36590179,10.8846154 2.29976474,10.8321678 C2.27923945,10.8152232 2.26099474,10.7990855 2.24198984,10.7805272 C2.19105671,10.7313072 2.14848573,10.6740183 2.11123613,10.6102743 C2.10059339,10.591716 2.08767005,10.5763852 2.0785477,10.5578268 C2.07550692,10.5513717 2.07018555,10.5465304 2.06714476,10.5392684 L0.0739108464,6.09817106 C-0.106255606,5.69634212 0.0541457503,5.21463152 0.433483555,5.02339968 C0.811300967,4.83136095 1.26589818,5.00161377 1.44682482,5.40505648 L2.69126568,8.17912856 C4.44351746,4.4190425 7.99363279,2 11.9991055,2 C16.5975311,2 20.6037641,5.19203873 21.9667955,9.9429801 C22.089187,10.3690156 21.8626486,10.8200646 21.4612651,10.9499731 C21.0598817,11.077461 20.6349321,10.8394298 20.5125405,10.4125874 C19.3456397,6.34588488 15.9247577,3.61377084 11.9991055,3.61377084 Z" fill="#000000"></path>
    </g>
</svg>