<?xml version="1.0" encoding="utf-8"?>
<!-- Generator: Adobe Illustrator 17.1.0, SVG Export Plug-In . SVG Version: 6.00 Build 0)  -->
<!DOCTYPE svg PUBLIC "-//W3C//DTD SVG 1.1//EN" "http://www.w3.org/Graphics/SVG/1.1/DTD/svg11.dtd">
<svg version="1.1" id="Layer_1" xmlns="http://www.w3.org/2000/svg" xmlns:xlink="http://www.w3.org/1999/xlink" x="0px" y="0px"
	 viewBox="0 0 50 50" enable-background="new 0 0 50 50" xml:space="preserve">
<path d="M40.938,9.813h-5.285c-0.552,0-1,0.447-1,1v1.643H17.222v-1.643c0-0.553-0.448-1-1-1h-5.285c-0.552,0-1,0.447-1,1v5.284
	c0,0.553,0.448,1,1,1h1.642v17.432h-1.642c-0.552,0-1,0.447-1,1v5.284c0,0.553,0.448,1,1,1h5.285c0.552,0,1-0.447,1-1V39.17h17.431
	v1.643c0,0.553,0.448,1,1,1h5.285c0.552,0,1-0.447,1-1v-5.284c0-0.553-0.448-1-1-1h-1.642V17.097h1.642c0.552,0,1-0.447,1-1v-5.284
	C41.938,10.26,41.49,9.813,40.938,9.813z M11.938,11.813h3.285v1.64c0,0.001,0,0.002,0,0.002s0,0.002,0,0.002v1.639h-3.285V11.813z
	 M11.938,39.813v-3.284h3.285v1.639c0,0.001,0,0.002,0,0.002s0,0.002,0,0.002v1.64H11.938z M39.938,39.813h-3.285v-3.284h3.285
	V39.813z M37.295,34.528h-1.643c-0.552,0-1,0.447-1,1v1.642H17.222v-1.642c0-0.553-0.448-1-1-1H14.58V17.097h1.643
	c0.552,0,1-0.447,1-1v-1.642h17.431v1.642c0,0.553,0.448,1,1,1h1.643V34.528z M39.938,15.097h-3.285v-3.284h3.285V15.097z"/>
</svg>
