<svg viewBox="0 0 24 24" version="1.1" xmlns="http://www.w3.org/2000/svg" xmlns:xlink="http://www.w3.org/1999/xlink">
    <g class="selection" stroke="none" stroke-width="1" fill="none" fill-rule="evenodd">
        <path d="M23.2500234,0 L19.2863973,0 C18.8724102,0 18.5364207,0.33525 18.5364207,0.75 L18.5364207,1.98225 L5.46357926,1.98225 L5.46357926,0.75 C5.46357926,0.33525 5.12758976,0 4.7136027,0 L0.749976563,0 C0.3359895,0 0,0.33525 0,0.75 L0,4.713 C0,5.12775 0.3359895,5.463 0.749976563,5.463 L1.98143808,5.463 L1.98143808,18.537 L0.749976563,18.537 C0.3359895,18.537 0,18.87225 0,19.287 L0,23.25 C0,23.66475 0.3359895,24 0.749976563,24 L4.7136027,24 C5.12758976,24 5.46357926,23.66475 5.46357926,23.25 L5.46357926,22.01775 L18.5364207,22.01775 L18.5364207,23.25 C18.5364207,23.66475 18.8724102,24 19.2863973,24 L23.2500234,24 C23.6640105,24 24,23.66475 24,23.25 L24,19.287 C24,18.87225 23.6640105,18.537 23.2500234,18.537 L22.0185619,18.537 L22.0185619,5.463 L23.2500234,5.463 C23.6640105,5.463 24,5.12775 24,4.713 L24,0.75 C24,0.33525 23.6640105,0 23.2500234,0 Z M1.5007031,1.5 L3.96437611,1.5 L3.96437611,2.73 C3.96437611,2.73075 3.96437611,2.7315 3.96437611,2.7315 C3.96437611,2.7315 3.96437611,2.733 3.96437611,2.733 L3.96437611,3.96225 L1.5007031,3.96225 L1.5007031,1.5 Z M1.5007031,22.5 L1.5007031,20.037 L3.96437611,20.037 L3.96437611,21.26625 C3.96437611,21.267 3.96437611,21.26775 3.96437611,21.26775 C3.96437611,21.26775 3.96437611,21.26925 3.96437611,21.26925 L3.96437611,22.49925 L1.5007031,22.49925 L1.5007031,22.5 Z M22.5000469,22.5 L20.0363739,22.5 L20.0363739,20.037 L22.5000469,20.037 L22.5000469,22.5 Z M20.5178588,18.53625 L19.2856473,18.53625 C18.8716603,18.53625 18.5356708,18.8715 18.5356708,19.28625 L18.5356708,20.51775 L5.46357926,20.51775 L5.46357926,19.28625 C5.46357926,18.8715 5.12758976,18.53625 4.7136027,18.53625 L3.48214118,18.53625 L3.48214118,5.463 L4.71435268,5.463 C5.12833974,5.463 5.46432924,5.12775 5.46432924,4.713 L5.46432924,3.4815 L18.5371707,3.4815 L18.5371707,4.713 C18.5371707,5.12775 18.8731602,5.463 19.2871473,5.463 L20.5193588,5.463 L20.5193588,18.53625 L20.5178588,18.53625 Z M22.5000469,3.963 L20.0363739,3.963 L20.0363739,1.5 L22.5000469,1.5 L22.5000469,3.963 Z" fill="#000000" fill-rule="nonzero"></path>
    </g>
</svg>