<svg width="50" height="19" viewBox="0 0 50 19" fill="none" xmlns="http://www.w3.org/2000/svg">
<path fill-rule="evenodd" clip-rule="evenodd" d="M29.8213 6.976H32.1131C32.8398 6.94977 33.2817 6.89383 33.4408 6.80618C33.6581 6.6865 33.8039 6.44696 33.8765 6.08758C33.9229 5.84838 33.9461 5.49281 33.9461 5.02038C33.9461 4.44172 33.9 4.01278 33.8074 3.73258C33.6751 3.34016 33.3585 3.10113 32.8568 3.01431C32.7577 3.0012 32.5203 2.99422 32.1441 2.99422H29.8213V6.976ZM26.1449 13.6828V0H32.9941C33.9335 0 34.6504 0.0768567 35.1429 0.230404C36.2694 0.583978 37.0252 1.30789 37.4124 2.40198C37.6122 2.97616 37.7121 3.84067 37.7121 4.99502C37.7121 6.38292 37.6013 7.3804 37.382 7.98761C36.9427 9.18844 36.0384 9.88015 34.6729 10.0594C34.5123 10.0863 33.8291 10.1104 32.6232 10.1296L32.0129 10.1501H29.8211V13.6828H26.1449ZM7.68521 4.36472H11.1052C11.1273 4.06244 11.1384 3.83636 11.1384 3.68513C11.1384 1.8414 10.3943 0.719429 8.90603 0.318878C8.2962 0.155039 7.27324 0.0723724 5.83782 0.0723724C4.92605 0.0723724 4.09714 0.105738 3.34993 0.170975C2.45192 0.243349 1.71416 0.485539 1.13763 0.898042C0.744061 1.16679 0.458865 1.55971 0.281882 2.07729C0.105063 2.5947 0.0165715 3.28259 0.0165715 4.14046C0.0165715 5.26692 0.180298 6.10902 0.507586 6.66561C0.879948 7.32063 1.62616 7.75206 2.7459 7.96188C3.17113 8.03475 3.93043 8.10995 5.02349 8.18814C6.38468 8.27993 7.1473 8.35231 7.31119 8.40426C7.74951 8.53573 7.96908 8.90226 7.96908 9.50466C7.96908 9.77357 7.94306 9.99335 7.8907 10.1632C7.7921 10.4391 7.58578 10.6384 7.27142 10.7623C7.09477 10.8283 6.68528 10.8612 6.04363 10.8612H4.78635C4.45161 10.8539 4.16691 10.7923 3.9311 10.6749C3.59088 10.5048 3.42036 10.1227 3.42036 9.52856L3.42024 9.43039L3.42003 9.24404H0C0 10.3574 0.0813662 11.1527 0.245756 11.6303C0.540894 12.4881 1.15073 13.0578 2.07575 13.339C2.82942 13.5686 4.16426 13.6828 6.07959 13.6828C7.22701 13.6828 8.08011 13.6302 8.63774 13.5249C9.96876 13.2761 10.8242 12.6837 11.205 11.7456C11.4151 11.2343 11.52 10.4276 11.52 9.32605C11.52 8.84814 11.4972 8.41804 11.4511 8.03791C11.3724 7.40247 11.1256 6.88788 10.7118 6.49414C10.186 5.9895 9.33855 5.67809 8.16959 5.56007C7.80138 5.52073 6.87818 5.45151 5.4 5.35324L4.71029 5.30443C4.40753 5.28485 4.16475 5.21928 3.98098 5.10773C3.72445 4.95053 3.59652 4.62252 3.59652 4.12436C3.59652 3.57408 3.74102 3.21669 4.0297 3.05235C4.31854 2.88851 4.91047 2.80668 5.80335 2.80668C6.72273 2.80668 7.28451 2.94894 7.48801 3.23312C7.61925 3.42518 7.68521 3.80249 7.68521 4.36472ZM0.01297 16.3964L0.525693 16.3446C0.556516 16.5177 0.619156 16.6447 0.713448 16.726C0.807906 16.8072 0.935175 16.8477 1.09542 16.8477C1.26511 16.8477 1.39288 16.8117 1.47905 16.7396C1.56506 16.6674 1.60798 16.5831 1.60798 16.4865C1.60798 16.4246 1.58992 16.372 1.55396 16.3283C1.51783 16.2848 1.45486 16.2471 1.36487 16.2148C1.30323 16.1937 1.16303 16.1558 0.944124 16.1014C0.662242 16.0317 0.46471 15.9457 0.351029 15.8436C0.19128 15.7002 0.111405 15.5252 0.111405 15.3187C0.111405 15.1861 0.149022 15.0617 0.224423 14.9462C0.299657 14.8305 0.408366 14.7424 0.550053 14.6819C0.691905 14.6215 0.863089 14.5911 1.0636 14.5911C1.39106 14.5911 1.63748 14.6633 1.80303 14.8074C1.96858 14.9517 2.05541 15.1441 2.0637 15.3848L1.53556 15.4055C1.51302 15.2711 1.46464 15.1745 1.39039 15.1154C1.31632 15.0564 1.20513 15.0269 1.05681 15.0269C0.903689 15.0269 0.784043 15.0584 0.697374 15.1215C0.641528 15.1618 0.613688 15.216 0.613688 15.2837C0.613688 15.3456 0.639871 15.3984 0.692071 15.4425C0.758357 15.4983 0.919598 15.5566 1.17579 15.6168C1.43182 15.6773 1.62124 15.7398 1.74403 15.8049C1.86666 15.8698 1.96278 15.9586 2.03221 16.0712C2.10148 16.184 2.13628 16.3232 2.13628 16.4888C2.13628 16.6392 2.09468 16.7798 2.0115 16.9109C1.92831 17.0421 1.81081 17.1395 1.65885 17.2033C1.50689 17.267 1.31748 17.2991 1.09062 17.2991C0.760511 17.2991 0.506967 17.2222 0.329983 17.0685C0.153165 16.9148 0.0474387 16.6908 0.01297 16.3964ZM2.68381 15.3589H3.18609V17.2523H2.68381V15.3589ZM2.68381 14.6378H3.18609V15.0996H2.68381V14.6378ZM5.02814 17.2522H5.53042V16.0732C5.53042 15.9268 5.52114 15.8142 5.50274 15.7357C5.48435 15.657 5.4517 15.5868 5.40481 15.5249C5.35791 15.463 5.28881 15.412 5.1975 15.3722C5.10619 15.3323 5.00527 15.3122 4.8949 15.3122C4.64467 15.3122 4.43686 15.4205 4.27198 15.6371V15.3589H3.80598V17.2522H4.30827V16.3929C4.30827 16.1807 4.32086 16.0355 4.34638 15.957C4.37174 15.8783 4.41863 15.8152 4.48724 15.7676C4.55585 15.7199 4.63324 15.696 4.71957 15.696C4.78685 15.696 4.84452 15.7128 4.89241 15.746C4.94031 15.7794 4.97477 15.8263 4.99615 15.8864C5.01736 15.9465 5.02814 16.079 5.02814 16.2838V17.2522ZM6.54624 16.2647C6.54624 16.4663 6.58468 16.6138 6.66191 16.7073C6.73896 16.8011 6.83408 16.8477 6.94727 16.8477C7.06841 16.8477 7.17082 16.7998 7.2545 16.7038C7.33802 16.6079 7.37995 16.4656 7.37995 16.2772C7.37995 16.0807 7.33985 15.9346 7.25981 15.8391C7.1796 15.7438 7.07851 15.696 6.95605 15.696C6.83707 15.696 6.73896 15.743 6.66191 15.8365C6.58468 15.9303 6.54624 16.0728 6.54624 16.2647ZM6.09575 17.3767L6.66531 17.439C6.67493 17.5095 6.69697 17.558 6.73143 17.5846C6.77916 17.6224 6.85423 17.6413 6.95664 17.6413C7.08772 17.6413 7.18599 17.6218 7.25161 17.5826C7.29553 17.5564 7.329 17.5142 7.35171 17.4559C7.36712 17.4141 7.37491 17.3376 7.37491 17.2257L7.3764 16.9493C7.22825 17.1513 7.04033 17.2522 6.8123 17.2522C6.55793 17.2522 6.35675 17.1447 6.20827 16.9291C6.09177 16.7587 6.03361 16.5466 6.03361 16.293C6.03361 15.9749 6.10984 15.732 6.26246 15.5641C6.41508 15.3962 6.60499 15.3122 6.83186 15.3122C7.06585 15.3122 7.25891 15.4153 7.41103 15.6212V15.3589H7.87719V17.0609C7.87719 17.2848 7.8588 17.4521 7.82184 17.5627C7.78505 17.6735 7.73335 17.7604 7.66673 17.8234C7.60011 17.8865 7.51129 17.936 7.4001 17.9717C7.2889 18.0074 7.14837 18.0253 6.97852 18.0253C6.65753 18.0253 6.42983 17.9699 6.29544 17.8591C6.16104 17.7484 6.09393 17.608 6.09393 17.4378C6.09393 17.4211 6.09459 17.4008 6.09575 17.3767ZM8.98089 14.6378H8.47861V17.2523H8.98089V14.6378ZM10.7298 16.1474C10.7263 16 10.6887 15.8881 10.6169 15.8112C10.5453 15.7345 10.4582 15.696 10.3554 15.696C10.2456 15.696 10.1547 15.7367 10.0832 15.8175C10.0114 15.8984 9.97627 16.0084 9.97743 16.1474H10.7298ZM10.7039 16.6558L11.2011 16.7388C11.1368 16.9212 11.0352 17.0604 10.8965 17.1558C10.7578 17.2514 10.5841 17.2991 10.3758 17.2991C10.0459 17.2991 9.80179 17.191 9.64353 16.975C9.51841 16.8021 9.45594 16.5838 9.45594 16.3198C9.45594 16.0051 9.53797 15.7583 9.70236 15.5798C9.86658 15.4014 10.0742 15.3122 10.3253 15.3122C10.6075 15.3122 10.83 15.4059 10.9931 15.5929C11.1562 15.7804 11.2341 16.067 11.2269 16.4535H9.96866C9.97214 16.6025 10.0129 16.7184 10.0908 16.8014C10.1687 16.8841 10.2658 16.9256 10.3821 16.9256C10.4612 16.9256 10.5278 16.9043 10.5816 16.8617C10.6355 16.8192 10.6764 16.7504 10.7039 16.6558ZM12.8704 14.6378V17.2523H14.8538V16.8114H13.3987V16.1007H14.7037V15.6598H13.3987V15.0789H14.8021V14.6378H12.8704ZM16.6492 17.2522V16.9687C16.5801 17.0698 16.4895 17.1501 16.377 17.2097C16.2645 17.2692 16.1458 17.299 16.0208 17.299C15.8934 17.299 15.7794 17.271 15.6782 17.215C15.5771 17.1591 15.5038 17.0804 15.4586 16.9793C15.4133 16.8781 15.3908 16.7381 15.3908 16.5595V15.3589H15.8931V16.2297C15.8931 16.4963 15.9022 16.6596 15.9208 16.7195C15.9392 16.78 15.9726 16.8274 16.0213 16.8626C16.0701 16.8976 16.1317 16.9151 16.2066 16.9151C16.2921 16.9151 16.3689 16.8918 16.4365 16.8447C16.5042 16.7977 16.5505 16.7395 16.5755 16.6697C16.6004 16.6002 16.6129 16.4297 16.6129 16.1585V15.3589H17.1152V17.2522H16.6492ZM17.7168 17.2522H18.2191V16.6668C18.2191 16.3444 18.2332 16.1324 18.2612 16.0313C18.2892 15.9302 18.3276 15.8604 18.3765 15.8215C18.4254 15.783 18.4849 15.7636 18.5553 15.7636C18.6279 15.7636 18.7068 15.791 18.7913 15.8456L18.9441 15.4072C18.8383 15.3439 18.7283 15.3122 18.6143 15.3122C18.5334 15.3122 18.4613 15.3332 18.3977 15.3748C18.3341 15.4167 18.2625 15.501 18.1828 15.6281V15.3589H17.7168V17.2522ZM19.6593 16.3056C19.6593 16.4943 19.7039 16.6386 19.7932 16.7388C19.8826 16.8391 19.9926 16.8892 20.1237 16.8892C20.2546 16.8892 20.3645 16.8391 20.4531 16.7388C20.5418 16.6386 20.5862 16.493 20.5862 16.3021C20.5862 16.116 20.5418 15.9726 20.4531 15.8725C20.3645 15.7722 20.2546 15.7221 20.1237 15.7221C19.9926 15.7221 19.8826 15.7722 19.7932 15.8725C19.7039 15.9726 19.6593 16.1172 19.6593 16.3056ZM19.1467 16.2787C19.1467 16.1117 19.1876 15.95 19.2696 15.7936C19.3515 15.6374 19.4675 15.5181 19.6178 15.4357C19.7679 15.3534 19.9358 15.3122 20.1211 15.3122C20.4072 15.3122 20.6417 15.4055 20.8247 15.5923C21.0075 15.779 21.0989 16.0151 21.0989 16.3003C21.0989 16.5878 21.0065 16.8263 20.8219 17.0154C20.6373 17.2044 20.4048 17.2991 20.1245 17.2991C19.9512 17.2991 19.7858 17.2596 19.6286 17.181C19.4711 17.1022 19.3515 16.9868 19.2696 16.8346C19.1876 16.6824 19.1467 16.4973 19.1467 16.2787ZM23.2626 15.8259V15.0789H23.5165C23.7061 15.0789 23.832 15.0848 23.8948 15.0968C23.98 15.1124 24.0505 15.1512 24.1061 15.2135C24.1618 15.2757 24.1897 15.3548 24.1897 15.4505C24.1897 15.5284 24.1698 15.5966 24.1302 15.6552C24.0906 15.714 24.0357 15.7571 23.9659 15.7847C23.896 15.8122 23.7575 15.8259 23.5503 15.8259H23.2626ZM22.7345 14.6378V17.2523H23.2627V16.2667H23.606C23.8442 16.2667 24.0261 16.2543 24.1519 16.2292C24.2444 16.209 24.3354 16.1678 24.4248 16.1052C24.5143 16.0428 24.5882 15.9568 24.6462 15.8476C24.7044 15.7379 24.7334 15.6031 24.7334 15.4426C24.7334 15.2344 24.683 15.0646 24.5821 14.9333C24.4812 14.8018 24.3561 14.7163 24.2066 14.6771C24.1093 14.6511 23.9004 14.6378 23.58 14.6378H22.7345ZM26.3115 16.3446C26.2473 16.3662 26.1461 16.3917 26.0076 16.4216C25.869 16.4513 25.7784 16.4807 25.7359 16.5093C25.6707 16.5559 25.6383 16.615 25.6383 16.6865C25.6383 16.7571 25.6642 16.8178 25.7162 16.8693C25.7684 16.9206 25.8347 16.9463 25.9154 16.9463C26.0054 16.9463 26.0911 16.9165 26.1729 16.8569C26.2333 16.8114 26.273 16.7559 26.2919 16.6902C26.3048 16.6472 26.3115 16.5654 26.3115 16.4447V16.3446ZM25.6384 15.9347L25.1878 15.8517C25.2389 15.6683 25.3267 15.5327 25.4513 15.4445C25.5761 15.3564 25.7614 15.3122 26.0071 15.3122C26.2303 15.3122 26.3967 15.3388 26.5059 15.3916C26.6151 15.4449 26.6922 15.5121 26.7366 15.5936C26.7812 15.6751 26.8035 15.825 26.8035 16.043L26.7984 16.6289C26.7984 16.7956 26.8064 16.9188 26.8223 16.9978C26.8383 17.077 26.8683 17.1618 26.9123 17.2522H26.4151C26.4018 17.2195 26.3859 17.1709 26.3669 17.1065C26.3586 17.0771 26.3526 17.0579 26.3493 17.0484C26.2638 17.1319 26.1725 17.1946 26.0752 17.2365C25.9779 17.2781 25.8744 17.2991 25.764 17.2991C25.5695 17.2991 25.416 17.2459 25.304 17.14C25.192 17.034 25.1359 16.8998 25.1359 16.7378C25.1359 16.6308 25.1615 16.5351 25.2123 16.4511C25.2635 16.3672 25.3351 16.3027 25.4271 16.2581C25.5192 16.2136 25.652 16.1743 25.8253 16.1409C26.0591 16.0969 26.2212 16.0559 26.3115 16.0177V15.9671C26.3115 15.8695 26.2877 15.7999 26.2399 15.7583C26.1921 15.7168 26.1021 15.696 25.9695 15.696C25.88 15.696 25.8102 15.7138 25.76 15.749C25.7098 15.7843 25.6692 15.8463 25.6384 15.9347ZM27.6974 15.3589H27.1642L27.8849 17.2575C27.855 17.3644 27.8121 17.4526 27.7559 17.522C27.6998 17.591 27.6134 17.6257 27.4963 17.6257C27.4331 17.6257 27.3619 17.6181 27.2832 17.6023L27.3299 17.9949C27.4225 18.0151 27.5173 18.0253 27.6136 18.0253C27.7087 18.0253 27.7941 18.0151 27.8696 17.9947C27.9452 17.9746 28.0085 17.9461 28.0604 17.9097C28.1121 17.8735 28.158 17.8261 28.1977 17.7678C28.2375 17.7094 28.2794 17.6249 28.3235 17.514L29.1113 15.3589H28.5935L28.1507 16.7031L27.6974 15.3589ZM29.5029 15.3589H29.9638V15.6175C30.1293 15.414 30.3264 15.3122 30.555 15.3122C30.6763 15.3122 30.7817 15.3371 30.8711 15.3871C30.9604 15.4372 31.0336 15.5129 31.0906 15.614C31.1738 15.5129 31.2638 15.4372 31.3599 15.3871C31.4564 15.3371 31.5589 15.3122 31.6683 15.3122C31.8075 15.3122 31.9252 15.3405 32.0215 15.3972C32.1177 15.4535 32.1898 15.5367 32.2374 15.6464C32.2717 15.7272 32.2889 15.8582 32.2889 16.0393V17.2522H31.7866V16.1678C31.7866 15.9795 31.7694 15.8582 31.7351 15.8034C31.6887 15.7317 31.6176 15.696 31.5217 15.696C31.4516 15.696 31.3856 15.7174 31.324 15.7604C31.2623 15.8034 31.2179 15.8662 31.1907 15.949C31.1634 16.0317 31.1496 16.1625 31.1496 16.3411V17.2522H30.6473V16.2126C30.6473 16.0277 30.6386 15.9088 30.6207 15.8551C30.6029 15.8014 30.5754 15.7616 30.538 15.7354C30.5005 15.7093 30.45 15.696 30.3858 15.696C30.3088 15.696 30.2394 15.7169 30.1777 15.7586C30.1161 15.8003 30.072 15.8605 30.0451 15.939C30.0185 16.0177 30.0052 16.148 30.0052 16.3303V17.2522H29.5029V15.3589ZM33.9062 15.8112C33.9781 15.8881 34.0156 16 34.0192 16.1474H33.2669C33.2657 16.0084 33.3008 15.8984 33.3726 15.8175C33.444 15.7367 33.535 15.696 33.6447 15.696C33.7474 15.696 33.8348 15.7345 33.9062 15.8112ZM34.4905 16.7388L33.9934 16.6558C33.9659 16.7504 33.9251 16.8192 33.8709 16.8617C33.817 16.9043 33.7506 16.9256 33.6715 16.9256C33.555 16.9256 33.4579 16.8841 33.3802 16.8014C33.3023 16.7184 33.2616 16.6025 33.2579 16.4535H34.5164C34.5235 16.067 34.4454 15.7804 34.2824 15.5929C34.1193 15.4059 33.8969 15.3122 33.6147 15.3122C33.3635 15.3122 33.156 15.4014 32.9916 15.5798C32.8276 15.7583 32.7452 16.0051 32.7452 16.3198C32.7452 16.5838 32.8077 16.8021 32.9328 16.975C33.0912 17.191 33.3353 17.2991 33.6651 17.2991C33.8735 17.2991 34.0471 17.2514 34.1859 17.1558C34.3246 17.0604 34.426 16.9212 34.4905 16.7388ZM36.7517 17.2522H36.2494V16.2838C36.2494 16.079 36.2386 15.9465 36.2176 15.8864C36.1962 15.8263 36.1616 15.7794 36.1137 15.746C36.0658 15.7128 36.0081 15.696 35.9408 15.696C35.8547 15.696 35.7771 15.7199 35.7087 15.7676C35.6401 15.8152 35.5932 15.8783 35.5676 15.957C35.5423 16.0355 35.5295 16.1807 35.5295 16.3929V17.2522H35.0273V15.3589H35.4932V15.6371C35.6583 15.4205 35.8659 15.3122 36.1162 15.3122C36.2265 15.3122 36.3276 15.3323 36.4188 15.3722C36.5101 15.412 36.5793 15.463 36.6262 15.5249C36.6731 15.5868 36.7056 15.657 36.724 15.7357C36.7426 15.8142 36.7517 15.9268 36.7517 16.0732V17.2522ZM38.2338 15.7583V15.3589H37.8919V14.6846L37.3896 14.9802V15.3589H37.1617V15.7583H37.3896V16.5859C37.3896 16.7634 37.3947 16.8814 37.4055 16.9398C37.4184 17.022 37.4416 17.0872 37.4753 17.1354C37.5091 17.1837 37.5619 17.2232 37.6339 17.2534C37.706 17.2838 37.7867 17.2991 37.8766 17.2991C38.023 17.2991 38.154 17.274 38.2699 17.224L38.226 16.8359C38.1395 16.868 38.0738 16.8841 38.0281 16.8841C37.9955 16.8841 37.9679 16.8756 37.9451 16.859C37.9224 16.8422 37.9078 16.8211 37.9015 16.7954C37.895 16.7699 37.8919 16.6794 37.8919 16.5243V15.7583H38.2338ZM38.5162 16.7181L39.0185 16.6402C39.0398 16.737 39.0831 16.8104 39.1482 16.8607C39.2135 16.911 39.3047 16.9359 39.422 16.9359C39.5514 16.9359 39.6487 16.912 39.7138 16.8641C39.7577 16.8305 39.7798 16.7858 39.7798 16.7294C39.7798 16.6912 39.7677 16.6593 39.7438 16.6344C39.7186 16.6103 39.6626 16.5883 39.5754 16.5678C39.1696 16.478 38.9122 16.3962 38.8039 16.3223C38.6534 16.2199 38.5783 16.0773 38.5783 15.8952C38.5783 15.7306 38.6431 15.5923 38.7732 15.4804C38.9035 15.3683 39.1051 15.3122 39.3784 15.3122C39.6386 15.3122 39.8318 15.3542 39.9584 15.4381C40.0848 15.5221 40.172 15.6461 40.2199 15.8102L39.7486 15.8984C39.7282 15.8248 39.6894 15.7682 39.6324 15.7291C39.5753 15.6897 39.4939 15.6701 39.3883 15.6701C39.2551 15.6701 39.1595 15.6886 39.102 15.7259C39.0634 15.7521 39.0443 15.7862 39.0443 15.828C39.0443 15.864 39.0609 15.8946 39.0944 15.9198C39.1396 15.9532 39.2962 16.0005 39.5638 16.0616C39.8315 16.1226 40.0184 16.1973 40.1246 16.2858C40.2293 16.3755 40.282 16.5004 40.282 16.6606C40.282 16.8351 40.2095 16.9852 40.0648 17.1107C39.9198 17.2363 39.7057 17.2991 39.422 17.2991C39.1646 17.2991 38.9608 17.2468 38.8107 17.1427C38.6605 17.0383 38.5624 16.897 38.5162 16.7181ZM42.9742 15.25L43.3391 16.2201H42.6216L42.9742 15.25ZM43.739 17.2523H44.3078L43.2538 14.6378H42.6983L41.6873 17.2523H42.2463L42.4613 16.661H43.5133L43.739 17.2523ZM45.1698 17.2522H44.6676V15.3589H45.1335V15.6281C45.2133 15.501 45.2847 15.4167 45.3485 15.3748C45.4119 15.3332 45.484 15.3122 45.5651 15.3122C45.6791 15.3122 45.7889 15.3439 45.8948 15.4072L45.742 15.8456C45.6574 15.791 45.5787 15.7636 45.5061 15.7636C45.4355 15.7636 45.376 15.783 45.3271 15.8215C45.2782 15.8604 45.2398 15.9302 45.2119 16.0313C45.1838 16.1324 45.1698 16.3444 45.1698 16.6668V17.2522ZM47.2326 15.8112C47.3042 15.8881 47.3418 16 47.3454 16.1474H46.5931C46.5918 16.0084 46.6271 15.8984 46.6988 15.8175C46.7704 15.7367 46.861 15.696 46.9711 15.696C47.0737 15.696 47.1608 15.7345 47.2326 15.8112ZM47.8167 16.7388L47.3195 16.6558C47.2919 16.7504 47.2511 16.8192 47.1972 16.8617C47.1432 16.9043 47.0768 16.9256 46.9975 16.9256C46.8814 16.9256 46.7843 16.8841 46.7062 16.8014C46.6285 16.7184 46.5877 16.6025 46.5841 16.4535H47.8425C47.8496 16.067 47.7716 15.7804 47.6087 15.5929C47.4455 15.4059 47.2229 15.3122 46.9409 15.3122C46.6898 15.3122 46.482 15.4014 46.3179 15.5798C46.1536 15.7583 46.0714 16.0051 46.0714 16.3198C46.0714 16.5838 46.1338 16.8021 46.259 16.975C46.4172 17.191 46.6615 17.2991 46.9914 17.2991C47.1997 17.2991 47.3734 17.2514 47.5121 17.1558C47.6508 17.0604 47.7524 16.9212 47.8167 16.7388ZM49.3995 16.3446C49.3356 16.3662 49.2342 16.3917 49.0956 16.4216C48.9571 16.4513 48.8666 16.4807 48.824 16.5093C48.7587 16.5559 48.7264 16.615 48.7264 16.6865C48.7264 16.7571 48.7523 16.8178 48.8045 16.8693C48.8565 16.9206 48.9228 16.9463 49.0035 16.9463C49.0935 16.9463 49.1791 16.9165 49.261 16.8569C49.3213 16.8114 49.3611 16.7559 49.38 16.6902C49.3929 16.6472 49.3995 16.5654 49.3995 16.4447V16.3446ZM48.7263 15.9347L48.2758 15.8517C48.3268 15.6683 48.4146 15.5327 48.5392 15.4445C48.664 15.3564 48.8493 15.3122 49.0951 15.3122C49.3183 15.3122 49.4846 15.3388 49.5939 15.3916C49.7031 15.4449 49.7801 15.5121 49.8245 15.5936C49.8691 15.6751 49.8915 15.825 49.8915 16.043L49.8863 16.6289C49.8863 16.7956 49.8943 16.9188 49.9102 16.9978C49.9263 17.077 49.9563 17.1618 50 17.2522H49.503C49.4898 17.2195 49.474 17.1709 49.4548 17.1065C49.4467 17.0771 49.4406 17.0579 49.4373 17.0484C49.3517 17.1319 49.2606 17.1946 49.1633 17.2365C49.0661 17.2781 48.9623 17.2991 48.8519 17.2991C48.6574 17.2991 48.5039 17.2459 48.3919 17.14C48.2801 17.034 48.2241 16.8998 48.2241 16.7378C48.2241 16.6308 48.2494 16.5351 48.3004 16.4511C48.3515 16.3672 48.4231 16.3027 48.515 16.2581C48.6072 16.2136 48.7399 16.1743 48.9133 16.1409C49.1471 16.0969 49.3092 16.0559 49.3995 16.0177V15.9671C49.3995 15.8695 49.3756 15.7999 49.3279 15.7583C49.2802 15.7168 49.19 15.696 49.0574 15.696C48.9679 15.696 48.8982 15.7138 48.848 15.749C48.7979 15.7843 48.7572 15.8463 48.7263 15.9347ZM43.1067 2.72118L44.8292 8.65242H41.4351L43.1067 2.72118ZM40.6442 11.318H45.5594L46.2607 13.6828H49.9844L45.8299 0H40.2844L36.1803 13.6828H39.9838L40.6442 11.318Z" fill="#10298E"/>
<path fill-rule="evenodd" clip-rule="evenodd" d="M21.0708 1.92505C22.5871 1.92505 23.9404 2.62473 24.8299 3.72064L25.6224 2.01867C24.383 0.845241 22.6962 0.121826 20.8357 0.121826C17.939 0.121826 15.461 1.87426 14.4441 4.35492H12.8988L11.9863 6.31435H13.9742C13.9593 6.49611 13.9497 6.67805 13.9497 6.86363C13.9497 7.08822 13.9613 7.31016 13.9835 7.52944H12.9844L12.0722 9.48954H14.4914C15.5374 11.9074 17.9844 13.6049 20.8357 13.6049C22.2726 13.6049 23.6059 13.1737 24.7099 12.437V10.0348C23.8209 11.0487 22.5205 11.6895 21.0708 11.6895C19.3762 11.6895 17.8856 10.8142 17.0176 9.48954H22.0837L22.9959 7.52944H16.2722C16.2376 7.29356 16.219 7.05253 16.219 6.80702C16.219 6.64103 16.2276 6.47669 16.2436 6.31435H23.5614L24.4736 4.35492H16.8764C17.7166 2.90244 19.2801 1.92505 21.0708 1.92505Z" fill="#FFBE00"/>
</svg>
