<svg width="24px" height="24px" viewBox="0 0 24 24" version="1.1" xmlns="http://www.w3.org/2000/svg" xmlns:xlink="http://www.w3.org/1999/xlink">
    <g class="settings" stroke="none" stroke-width="1" fill="none" fill-rule="evenodd">
        <path d="M0.668229118,14.14275 C0.287991,14.10075 9.32591504e-15,13.779 1.0658141e-14,13.398 L1.0658141e-14,10.6035 C1.0658141e-14,10.221 0.287991,9.9 0.668229118,9.858 L2.45992313,9.66075 C2.69916565,8.676 3.08690353,7.7445 3.61638699,6.8805 L2.50942158,5.50425 C2.2686791,5.20575 2.29267835,4.77375 2.56416987,4.503 L4.5471079,2.52675 C4.81709947,2.2575 5.24683604,2.2335 5.54457673,2.472 L6.93278335,3.5805 C7.77050717,3.07275 8.66972907,2.697 9.6191994,2.45925 L9.81794319,0.6675 C9.85994188,0.28725 10.1809318,-5.32907052e-15 10.5634199,-5.32907052e-15 L13.3660823,-5.32907052e-15 C13.7485704,-5.32907052e-15 14.0688103,0.288 14.111559,0.6675 L14.3065529,2.4225 C15.3025218,2.655 16.2452423,3.0375 17.119715,3.56325 L18.4854223,2.47125 C18.7809131,2.23425 19.2121496,2.256 19.4828912,2.526 L21.4658292,4.50225 C21.7373207,4.773 21.76057,5.205 21.5205775,5.5035 L20.4413612,6.84525 C20.9828443,7.72275 21.3788319,8.66925 21.6210743,9.6705 L23.3317709,9.858 C23.712009,9.9 24,10.221 24,10.6035 L24,13.398 C24,13.7805 23.712009,14.1015 23.3310209,14.1435 L21.6158245,14.331 C21.3720821,15.3285 20.9760945,16.27125 20.4331115,17.1465 L21.5205775,18.4965 C21.76132,18.79425 21.7373207,19.227 21.4658292,19.49775 L19.4828912,21.474 C19.2113996,21.744 18.7809131,21.76575 18.4854223,21.52875 L17.1054655,20.4255 C16.2347427,20.9475 15.297272,21.32625 14.3073029,21.558 L14.111559,23.3325 C14.0695603,23.712 13.7485704,24 13.3660823,24 L10.5634199,24 C10.1809318,24 9.85994188,23.712 9.81794319,23.33175 L9.61844942,21.5205 C8.66597919,21.282 7.76450736,20.90475 6.92528358,20.3955 L5.55132652,21.492 C5.25283585,21.7305 4.82384925,21.70725 4.55385769,21.43725 L2.57166964,19.461 C2.30017812,19.191 2.27692885,18.759 2.51692135,18.4605 L3.61338708,17.09625 C3.08915346,16.23825 2.70366551,15.315 2.46517296,14.34 L0.668229118,14.14275 Z M1.49995313,11.274 L1.50220306,11.274 L1.50220306,12.7245 L3.167901,12.9075 C3.49639074,12.94425 3.76263242,13.191 3.82338052,13.5165 C4.03787382,14.67075 4.48560982,15.747 5.15683885,16.71525 C5.34583294,16.98825 5.33233336,17.3535 5.12458986,17.61225 L4.10912159,18.87525 L5.13958939,19.90275 L6.41154964,18.88725 C6.66804162,18.68025 7.0302803,18.6675 7.30402175,18.855 C8.25574201,19.50825 9.31320896,19.95 10.4464235,20.16825 C10.7696634,20.2305 11.0149058,20.496 11.0509047,20.823 L11.2353989,22.5 L12.6948533,22.5 L12.8763476,20.85 C12.9130965,20.5185 13.1643386,20.25075 13.4928283,20.19375 C14.6635418,19.989 15.7540077,19.54875 16.7334771,18.88425 C17.0064685,18.69975 17.3664573,18.714 17.6229493,18.91875 L18.8986594,19.93875 L19.9291272,18.912 L18.9211587,17.661 C18.7119153,17.40075 18.6999156,17.03325 18.8919096,16.7595 C19.5818881,15.77775 20.0416237,14.6835 20.2583669,13.50825 C20.3183651,13.182 20.5853567,12.9345 20.9145964,12.8985 L22.4992969,12.72525 L22.4992969,11.2755 L20.9175963,11.10225 C20.5883566,11.06625 20.321365,10.818 20.2621168,10.49175 C20.0468735,9.312 19.5886379,8.21475 18.8994094,7.23075 C18.7081654,6.95775 18.720915,6.591 18.9294085,6.33075 L19.9291272,5.08875 L18.8986594,4.062 L17.6356989,5.0715 C17.3792069,5.277 17.0169682,5.29125 16.7454767,5.10525 C15.7622574,4.43625 14.6672916,3.99225 13.4913284,3.78675 C13.1628387,3.729 12.9115965,3.462 12.8748477,3.1305 L12.6941033,1.5 L11.2346489,1.5 L11.0509047,3.1575 C11.0141558,3.4845 10.7696634,3.74925 10.4464235,3.8115 C9.31545889,4.029 8.26024187,4.46925 7.30927159,5.121 C7.03703009,5.30625 6.67479141,5.29425 6.41754945,5.088 L5.13133965,4.06125 L4.10087185,5.08875 L5.12533983,6.36375 C5.33308334,6.6225 5.34658292,6.98775 5.15683885,7.26075 C4.48260992,8.23275 4.031874,9.3165 3.81738071,10.48125 C3.75738258,10.80675 3.4911409,11.055 3.16190119,11.091 L1.49995313,11.274 Z M11.7894433,14.5672727 C10.1355635,14.5672727 8.78981818,13.2213308 8.78981818,11.5672727 C8.78981818,9.91321461 10.1355635,8.56727273 11.7894433,8.56727273 C13.4440728,8.56727273 14.7898182,9.91321461 14.7898182,11.5672727 C14.7898182,13.2213308 13.4440728,14.5672727 11.7894433,14.5672727 Z M11.7894433,10.0710302 C10.9625034,10.0710302 10.2892559,10.7428739 10.2892559,11.5680242 C10.2892559,12.3931745 10.9617537,13.0650182 11.7894433,13.0650182 C12.6171329,13.0650182 13.2903805,12.3931745 13.2903805,11.5680242 C13.2903805,10.7428739 12.6171329,10.0710302 11.7894433,10.0710302 Z" fill="#000000"></path>
    </g>
</svg>