<svg viewBox="0 0 24 24" version="1.1" xmlns="http://www.w3.org/2000/svg" xmlns:xlink="http://www.w3.org/1999/xlink">
    <g class="share" stroke="none" stroke-width="1" fill="none" fill-rule="evenodd">
        <path d="M18.2646454,7.38975 C20.3240931,7.38975 21.999242,5.73225 21.999242,3.69525 C21.999242,1.6575 20.3240931,0 18.2646454,0 C16.2059556,0 14.5308067,1.6575 14.5308067,3.69525 C14.5308067,4.1745 14.6301029,4.629 14.7991337,5.04975 L7.38148349,9.30675 C6.70460206,8.63175 5.76773146,8.2125 4.73383866,8.2125 C2.67514889,8.2125 1,9.87 1,11.907 C1,13.94475 2.67514889,15.60225 4.73383866,15.60225 C5.78364916,15.60225 6.73037358,15.16725 7.40952897,14.47425 L14.7650244,19.06125 C14.622523,19.452 14.5315647,19.86675 14.5315647,20.3055 C14.5315647,22.3425 16.2067136,24 18.2654034,24 C20.3248511,24 22,22.3425 22,20.3055 C22,18.26775 20.3248511,16.61025 18.2654034,16.61025 C17.1951272,16.61025 16.2355171,17.064 15.5540877,17.78025 L8.21754196,13.2045 C8.37217109,12.79875 8.46767731,12.3645 8.46767731,11.90625 C8.46767731,11.433 8.36913914,10.9845 8.2046562,10.56825 L15.6291283,6.3075 C16.3037358,6.9765 17.2360585,7.38975 18.2646454,7.38975 Z M18.2646454,18.111 C19.4880347,18.111 20.4832702,19.09575 20.4832702,20.30625 C20.4832702,21.516 19.4880347,22.50075 18.2646454,22.50075 C17.0420141,22.50075 16.0467786,21.516 16.0467786,20.30625 C16.0467786,19.90275 16.1650244,19.52925 16.3575528,19.2045 C16.3636167,19.19625 16.3711965,19.19025 16.3772604,19.18125 C16.3855983,19.1685 16.3855983,19.1535 16.3931781,19.14075 C16.7850568,18.52425 17.474824,18.111 18.2646454,18.111 Z M4.73308067,14.103 C3.51044938,14.103 2.51521386,13.11825 2.51521386,11.90775 C2.51521386,10.698 3.51044938,9.71325 4.73308067,9.71325 C5.45619924,9.71325 6.0936654,10.06275 6.49918787,10.5945 C6.50979968,10.6185 6.51055766,10.644 6.52420141,10.6665 C6.55982675,10.728 6.60378993,10.78125 6.65305901,10.8285 C6.83724959,11.14875 6.95170547,11.51325 6.95170547,11.907 C6.95170547,12.3375 6.82133189,12.73725 6.60378993,13.07625 C6.60227396,13.0785 6.6,13.07925 6.59848403,13.0815 C6.59545208,13.086 6.59621007,13.0905 6.59317813,13.095 C6.19675149,13.70025 5.51304819,14.103 4.73308067,14.103 Z M18.2646454,1.50075 C19.4880347,1.50075 20.4832702,2.4855 20.4832702,3.696 C20.4832702,4.90575 19.4880347,5.8905 18.2646454,5.8905 C17.0420141,5.8905 16.0467786,4.90575 16.0467786,3.696 C16.0467786,2.48475 17.0412561,1.50075 18.2646454,1.50075 Z" fill="#000000" fill-rule="nonzero"></path>
    </g>
</svg>