<?xml version="1.0" encoding="utf-8"?>
<!-- Generator: Adobe Illustrator 17.1.0, SVG Export Plug-In . SVG Version: 6.00 Build 0)  -->
<!DOCTYPE svg PUBLIC "-//W3C//DTD SVG 1.1//EN" "http://www.w3.org/Graphics/SVG/1.1/DTD/svg11.dtd">
<svg version="1.1" id="Layer_1" xmlns="http://www.w3.org/2000/svg" xmlns:xlink="http://www.w3.org/1999/xlink" x="0px" y="0px"
	 viewBox="0 0 50 50" enable-background="new 0 0 50 50" xml:space="preserve">
<path d="M32.142,19.153c2.717,0,4.927-2.21,4.927-4.926c0-2.717-2.21-4.927-4.927-4.927c-2.716,0-4.926,2.21-4.926,4.927
	c0,0.639,0.131,1.245,0.354,1.806l-9.786,5.676c-0.893-0.9-2.129-1.459-3.493-1.459c-2.716,0-4.926,2.21-4.926,4.926
	c0,2.717,2.21,4.927,4.926,4.927c1.385,0,2.634-0.58,3.53-1.504l9.704,6.116c-0.188,0.521-0.308,1.074-0.308,1.659
	c0,2.716,2.21,4.926,4.926,4.926c2.717,0,4.927-2.21,4.927-4.926c0-2.717-2.21-4.927-4.927-4.927c-1.412,0-2.678,0.605-3.577,1.56
	l-9.679-6.101c0.204-0.541,0.33-1.12,0.33-1.731c0-0.631-0.13-1.229-0.347-1.784l9.795-5.681
	C29.555,18.602,30.785,19.153,32.142,19.153z M32.142,33.448c1.614,0,2.927,1.313,2.927,2.927c0,1.613-1.313,2.926-2.927,2.926
	c-1.613,0-2.926-1.313-2.926-2.926c0-0.538,0.156-1.036,0.41-1.469c0.008-0.011,0.018-0.019,0.026-0.031
	c0.011-0.017,0.011-0.037,0.021-0.054C30.19,33.999,31.1,33.448,32.142,33.448z M14.29,28.104c-1.613,0-2.926-1.313-2.926-2.927
	c0-1.613,1.313-2.926,2.926-2.926c0.954,0,1.795,0.466,2.33,1.175c0.014,0.032,0.015,0.066,0.033,0.096
	c0.047,0.082,0.105,0.153,0.17,0.216c0.243,0.427,0.394,0.913,0.394,1.438c0,0.574-0.172,1.107-0.459,1.559
	c-0.002,0.003-0.005,0.004-0.007,0.007c-0.004,0.006-0.003,0.012-0.007,0.018C16.221,27.567,15.319,28.104,14.29,28.104z
	 M32.142,11.301c1.614,0,2.927,1.313,2.927,2.927c0,1.613-1.313,2.926-2.927,2.926c-1.613,0-2.926-1.313-2.926-2.926
	C29.216,12.613,30.528,11.301,32.142,11.301z"/>
</svg>
