<svg width="52" height="21" viewBox="0 0 52 21" fill="none" xmlns="http://www.w3.org/2000/svg">
<path d="M30.4089 6.12248C30.4089 9.20268 28.2494 11.4015 25.2316 11.4015H22.3885C22.3572 11.4015 22.3261 11.4077 22.2971 11.4197C22.2681 11.4318 22.2418 11.4494 22.2196 11.4717C22.1975 11.4939 22.18 11.5204 22.1681 11.5494C22.1562 11.5784 22.1501 11.6095 22.1503 11.6409V15.6893C22.1503 15.7526 22.1252 15.8133 22.0805 15.8582C22.0359 15.903 21.9753 15.9284 21.912 15.9287H19.9225C19.8752 15.9285 19.829 15.9143 19.7897 15.888C19.7505 15.8616 19.7198 15.8243 19.7016 15.7806C19.6896 15.7521 19.6833 15.7214 19.6831 15.6904V1.08173C19.6829 1.05034 19.689 1.01923 19.7009 0.990193C19.7128 0.96115 19.7303 0.934746 19.7525 0.912498C19.7746 0.89025 19.8009 0.872595 19.8299 0.860548C19.8589 0.848502 19.89 0.842301 19.9214 0.842301H25.2443C28.2494 0.838831 30.4089 3.03765 30.4089 6.12248ZM27.9278 6.12248C27.9278 4.35162 26.7203 3.05732 25.0824 3.05732H22.3885C22.3572 3.05732 22.3261 3.06352 22.2971 3.07556C22.2681 3.08761 22.2418 3.10526 22.2196 3.12751C22.1975 3.14976 22.18 3.17616 22.1681 3.20521C22.1562 3.23425 22.1501 3.26536 22.1503 3.29675V8.93433C22.1503 8.99753 22.1754 9.05813 22.2201 9.10282C22.2647 9.1475 22.3253 9.17261 22.3885 9.17261H25.0824C26.7203 9.18417 27.9278 7.88871 27.9278 6.12248ZM30.9988 13.1261C30.9781 12.6537 31.0759 12.1836 31.2831 11.7586C31.4904 11.3336 31.8006 10.9671 32.1855 10.6925C32.9616 10.1083 34.175 9.80646 35.9562 9.744L37.8532 9.67691V9.11709C37.8532 7.99512 37.1013 7.52089 35.8938 7.52089C34.6862 7.52089 33.9205 7.94885 33.7447 8.64864C33.7304 8.69785 33.7001 8.74091 33.6586 8.77106C33.6172 8.8012 33.5669 8.81673 33.5157 8.8152H31.6419C31.6074 8.81614 31.5731 8.80947 31.5414 8.79565C31.5098 8.78183 31.4816 8.76121 31.4589 8.73526C31.4361 8.70931 31.4194 8.67866 31.4098 8.64549C31.4003 8.61233 31.3981 8.57746 31.4036 8.54338C31.6812 6.88472 33.0611 5.62396 35.9794 5.62396C39.0838 5.62396 40.2047 7.06979 40.2047 9.82959V15.6893C40.204 15.7532 40.1782 15.8142 40.1326 15.8591C40.0871 15.904 40.0257 15.929 39.9618 15.9287H38.0729C38.0097 15.9285 37.9491 15.9036 37.904 15.8593C37.882 15.8371 37.8644 15.8107 37.8525 15.7818C37.8406 15.7528 37.8345 15.7217 37.8346 15.6904V15.252C37.8353 15.2158 37.825 15.1802 37.8051 15.15C37.7851 15.1197 37.7565 15.0962 37.7229 15.0826C37.6894 15.0689 37.6525 15.0658 37.6171 15.0735C37.5817 15.0813 37.5495 15.0995 37.5247 15.126C36.9579 15.7425 36.043 16.1878 34.5775 16.1878C32.4215 16.1878 30.9988 15.0658 30.9988 13.1261ZM37.8532 11.8561V11.4015L35.3964 11.531C34.1021 11.597 33.3491 12.1348 33.3491 13.0405C33.3491 13.8594 34.0396 14.3128 35.246 14.3128C36.885 14.3128 37.8532 13.428 37.8532 11.8561ZM42.1016 20.3564V18.6584C42.102 18.6228 42.1101 18.5877 42.1256 18.5556C42.141 18.5235 42.1633 18.4952 42.1909 18.4727C42.2185 18.4502 42.2507 18.434 42.2852 18.4253C42.3198 18.4167 42.3558 18.4157 42.3908 18.4225C42.6799 18.4768 42.9749 18.5046 43.2698 18.5057C43.7769 18.5304 44.2776 18.3842 44.6917 18.0907C45.1059 17.7971 45.4096 17.373 45.5542 16.8864L45.6768 16.4955C45.6946 16.4429 45.6946 16.386 45.6768 16.3335L41.7407 6.22427C41.7265 6.18762 41.7214 6.14806 41.7258 6.109C41.7302 6.06994 41.7441 6.03253 41.7661 6C41.7882 5.96746 41.8178 5.94077 41.8525 5.92221C41.8871 5.90366 41.9258 5.89379 41.9651 5.89346H43.8736C43.9224 5.89396 43.9698 5.90912 44.0098 5.93697C44.0499 5.96482 44.0806 6.00407 44.098 6.04961L46.771 13.1793C46.7878 13.2267 46.8188 13.2677 46.8598 13.2967C46.9008 13.3257 46.9498 13.3413 47.0001 13.3413C47.0503 13.3413 47.0993 13.3257 47.1403 13.2967C47.1813 13.2677 47.2123 13.2267 47.2291 13.1793L49.5505 6.06927C49.5666 6.02068 49.5976 5.9784 49.6392 5.94849C49.6807 5.91858 49.7307 5.90256 49.7818 5.90271H51.7563C51.7958 5.90295 51.8347 5.91276 51.8697 5.93129C51.9046 5.94983 51.9346 5.97654 51.957 6.00915C51.9793 6.04176 51.9935 6.0793 51.9982 6.11858C52.003 6.15785 51.9981 6.19768 51.9841 6.23468L47.7739 17.4613C46.8046 20.0707 45.1425 20.7381 43.3126 20.7381C42.9656 20.7474 42.6186 20.7057 42.2832 20.6143C42.2274 20.5996 42.1786 20.5656 42.1454 20.5184C42.1122 20.4713 42.0967 20.4139 42.1016 20.3564ZM6.89848 0.000249082C4.39092 -0.0176163 1.97186 0.926164 0.138922 2.63745C0.0605382 2.70923 0.011672 2.80762 0.00183694 2.91345C-0.00799811 3.01929 0.0219018 3.12499 0.0857159 3.21L1.2204 4.75993C1.25719 4.81153 1.30484 4.85445 1.35999 4.88566C1.41514 4.91687 1.47647 4.93561 1.53965 4.94058C1.60282 4.94554 1.66632 4.9366 1.72567 4.91438C1.78502 4.89216 1.83878 4.85721 1.88317 4.81198C2.54225 4.15307 3.32605 3.63213 4.18877 3.27962C5.05149 2.9271 5.97581 2.75008 6.90773 2.7589C10.7988 2.7589 12.831 5.68757 12.831 8.57924C12.831 11.7231 10.6958 13.9346 7.62718 13.9786C5.25601 13.9786 3.46896 12.4066 3.46896 10.3304C3.47143 9.80591 3.59026 9.28848 3.81688 8.81544C4.0435 8.3424 4.37226 7.92554 4.77947 7.59492C4.86555 7.52301 4.91996 7.42018 4.93099 7.30856C4.94203 7.19693 4.9088 7.08544 4.83845 6.99808L3.64593 5.4921C3.60987 5.44655 3.56505 5.4087 3.51411 5.38076C3.46318 5.35283 3.40716 5.33538 3.34937 5.32945C3.29158 5.32352 3.23319 5.32923 3.17764 5.34624C3.1221 5.36325 3.07052 5.39121 3.02596 5.42848C2.29358 6.01854 1.70256 6.76506 1.29626 7.61328C0.889966 8.46151 0.678689 9.38992 0.677929 10.3304C0.677929 13.9045 3.71533 16.7083 7.60635 16.7314H7.6584C12.2781 16.6713 15.6186 13.2499 15.6186 8.57345C15.6186 4.42102 12.5604 0.000249082 6.89963 0.000249082H6.89848Z" fill="white"/>
</svg>
