<?xml version="1.0" encoding="utf-8"?>
<!-- Generator: Adobe Illustrator 17.1.0, SVG Export Plug-In . SVG Version: 6.00 Build 0)  -->
<!DOCTYPE svg PUBLIC "-//W3C//DTD SVG 1.1//EN" "http://www.w3.org/Graphics/SVG/1.1/DTD/svg11.dtd">
<svg version="1.1" id="Layer_1" xmlns="http://www.w3.org/2000/svg" xmlns:xlink="http://www.w3.org/1999/xlink" x="0px" y="0px"
	 viewBox="0 0 50 50" enable-background="new 0 0 50 50" xml:space="preserve">
<path d="M37.054,33.008c0.195,0.195,0.451,0.293,0.708,0.293c0.256,0,0.512-0.098,0.707-0.293l2.525-2.522
	c0.188-0.188,0.293-0.441,0.293-0.707s-0.105-0.52-0.293-0.707l-2.525-2.523c-0.391-0.391-1.024-0.391-1.415,0
	c-0.39,0.391-0.39,1.024,0,1.414l0.817,0.816h-6.901l-1.877-1.874c-0.392-0.39-1.024-0.391-1.414,0.002
	c-0.391,0.391-0.39,1.023,0.001,1.414l2.17,2.166c0.188,0.187,0.441,0.292,0.707,0.292h7.314l-0.816,0.815
	C36.664,31.983,36.664,32.617,37.054,33.008z"/>
<path d="M10.287,19.824h8.891l1.919,1.914c0.195,0.194,0.451,0.292,0.706,0.292c0.256,0,0.513-0.098,0.708-0.294
	c0.39-0.391,0.389-1.024-0.002-1.414l-2.211-2.206c-0.188-0.187-0.441-0.292-0.706-0.292h-9.304c-0.552,0-1,0.447-1,1
	S9.735,19.824,10.287,19.824z"/>
<path d="M10.287,30.778h9.404c0.265,0,0.519-0.105,0.707-0.293l10.673-10.661h6.799l-0.816,0.814
	c-0.391,0.391-0.391,1.024-0.001,1.415c0.195,0.195,0.451,0.293,0.708,0.293c0.256,0,0.512-0.098,0.707-0.293l2.525-2.521
	c0.188-0.188,0.293-0.442,0.293-0.708s-0.105-0.52-0.293-0.707l-2.525-2.523c-0.391-0.391-1.024-0.391-1.415,0
	c-0.39,0.391-0.39,1.024,0,1.414l0.817,0.816h-7.214c-0.265,0-0.519,0.105-0.707,0.293L19.277,28.778h-8.99c-0.552,0-1,0.447-1,1
	S9.735,30.778,10.287,30.778z"/>
</svg>
