<svg width="24px" height="24px" viewBox="0 0 24 24" version="1.1" xmlns="http://www.w3.org/2000/svg" xmlns:xlink="http://www.w3.org/1999/xlink">
    <g class="shuffle" stroke="none" stroke-width="1" fill="none" fill-rule="evenodd">
        <path d="M20.9548407,18.5920585 C20.6742803,18.3145666 20.6742803,17.864618 20.9555601,17.5885455 L21.5425787,17.0101416 L16.2809923,17.0101416 C16.0896357,17.0101416 15.9076312,16.9356233 15.7723867,16.8029098 L14.2113199,15.2657038 C13.9300401,14.9882119 13.9293207,14.5396828 14.2106005,14.2621908 C14.4911609,13.9832795 14.9458126,13.9839892 15.2278118,14.2607714 L16.5780986,15.5907455 L21.5425787,15.5907455 L20.9548407,15.011632 C20.6742803,14.7348497 20.6742803,14.2856109 20.9548407,14.0081189 C21.2361204,13.730627 21.6914915,13.730627 21.9727713,14.0081189 L23.78922,15.7986871 C23.9244645,15.9314006 24,16.1116639 24,16.3004436 C24,16.4892232 23.9244645,16.6687768 23.78922,16.8022001 L21.9727713,18.5920585 C21.8324911,18.7304496 21.6483284,18.8 21.4641657,18.8 C21.2792836,18.8 21.0951209,18.7304496 20.9548407,18.5920585 Z M0.739185468,9.12653352 C0.330746651,9.12653352 0,8.80770328 0,8.41326676 C0,8.01883024 0.331486576,7.7 0.739925393,7.7 L7.62419125,7.7 C7.82027148,7.7 8.00747261,7.77489301 8.14657858,7.90827389 L9.78255363,9.48174037 C10.0718645,9.75991441 10.0726044,10.2114123 9.78403348,10.4902996 C9.63974802,10.6300999 9.4495872,10.7 9.2601663,10.7 C9.07148532,10.7 8.88206442,10.6300999 8.73777897,10.4917261 L7.31786214,9.12653352 L0.739185468,9.12653352 Z M0.750023438,17 C0.3360105,17 0,16.6823079 0,16.2892794 C0,15.8962509 0.3360105,15.5785589 0.750023438,15.5785589 L7.49273415,15.5785589 L15.4969843,8.00156682 C15.6379887,7.86795135 15.8284946,7.79332569 16.0272509,7.79332569 L21.4379199,7.79332569 L20.8251508,7.2133777 C20.5326416,6.93619668 20.5326416,6.48631055 20.8251508,6.20841881 C21.11841,5.93052706 21.5931748,5.93052706 21.886434,6.20841881 L23.7802431,8.00156682 C23.9212475,8.13447156 24,8.31499459 24,8.50404626 C24,8.69309793 23.9212475,8.87362096 23.7802431,9.00723643 L21.886434,10.798963 C21.7401794,10.9375535 21.5481734,11.0072041 21.3561674,11.0072041 C21.1634114,11.0072041 20.9714054,10.9375535 20.8251508,10.798963 C20.5326416,10.5210712 20.5326416,10.0711851 20.8259008,9.79329338 L21.4379199,9.21476684 L16.3385106,9.21476684 L8.33351042,16.7917589 C8.19250602,16.9253743 8.00200006,17 7.80324385,17 L0.750023438,17 Z" fill="#000000"></path>
    </g>
</svg>