<svg width="30" height="35" viewBox="0 0 30 35" fill="none" xmlns="http://www.w3.org/2000/svg">
<path fill-rule="evenodd" clip-rule="evenodd" d="M20.7319 12.8712L22.6669 3.23625C22.8997 2.15535 22.2595 1.06613 21.1869 0.750168C19.9896 0.45084 18.7839 1.14927 18.4763 2.32995L16.7231 8.3325L15.341 2.42142C15.233 1.87265 14.9004 1.38208 14.4264 1.06613C13.9525 0.75017 13.3622 0.642079 12.8051 0.758485C11.7075 0.991295 10.9925 2.27175 11.2669 3.43581L12.0823 10.1315C11.3739 9.42539 10.5466 9.20786 9.58783 9.76327L9.46311 9.84642C8.58941 10.4414 8.41164 11.6573 8.97305 12.7648C8.50832 12.7909 8.05402 12.9847 7.70859 13.3386L7.62544 13.43C6.81892 14.2615 6.9769 15.6667 7.98297 16.6728L8.8003 17.4874C8.8922 21.2527 11.9551 23.8899 15.5663 23.8899C15.609 23.8899 15.6503 23.884 15.6893 23.8731C20.581 23.8242 22.7308 20.9107 23.0992 16.4898C23.2156 15.093 22.9579 14.1368 22.4174 13.5631C22.1181 13.2471 21.8021 13.0974 21.561 13.0642L20.7319 12.8712ZM19.8564 12.6674L21.7855 3.05333C21.9186 2.42142 21.5444 1.79782 20.9458 1.61489C20.2473 1.44029 19.5323 1.86433 19.341 2.57108L17.1044 10.2372C17.0379 10.4783 16.7884 10.6114 16.5473 10.5448C16.3558 10.492 16.2325 10.3239 16.2231 10.1361L14.4597 2.60434C14.3932 2.28007 14.2019 1.99737 13.9276 1.81445C13.6532 1.63152 13.3123 1.57332 12.988 1.63984C12.406 1.76456 11.9736 2.54614 12.1482 3.24457L12.1565 3.29446L13.1643 11.6025L13.7982 12.5485C14.0751 12.1642 14.4742 11.9248 14.9508 11.817C15.3499 11.7338 15.7574 11.7421 16.1482 11.8087C16.2456 11.8226 16.3197 11.8423 16.3608 11.8533C16.3688 11.8554 16.3755 11.8572 16.381 11.8586L19.8564 12.6674ZM13.3997 13.5695L12.4072 12.0882C12.3734 12.0524 12.3455 12.0111 12.3251 11.9657L11.8577 11.2682C11.284 10.4284 10.7269 10.1374 10.0618 10.5199L9.97031 10.5864C9.4548 10.944 9.38828 11.7921 9.92042 12.6069L11.8827 15.5253C12.2319 16.0408 12.9303 16.1739 13.4458 15.8247L13.5456 15.7665C13.6835 15.6763 13.7977 15.5524 13.8796 15.4097C13.3867 14.905 13.2648 14.281 13.3997 13.5695ZM14.7872 15.0233C14.7359 14.945 14.6593 14.8823 14.565 14.8475C14.1901 14.4868 14.1752 14.0365 14.3522 13.4467C14.4852 13.0143 14.743 12.7898 15.1504 12.6983C15.4165 12.6401 15.7075 12.6484 15.9902 12.6983C16.0219 12.7047 16.0501 12.7098 16.0741 12.7142C16.1129 12.7213 16.1411 12.7265 16.1565 12.7316L21.3947 13.9538L21.4945 13.9871C21.5776 14.0204 21.6691 14.0869 21.7606 14.1783C22.1098 14.5525 22.3093 15.2593 22.2095 16.4233C21.8686 20.4975 19.9729 23.0251 15.4664 22.9836C15.4411 22.9836 15.4163 22.9856 15.3922 22.9896C12.6608 22.9167 10.3503 21.1333 9.81363 18.4973L10.4857 19.1672C11.2922 19.9404 12.5644 19.9238 13.3459 19.1256L13.4374 19.0341C14.0577 18.3869 14.1641 17.4334 13.7609 16.6792C13.8205 16.6471 13.8791 16.6117 13.9364 16.573L14.0362 16.5065C14.2622 16.3526 14.452 16.1543 14.5976 15.9259C14.9012 16.0841 15.2662 16.2228 15.6992 16.3402L16.9547 16.6312C16.0234 17.155 15.4414 18.1278 15.3749 19.6161C15.3583 19.8656 15.5495 20.0734 15.7989 20.0901C16.0484 20.0984 16.2562 19.9155 16.2729 19.666C16.3394 18.319 16.8632 17.5957 17.703 17.2797C18.152 17.1134 18.6426 17.0802 19.0749 17.1217L19.183 17.1384C19.7567 17.2465 19.9396 16.39 19.3659 16.257L15.9153 15.4837C15.4173 15.3477 15.0493 15.1966 14.7872 15.0233ZM8.35713 13.9705C8.70224 13.6093 9.26425 13.5658 9.6693 13.8474L11.1344 16.0325C11.5362 16.6195 12.187 16.9307 12.8449 16.9191C13.2038 17.3545 13.1846 17.9987 12.7805 18.4105L12.6974 18.502C12.265 18.9427 11.5583 18.951 11.1176 18.5186L8.6232 16.0492C7.93308 15.359 7.84162 14.5109 8.27398 14.062L8.35713 13.9705ZM5.03127 32.3293C5.03127 33.7178 3.95036 34.6657 2.53687 34.6657C1.54743 34.6657 0.699331 34.2167 0.175507 33.5016L1.14832 32.5288C1.43934 32.903 1.92159 33.3104 2.5535 33.3104C3.14384 33.3104 3.55126 32.9612 3.55126 32.3958C3.55126 31.7971 3.06901 31.6475 2.31238 31.4313C0.923826 31.0239 0.358429 30.3005 0.358429 29.3609C0.358429 28.1802 1.25641 27.1658 2.66991 27.1658C3.55958 27.1658 4.38273 27.5816 4.74857 28.3881L3.5762 29.1281C3.35171 28.7623 3.04407 28.5211 2.62833 28.5211C2.13777 28.5211 1.83012 28.8537 1.83012 29.2778C1.83012 29.785 2.27912 29.9429 2.99418 30.1508C4.11666 30.4834 5.03127 31.0405 5.03127 32.3293ZM5.53821 32.0133C5.53821 33.4684 6.75215 34.6657 8.24879 34.6657C9.74543 34.6657 10.9594 33.4684 10.9594 32.0133C10.9594 30.5583 9.74543 29.3609 8.24879 29.3609C6.75215 29.3609 5.53821 30.5583 5.53821 32.0133ZM8.24842 33.3353C8.9718 33.3353 9.54551 32.7616 9.54551 32.0133C9.54551 31.265 8.9718 30.6913 8.24842 30.6913C7.51673 30.6913 6.95133 31.265 6.95133 32.0133C6.95133 32.7699 7.52505 33.3353 8.24842 33.3353ZM14.4598 27.2573V28.5877C13.6699 28.5544 13.0962 28.9535 13.0962 29.8349V30.3753C13.4121 30.0428 13.8611 29.8765 14.4182 29.8765V31.2234C13.6366 31.2401 13.0962 31.739 13.0962 32.4374V34.5327H11.6827V29.7517C11.6827 28.4048 12.5308 27.2573 14.2519 27.2573H14.4598ZM17.5446 34.6657C16.0479 34.6657 14.834 33.4684 14.834 32.0133C14.834 30.5583 16.0479 29.3609 17.5446 29.3609C19.0412 29.3609 20.2551 30.5583 20.2551 32.0133C20.2551 33.4684 19.0412 34.6657 17.5446 34.6657ZM18.8415 32.0133C18.8415 32.7616 18.2761 33.3353 17.5444 33.3353C16.8211 33.3353 16.2474 32.7699 16.2474 32.0133C16.2474 31.265 16.8211 30.6913 17.5444 30.6913C18.2678 30.6913 18.8415 31.265 18.8415 32.0133ZM22.392 30.076V29.5023H21.02V34.5326H22.4335V32.2378C22.4335 31.4063 22.9241 30.9407 23.7722 30.9407V29.4274C23.132 29.4025 22.6747 29.6187 22.392 30.076ZM26.0006 30.7329V31.9635C26.0006 32.8448 26.5743 33.2356 27.3642 33.2107V34.541H27.1564C25.4269 34.541 24.5871 33.3936 24.5871 32.0466V27.8893H26.0006V28.6792C26.0006 29.361 26.5577 29.8765 27.3227 29.8931V31.2318C26.7573 31.2318 26.3166 31.0655 26.0006 30.7329ZM29.0521 34.6158C29.5676 34.6158 30 34.1918 30 33.668C30 33.1525 29.5759 32.7201 29.0521 32.7201C28.5283 32.7201 28.1042 33.1441 28.1042 33.668C28.1042 34.1918 28.5283 34.6158 29.0521 34.6158Z" fill="white"/>
</svg>
