<?xml version="1.0" encoding="utf-8"?>
<!-- Generator: Adobe Illustrator 17.1.0, SVG Export Plug-In . SVG Version: 6.00 Build 0)  -->
<!DOCTYPE svg PUBLIC "-//W3C//DTD SVG 1.1//EN" "http://www.w3.org/Graphics/SVG/1.1/DTD/svg11.dtd">
<svg version="1.1" id="Layer_1" xmlns="http://www.w3.org/2000/svg" xmlns:xlink="http://www.w3.org/1999/xlink" x="0px" y="0px"
	 viewBox="0 0 50 50" enable-background="new 0 0 50 50" xml:space="preserve">
<path d="M35.735,24.4l4.542-4.548c0.39-0.392,0.39-1.024-0.001-1.415c-0.391-0.389-1.024-0.39-1.415,0.001l-4.545,4.552
	l-4.545-4.552c-0.391-0.391-1.024-0.39-1.415-0.001c-0.391,0.391-0.391,1.023-0.001,1.415l4.542,4.548l-4.542,4.547
	c-0.39,0.392-0.39,1.024,0.001,1.415c0.195,0.194,0.451,0.292,0.707,0.292s0.513-0.098,0.708-0.293l4.545-4.551l4.545,4.551
	c0.195,0.195,0.452,0.293,0.708,0.293s0.512-0.098,0.707-0.292c0.391-0.391,0.391-1.023,0.001-1.415L35.735,24.4z"/>
<path d="M22.642,38.06c0.152,0,0.306-0.035,0.448-0.105c0.338-0.17,0.552-0.516,0.552-0.895v-24c0-0.379-0.214-0.725-0.552-0.895
	c-0.341-0.168-0.744-0.132-1.047,0.094l-8.2,6.134H9.569c-0.553,0-1,0.447-1,1v11.334c0,0.553,0.447,1,1,1h4.273l8.2,6.134
	C22.219,37.992,22.43,38.06,22.642,38.06z M21.642,35.063l-6.867-5.137c-0.173-0.129-0.383-0.199-0.599-0.199h-3.606v-9.334h3.606
	c0.216,0,0.426-0.07,0.599-0.199l6.867-5.137V35.063z"/>
</svg>
