<svg viewBox="0 0 24 24" version="1.1" xmlns="http://www.w3.org/2000/svg" xmlns:xlink="http://www.w3.org/1999/xlink">
    <g class="sound-minus" stroke="none" stroke-width="1" fill="none" fill-rule="evenodd">
        <path d="M20.5211286,12.0003597 L23.7896035,15.2718443 C24.070252,15.5538812 24.070252,16.0085938 23.7888839,16.2899113 C23.6485597,16.4294908 23.4643392,16.5 23.2801187,16.5 C23.0958981,16.5 22.910958,16.4294908 22.7706338,16.2891918 L19.5,13.0148293 L16.2293662,16.2891918 C16.089042,16.4294908 15.9041019,16.5 15.7198813,16.5 C15.5356608,16.5 15.3514403,16.4294908 15.2111161,16.2899113 C14.929748,16.0085938 14.929748,15.5538812 15.2103965,15.2718443 L18.4788714,12.0003597 L15.2103965,8.72815573 C14.929748,8.44611879 14.929748,7.99140619 15.2111161,7.71008874 C15.4924841,7.43021025 15.9479981,7.42949077 16.2293662,7.71080822 L19.5,10.9858902 L22.7706338,7.71080822 C23.0520019,7.42949077 23.5075159,7.43021025 23.7888839,7.71008874 C24.070252,7.99140619 24.070252,8.44611879 23.7896035,8.72815573 L20.5211286,12.0003597 Z M10.2702183,22 C10.1155045,22 9.9615206,21.9503072 9.83234923,21.8545756 L3.84813906,17.3719964 L0.729781729,17.3719964 C0.326212433,17.3719964 0,17.0453395 0,16.6412205 L0,8.35860665 C0,7.95448759 0.326212433,7.62783077 0.729781729,7.62783077 L3.84886884,7.62783077 L9.83307902,3.14525152 C10.0542029,2.98009617 10.3483049,2.95378824 10.5971605,3.07655859 C10.8438267,3.20079049 11,3.45363894 11,3.730603 L11,21.2692241 C11,21.5461882 10.8438267,21.7990366 10.5971605,21.9232685 C10.4935315,21.9744228 10.3811451,22 10.2702183,22 Z M9.54043654,19.8098647 L9.54043654,5.18996243 L4.52902541,8.94395813 C4.40277317,9.03822822 4.24951901,9.08938253 4.09188615,9.08938253 L1.46029324,9.08938253 L1.46029324,15.9104446 L4.09188615,15.9104446 C4.24951901,15.9104446 4.40277317,15.9615989 4.52902541,16.055869 L9.54043654,19.8098647 Z" id="sound-plus" fill="#000000"></path>
    </g>
</svg>