<svg viewBox="0 0 24 24" version="1.1" xmlns="http://www.w3.org/2000/svg" xmlns:xlink="http://www.w3.org/1999/xlink">
    <g class="sound-plus" stroke="none" stroke-width="1" fill="none" fill-rule="evenodd">
        <path d="M10.2702183,22 C10.1155045,22 9.9615206,21.9503072 9.83234923,21.8545756 L3.84813906,17.3719964 L0.729781729,17.3719964 C0.326212433,17.3719964 0,17.0453395 0,16.6412205 L0,8.35860665 C0,7.95448759 0.326212433,7.62783077 0.729781729,7.62783077 L3.84886884,7.62783077 L9.83307902,3.14525152 C10.0542029,2.98009617 10.3483049,2.95378824 10.5971605,3.07655859 C10.8438267,3.20079049 11,3.45363894 11,3.730603 L11,21.2692241 C11,21.5461882 10.8438267,21.7990366 10.5971605,21.9232685 C10.4935315,21.9744228 10.3811451,22 10.2702183,22 Z M9.54043654,19.8098647 L9.54043654,5.18996243 L4.52902541,8.94395813 C4.40277317,9.03822822 4.24951901,9.08938253 4.09188615,9.08938253 L1.46029324,9.08938253 L1.46029324,15.9104446 L4.09188615,15.9104446 C4.24951901,15.9104446 4.40277317,15.9615989 4.52902541,16.055869 L9.54043654,19.8098647 Z M18.7267468,21.7907468 C18.5463832,21.7907468 18.3652923,21.724565 18.2249286,21.5892923 C17.9347468,21.3114741 17.9238377,20.8511105 18.2009286,20.5609286 C20.0198377,18.6562014 21.0627468,15.8620195 21.0627468,12.8947468 C21.0627468,9.92820137 20.0198377,7.13401955 18.2016559,5.22929228 C17.924565,4.93911046 17.9354741,4.47874682 18.2256559,4.20092864 C18.5151105,3.92383773 18.9769286,3.93474682 19.2540195,4.22492864 C21.3267468,6.39729228 22.516565,9.55729228 22.516565,12.8947468 C22.516565,16.2329286 21.3274741,19.3929286 19.2532923,21.5652923 C19.1092923,21.7151105 18.9187468,21.7907468 18.7267468,21.7907468 Z M16.7275135,19.3025091 C16.5384226,19.3025091 16.3493317,19.2297818 16.2067862,19.0843273 C15.9267862,18.7970546 15.9318771,18.3366909 16.2198771,18.0559637 C17.5580589,16.7490546 18.3267862,14.7796 18.3267862,12.6523273 C18.3267862,10.5250546 17.5587862,8.55487274 16.2198771,7.24796365 C15.9318771,6.96723638 15.9260589,6.50760002 16.2067862,6.21960002 C16.4882408,5.93160002 16.9478771,5.92650911 17.2351498,6.20650911 C18.8533317,7.78614547 19.7813317,10.1345091 19.7813317,12.6516 C19.7813317,15.1679637 18.8533317,17.5163273 17.2351498,19.0959637 C17.0940589,19.2334182 16.9107862,19.3025091 16.7275135,19.3025091 Z M14.2957309,15.4759351 C15.1124582,14.7937533 15.6004582,13.6424806 15.6019127,12.3966624 C15.6019127,11.1326624 15.1030036,9.97193513 14.2680945,9.29120786 C13.9568218,9.03738967 13.9095491,8.57920786 14.1633673,8.26793513 C14.4171854,7.95811695 14.8753673,7.9086624 15.18664,8.16320786 C16.3568218,9.11738967 17.0557309,10.6992079 17.0557309,12.3959351 C17.0557309,14.0672079 16.3728218,15.6366624 15.2295491,16.5922988 C15.0928218,16.7057533 14.9277309,16.761026 14.7633673,16.761026 C14.55464,16.761026 14.3480945,16.6722988 14.2040945,16.5006624 C13.9473673,16.1922988 13.9873673,15.7333897 14.2957309,15.4759351 Z" fill="#000000" fill-rule="nonzero"></path>
    </g>
</svg>