<?xml version="1.0" encoding="utf-8"?>
<!-- Generator: Adobe Illustrator 17.1.0, SVG Export Plug-In . SVG Version: 6.00 Build 0)  -->
<!DOCTYPE svg PUBLIC "-//W3C//DTD SVG 1.1//EN" "http://www.w3.org/Graphics/SVG/1.1/DTD/svg11.dtd">
<svg version="1.1" id="Layer_1" xmlns="http://www.w3.org/2000/svg" xmlns:xlink="http://www.w3.org/1999/xlink" x="0px" y="0px"
	 viewBox="0 0 50 50" enable-background="new 0 0 50 50" xml:space="preserve">
<path d="M35.821,9.583h-20c-0.552,0-1,0.447-1,1v30c0,0.553,0.448,1,1,1h20c0.552,0,1-0.447,1-1v-30
	C36.821,10.03,36.374,9.583,35.821,9.583z M34.821,39.583h-18v-28h18V39.583z"/>
<path d="M25.821,37.129c3.685,0,6.683-3.038,6.683-6.772c0-3.735-2.998-6.773-6.683-6.773c-3.685,0-6.683,3.038-6.683,6.773
	C19.138,34.091,22.136,37.129,25.821,37.129z M25.821,25.583c2.582,0,4.683,2.142,4.683,4.773s-2.101,4.772-4.683,4.772
	c-2.583,0-4.683-2.141-4.683-4.772S23.239,25.583,25.821,25.583z"/>
<ellipse cx="25.821" cy="30.356" rx="1.295" ry="1.315"/>
<path d="M25.798,20.347c1.63,0,2.957-1.34,2.957-2.987s-1.326-2.987-2.957-2.987c-1.63,0-2.956,1.34-2.956,2.987
	S24.168,20.347,25.798,20.347z M25.798,16.372c0.527,0,0.957,0.443,0.957,0.987s-0.429,0.987-0.957,0.987s-0.956-0.443-0.956-0.987
	S25.271,16.372,25.798,16.372z"/>
</svg>
