<svg width="24px" height="24px" viewBox="0 0 24 24" version="1.1" xmlns="http://www.w3.org/2000/svg" xmlns:xlink="http://www.w3.org/1999/xlink">
    <g class="speaker" stroke="none" stroke-width="1" fill="none" fill-rule="evenodd">
        <path d="M19.3181818,0 C19.6952273,0 20,0.33525 20,0.75 L20,23.25 C20,23.66475 19.6945455,24 19.3181818,24 L5.68181818,24 C5.30545455,24 5,23.66475 5,23.25 L5,0.75 C5,0.33525 5.30545455,0 5.68181818,0 L19.3181818,0 Z M18.6363636,22.5 L18.6363636,1.5 L6.36363636,1.5 L6.36363636,22.5 L18.6363636,22.5 Z M12.5,20.6065455 C9.74300464,20.6065455 7.5,18.3636514 7.5,15.6069146 C7.5,12.8494395 9.74300464,10.6065455 12.5,10.6065455 C15.2569954,10.6065455 17.5,12.8494395 17.5,15.6069146 C17.5,18.3636514 15.2569954,20.6065455 12.5,20.6065455 Z M12.5,12.0823668 C10.5682328,12.0823668 8.99633398,13.6637621 8.99633398,15.6061763 C8.99633398,17.5485905 10.5674847,19.1292476 12.5,19.1292476 C14.4317672,19.1292476 16.003666,17.5485905 16.003666,15.6061763 C16.003666,13.6637621 14.4317672,12.0823668 12.5,12.0823668 Z M12.4418182,16.488 C11.9216664,16.488 11.5,16.0598214 11.5,15.5316364 C11.5,15.0034513 11.9216664,14.5752727 12.4418182,14.5752727 C12.96197,14.5752727 13.3836364,15.0034513 13.3836364,15.5316364 C13.3836364,16.0598214 12.96197,16.488 12.4418182,16.488 Z M12.4994926,10 C10.8455099,10 9.5,8.65416806 9.5,7 C9.5,5.34583194 10.8455099,4 12.4994926,4 C14.1544901,4 15.5,5.34583194 15.5,7 C15.5,8.65416806 14.1534754,10 12.4994926,10 Z M12.4994926,6.00770003 C11.9647387,6.00770003 11.5294267,6.45262805 11.5294267,6.99899565 C11.5294267,7.54536324 11.963724,7.99029126 12.4994926,7.99029126 C13.0352613,7.99029126 13.4705733,7.54536324 13.4705733,6.99899565 C13.4705733,6.45262805 13.0342466,6.00770003 12.4994926,6.00770003 Z" fill="#000000" fill-rule="nonzero"></path>
    </g>
</svg>