<svg width="24px" height="24px" viewBox="0 0 24 24" version="1.1" xmlns="http://www.w3.org/2000/svg" xmlns:xlink="http://www.w3.org/1999/xlink">
    <g class="star" stroke="none" stroke-width="1" fill="none" fill-rule="evenodd">
        <path d="M6.06413453,15.208 L4.31674773,23.0136 C4.2462523,23.3264 4.35949496,23.6536 4.60172927,23.844 C4.84471353,24.0336 5.16944249,24.052 5.42967563,23.8872 L12.00075,19.7248 L18.5688245,23.8872 C18.6873168,23.9624 18.8200582,24 18.9520496,24 C19.1087895,24 19.2647794,23.948 19.3967708,23.8448 C19.6390051,23.6544 19.7522478,23.3272 19.6817524,23.0144 L17.9343656,15.2088 L23.7344898,9.9656 C23.9662248,9.7568 24.0569689,9.4192 23.963975,9.1112 C23.8717309,8.8032 23.6137476,8.5848 23.3115172,8.5584 L15.6612628,7.8848 L12.6892054,0.4848 C12.571463,0.1904 12.2999806,0 12,0 C11.7000194,0 11.428537,0.1904 11.3107946,0.4848 L8.33648733,7.8848 L0.688482775,8.5576 C0.386252354,8.584 0.128269067,8.8024 0.0360250422,9.1104 C-0.0569689335,9.4184 0.033775188,9.756 0.265510176,9.9648 L6.06413453,15.208 Z M8.90945021,9.4392 C9.18618228,9.4152 9.42766664,9.2296 9.53715955,8.9568 L12,2.8296 L14.4598406,8.956 C14.5693336,9.2288 14.8108179,9.4144 15.08755,9.4384 L21.3826422,9.992 L16.6122012,14.3048 C16.3962152,14.4992 16.3017213,14.8072 16.3677171,15.1008 L17.8106236,21.5448 L12.3839751,18.1056 C12.1484904,17.9552 11.8537595,17.9552 11.6182747,18.1056 L6.18862647,21.5456 L7.631533,15.1008 C7.69752872,14.8072 7.60303484,14.4992 7.38704883,14.3048 L2.61810777,9.992 L8.90945021,9.4392 Z" fill="#231F20" fill-rule="nonzero"></path>
    </g>
</svg>