<svg viewBox="0 0 24 24" version="1.1" xmlns="http://www.w3.org/2000/svg" xmlns:xlink="http://www.w3.org/1999/xlink">
    <g class="statistics" stroke="none" stroke-width="1" fill="none" fill-rule="evenodd">
        <path d="M0.75,24 C0.336,24 -1.234568e-13,23.664 -1.234568e-13,23.25 L-1.234568e-13,17.7645 C-1.234568e-13,17.34975 0.336,17.0145 0.75,17.0145 L3.9645,17.0145 C4.3785,17.0145 4.7145,17.34975 4.7145,17.7645 L4.7145,23.25 C4.7145,23.66475 4.3785,24 3.9645,24 L0.75,24 Z M1.5,18.51375 L1.5,22.49925 L3.2145,22.49925 L3.2145,18.51375 L1.5,18.51375 Z M10.39275,24 L7.17825,24 C6.76425,24 6.42825,23.66475 6.42825,23.25 L6.42825,7.77 C6.42825,7.35525 6.76425,7.02 7.17825,7.02 L10.39275,7.02 C10.80675,7.02 11.14275,7.35525 11.14275,7.77 L11.14275,23.25 C11.14275,23.66475 10.80675,24 10.39275,24 Z M7.92825,8.52 L7.92825,22.5 L9.64275,22.5 L9.64275,8.52 L7.92825,8.52 Z M16.821,24 L13.60725,24 C13.19325,24 12.85725,23.66475 12.85725,23.25 L12.85725,12.89775 C12.85725,12.483 13.19325,12.14775 13.60725,12.14775 L16.821,12.14775 C17.235,12.14775 17.571,12.483 17.571,12.89775 L17.571,23.25 C17.571,23.66475 17.235,24 16.821,24 Z M14.35725,13.64775 L14.35725,22.5 L16.07175,22.5 L16.07175,13.64775 L14.35725,13.64775 Z M19.2855,0.75 C19.2855,0.33525 19.6215,4.75175455e-14 20.0355,4.61852778e-14 L23.25,4.61852778e-14 C23.664,4.61852778e-14 24,0.33525 24,0.75 L24,23.25 C24,23.66475 23.664,24 23.25,24 L20.0355,24 C19.6215,24 19.2855,23.66475 19.2855,23.25 L19.2855,0.75 Z M20.7855,1.5 L20.7855,22.5 L22.5,22.5 L22.5,1.5 L20.7855,1.5 Z" fill="#231F20" fill-rule="nonzero"></path>
    </g>
</svg>