<svg width="51" height="22" viewBox="0 0 51 22" fill="none" xmlns="http://www.w3.org/2000/svg">
<path fill-rule="evenodd" clip-rule="evenodd" d="M27.6109 3.28388L24.055 4.04701V1.16407L27.6109 0.41507V3.28388ZM35.0057 4.88079C33.6173 4.88079 32.7248 5.53087 32.229 5.9831L32.0448 5.10691H28.9281V21.5849L32.4698 20.8359L32.484 16.8365C32.994 17.204 33.7448 17.7269 34.9915 17.7269C37.5273 17.7269 39.8365 15.6918 39.8365 11.212C39.8223 7.11366 37.4848 4.88079 35.0057 4.88079ZM34.1556 14.6178C33.3198 14.6178 32.8239 14.321 32.4839 13.9536L32.4698 8.71058C32.8381 8.30075 33.3481 8.01811 34.1556 8.01811C35.4448 8.01811 36.3373 9.45958 36.3373 11.3109C36.3373 13.2046 35.4589 14.6178 34.1556 14.6178ZM51 11.3533C51 7.73547 49.2433 4.88079 45.8858 4.88079C42.5142 4.88079 40.4742 7.73547 40.4742 11.325C40.4742 15.5788 42.8825 17.7268 46.3392 17.7268C48.025 17.7268 49.3 17.3453 50.2633 16.8083V13.9818C49.3 14.4623 48.195 14.7591 46.7925 14.7591C45.4183 14.7591 44.2 14.2786 44.0442 12.611H50.9717C50.9717 12.5332 50.9768 12.3565 50.9826 12.1528L50.9826 12.1526V12.1525V12.1524V12.1524V12.1523C50.9906 11.8753 51 11.5487 51 11.3533ZM44.0016 10.0107C44.0016 8.41382 44.9791 7.74961 45.8716 7.74961C46.7358 7.74961 47.6566 8.41382 47.6566 10.0107H44.0016ZM24.0548 5.12107H27.6107V17.4866H24.0548V5.12107ZM20.0176 5.12105L20.2443 6.16682C21.0801 4.64056 22.7376 4.95146 23.1909 5.12105V8.37142C22.7518 8.21597 21.3351 8.01812 20.4993 9.10629V17.4866H16.9576V5.12105H20.0176ZM13.1607 2.05437L9.70402 2.78924L9.68985 14.109C9.68985 16.2006 11.2624 17.741 13.359 17.741C14.5207 17.741 15.3707 17.529 15.8382 17.2746V14.4058C15.3849 14.5895 13.1465 15.2396 13.1465 13.148V8.13116H15.8382V5.12103H13.1465L13.1607 2.05437ZM4.78836 7.94748C4.03752 7.94748 3.58418 8.15946 3.58418 8.71062C3.58418 9.31238 4.36438 9.5771 5.3323 9.9055C6.91024 10.4409 8.98709 11.1455 8.99588 13.7558C8.99588 16.2854 6.97003 17.741 4.02335 17.741C2.80501 17.741 1.47334 17.5008 0.155834 16.9355V13.5721C1.34584 14.2221 2.84751 14.7026 4.02335 14.7026C4.81669 14.7026 5.38336 14.4906 5.38336 13.8406C5.38336 13.174 4.53761 12.8693 3.51656 12.5015C1.96157 11.9413 0 11.2347 0 8.8802C0 6.37882 1.91251 4.88082 4.78836 4.88082C5.96419 4.88082 7.12587 5.06454 8.30171 5.5309V8.85194C7.22503 8.27252 5.86503 7.94748 4.78836 7.94748Z" fill="#6461FC"/>
</svg>
