<svg viewBox="0 0 24 24" version="1.1" xmlns="http://www.w3.org/2000/svg" xmlns:xlink="http://www.w3.org/1999/xlink">
    <g class="trash-bin" stroke="none" stroke-width="1" fill="none" fill-rule="evenodd">
        <path d="M0.749273415,4.21288165 C0.334510453,4.21288165 -3.19744231e-14,3.87687115 -3.19744231e-14,3.46285821 C-3.19744231e-14,3.04884528 0.335260477,2.71283478 0.750023438,2.71283478 L3.58436201,2.71283478 C3.62036314,2.71283478 3.6511141,2.72783524 3.68561518,2.73308541 C3.71936623,2.72858527 3.75011719,2.71283478 3.78461827,2.71283478 L7.72074127,2.71283478 L7.72074127,0.750023438 C7.72074127,0.3360105 8.05600175,-3.01980663e-14 8.47076471,-3.01980663e-14 L15.5277352,-3.01980663e-14 C15.9424982,-3.01980663e-14 16.2777587,0.3360105 16.2777587,0.750023438 L16.2777587,2.71283478 L20.2123816,2.71283478 C20.2521329,2.71283478 20.288134,2.73008532 20.3271352,2.7360855 C20.3668865,2.73008532 20.4028876,2.71283478 20.4441389,2.71283478 L23.2499766,2.71283478 C23.6647395,2.71283478 24,3.04884528 24,3.46285821 C24,3.87687115 23.6647395,4.21288165 23.2499766,4.21288165 L20.9219038,4.21288165 L19.8561205,23.2919779 C19.8343698,23.6887403 19.5051095,24 19.1075971,24 L4.90740336,24 C4.50989093,24 4.18063064,23.6894903 4.15887996,23.2927279 L3.07584612,4.21288165 L0.749273415,4.21288165 Z M9.22078815,1.50004688 L9.22078815,2.71283478 L14.7777118,2.71283478 L14.7777118,1.50004688 L9.22078815,1.50004688 Z M19.4196069,4.21288165 L4.57814307,4.21288165 L5.61617551,22.5007031 L18.3980749,22.5007031 L19.4196069,4.21288165 Z M8.28550892,21.0944092 C7.89099659,21.0944092 7.56023626,20.7861496 7.53773555,20.3871371 L6.7487109,6.48545267 C6.72471015,6.07218976 7.04047001,5.71742867 7.45448295,5.69417794 C7.85799556,5.67542736 8.22250695,5.98668708 8.24575768,6.40070002 L9.03478234,20.3023844 C9.05878309,20.7156474 8.74302322,21.0704085 8.32901028,21.0936592 C8.31400981,21.0944092 8.30050939,21.0944092 8.28550892,21.0944092 Z M15.6432389,21.0936592 C15.2299759,21.0704085 14.9142161,20.7156474 14.9374668,20.3023844 L15.7264915,6.40070002 C15.7504922,5.98668708 16.1105035,5.6769274 16.5177662,5.69417794 C16.9310291,5.71742867 17.246789,6.07218976 17.2235382,6.48545267 L16.4345136,20.3871371 C16.4120129,20.7861496 16.0812525,21.0944092 15.6867402,21.0944092 C15.6717397,21.0944092 15.6582393,21.0944092 15.6432389,21.0936592 Z M11.999625,21.0944092 C11.584862,21.0944092 11.2496016,20.7583987 11.2496016,20.3443858 L11.2496016,6.44270133 C11.2496016,6.0286884 11.584862,5.6926779 11.999625,5.6926779 C12.4143879,5.6926779 12.7496484,6.0286884 12.7496484,6.44270133 L12.7496484,20.3443858 C12.7496484,20.7583987 12.4143879,21.0944092 11.999625,21.0944092 Z" fill="#231F20" fill-rule="nonzero"></path>
    </g>
</svg>