<svg width="45" height="28" viewBox="0 0 45 28" fill="none" xmlns="http://www.w3.org/2000/svg">
<path d="M8.65548 0.00152588H19.687C21.2269 0.00152588 22.1847 1.25668 21.8255 2.8017L16.6895 24.8524C16.327 26.3921 14.7853 27.6483 13.2443 27.6483H2.2138C0.676047 27.6483 -0.283874 26.3921 0.0753569 24.8524L5.21348 2.8017C5.57272 1.25668 7.1137 0.00152588 8.65548 0.00152588Z" fill="#E21836"/>
<path d="M18.7684 0H31.4544C32.9941 0 32.2998 1.25516 31.9376 2.80017L26.8025 24.8509C26.4422 26.3905 26.5546 27.6468 25.0117 27.6468H12.3257C10.7828 27.6468 9.82801 26.3905 10.1905 24.8509L15.3254 2.80017C15.69 1.25516 17.2277 0 18.7684 0Z" fill="#00447C"/>
<path d="M30.9515 0H41.9831C43.5251 0 44.4829 1.25516 44.1207 2.80017L38.9855 24.8509C38.6231 26.3905 37.0802 27.6468 35.5384 27.6468H24.512C22.9691 27.6468 22.0122 26.3905 22.3735 24.8509L27.5095 2.80017C27.8687 1.25516 29.4087 0 30.9515 0Z" fill="#007B84"/>
<path d="M11.536 7.06658C10.4016 7.07815 10.0666 7.06658 9.95954 7.04131C9.91841 7.23679 9.15289 10.7681 9.15074 10.771C8.98591 11.4854 8.86599 11.9947 8.45863 12.3236C8.22739 12.5147 7.95742 12.607 7.64444 12.607C7.14136 12.607 6.84827 12.3572 6.79907 11.8834L6.78966 11.7207C6.78966 11.7207 6.94292 10.7638 6.94292 10.7584C6.94292 10.7584 7.74635 7.54036 7.8902 7.11498C7.89773 7.09078 7.89988 7.07815 7.90177 7.06658C6.33793 7.0803 6.06071 7.06658 6.04162 7.04131C6.03113 7.07599 5.99241 7.27551 5.99241 7.27551L5.17204 10.9025L5.1016 11.2101L4.96527 12.2163C4.96527 12.5147 5.02389 12.7583 5.14058 12.9643C5.51433 13.6174 6.58046 13.7153 7.18357 13.7153C7.96065 13.7153 8.6896 13.5502 9.1822 13.2488C10.0373 12.7436 10.261 11.9538 10.4605 11.252L10.553 10.892C10.553 10.892 11.3806 7.54977 11.5212 7.11498C11.5266 7.09078 11.5288 7.07815 11.536 7.06658ZM14.352 9.7628C14.1525 9.7628 13.7879 9.8112 13.4603 9.97173C13.3415 10.0328 13.2291 10.1032 13.1105 10.1734L13.2175 9.787L13.1589 9.72193C12.4644 9.86256 12.309 9.88138 11.6674 9.97173L11.6136 10.0075C11.5392 10.6251 11.473 11.0895 11.1969 12.3035C11.0917 12.7509 10.9826 13.2027 10.8731 13.649L10.9027 13.7057C11.5601 13.671 11.7596 13.671 12.331 13.6805L12.3773 13.6302C12.4499 13.2583 12.4593 13.1712 12.6201 12.418C12.6956 12.061 12.8532 11.2764 12.9309 10.997C13.0737 10.9308 13.2146 10.8658 13.349 10.8658C13.6693 10.8658 13.6303 11.1451 13.6179 11.2565C13.6042 11.4433 13.4875 12.0537 13.3679 12.5778L13.288 12.916C13.2323 13.1658 13.1713 13.4086 13.1156 13.6563L13.1398 13.7057C13.7879 13.671 13.9855 13.671 14.5388 13.6805L14.6039 13.6302C14.7039 13.0494 14.7333 12.894 14.9107 12.0483L15 11.6598C15.1734 10.8994 15.2605 10.5138 15.1293 10.1997C14.9906 9.84777 14.6577 9.7628 14.352 9.7628ZM17.4977 10.5589C17.1533 10.6251 16.9336 10.6692 16.7153 10.6977C16.4988 10.7324 16.2877 10.7638 15.9549 10.8101L15.9285 10.834L15.9043 10.8531C15.8696 11.101 15.8454 11.3153 15.7994 11.5673C15.7604 11.8278 15.7005 12.1239 15.6029 12.5492C15.5273 12.8749 15.4883 12.9883 15.4453 13.1029C15.4034 13.2174 15.3571 13.3287 15.2722 13.649L15.292 13.6786L15.3087 13.7057C15.6198 13.6909 15.8234 13.6804 16.0326 13.6786C16.2415 13.671 16.4579 13.6786 16.793 13.6804L16.8223 13.6565L16.8537 13.6302C16.9021 13.3414 16.9094 13.2637 16.939 13.1228C16.9683 12.9717 17.0188 12.7625 17.1428 12.2037C17.2014 11.9413 17.2667 11.6797 17.3275 11.4118C17.3907 11.1451 17.4568 10.8824 17.5198 10.62L17.5104 10.5883L17.4977 10.5589ZM17.5051 9.4855C17.1921 9.30078 16.6427 9.35939 16.273 9.61457C15.9044 9.86463 15.8624 10.2196 16.1743 10.4067C16.4819 10.5863 17.0334 10.5328 17.3999 10.2755C17.7678 10.02 17.8137 9.66834 17.5051 9.4855ZM19.3979 13.7636C20.0311 13.7636 20.6802 13.5891 21.1687 13.0712C21.5446 12.6512 21.717 12.0263 21.7767 11.769C21.9711 10.9161 21.8197 10.5179 21.6296 10.2754C21.3408 9.90563 20.8305 9.78706 20.3011 9.78706C19.9827 9.78706 19.2244 9.81852 18.6321 10.3646C18.2067 10.7585 18.0102 11.2931 17.8916 11.8056C17.7719 12.3278 17.6343 13.2678 18.4987 13.6176C18.7655 13.7321 19.15 13.7636 19.3979 13.7636ZM19.3484 11.8446C19.4944 11.1987 19.6668 10.6566 20.1067 10.6566C20.4514 10.6566 20.4764 11.06 20.3231 11.708C20.2957 11.8518 20.1698 12.3866 19.9996 12.6144C19.8808 12.7824 19.7402 12.8843 19.5847 12.8843C19.5385 12.8843 19.2634 12.8843 19.2591 12.4759C19.257 12.2742 19.2981 12.0683 19.3484 11.8446ZM23.3596 13.6805L23.4091 13.6303C23.4793 13.2584 23.4908 13.171 23.6463 12.4181C23.724 12.061 23.8848 11.2764 23.9603 10.9971C24.1034 10.9307 24.2418 10.8656 24.3806 10.8656C24.6987 10.8656 24.66 11.145 24.6473 11.2563C24.6358 11.4434 24.5191 12.0535 24.3973 12.5776L24.3217 12.9158C24.2639 13.1659 24.201 13.4084 24.1453 13.6563L24.1695 13.7058C24.8197 13.6711 25.0098 13.6711 25.5664 13.6805L25.6336 13.6303C25.7312 13.0492 25.7575 12.8938 25.9404 12.0484L26.0275 11.6596C26.2017 10.8992 26.2899 10.5139 26.1609 10.1998C26.0181 9.84785 25.6831 9.76288 25.3816 9.76288C25.1819 9.76288 24.8154 9.81101 24.4897 9.97181C24.3733 10.0328 24.2566 10.103 24.1421 10.1735L24.2418 9.78708L24.1883 9.72174C23.4941 9.86264 23.3354 9.88146 22.6947 9.97181L22.6455 10.0076C22.5678 10.6252 22.5046 11.0893 22.2284 12.3036C22.1233 12.751 22.0141 13.2027 21.905 13.6491L21.9343 13.7058C22.5928 13.6711 22.7893 13.6711 23.3596 13.6805ZM28.1365 13.7057C28.1774 13.5062 28.4202 12.3236 28.4223 12.3236C28.4223 12.3236 28.6291 11.4559 28.6417 11.4245C28.6417 11.4245 28.7068 11.3341 28.7719 11.2984H28.8676C29.7708 11.2984 30.7907 11.2984 31.5901 10.7103C32.134 10.307 32.5059 9.71139 32.6718 8.98755C32.7148 8.81009 32.7465 8.59901 32.7465 8.38794C32.7465 8.11072 32.6909 7.83646 32.5301 7.62215C32.1225 7.05185 31.3107 7.04136 30.3736 7.03706C30.3707 7.03706 29.9117 7.04136 29.9117 7.04136C28.7122 7.05615 28.2312 7.05185 28.0335 7.02765C28.0169 7.11504 27.9854 7.27045 27.9854 7.27045C27.9854 7.27045 27.5557 9.26182 27.5557 9.26504C27.5557 9.26504 26.5275 13.4989 26.4791 13.6984C27.5264 13.6858 27.9558 13.6858 28.1365 13.7057ZM28.9327 10.1682C28.9327 10.1682 29.3895 8.1809 29.3874 8.18843L29.4021 8.08652L29.4086 8.00881L29.5912 8.02763C29.5912 8.02763 30.5333 8.10857 30.5554 8.11072C30.9273 8.25457 31.0805 8.62536 30.9735 9.10936C30.8759 9.55167 30.589 9.92354 30.2204 10.1032C29.9168 10.2553 29.5449 10.268 29.1618 10.268H28.9139L28.9327 10.1682ZM31.7771 11.8814C31.6563 12.396 31.5176 13.336 32.3777 13.6711C32.652 13.7878 32.8978 13.8225 33.1476 13.8098C33.4113 13.7956 33.6558 13.6633 33.8822 13.4729C33.8617 13.5512 33.8413 13.6294 33.8208 13.7079L33.8598 13.7582C34.4785 13.7321 34.6705 13.7321 35.3409 13.7372L35.4016 13.691C35.4995 13.1156 35.5917 12.5568 35.8461 11.456C35.97 10.9287 36.0937 10.4065 36.2209 9.88141L36.201 9.8236C35.5089 9.95186 35.3239 9.97928 34.6582 10.0737L34.6076 10.1148C34.6009 10.1683 34.5939 10.2197 34.5874 10.271C34.4839 10.1038 34.3339 9.961 34.1024 9.872C33.8063 9.75557 33.111 9.90561 32.5133 10.4498C32.0933 10.8384 31.8916 11.3708 31.7771 11.8814ZM33.2306 11.9128C33.3788 11.2785 33.549 10.7418 33.99 10.7418C34.2688 10.7418 34.4156 10.9992 34.3858 11.438C34.3621 11.5474 34.3366 11.6628 34.3062 11.7932C34.2621 11.9817 34.2142 12.1685 34.1677 12.3557C34.1204 12.4837 34.0653 12.6044 34.0048 12.6848C33.8913 12.8456 33.6213 12.9454 33.4659 12.9454C33.4218 12.9454 33.1497 12.9454 33.1403 12.5442C33.1381 12.3444 33.1793 12.1387 33.2306 11.9128ZM40.8214 9.81846L40.7679 9.75742C40.083 9.89617 39.9591 9.91822 39.3299 10.0032L39.2837 10.0494C39.2815 10.057 39.2796 10.0685 39.2764 10.079L39.2742 10.0685C38.8058 11.1492 38.8196 10.9161 38.4383 11.7668C38.4361 11.7281 38.4361 11.7039 38.434 11.6627L38.3385 9.81846L38.2786 9.75742C37.5612 9.89617 37.5442 9.91822 36.8817 10.0032L36.8301 10.0494C36.8228 10.0715 36.8228 10.0957 36.8185 10.122L36.8228 10.1314C36.9056 10.5547 36.8857 10.4603 36.9688 11.1282C37.0075 11.456 37.0592 11.7856 37.0979 12.1094C37.1632 12.6512 37.1998 12.9179 37.2797 13.7447C36.8322 14.4831 36.7263 14.7625 36.2955 15.4105L36.2985 15.4169L35.9952 15.8966C35.9605 15.9472 35.929 15.9818 35.8849 15.9966C35.8365 16.0206 35.7736 16.0249 35.6862 16.0249H35.5182L35.2684 16.8557L36.1253 16.8705C36.6284 16.8684 36.9446 16.6331 37.1148 16.3169L37.6537 15.3935H37.6451L37.7018 15.3285C38.0643 14.5482 40.8214 9.81846 40.8214 9.81846ZM31.777 20.7305H31.4135L32.759 16.2802H33.2053L33.347 15.8217L33.3608 16.3315C33.3441 16.6467 33.592 16.926 34.2432 16.8798H34.9964L35.2556 16.0229H34.9722C34.8092 16.0229 34.7337 15.9817 34.7431 15.8935L34.7294 15.3748H33.3347V15.3775C32.8838 15.3869 31.5372 15.4208 31.2645 15.4934C30.9346 15.5784 30.5869 15.8284 30.5869 15.8284L30.7235 15.3695H29.4189L29.1471 16.2802L27.7835 20.7985H27.519L27.2595 21.6493H29.858L29.7709 21.9329H31.0513L31.1363 21.6493H31.4955L31.777 20.7305ZM30.7109 17.1844C30.502 17.2422 30.1132 17.4176 30.1132 17.4176L30.4589 16.2802H31.4955L31.2454 17.1089C31.2454 17.1089 30.9252 17.1277 30.7109 17.1844ZM30.7308 18.8093C30.7308 18.8093 30.4052 18.8502 30.1909 18.8986C29.9798 18.9626 29.584 19.1642 29.584 19.1642L29.9411 17.9806H30.983L30.7308 18.8093ZM30.15 20.741H29.1102L29.4116 19.7421H30.4482L30.15 20.741ZM32.654 17.9806H34.1528L33.9374 18.6781H32.4187L32.1907 19.4407H33.5196L32.5134 20.8574C32.4429 20.9615 32.3798 20.9983 32.3096 21.0276C32.2391 21.0634 32.1466 21.1053 32.0396 21.1053H31.671L31.4177 21.9405H32.3819C32.8831 21.9405 33.1792 21.7125 33.3978 21.4132L34.0877 20.4689L34.2359 21.4277C34.2673 21.6073 34.3964 21.7125 34.4838 21.7533C34.5803 21.8017 34.6801 21.8848 34.821 21.8972C34.9721 21.9036 35.0812 21.9087 35.1538 21.9087H35.6276L35.9121 20.9741H35.7252C35.6179 20.9741 35.4332 20.9561 35.4018 20.9225C35.3703 20.8816 35.3703 20.8187 35.3534 20.723L35.2031 19.762H34.5876L34.8575 19.4407H36.3732L36.6064 18.6781H35.2031L35.4217 17.9806H36.8207L37.0801 17.1204H32.9092L32.654 17.9806ZM19.9954 20.9352L20.3452 19.7715H21.7829L22.0456 18.9059H20.6066L20.8262 18.1896H22.2325L22.4931 17.3515H18.9744L18.7193 18.1896H19.5187L19.3054 18.9059H18.5039L18.2382 19.7862H19.0373L18.5711 21.3259C18.5082 21.5297 18.6007 21.6074 18.6593 21.7021C18.7193 21.7943 18.78 21.8553 18.9166 21.89C19.0575 21.9215 19.154 21.9403 19.2853 21.9403H20.9061L21.1949 20.9814L20.4764 21.0801C20.3377 21.0801 19.9534 21.0635 19.9954 20.9352ZM20.1603 15.3642L19.796 16.0227C19.718 16.1666 19.6478 16.2558 19.5846 16.297C19.529 16.3317 19.4187 16.3462 19.259 16.3462H19.0689L18.8148 17.1886H19.4461C19.7497 17.1886 19.9828 17.0773 20.0942 17.0216C20.2138 16.9576 20.2453 16.9942 20.3378 16.9049L20.551 16.7202H22.5225L22.7841 15.8431H21.341L21.5929 15.3642H20.1603ZM23.0708 20.9521C23.0372 20.9037 23.0614 20.8185 23.1128 20.641L23.6516 18.8575H25.5685C25.8479 18.8535 26.0495 18.8502 26.1807 18.8408C26.3216 18.826 26.4749 18.7758 26.6419 18.6854C26.8142 18.5908 26.9024 18.491 26.9769 18.3765C27.06 18.2622 27.1934 18.0121 27.3079 17.6265L27.9852 15.3695L25.996 15.3811C25.996 15.3811 25.3835 15.4714 25.1138 15.5712C24.8417 15.6825 24.4529 15.9933 24.4529 15.9933L24.6325 15.3746H23.4037L21.6834 21.0801C21.6223 21.3017 21.5815 21.4625 21.5721 21.559C21.5688 21.663 21.7033 21.766 21.7904 21.8437C21.8934 21.9214 22.0456 21.9088 22.1916 21.9214C22.3451 21.933 22.5634 21.9403 22.8649 21.9403H23.8092L24.099 20.9615L23.2537 21.0414C23.1633 21.0414 23.098 20.993 23.0708 20.9521ZM23.9993 17.6529H26.0127L25.8847 18.0541C25.8667 18.0635 25.8237 18.0342 25.6188 18.0584H23.8753L23.9993 17.6529ZM24.4026 16.3074H26.433L26.287 16.7906C26.287 16.7906 25.33 16.7812 25.1767 16.8094C24.5024 16.9261 24.1084 17.2864 24.1084 17.2864L24.4026 16.3074ZM25.9298 19.3975C25.9131 19.4575 25.8867 19.494 25.8499 19.5215C25.809 19.5478 25.7429 19.5572 25.6442 19.5572H25.3573L25.3742 19.0686H24.1809L24.1325 21.4572C24.1307 21.6295 24.1473 21.7293 24.2734 21.8091C24.3995 21.9089 24.7881 21.9215 25.3111 21.9215H26.0588L26.3288 21.0275L25.6778 21.0632L25.4614 21.0759C25.4318 21.0632 25.4036 21.0517 25.3721 21.0202C25.3447 20.9931 25.2984 21.0097 25.306 20.8374L25.3111 20.2251L25.9938 20.1969C26.3624 20.1969 26.52 20.077 26.6544 19.9627C26.7827 19.8533 26.8246 19.7274 26.873 19.5572L26.9876 19.0151H26.0494L25.9298 19.3975Z" fill="#FEFEFE"/>
</svg>
