<svg width="24px" height="24px" viewBox="0 0 24 24" version="1.1" xmlns="http://www.w3.org/2000/svg" xmlns:xlink="http://www.w3.org/1999/xlink">
    <g class="upload" stroke="none" stroke-width="1" fill="none" fill-rule="evenodd">
        <path d="M1.72727273,18 C2.12945455,18 2.45454545,18.3305053 2.45454545,18.7377352 L2.45454545,22.5245297 L21.3636364,22.5245297 L21.3636364,18.7377352 C21.3636364,18.3305053 21.6887273,18 22.0909091,18 C22.4930909,18 22.8181818,18.3305053 22.8181818,18.7377352 L22.8181818,23.2622648 C22.8181818,23.6694947 22.4930909,24 22.0909091,24 L1.72727273,24 C1.32509091,24 1,23.6694947 1,23.2622648 L1,18.7377352 C1,18.3305053 1.32509091,18 1.72727273,18 Z M11.9090909,19 C11.5069091,19 11.1818182,18.6709066 11.1818182,18.2654166 L11.1818182,2.46452735 L6.56872727,6.96531993 C6.28145455,7.24739996 5.81963636,7.23931954 5.54109091,6.94768993 C5.26181818,6.65606031 5.26981818,6.19106901 5.55854545,5.90898898 L11.3934545,0.21523294 C11.3941818,0.214498357 11.3941818,0.214498357 11.3949091,0.213763773 L11.4036364,0.205683356 C11.4305455,0.179238353 11.4647273,0.168219602 11.4938182,0.146916683 C11.5389091,0.113860429 11.5810909,0.0771312585 11.6334545,0.0558283395 C11.7214545,0.0190991688 11.8145455,0 11.9083636,0 C12.0021818,0 12.0952727,0.0198337522 12.1832727,0.0558283395 C12.232,0.0756620916 12.2705455,0.110187512 12.3127273,0.140305432 C12.3461818,0.163077518 12.384,0.177034603 12.4138182,0.206417939 L18.2581818,5.91045815 C18.5461818,6.19253818 18.5541818,6.65752948 18.2749091,6.9491591 C17.9956364,7.24078871 17.5352727,7.24886913 17.2465455,6.9667891 L12.6363636,2.46452735 L12.6363636,18.2654166 C12.6363636,18.6709066 12.3112727,19 11.9090909,19 Z" fill="#231F20"></path>
    </g>
</svg>