<svg width="49" height="32" viewBox="0 0 49 32" fill="none" xmlns="http://www.w3.org/2000/svg">
<path fill-rule="evenodd" clip-rule="evenodd" d="M15.3346 24.3173C15.6479 24.1545 16.1805 23.9409 16.7447 23.9409C18.0397 23.9409 18.7396 24.8154 18.7396 26.4426C18.7396 28.3434 17.7999 29.2688 16.2852 29.2688C15.7314 29.2688 14.8749 29.096 14.2481 28.7701V21.6738L15.3346 21.4195V24.3173ZM15.3243 28.3941C15.6583 28.5366 16.0241 28.5567 16.2853 28.5567C17.0582 28.5567 17.6431 28.0892 17.6431 26.4426C17.6431 25.1509 17.1626 24.7341 16.4628 24.7341C16.0448 24.7341 15.7421 24.8459 15.3243 25.0696V28.3941ZM4.19908 24.0729H4.27224L5.6925 29.1467H6.82051L8.51289 21.9377H7.29067L6.22529 27.3165H6.1525L4.70028 21.9377H3.77068L2.41286 27.3165H2.3397L1.16976 21.9377H0L1.6922 29.1467H2.82002L4.19908 24.0729ZM13.1415 28.8007V28.028C12.567 28.3636 12.0449 28.5567 11.4809 28.5567C10.405 28.5567 9.89327 28.0176 9.89327 26.7977H13.2982V26.4217C13.2982 24.7647 12.4938 23.9409 11.1885 23.9409C9.6217 23.9409 8.81735 25.0594 8.81735 26.6046C8.81735 28.2113 9.53802 29.2688 11.2927 29.2688C12.0449 29.2688 12.6715 29.0654 13.1415 28.8007ZM12.3059 26.1167H9.91442C10.029 25.1002 10.5196 24.6222 11.1572 24.6222C11.7212 24.6222 12.2541 25.049 12.3059 26.1167ZM23.5446 27.6215H23.4922L21.1525 21.9377H19.8887V29.1467H20.8288V24.0427H20.9227L23.0538 29.1467H23.722L25.8529 23.9206H25.9472V29.1467H27.0752V21.9377H25.7798L23.5446 27.6215ZM28.2243 26.6046C28.2243 24.8253 29.2271 23.9409 30.6058 23.9409C31.9847 23.9409 32.9876 24.8253 32.9876 26.6046C32.9876 28.3434 32.037 29.2688 30.6058 29.2688C29.1746 29.2688 28.2243 28.3434 28.2243 26.6046ZM31.8905 26.6046C31.8905 25.2322 31.3158 24.6528 30.6057 24.6528C29.9163 24.6528 29.3208 25.2322 29.3208 26.6046C29.3208 27.998 29.8643 28.5567 30.6057 28.5567C31.3472 28.5567 31.8905 27.998 31.8905 26.6046ZM36.6426 23.9409C35.442 23.9409 34.4494 24.4187 33.9794 24.6933V29.1467H35.0659V25.1203C35.3895 24.9376 35.9223 24.7542 36.3404 24.7542C36.873 24.7542 37.2799 24.8966 37.2799 25.6999V29.1467H38.3662V25.4658C38.3662 24.4187 37.8966 23.9409 36.6426 23.9409ZM43.6617 28.028V28.8007C43.1919 29.0654 42.5655 29.2688 41.8131 29.2688C40.0586 29.2688 39.3378 28.2113 39.3378 26.6046C39.3378 25.0594 40.1423 23.9409 41.7089 23.9409C43.0148 23.9409 43.8193 24.7647 43.8193 26.4217V26.7977H40.414C40.414 28.0176 40.9258 28.5567 42.0015 28.5567C42.5655 28.5567 43.0878 28.3636 43.6617 28.028ZM40.4348 26.1167H42.8266C42.7747 25.049 42.2416 24.6222 41.6776 24.6222C41.0402 24.6222 40.5499 25.1002 40.4348 26.1167ZM49 24.1137H47.8823L46.6911 27.855H46.6289L45.2919 24.1137H44.1429L46.1484 29.1974C45.8973 29.9496 45.4591 30.4991 44.7488 30.4991V31.3324C45.9494 31.3324 46.5868 30.6007 47.1092 29.1974L49 24.1137Z" fill="#0068A3"/>
<path fill-rule="evenodd" clip-rule="evenodd" d="M23.7997 0.626648C25.2371 0.626648 26.5985 0.952481 27.8109 1.53096C28.0014 1.61889 28.1913 1.71563 28.3817 1.82245L27.539 2.55665L26.2728 1.28227L24.1357 3.13765L22.8664 1.78918L18.8855 5.28199L21.4376 8.01974L20.4347 8.87838L22.9484 11.6203L21.9514 12.4769L25.5434 16.3688L27.6757 14.458L29.5192 16.5056C29.1525 16.7831 28.753 17.0442 28.313 17.2855C26.9799 18.0254 25.4392 18.4491 23.7997 18.4491C18.7575 18.4491 14.645 14.4456 14.645 9.53813C14.645 4.62961 18.7575 0.626648 23.7997 0.626648ZM22.1312 8.97475L24.3082 7.06651L26.2684 9.18604L24.0917 11.0936L22.1312 8.97475ZM25.8564 10.7285L23.6793 12.6362L25.6399 14.7558L27.8168 12.8475L25.8564 10.7285ZM20.5736 5.35607L22.7505 3.44837L24.7102 5.56736L22.5333 7.47506L20.5736 5.35607ZM26.2012 2.89848L24.5685 4.32913L26.0384 5.91891L27.6711 4.48773L26.2012 2.89848ZM27.4693 10.8834L29.1026 9.45218L30.5726 11.0418L28.9399 12.4726L27.4693 10.8834ZM30.538 12.6621L28.9057 14.0935L30.3757 15.6822L32.0084 14.2514L30.538 12.6621ZM29.5632 6.73619L30.6517 5.78224L31.6316 6.84174L30.5436 7.7955L29.5632 6.73619ZM29.2611 2.63432L28.1726 3.58808L29.1525 4.64757L30.2411 3.69381L29.2611 2.63432ZM30.9548 9.8841L32.0432 8.93015L33.0233 9.98947L31.9348 10.9434L30.9548 9.8841ZM27.7059 6.09386L26.0733 7.52523L27.5437 9.11393L29.1758 7.68311L27.7059 6.09386Z" fill="#0068A3"/>
</svg>
