<svg width="28" height="26" viewBox="0 0 28 26" fill="none" xmlns="http://www.w3.org/2000/svg">
<path d="M28.0001 10.5582C27.8558 9.69219 27.0619 9.11483 25.9794 9.11483C25.6185 9.11483 25.3299 9.11483 24.969 9.11483C24.3195 9.04266 24.1751 9.25918 24.1751 9.76437C24.1751 12.2903 24.1751 14.7441 24.1751 17.27C24.1751 18.569 22.8761 19.9403 21.3605 20.2289C16.5974 21.3115 11.8342 22.3218 7.07097 23.4044C6.56579 23.5487 5.98844 23.5487 5.41108 23.5487C5.19457 23.5487 4.83373 23.4044 4.76156 23.1879C4.68939 23.0435 4.9059 22.7549 5.05024 22.6105C5.26674 22.4662 5.55543 22.3218 5.8441 22.1775C6.71014 21.8888 7.64833 21.6002 8.51436 21.3115C12.0507 20.1568 15.587 19.002 19.1233 17.7752C20.711 17.27 21.577 16.1874 21.577 14.8162C21.6492 10.4861 21.577 6.08372 21.577 1.75355C21.577 1.03186 21.2162 0.454506 20.4223 0.165829C19.4841 -0.195019 18.6181 0.0936548 17.8242 0.454502C12.7724 2.83609 7.79267 5.21769 2.74081 7.59928C1.29742 8.32098 0.431396 9.33134 0.431396 10.7747C0.431396 14.8884 0.431396 19.0021 0.431396 23.1157C0.431396 23.3322 0.431379 23.5487 0.503548 23.6931C1.00873 25.0643 2.3078 25.9303 4.03987 25.9303C7.57617 25.9303 11.1125 25.9303 14.6488 25.9303C18.1851 25.9303 21.6492 25.9303 25.1855 25.9303C25.9794 25.9303 26.6289 25.786 27.2062 25.2808C27.9279 24.7034 27.9279 23.9096 27.9279 23.1879C27.9279 19.6373 28.0001 10.5582 28.0001 10.5582ZM13.2775 9.25918C13.6384 8.32098 14.4323 7.74362 15.587 7.59928C16.3808 7.52711 17.0304 7.96013 17.1747 8.68182C17.319 9.76437 16.02 11.0634 14.6488 11.0634C13.5662 11.0634 12.9167 10.2696 13.2775 9.25918Z" fill="#FD6727"/>
</svg>
