<svg width="56" height="15" viewBox="0 0 56 15" fill="none" xmlns="http://www.w3.org/2000/svg">
<path d="M11.7592 0.252136H2.24312C1.00385 0.252136 0 1.26524 0 2.51377V12.1105C0 13.3591 1.00385 14.3722 2.24312 14.3722H11.7592C12.9985 14.3722 14.001 13.3591 14.001 12.1105V2.51377C14.0023 1.26392 12.9985 0.252136 11.7592 0.252136Z" fill="#1677FF"/>
<path d="M11.5278 9.1188C10.9683 8.92967 10.2158 8.64002 9.37855 8.33451C9.88114 7.45233 10.2832 6.44848 10.5477 5.35734H7.78747V4.35482H11.168V3.79536H7.78747V2.1236H6.408C6.16597 2.1236 6.16597 2.36431 6.16597 2.36431V3.79403H2.74706V4.35349H6.16597V5.35602H3.34223V5.91548H8.81777C8.61806 6.61116 8.34825 7.26585 8.0295 7.85969C6.25326 7.26849 4.35666 6.78971 3.16632 7.08465C2.40451 7.27378 1.91382 7.61104 1.6255 7.9655C0.302903 9.58832 1.2512 12.0536 4.04452 12.0536C5.69644 12.0536 7.28753 11.1252 8.52019 9.59494C10.3599 10.4864 14.001 12.0179 14.001 12.0179V9.83565C14.0023 9.83565 13.5447 9.79862 11.5278 9.1188ZM3.78397 11.1106C1.60566 11.1106 0.961554 9.38068 2.03815 8.4337C2.39789 8.11363 3.0539 7.95756 3.40307 7.92318C4.69656 7.79488 5.89484 8.29218 7.30869 8.98787C6.31542 10.2946 5.0497 11.1106 3.78397 11.1106Z" fill="white"/>
<path d="M30.4025 2.31934C30.4025 3.04941 30.9368 3.54141 31.6814 3.54141C32.426 3.54141 32.9604 3.04941 32.9604 2.31934C32.9604 1.60249 32.426 1.09726 31.6814 1.09726C30.9368 1.09726 30.4025 1.60249 30.4025 2.31934Z" fill="#1677FF"/>
<path d="M29.0535 1.40543H26.8342V11.6608H29.0535V1.40543Z" fill="black"/>
<path d="M22.9431 1.75723H19.9646L16.6356 11.6621H18.687L19.2491 9.72323H22.7751L23.3094 11.6621H25.9361L22.9431 1.75723ZM19.712 8.10701L21.0319 3.54141H21.0875L22.3373 8.10701H19.712Z" fill="black"/>
<path d="M32.7911 4.13132H30.5718V11.6622H32.7911V4.13132Z" fill="black"/>
<path d="M55.9868 4.14586L56 4.13132H53.9077L52.5864 8.71146H52.5163L50.9993 4.13132H48.5128L51.5045 11.6899L50.2547 13.9939V14.0495H52.2068L55.9868 4.14586Z" fill="black"/>
<path d="M38.3129 3.97656C37.4982 3.97656 36.866 4.28605 36.1491 4.87593V4.13131H33.9298V14.0494H36.1491V11.5907C36.571 11.7032 36.9638 11.76 37.4413 11.76C39.4225 11.76 41.2067 10.2986 41.2067 7.69967C41.2067 5.36793 39.9146 3.97656 38.3129 3.97656ZM36.907 10.3687C36.6544 10.3687 36.415 10.3409 36.1478 10.2562V6.18265C36.612 5.85994 36.9903 5.7052 37.4678 5.7052C38.297 5.7052 38.957 6.36517 38.957 7.77109C38.9583 9.5685 37.9889 10.3687 36.907 10.3687Z" fill="black"/>
<path d="M48.0763 9.77879V6.63233C48.0763 4.91825 47.0646 3.97656 45.2804 3.97656C44.1416 3.97656 43.356 4.17363 41.9223 4.60876L42.3151 6.3374C43.6219 5.74752 44.1972 5.4949 44.8016 5.4949C45.5317 5.4949 45.8557 6.01468 45.8557 6.81617V6.87172C43.3124 7.34918 42.5254 7.61634 42.0347 8.10835C41.6697 8.47338 41.515 8.99317 41.515 9.59759C41.515 11.0445 42.6392 11.8169 43.6919 11.8169C44.4789 11.8169 45.1111 11.522 45.9681 10.8752L46.1229 11.6622H48.3422L48.0763 9.77879ZM45.857 9.83566C45.2672 10.1584 44.9299 10.2853 44.5371 10.2853C44.0028 10.2853 43.6655 9.93353 43.6655 9.37275C43.6655 9.16246 43.7078 8.95084 43.8758 8.78287C44.143 8.51571 44.6627 8.31864 45.857 8.03825V9.83566Z" fill="black"/>
</svg>
