<svg width="56" height="18" viewBox="0 0 56 18" fill="none" xmlns="http://www.w3.org/2000/svg">
<path fill-rule="evenodd" clip-rule="evenodd" d="M49.192 9.89627H50.9186H50.9201C51.1007 9.89973 51.2508 9.75483 51.2574 9.57049V4.68347C51.2574 4.06965 51.2896 3.51534 51.5319 2.96103C51.6982 2.53936 52.09 2.25547 52.5347 2.23447C53.6391 2.23447 53.6285 3.47033 53.6201 4.44124C53.6194 4.52312 53.6187 4.60312 53.6187 4.68033V9.6112C53.6401 9.7694 53.7692 9.88936 53.9254 9.89627H55.6673C55.8324 9.89975 55.9747 9.77792 56 9.6112V3.89741C56 3.01896 56 1.79603 55.5477 1.06948C55.0585 0.286551 54.3011 0 53.5252 0C52.3292 0 51.65 0.591892 51.1654 1.83361H51.1317V0.444702C51.0967 0.299505 50.9714 0.19583 50.825 0.191034H49.2181C49.0483 0.186768 48.9037 0.31611 48.8854 0.488546V9.57049C48.8876 9.74463 49.0217 9.88713 49.192 9.89627ZM47.5668 5.13287C47.5668 2.26736 46.176 0.0125298 43.6047 0.0125298C41.0992 0.0125298 39.7085 2.22978 39.7085 5.03735C39.7085 7.84493 41.0823 10.0998 43.6047 10.0998C46.0335 10.0998 47.5668 7.90286 47.5668 5.13287ZM42.263 4.7508C42.263 3.64217 42.3442 1.86649 43.6215 1.86649C44.1704 1.86649 44.5584 2.1186 44.7531 2.74494C44.98 3.46993 45.0122 4.38752 45.0122 5.15165C45.0122 6.31665 44.9616 8.22699 43.6046 8.22699C42.2624 8.22699 42.2628 5.91082 42.263 4.78754L42.263 4.7508ZM9.8639 9.91505H11.595H11.5966C11.6834 9.91706 11.7676 9.88371 11.8303 9.82228C11.893 9.76086 11.9292 9.67644 11.9308 9.5877V4.77583L11.9308 4.70051C11.9301 3.65425 11.9291 2.27047 13.1268 2.27047C14.234 2.27047 14.2169 3.48629 14.2031 4.46811V4.46816V4.4682V4.46825V4.46829C14.2016 4.57413 14.2001 4.67725 14.2001 4.77583V9.58926C14.2031 9.76308 14.3368 9.90515 14.5068 9.91505H16.2425C16.3291 9.91664 16.4129 9.8831 16.4753 9.82172C16.5377 9.76034 16.5736 9.67616 16.5753 9.5877V4.77583L16.5751 4.66143C16.5741 4.1516 16.5726 3.46362 16.7378 3.03617C16.9062 2.59924 17.3132 2.30673 17.7728 2.29239C18.2742 2.29239 18.6621 2.46463 18.7909 3.07532C18.8567 3.36923 18.8481 4.05058 18.8425 4.5024C18.8412 4.60903 18.84 4.70288 18.84 4.77583V9.58926C18.8422 9.7634 18.9763 9.9059 19.1466 9.91505H20.8778C20.9647 9.91706 21.0488 9.88371 21.1115 9.82228C21.1742 9.76086 21.2104 9.67644 21.212 9.5877V3.85824C21.212 3.71862 21.2144 3.57594 21.2168 3.43169L21.2168 3.43147C21.231 2.57598 21.246 1.66535 20.775 1.01152C20.2041 0.269869 19.2859 -0.0997101 18.3729 0.0446928C17.46 0.189096 16.6943 0.825035 16.3698 1.70833C15.8837 0.560557 15.1891 0.0266017 14.1219 0.0266017C13.0547 0.0266017 12.262 0.560557 11.8419 1.70833H11.8097V0.522977C11.8006 0.354029 11.6685 0.219127 11.503 0.209806H9.88843C9.71013 0.208008 9.56306 0.351944 9.55723 0.533938V9.61588C9.57294 9.77931 9.70331 9.90645 9.8639 9.91505ZM6.85089 9.9839C6.73687 10.0849 6.57301 10.1018 6.4415 10.0262C5.95089 9.60934 5.80298 9.38401 5.57583 9.03797C5.53676 8.97845 5.49534 8.91535 5.44943 8.84709C4.49724 9.83671 3.82411 10.1327 2.59285 10.1327C1.13466 10.1327 0 9.2135 0 7.37519C0 5.93931 0.766662 4.96378 1.83999 4.48463C2.63255 4.12945 3.69003 4.01921 4.60428 3.92391L4.60432 3.9239L4.60433 3.9239C4.7743 3.90618 4.93932 3.88898 5.09677 3.87081V3.6422C5.09677 3.59856 5.09712 3.55409 5.09747 3.50904C5.1005 3.11923 5.10387 2.68524 4.8867 2.3582C4.67511 2.0325 4.27338 1.8994 3.91458 1.8994C3.25371 1.8994 2.66492 2.24546 2.52079 2.96105C2.50252 3.12798 2.37674 3.26157 2.21412 3.28675L0.54893 3.10041C0.465838 3.08826 0.391255 3.04186 0.342575 2.97202C0.293896 2.90219 0.275375 2.81503 0.291332 2.73087C0.676196 0.65142 2.51619 0.0235127 4.16451 0.0235127C5.00784 0.0235127 6.10876 0.252127 6.77116 0.903522C7.54876 1.64699 7.54395 2.62027 7.53869 3.6839C7.53826 3.77172 7.53782 3.86014 7.53782 3.94911V6.70344C7.53782 7.44524 7.80733 7.81423 8.09121 8.2029C8.12493 8.24907 8.15886 8.29551 8.19255 8.34289C8.30295 8.49947 8.32749 8.69521 8.19255 8.81265C7.83835 9.11485 7.20969 9.6723 6.86469 9.98703L6.85089 9.9839ZM5.1044 5.67152L5.10446 5.75726C5.10507 6.40857 5.10558 6.96087 4.78087 7.55055C4.50487 8.04849 4.06788 8.35539 3.58028 8.35539C2.91635 8.35539 2.52842 7.83866 2.52842 7.07139C2.52842 5.56504 3.85168 5.29102 5.1044 5.29102V5.67152ZM30.7935 8.19641C30.8273 8.24264 30.8612 8.28916 30.895 8.33661C31.0115 8.49945 31.036 8.69049 30.8873 8.79853C30.5331 9.10074 29.9045 9.65975 29.5595 9.97292C29.4447 10.0725 29.2814 10.0888 29.1501 10.0136C28.6573 9.595 28.5114 9.37298 28.281 9.02244L28.2809 9.02228L28.2804 9.02153C28.2421 8.96325 28.2014 8.90142 28.1565 8.83455C27.2058 9.82416 26.5281 10.1201 25.3014 10.1201C23.8432 10.1201 22.7086 9.20096 22.7086 7.36421C22.7086 5.92676 23.4706 4.95123 24.5562 4.47208C25.3505 4.11556 26.4139 4.00583 27.3308 3.91122L27.3309 3.91122L27.3312 3.91119L27.3313 3.91117C27.4975 3.89402 27.6589 3.87737 27.813 3.85983V3.63592C27.813 3.59249 27.8133 3.54825 27.8137 3.50342C27.8167 3.11346 27.8201 2.67931 27.6014 2.35348C27.3959 2.02779 26.9865 1.89312 26.6293 1.89312C25.9684 1.89312 25.3827 2.23918 25.237 2.95477C25.2182 3.12146 25.0927 3.25478 24.9303 3.28047L23.2514 3.0957C23.1677 3.08397 23.0924 3.0375 23.0434 2.96726C22.9943 2.89701 22.9758 2.80922 22.9922 2.72459C23.3786 0.643573 25.2186 0.0172323 26.8669 0.0172323C27.7087 0.0172323 28.8097 0.245847 29.4736 0.897241C30.2528 1.63686 30.2473 2.60261 30.2413 3.6608L30.2413 3.66166C30.2408 3.7547 30.2403 3.84845 30.2403 3.94282V6.69872C30.2403 7.43899 30.5097 7.80783 30.7935 8.19641ZM26.2919 8.34598C26.778 8.34598 27.2165 8.03907 27.491 7.54269C27.8168 6.9498 27.8165 6.3949 27.8161 5.73545L27.8161 5.66524V5.28317C26.5633 5.28317 25.2401 5.55563 25.2401 7.06354C25.2401 7.82925 25.628 8.34598 26.2919 8.34598ZM32.3608 0.502617V1.79601C32.3599 1.88473 32.3946 1.96996 32.4569 2.0318C32.5192 2.09365 32.6036 2.12671 32.6904 2.12327H35.6712L32.2534 7.134C32.0974 7.40278 32.0237 7.71308 32.0418 8.02497V9.34812C32.0418 9.53915 32.2488 9.75681 32.4466 9.64876C34.3317 8.65062 36.5733 8.64654 38.4619 9.6378C38.6781 9.75211 38.882 9.53132 38.882 9.34029V7.94981C38.8762 7.7372 38.7591 7.54412 38.5753 7.44404C37.5802 6.87251 36.4225 6.70496 35.3277 6.73158L38.2779 2.43175C38.5523 2.04655 38.7057 1.80227 38.7057 1.61594V0.502617C38.7065 0.414177 38.672 0.329207 38.61 0.267411C38.5481 0.205614 38.4641 0.172358 38.3775 0.175354H32.6843C32.5976 0.170382 32.513 0.203152 32.4513 0.265534C32.3896 0.327917 32.3567 0.414068 32.3608 0.502617Z" fill="black"/>
<path fill-rule="evenodd" clip-rule="evenodd" d="M35.2082 15.6898C35.6022 14.6892 36.4793 12.4469 36.0622 11.9036H36.0653C35.6501 11.359 33.3194 11.6448 32.271 11.7733L32.2688 11.7736C31.9499 11.8128 31.9008 11.5293 32.1875 11.3242C34.049 9.98854 37.0988 10.3706 37.453 10.8216C37.8072 11.2725 37.3564 14.3948 35.613 15.8855C35.3446 16.1142 35.0886 15.992 35.2082 15.6898ZM22.6824 17.2338C26.7365 17.2338 31.4576 15.9263 34.7098 13.4757V13.4804C35.248 13.067 34.7865 12.4595 34.2376 12.6975C30.6877 14.2266 26.8771 15.0248 23.0244 15.0463C17.6792 15.0463 12.5088 13.5493 8.32591 11.0643C7.95944 10.8467 7.68651 11.2303 7.99318 11.5106C12.0201 15.221 17.2587 17.262 22.6824 17.2338Z" fill="#FF9900"/>
</svg>
