<svg width="51" height="21" viewBox="0 0 51 21" fill="none" xmlns="http://www.w3.org/2000/svg">
<path fill-rule="evenodd" clip-rule="evenodd" d="M9.16013 2.68632C8.57258 3.39011 7.6325 3.94522 6.69242 3.86592C6.57491 2.91431 7.03516 1.90322 7.57375 1.27873C8.1613 0.555106 9.18951 0.0396504 10.0219 0C10.1198 0.99126 9.73789 1.9627 9.16013 2.68632ZM10.012 4.05425C9.18381 4.006 8.42812 4.30637 7.81772 4.54899C7.42492 4.70513 7.09229 4.83734 6.83923 4.83734C6.55525 4.83734 6.2089 4.69806 5.82002 4.54168L5.82001 4.54168L5.81999 4.54167L5.81999 4.54167C5.31042 4.33675 4.72784 4.10248 4.11691 4.11372C2.71658 4.13355 1.41417 4.93647 0.699318 6.21519C-0.76956 8.77264 0.317409 12.5593 1.73732 14.6409C2.43259 15.6718 3.26496 16.8018 4.36172 16.7622C4.84423 16.7438 5.19132 16.5947 5.55052 16.4404C5.96407 16.2628 6.39367 16.0782 7.06446 16.0782C7.71199 16.0782 8.1228 16.2579 8.51716 16.4305C8.89213 16.5945 9.25221 16.752 9.78678 16.7424C10.9227 16.7225 11.6376 15.7115 12.3328 14.6806C13.0831 13.5741 13.4129 12.4943 13.4629 12.3304L13.4688 12.3114C13.4676 12.3102 13.4583 12.3059 13.4419 12.2984C13.1911 12.1821 11.274 11.2937 11.2557 8.91142C11.2372 6.91183 12.7762 5.89871 13.0185 5.73923C13.0332 5.72952 13.0432 5.72298 13.0477 5.71956C12.0684 4.2525 10.5408 4.0939 10.012 4.05425ZM17.8755 16.6333V1.17959H23.6041C26.5615 1.17959 28.6277 3.24141 28.6277 6.25484C28.6277 9.26827 26.5223 11.3499 23.5258 11.3499H20.2453V16.6333H17.8755ZM20.2451 3.20176H22.9772C25.0336 3.20176 26.2087 4.31198 26.2087 6.26476C26.2087 8.21754 25.0336 9.33766 22.9674 9.33766H20.2451V3.20176ZM36.452 14.7797C35.8253 15.989 34.4445 16.7523 32.9561 16.7523C30.7527 16.7523 29.2153 15.424 29.2153 13.4217C29.2153 11.4391 30.7038 10.2992 33.4555 10.1307L36.4128 9.95225V9.09976C36.4128 7.84086 35.6 7.15689 34.1508 7.15689C32.9561 7.15689 32.0845 7.78139 31.9083 8.733H29.7735C29.842 6.73065 31.7026 5.2735 34.2193 5.2735C36.9318 5.2735 38.6945 6.71083 38.6945 8.94116V16.6333H36.501V14.7797H36.452ZM33.5924 14.9185C32.3292 14.9185 31.5262 14.3039 31.5262 13.3622C31.5262 12.3908 32.2998 11.8257 33.7785 11.7365L36.4127 11.568V12.4403C36.4127 13.8876 35.1984 14.9185 33.5924 14.9185ZM45.9702 17.238C45.0204 19.9442 43.9334 20.8363 41.6224 20.8363C41.4461 20.8363 40.8585 20.8165 40.7214 20.7768V18.9232C40.8683 18.943 41.2307 18.9628 41.4167 18.9628C42.4645 18.9628 43.0521 18.5167 43.4144 17.357L43.6298 16.673L39.6149 5.4222H42.0924L44.8833 14.5517H44.9322L47.7231 5.4222H50.1321L45.9702 17.238Z" fill="black"/>
</svg>
