<svg width="45" height="28" viewBox="0 0 45 28" fill="none" xmlns="http://www.w3.org/2000/svg">
<path d="M39.6188 4.73981H26.0665L24.6882 6.2935L20.2155 11.3349V11.3351L18.8373 12.8886H5.46406L6.82104 11.3153L7.46333 10.5706L8.82031 8.99734H2.65829C1.53256 8.99734 0.611389 9.94302 0.611389 11.0987V15.5326C0.611389 16.6885 1.53256 17.6342 2.65829 17.6342H26.2492C27.3749 17.6342 28.9128 16.9318 29.6666 16.0733L33.235 12.0097L39.6188 4.73981Z" fill="#005697"/>
<path d="M42.3418 0C43.4676 0 44.3887 0.945676 44.3887 2.10154V6.53527C44.3887 7.69096 43.4676 8.63681 42.3418 8.63681H36.1999L37.5697 7.07531H37.5699L38.2491 6.30115L39.6189 4.73983H26.0667L18.8375 12.8945H5.38135L15.0314 1.97009L15.3966 1.55665C16.153 0.700456 17.6929 0 18.8186 0H42.3418V0Z" fill="#FBD500"/>
<path fill-rule="evenodd" clip-rule="evenodd" d="M5.22433 25.1715C5.22433 24.882 5.15608 24.6315 5.01993 24.4199C4.88361 24.2083 4.70433 24.0468 4.48192 23.9355C4.70433 23.8242 4.87668 23.6598 4.99915 23.4426C5.12144 23.2255 5.18258 22.9806 5.18258 22.7078V22.5575C5.18258 22.2233 5.11866 21.9451 4.99083 21.7223C4.86282 21.4996 4.68337 21.3213 4.45265 21.1878C4.22192 21.0541 3.94512 20.9582 3.62276 20.8996C3.30006 20.8411 2.9415 20.812 2.54657 20.812C2.41319 20.812 2.2741 20.8148 2.12963 20.8203C1.98483 20.8259 1.84452 20.8328 1.70837 20.8411C1.57205 20.8494 1.44681 20.8593 1.33301 20.8704C1.21886 20.8817 1.12567 20.8928 1.05344 20.9037C0.892174 20.9318 0.778197 20.9818 0.711508 21.0541C0.64482 21.1266 0.611389 21.2575 0.611389 21.4467V26.5245C0.611389 26.7139 0.646033 26.8447 0.715666 26.917C0.785126 26.9895 0.90326 27.0394 1.07024 27.0674C1.15356 27.084 1.25368 27.0979 1.37043 27.1091C1.48717 27.1202 1.61362 27.13 1.74994 27.1383C1.88627 27.1466 2.02657 27.1535 2.17121 27.1593C2.31584 27.1646 2.45753 27.1676 2.59663 27.1676C2.95813 27.1676 3.29868 27.1397 3.61861 27.084C3.93819 27.0285 4.2162 26.9295 4.45265 26.7874C4.68909 26.6456 4.87668 26.4534 5.01577 26.2113C5.15469 25.9691 5.22433 25.6642 5.22433 25.2967V25.1715ZM3.80632 22.7746C3.80632 22.8637 3.79246 22.9487 3.76457 23.0293C3.73669 23.11 3.69096 23.1795 3.62704 23.2383C3.56295 23.2966 3.47686 23.3439 3.36843 23.38C3.25999 23.4162 3.12229 23.4343 2.95548 23.4343H2.02132V21.9895C2.04903 21.9895 2.09216 21.9883 2.15054 21.9853C2.20891 21.9826 2.27006 21.9812 2.33398 21.9812H2.65512C3.08331 21.9812 3.38228 22.0355 3.55186 22.144C3.72144 22.2526 3.80632 22.421 3.80632 22.6492V22.7746ZM3.59361 25.8062C3.75765 25.6782 3.83975 25.4971 3.83975 25.2634V25.1715C3.83975 24.971 3.77566 24.797 3.64783 24.6495C3.51982 24.502 3.28909 24.4282 2.95548 24.4282H2.02132V25.9898H2.16717C2.23108 25.9898 2.29777 25.9916 2.36741 25.9942C2.43687 25.997 2.50356 25.9985 2.56765 25.9985H2.70518C3.13337 25.9985 3.42957 25.9343 3.59361 25.8062ZM9.7956 23.9438C9.7956 23.6377 9.74969 23.3772 9.65789 23.1629C9.56626 22.9487 9.43686 22.7732 9.27006 22.6367C9.10325 22.5004 8.89885 22.4003 8.65687 22.3362C8.41506 22.2722 8.14397 22.2401 7.84362 22.2401C7.56543 22.2401 7.29435 22.2597 7.03036 22.2987C6.76604 22.3376 6.5561 22.3766 6.40055 22.4154C6.29489 22.4435 6.24205 22.5046 6.24205 22.5991V23.2756C6.24205 23.3314 6.25591 23.3705 6.2838 23.3925C6.31151 23.4149 6.34754 23.4261 6.39223 23.4261H6.43381C6.50067 23.4204 6.58398 23.4135 6.6841 23.4052C6.78422 23.3968 6.89681 23.3901 7.02205 23.3842C7.14711 23.3788 7.27772 23.3746 7.41404 23.3717C7.55019 23.3689 7.68512 23.3675 7.81867 23.3675C8.0132 23.3675 8.16615 23.4038 8.27735 23.4761C8.38856 23.5486 8.44416 23.7045 8.44416 23.9438V24.2445H7.9938C7.27633 24.2445 6.75495 24.3572 6.42965 24.5827C6.10435 24.8081 5.9417 25.1659 5.9417 25.6558V25.7313C5.9417 26.0039 5.98206 26.2321 6.0626 26.4158C6.14315 26.5996 6.25037 26.7472 6.38375 26.8587C6.5173 26.9699 6.66869 27.0493 6.83844 27.0965C7.00802 27.1438 7.1847 27.1676 7.36814 27.1676C7.61843 27.1676 7.83392 27.1341 8.01458 27.0673C8.19525 27.0006 8.36621 26.9086 8.52765 26.7918V26.9253C8.52765 26.9699 8.54428 27.0089 8.57771 27.0422C8.61114 27.0757 8.64994 27.0923 8.69446 27.0923H9.62879C9.67313 27.0923 9.71211 27.0757 9.74554 27.0422C9.77897 27.0089 9.7956 26.9699 9.7956 26.9253V23.9438ZM8.14814 26.0942C8.26194 26.0582 8.36916 26.015 8.46928 25.9649V25.0462H7.9938C7.84916 25.0462 7.72964 25.0587 7.63507 25.0837C7.54049 25.1088 7.46532 25.1465 7.40989 25.1966C7.35428 25.2465 7.31531 25.3107 7.29314 25.3886C7.27079 25.4666 7.25971 25.5556 7.25971 25.6558V25.7313C7.25971 25.9092 7.30267 26.0233 7.38893 26.0734C7.47519 26.1235 7.60718 26.1485 7.78525 26.1485C7.91308 26.1485 8.03399 26.1307 8.14814 26.0942ZM14.9007 26.917V24.1358C14.9007 23.8744 14.8799 23.6278 14.8382 23.3968C14.7964 23.166 14.7214 22.9654 14.613 22.7954C14.5046 22.6256 14.3544 22.4905 14.1625 22.3905C13.9707 22.2902 13.7246 22.2401 13.4242 22.2401C13.1573 22.2401 12.9208 22.2724 12.7152 22.3369C12.5095 22.4014 12.2926 22.515 12.0646 22.6776V22.4753C12.0646 22.4305 12.0478 22.3911 12.0146 22.3575C11.9811 22.3239 11.9422 22.3069 11.8977 22.3069H10.9635C10.9188 22.3069 10.88 22.3235 10.8467 22.357C10.8133 22.3905 10.7967 22.4295 10.7967 22.4739V26.917C10.7967 26.9615 10.8145 27.0019 10.8509 27.038C10.8869 27.0743 10.9273 27.0923 10.9718 27.0923H11.9811C12.0257 27.0923 12.0646 27.0743 12.0979 27.0382C12.1313 27.0021 12.148 26.9619 12.148 26.9173V23.6341C12.2926 23.5564 12.4287 23.4926 12.5567 23.4426C12.6846 23.3925 12.8096 23.3675 12.9321 23.3675C13.0599 23.3675 13.1642 23.38 13.2449 23.4052C13.3255 23.4301 13.388 23.4731 13.4325 23.5345C13.477 23.5954 13.5077 23.6759 13.5243 23.7758C13.541 23.8758 13.5495 23.9981 13.5495 24.1425V26.9173C13.5495 26.9619 13.5661 27.0021 13.5995 27.0382C13.6328 27.0743 13.6716 27.0923 13.7163 27.0923H14.7256C14.7699 27.0923 14.8103 27.0743 14.8465 27.038C14.8827 27.0019 14.9007 26.9615 14.9007 26.917ZM19.0048 26.1071V26.8502C19.0048 26.9114 18.9907 26.9546 18.963 26.9796C18.9351 27.0047 18.8906 27.0255 18.8295 27.0422C18.7127 27.0701 18.5612 27.0979 18.3749 27.1259C18.1886 27.1535 17.9703 27.1676 17.72 27.1676C17.1306 27.1676 16.6592 26.9867 16.3062 26.6246C15.953 26.2628 15.7765 25.7394 15.7765 25.0546V24.3531C15.7765 23.6682 15.953 23.1448 16.3062 22.7831C16.6592 22.421 17.1306 22.2401 17.72 22.2401C17.9703 22.2401 18.1886 22.254 18.3749 22.2817C18.5612 22.3098 18.7127 22.3376 18.8295 22.3653C18.8906 22.382 18.9351 22.4029 18.963 22.4279C18.9907 22.4531 19.0048 22.4962 19.0048 22.5575V23.3008C19.0048 23.3453 18.9893 23.38 18.9589 23.4052C18.9282 23.4301 18.8906 23.4426 18.8463 23.4426H18.8295C18.6737 23.4261 18.5251 23.4121 18.3833 23.401C18.2414 23.3901 18.0509 23.3842 17.8118 23.3842C17.7172 23.3842 17.6284 23.3996 17.5449 23.4301C17.4614 23.4608 17.3892 23.5137 17.328 23.5888C17.2667 23.6641 17.2182 23.7641 17.182 23.8895C17.1458 24.0147 17.1278 24.1693 17.1278 24.3531V25.0546C17.1278 25.2382 17.1458 25.3928 17.182 25.5181C17.2182 25.6434 17.2667 25.7436 17.328 25.8187C17.3892 25.8939 17.4614 25.9468 17.5449 25.9774C17.6284 26.0081 17.7172 26.0233 17.8118 26.0233C18.0509 26.0233 18.2414 26.0178 18.3833 26.0067C18.5251 25.9956 18.6737 25.9815 18.8295 25.9649H18.8463C18.8906 25.9649 18.9282 25.9774 18.9589 26.0025C18.9893 26.0277 19.0048 26.0623 19.0048 26.1071ZM23.6347 24.4115C23.6347 24.0773 23.5886 23.7768 23.4966 23.5096C23.4046 23.2423 23.2709 23.0155 23.0955 22.8289C22.92 22.6424 22.7026 22.4976 22.4436 22.3946C22.1845 22.2918 21.8848 22.2401 21.545 22.2401C21.2051 22.2401 20.9056 22.2918 20.6465 22.3946C20.3874 22.4976 20.1686 22.6424 19.9904 22.8289C19.812 23.0155 19.6768 23.2423 19.585 23.5096C19.4929 23.7768 19.447 24.0773 19.447 24.4115V24.9961C19.447 25.3302 19.4929 25.6309 19.585 25.8981C19.6768 26.1654 19.812 26.3922 19.9904 26.5788C20.1686 26.7654 20.3874 26.91 20.6465 27.013C20.9056 27.1159 21.2051 27.1676 21.545 27.1676C21.8848 27.1676 22.1845 27.1159 22.4436 27.013C22.7026 26.91 22.92 26.7654 23.0955 26.5788C23.2709 26.3922 23.4046 26.1654 23.4966 25.8981C23.5886 25.6309 23.6347 25.3302 23.6347 24.9961V24.4115ZM21.545 26.0233C22.0371 26.0233 22.2832 25.681 22.2832 24.9961V24.4115C22.2832 23.7322 22.0371 23.3925 21.545 23.3925C21.3016 23.3925 21.1165 23.4775 20.9893 23.6472C20.862 23.8172 20.7984 24.0719 20.7984 24.4115V24.9961C20.7984 25.3357 20.862 25.5918 20.9893 25.7644C21.1165 25.9371 21.3016 26.0233 21.545 26.0233ZM28.5977 26.917V24.1358C28.5977 23.8744 28.5765 23.6278 28.5351 23.3968C28.4934 23.166 28.4182 22.9654 28.3096 22.7954C28.2012 22.6256 28.0512 22.4905 27.8594 22.3905C27.6675 22.2902 27.4213 22.2401 27.1211 22.2401C26.8542 22.2401 26.6178 22.2724 26.412 22.3369C26.2062 22.4014 25.9894 22.515 25.7614 22.6776V22.4753C25.7614 22.4305 25.7448 22.3911 25.7112 22.3575C25.6781 22.3239 25.6389 22.3069 25.5946 22.3069H24.6603C24.6157 22.3069 24.5769 22.3235 24.5435 22.357C24.5103 22.3905 24.4935 22.4295 24.4935 22.4739V26.917C24.4935 26.9615 24.5115 27.0019 24.5477 27.038C24.5839 27.0743 24.6241 27.0923 24.6687 27.0923H25.6781C25.7224 27.0923 25.7614 27.0743 25.7948 27.0382C25.8281 27.0021 25.8449 26.9619 25.8449 26.9173V23.6341C25.9894 23.5564 26.1257 23.4926 26.2535 23.4426C26.3815 23.3925 26.5066 23.3675 26.629 23.3675C26.7569 23.3675 26.8612 23.38 26.9417 23.4052C27.0222 23.4301 27.0849 23.4731 27.1295 23.5345C27.174 23.5954 27.2045 23.6759 27.2213 23.7758C27.2379 23.8758 27.2462 23.9981 27.2462 24.1425V26.9173C27.2462 26.9619 27.2628 27.0021 27.2963 27.0382C27.3297 27.0743 27.3685 27.0923 27.413 27.0923H28.4224C28.4669 27.0923 28.5072 27.0743 28.5434 27.038C28.5795 27.0019 28.5977 26.9615 28.5977 26.917ZM32.2349 26.2893V26.9357C32.2349 27.0295 32.182 27.0848 32.0764 27.1011C31.9484 27.1233 31.8372 27.1398 31.7428 27.1509C31.6482 27.162 31.5396 27.1676 31.4175 27.1676C31.1906 27.1676 30.9901 27.1493 30.8161 27.1133C30.642 27.077 30.4966 27.0061 30.3806 26.9003C30.2647 26.7945 30.1762 26.6483 30.1154 26.4617C30.0548 26.2753 30.0243 26.0348 30.0243 25.7394V23.3176L29.3571 23.2088C29.3124 23.1977 29.2722 23.1769 29.236 23.1462C29.1998 23.1157 29.1818 23.0781 29.1818 23.0335V22.4822C29.1818 22.4378 29.1998 22.3974 29.236 22.3611C29.2722 22.3251 29.3124 22.3069 29.3571 22.3069H30.0243V21.622C30.0243 21.5774 30.0409 21.5414 30.074 21.5134C30.1069 21.4857 30.1459 21.4663 30.1902 21.455L31.2016 21.2798H31.2264C31.2706 21.2798 31.3066 21.2922 31.3343 21.3171C31.3619 21.3423 31.3757 21.3771 31.3757 21.4215V22.3069H32.0598C32.1041 22.3069 32.1431 22.3237 32.1765 22.3573C32.2099 22.391 32.2266 22.4305 32.2266 22.4752V23.1573C32.2266 23.2024 32.2099 23.2416 32.1765 23.2752C32.1431 23.3089 32.1041 23.3257 32.0598 23.3257H31.3757V25.7561C31.3757 25.9231 31.3896 26.0304 31.4175 26.0776C31.4452 26.1249 31.523 26.1485 31.6508 26.1485H32.0598C32.1765 26.1485 32.2349 26.1955 32.2349 26.2893ZM36.6891 23.9438C36.6891 23.6377 36.6434 23.3772 36.5514 23.1629C36.4598 22.9487 36.3306 22.7732 36.1638 22.6367C35.997 22.5004 35.7926 22.4003 35.5506 22.3362C35.3088 22.2722 35.0377 22.2401 34.7373 22.2401C34.459 22.2401 34.188 22.2597 33.9241 22.2987C33.6597 22.3376 33.4498 22.3766 33.2942 22.4154C33.1882 22.4435 33.1358 22.5046 33.1358 22.5991V23.2756C33.1358 23.3314 33.1494 23.3705 33.1773 23.3925C33.2052 23.4149 33.2412 23.4261 33.2858 23.4261H33.3275C33.3944 23.4204 33.4777 23.4135 33.5778 23.4052C33.6779 23.3968 33.7905 23.3901 33.9156 23.3842C34.0408 23.3788 34.1714 23.3746 34.3077 23.3717C34.4439 23.3689 34.5788 23.3675 34.7122 23.3675C34.9069 23.3675 35.0598 23.4038 35.1711 23.4761C35.2823 23.5486 35.3379 23.7045 35.3379 23.9438V24.2445H34.8875C34.1699 24.2445 33.6486 24.3572 33.3233 24.5827C32.998 24.8081 32.8354 25.1659 32.8354 25.6558V25.7313C32.8354 26.0039 32.8756 26.2321 32.9563 26.4158C33.0367 26.5996 33.1441 26.7472 33.2774 26.8587C33.411 26.9699 33.5624 27.0493 33.7321 27.0965C33.9017 27.1438 34.0782 27.1676 34.2618 27.1676C34.5121 27.1676 34.7274 27.1341 34.9083 27.0673C35.0889 27.0006 35.2597 26.9086 35.4214 26.7918V26.9253C35.4214 26.9699 35.438 27.0089 35.4714 27.0422C35.5047 27.0757 35.5436 27.0923 35.5882 27.0923H36.5225C36.5668 27.0923 36.6058 27.0757 36.6392 27.0422C36.6725 27.0089 36.6891 26.9699 36.6891 26.9253V23.9438ZM35.0418 26.0942C35.1556 26.0582 35.2629 26.015 35.363 25.9649V25.0462H34.8875C34.7429 25.0462 34.6233 25.0587 34.5288 25.0837C34.4342 25.1088 34.359 25.1465 34.3036 25.1966C34.2478 25.2465 34.2088 25.3107 34.1868 25.3886C34.1645 25.4666 34.1534 25.5556 34.1534 25.6558V25.7313C34.1534 25.9092 34.1964 26.0233 34.2826 26.0734C34.3689 26.1235 34.5009 26.1485 34.6789 26.1485C34.8068 26.1485 34.9275 26.1307 35.0418 26.0942ZM40.7933 26.8502V26.1071C40.7933 26.0623 40.7779 26.0277 40.7474 26.0025C40.7168 25.9774 40.6794 25.9649 40.6348 25.9649H40.6182C40.4625 25.9815 40.3137 25.9956 40.1718 26.0067C40.0301 26.0178 39.8396 26.0233 39.6006 26.0233C39.5058 26.0233 39.4168 26.0081 39.3336 25.9774C39.2501 25.9468 39.1777 25.8939 39.1166 25.8187C39.0554 25.7436 39.0068 25.6434 38.9707 25.5181C38.9344 25.3928 38.9165 25.2382 38.9165 25.0546V24.3531C38.9165 24.1693 38.9344 24.0147 38.9707 23.8895C39.0068 23.7641 39.0554 23.6641 39.1166 23.5888C39.1777 23.5137 39.2501 23.4608 39.3336 23.4301C39.4168 23.3996 39.5058 23.3842 39.6006 23.3842C39.8396 23.3842 40.0301 23.3901 40.1718 23.401C40.3137 23.4121 40.4625 23.4261 40.6182 23.4426H40.6348C40.6794 23.4426 40.7168 23.4301 40.7474 23.4052C40.7779 23.38 40.7933 23.3453 40.7933 23.3008V22.5575C40.7933 22.4962 40.7795 22.4531 40.7516 22.4279C40.7235 22.4029 40.6794 22.382 40.6182 22.3653C40.5015 22.3376 40.3497 22.3098 40.1635 22.2817C39.9771 22.254 39.7591 22.2401 39.5088 22.2401C38.919 22.2401 38.448 22.421 38.0948 22.7831C37.7416 23.1448 37.5651 23.6682 37.5651 24.3531V25.0546C37.5651 25.7394 37.7416 26.2628 38.0948 26.6246C38.448 26.9867 38.919 27.1676 39.5088 27.1676C39.7591 27.1676 39.9771 27.1535 40.1635 27.1259C40.3497 27.0979 40.5015 27.0701 40.6182 27.0422C40.6794 27.0255 40.7235 27.0047 40.7516 26.9796C40.7795 26.9546 40.7933 26.9114 40.7933 26.8502ZM44.3885 26.2893V26.9357C44.3885 27.0295 44.3355 27.0848 44.23 27.1011C44.102 27.1233 43.9908 27.1398 43.8964 27.1509C43.8016 27.162 43.6932 27.1676 43.5711 27.1676C43.3442 27.1676 43.1438 27.1493 42.9697 27.1133C42.7954 27.077 42.6503 27.0061 42.5344 26.9003C42.4183 26.7945 42.3298 26.6483 42.269 26.4617C42.2084 26.2753 42.1779 26.0348 42.1779 25.7394V23.3176L41.5107 23.2088C41.466 23.1977 41.4258 23.1769 41.3896 23.1462C41.3534 23.1157 41.3354 23.0781 41.3354 23.0335V22.4822C41.3354 22.4378 41.3534 22.3974 41.3896 22.3611C41.4258 22.3251 41.466 22.3069 41.5107 22.3069H42.1779V21.622C42.1779 21.5774 42.1945 21.5414 42.2276 21.5134C42.2605 21.4857 42.2993 21.4663 42.3437 21.455L43.3551 21.2798H43.38C43.4242 21.2798 43.4602 21.2922 43.4876 21.3171C43.5155 21.3423 43.5293 21.3771 43.5293 21.4215V22.3069H44.2134C44.2577 22.3069 44.2967 22.3237 44.3301 22.3573C44.3634 22.391 44.3802 22.4305 44.3802 22.4752V23.1573C44.3802 23.2024 44.3634 23.2416 44.3301 23.2752C44.2967 23.3089 44.2577 23.3257 44.2134 23.3257H43.5293V25.7561C43.5293 25.9231 43.5432 26.0304 43.5711 26.0776C43.5988 26.1249 43.6766 26.1485 43.8046 26.1485H44.2134C44.3301 26.1485 44.3885 26.1955 44.3885 26.2893Z" fill="#005697"/>
</svg>
