<svg width="51" height="22" viewBox="0 0 51 22" fill="none" xmlns="http://www.w3.org/2000/svg">
<path d="M0.743485 7.61582C0.282891 7.61582 0.237469 7.46332 0.237469 6.35183V6.16215C0.237469 5.04687 0.282891 4.89589 0.743485 4.89589H11.2758C11.738 4.89589 11.7834 5.04687 11.7834 6.16064V6.35031C11.7834 7.46332 11.7372 7.61506 11.2758 7.61506H0.743485V7.61582ZM0.743485 2.72145C0.282891 2.72145 0.237469 2.56971 0.237469 1.4567V1.26703C0.237469 0.150222 0.282891 0 0.743485 0H11.2758C11.738 0 11.7834 0.151739 11.7834 1.26703V1.4567C11.7834 2.56971 11.7372 2.72145 11.2758 2.72145H0.743485ZM2.3213 17.2566C2.3213 15.4145 3.264 14.4016 4.68244 14.4016C5.21794 14.4016 5.64666 14.5503 6.18295 14.8045C6.37739 14.8986 6.53836 14.8606 6.79336 14.2848L6.97903 13.8933C7.16231 13.4214 7.17586 13.2264 6.95353 13.1217C6.29611 12.7552 5.2785 12.5238 4.39955 12.5238C1.89497 12.5238 0 14.413 0 17.2566C0 20.0995 1.89497 21.9886 4.39875 21.9886C5.2785 21.9886 6.31922 21.758 6.97903 21.3892C7.19897 21.2868 7.18463 21.0896 7.00294 20.6177L6.81966 20.2042C6.56466 19.6275 6.40289 19.5949 6.20686 19.6845C5.67056 19.9401 5.21873 20.0888 4.68244 20.0888C3.264 20.0888 2.32369 19.098 2.32369 17.2566H2.32209H2.3213ZM32.1643 21.5531C32.1643 21.8035 32.0655 21.8718 31.322 21.8718H31.2479C30.4645 21.8718 30.3554 21.8376 30.294 21.6548C30.2529 21.5307 30.2202 21.4042 30.196 21.2762C29.7816 21.7481 29.282 22 28.521 22C26.6754 22 25.5661 20.7102 25.5661 18.6359C25.5661 16.394 26.8005 15.0662 28.6309 15.0662C29.1465 15.0662 29.6214 15.218 29.988 15.4942V12.5807C29.988 12.3858 30.0119 12.3046 31.0399 12.3046H31.114C32.0655 12.3046 32.1635 12.3858 32.1635 12.5807V21.5531H32.1643ZM29.9888 17.1299C29.8631 16.9991 29.7102 16.8948 29.5398 16.8234C29.3694 16.7521 29.1852 16.7154 28.9991 16.7157C28.1799 16.7157 27.791 17.3932 27.791 18.6374C27.791 19.3506 27.9496 19.8036 28.1799 20.041C28.3871 20.2861 28.7058 20.365 29.0126 20.365C29.3911 20.365 29.6836 20.2762 29.8191 20.1116C29.9394 19.9857 29.988 19.7907 29.988 19.3415V17.1292L29.9896 17.1299H29.9888ZM43.2536 21.5986C43.2536 21.7921 43.1556 21.8718 42.2017 21.8718H42.1284C41.102 21.8718 41.0805 21.7921 41.0805 21.5986V12.5807C41.0805 12.3858 41.102 12.3046 42.1276 12.3046H42.2009C43.154 12.3046 43.2528 12.3858 43.2528 12.5807V21.5986H43.2536ZM35.6004 19.2012C35.7215 20.0183 36.2586 20.4113 37.1025 20.4113C37.7519 20.4113 38.36 20.2747 39.0708 19.9857C39.219 19.9288 39.3521 19.9857 39.5091 20.4432L39.6206 20.6996C39.7776 21.1715 39.7641 21.2762 39.5951 21.3665C38.7504 21.8149 37.8715 21.9985 36.8937 21.9985C34.7326 21.9985 33.3771 20.7466 33.3771 18.6033C33.3771 16.5192 34.6226 15.0662 36.7606 15.0662C38.8755 15.0662 39.9609 16.4956 39.9609 18.4758C39.9609 19.1329 39.9011 19.2012 39.6565 19.2012H35.6004ZM37.7854 17.9243C37.752 17.2354 37.4587 16.6345 36.7375 16.6345C36.112 16.6345 35.6594 17.0821 35.5741 17.9243H37.7854ZM46.6387 19.2012C46.7582 20.0183 47.2969 20.4113 48.1416 20.4113C48.7855 20.4113 49.3991 20.2747 50.1075 19.9857C50.2525 19.9288 50.3896 19.9857 50.5474 20.4432L50.6581 20.6996C50.8151 21.1715 50.8024 21.2762 50.6342 21.3665C49.7895 21.8149 48.909 21.9985 47.9304 21.9985C45.7685 21.9985 44.4146 20.7466 44.4146 18.6033C44.4146 16.5192 45.6578 15.0662 47.7966 15.0662C49.9131 15.0662 51 16.4956 51 18.4758C51 19.1329 50.9386 19.2012 50.694 19.2012H46.6379H46.6387ZM48.8261 17.9243C48.7863 17.2354 48.4954 16.6345 47.7743 16.6345C47.1511 16.6345 46.6969 17.0821 46.6124 17.9243H48.8261ZM22.0886 17.1754C21.9785 17.0371 21.8364 16.9248 21.6733 16.8471C21.5102 16.7695 21.3306 16.7287 21.1483 16.7278C20.3291 16.7278 19.9394 17.4068 19.9394 18.6147C19.9394 19.6389 20.2295 20.3999 21.122 20.3999C21.4535 20.3999 21.6957 20.3195 21.8686 20.1564C22.0264 19.997 22.0886 19.777 22.0886 19.296V17.1754ZM24.288 21.5531C24.288 21.8035 24.1915 21.8718 23.4465 21.8718H23.346C22.5651 21.8718 22.4551 21.8376 22.3946 21.6548C22.3526 21.5309 22.3199 21.4044 22.2966 21.2762C21.8822 21.7481 21.3802 22 20.6215 22C18.8501 22 17.7129 20.7315 17.7129 18.6617C17.7129 16.3591 19.1186 15.0662 20.7809 15.0662C21.4535 15.0662 22.0384 15.3333 22.3571 15.7127L22.3946 15.4244C22.4049 15.2878 22.444 15.1967 23.2472 15.1967H23.3341C24.166 15.1967 24.2864 15.2521 24.2864 15.4623V21.5531H24.288ZM14.0887 13.2507C14.9063 13.2507 14.9558 13.2605 14.9558 13.514V15.1952H16.3622C16.5567 15.1952 16.6172 15.2294 16.6172 15.8621V15.9554C16.6172 16.5867 16.5567 16.6231 16.3622 16.6231H14.9558V19.6404C14.9558 20.1457 15.0522 20.4113 15.5407 20.4113C15.7957 20.4113 16.0188 20.365 16.2387 20.2975C16.4698 20.2133 16.5575 20.3195 16.7153 20.8475L16.7519 20.9742C16.9224 21.5531 16.8722 21.5986 16.6547 21.7003C16.2148 21.8961 15.6267 22 15.0777 22C13.3429 22 12.8544 21.1715 12.8544 19.73V16.6231H12.0352C11.828 16.6231 11.7762 16.5852 11.7762 15.9554V15.8621C11.7762 15.2294 11.8272 15.1967 12.0352 15.1967H12.9516C13.0512 14.6558 13.2202 13.8941 13.3309 13.514C13.3923 13.2947 13.4289 13.2507 14.0887 13.2507ZM9.54338 15.1967C10.4972 15.1967 10.5817 15.2749 10.5817 15.4722V21.5986C10.5817 21.8035 10.4972 21.8718 9.54338 21.8718H9.48122C8.43174 21.8718 8.40783 21.8035 8.40783 21.5986V15.4722C8.40783 15.2749 8.43174 15.1967 9.48122 15.1967H9.54338ZM9.48122 12.2022C10.1697 12.2022 10.6686 12.7082 10.6686 13.2833C10.6655 13.4274 10.6323 13.5695 10.5711 13.7013C10.5098 13.8332 10.4216 13.9521 10.3116 14.0511C10.0884 14.2522 9.78961 14.3614 9.48122 14.3546C8.80069 14.3546 8.29626 13.8485 8.29626 13.2833C8.29626 12.7067 8.80069 12.2022 9.48122 12.2022Z" fill="#EE293D"/>
</svg>
