<svg width="36" height="29" viewBox="0 0 36 29" fill="none" xmlns="http://www.w3.org/2000/svg">
<path d="M21.09 28.9998C28.8851 29.0375 36 22.5842 36 14.7339C36 6.14988 28.8851 0.2157 21.09 0.218904H14.3813C6.49331 0.2157 0 6.15148 0 14.7339C0 22.5858 6.49331 29.0375 14.3813 28.9998H21.09Z" fill="#0079BE"/>
<path d="M14.4133 1.40845C7.20468 1.41085 1.36422 7.30658 1.36182 14.5833C1.36422 21.8593 7.20468 27.755 14.4133 27.7574C21.6228 27.755 27.4656 21.8593 27.4664 14.5833C27.4656 7.30658 21.6236 1.41085 14.4133 1.40845ZM6.14088 14.5833C6.13937 12.9009 6.64544 11.2571 7.59295 9.86684C8.54047 8.47658 9.88536 7.40449 11.4518 6.7907V22.3751C9.88523 21.7618 8.54018 20.6899 7.59262 19.2997C6.64506 17.9095 6.13909 16.2657 6.14088 14.5833ZM17.374 22.3783V6.7899C18.9417 7.40282 20.2877 8.47481 21.2359 9.86554C22.1841 11.2563 22.6903 12.9009 22.6882 14.5841C22.69 16.2673 22.1837 17.9118 21.2355 19.3024C20.2873 20.6931 18.9415 21.7651 17.374 22.3783Z" fill="white"/>
<path d="M21.09 28.9998C28.8851 29.0375 36 22.5842 36 14.7339C36 6.14988 28.8851 0.2157 21.09 0.218904H14.3813C6.49331 0.2157 0 6.15148 0 14.7339C0 22.5858 6.49331 29.0375 14.3813 28.9998H21.09Z" fill="#0079BE"/>
<path d="M14.4133 1.40845C7.20468 1.41085 1.36422 7.30658 1.36182 14.5833C1.36422 21.8593 7.20468 27.755 14.4133 27.7574C21.6228 27.755 27.4656 21.8593 27.4664 14.5833C27.4656 7.30658 21.6236 1.41085 14.4133 1.40845ZM6.14088 14.5833C6.13937 12.9009 6.64544 11.2571 7.59295 9.86684C8.54047 8.47658 9.88536 7.40449 11.4518 6.7907V22.3751C9.88523 21.7618 8.54018 20.6899 7.59262 19.2997C6.64506 17.9095 6.13909 16.2657 6.14088 14.5833ZM17.374 22.3783V6.7899C18.9417 7.40282 20.2877 8.47481 21.2359 9.86554C22.1841 11.2563 22.6903 12.9009 22.6882 14.5841C22.69 16.2673 22.1837 17.9118 21.2355 19.3024C20.2873 20.6931 18.9415 21.7651 17.374 22.3783Z" fill="white"/>
</svg>
