<svg width="63" height="28" viewBox="0 0 63 28" fill="none" xmlns="http://www.w3.org/2000/svg">
<path d="M23.5 28L63 16.5V23C63 25.7614 60.7614 28 58 28H23.5Z" fill="#FD6020"/>
<path fill-rule="evenodd" clip-rule="evenodd" d="M55.5027 0.22171C57.6758 0.22171 58.871 1.1888 58.871 3.01551C58.9797 4.41241 58.0018 5.59441 56.6979 5.80931L59.6316 9.78511H57.3498L54.8507 5.91677H54.6334V9.78511H52.7863V0.22171H55.5027ZM54.6334 4.6273H55.1767C56.3719 4.6273 56.9152 4.09003 56.9152 3.12294C56.9152 2.26331 56.3719 1.72604 55.1767 1.72604H54.6334V4.6273ZM46.3756 9.78509H51.5911V8.17328H48.2228V5.59439H51.4824V3.98258H48.2228V1.8335H51.5911V0.221695H46.3756V9.78509ZM40.9428 6.66893L38.4437 0.221695H36.4879L40.5082 10H41.4861L45.5064 0.221695H43.5506L40.9428 6.66893ZM18.8857 5.05712C18.8857 7.74347 21.0588 10 23.7752 10C24.6445 10 25.4051 9.78509 26.1657 9.46273V7.31365C25.6224 7.95838 24.8618 8.38819 23.9925 8.38819C22.2541 8.38819 20.8415 7.09874 20.8415 5.37948V5.16457C20.7329 3.44531 22.1454 1.94096 23.8839 1.8335C24.7531 1.8335 25.6224 2.26332 26.1657 2.90804V0.758965C25.5137 0.329149 24.6445 0.221695 23.8839 0.221695C21.0588 0.00678752 18.8857 2.26332 18.8857 5.05712ZM15.5174 3.87513C14.4309 3.44531 14.1049 3.2304 14.1049 2.69314C14.2135 2.04841 14.7568 1.51114 15.4088 1.6186C15.952 1.6186 16.4953 1.94096 16.9299 2.37077L17.9078 1.08133C17.1472 0.436603 16.1693 0.00678752 15.1914 0.00678752C13.6703 -0.100666 12.3664 1.08133 12.2577 2.58568V2.69314C12.2577 3.98258 12.801 4.73476 14.5395 5.27203C14.9741 5.37948 15.4088 5.59439 15.8434 5.8093C16.1693 6.02421 16.3867 6.34657 16.3867 6.77638C16.3867 7.52856 15.7347 8.17328 15.0828 8.17328H14.9741C14.1049 8.17328 13.3443 7.63601 13.0183 6.88384L11.8231 8.06583C12.4751 9.24782 13.7789 9.89255 15.0828 9.89255C16.8213 10 18.2338 8.71055 18.3425 6.99129V6.66893C18.2338 5.37948 17.6905 4.73476 15.5174 3.87513ZM9.21539 9.78509H11.0625V0.221695H9.21539V9.78509ZM0.631592 0.22171H3.34798H3.89126C6.499 0.329164 8.56345 2.47824 8.4548 5.05714C8.4548 6.45404 7.80286 7.74348 6.71631 8.71057C5.73841 9.46275 4.54319 9.89256 3.34798 9.78511H0.631592V0.22171ZM3.02201 8.1733C3.89125 8.28075 4.86915 7.95839 5.52109 7.42112C6.17302 6.77639 6.49899 5.91676 6.49899 4.94968C6.49899 4.09005 6.17302 3.23042 5.52109 2.58569C4.86915 2.04842 3.89125 1.72606 3.02201 1.83352H2.47873V8.1733H3.02201Z" fill="black"/>
<path fill-rule="evenodd" clip-rule="evenodd" d="M31.7071 0C28.9908 0 26.709 2.14908 26.709 4.94288C26.709 7.62923 28.8821 9.88576 31.7071 9.99321C34.5322 10.1007 36.7053 7.84413 36.814 5.05033C36.7053 2.25653 34.5322 0 31.7071 0V0Z" fill="#FD6020"/>
</svg>
