<svg width="55" height="20" viewBox="0 0 55 20" fill="none" xmlns="http://www.w3.org/2000/svg">
<path fill-rule="evenodd" clip-rule="evenodd" d="M0 14.9204C0.0366205 14.7236 0.0701583 14.533 0.103035 14.3462C0.15385 14.0574 0.203085 13.7776 0.259685 13.4978C0.499394 12.2322 0.740768 10.9682 0.982141 9.70428C1.22352 8.44032 1.46489 7.17636 1.7046 5.91072C1.73789 5.75043 1.7845 5.64357 1.94431 5.61686C3.18947 5.42985 4.44129 5.29627 5.68644 5.61018C6.7718 5.87733 7.53088 6.64539 7.65739 7.54703C7.91707 9.34362 6.87167 10.7796 5.32022 11.2938C4.50121 11.561 3.66889 11.6278 2.82325 11.5476C2.62349 11.5276 2.56356 11.581 2.53027 11.7747C2.35049 12.7565 2.16404 13.7316 1.97095 14.7067C1.95763 14.7868 1.88438 14.9137 1.83777 14.9137C1.38535 14.9237 0.940345 14.9225 0.477822 14.9213H0.477761H0.477699H0.477637H0.477574H0.477511H0.477194H0.476876H0.476555H0.476232H0.475908C0.319597 14.9208 0.161282 14.9204 0 14.9204ZM3.24225 9.96484L3.24229 9.96485H3.2423C3.50275 9.97193 3.74869 9.97862 3.98849 9.9514C4.68099 9.87793 5.23365 9.56402 5.5466 8.90283C5.89951 8.1548 5.64648 7.36002 4.98062 7.12627C4.50786 6.9593 4.02178 6.99269 3.53571 7.05948C3.47578 7.06616 3.39588 7.15966 3.38256 7.21977C3.28941 7.70936 3.19626 8.20105 3.0996 8.71121C3.02354 9.11272 2.9453 9.52568 2.86319 9.95807C2.99335 9.95807 3.11941 9.9615 3.24225 9.96484ZM11.8057 13.6381C11.7003 13.748 11.6016 13.8585 11.5052 13.9666L11.5052 13.9666L11.5052 13.9667C11.2968 14.2001 11.0989 14.4218 10.8668 14.5998C10.1677 15.1408 9.36865 15.261 8.56296 14.887C7.76392 14.5197 7.43765 13.805 7.40436 12.9635C7.33112 11.1936 7.95037 9.73097 9.43523 8.7158C10.3674 8.07463 11.4395 7.88095 12.5515 7.94106C12.9193 7.96276 13.2843 8.02678 13.6502 8.09094C13.8473 8.1255 14.0446 8.16011 14.2427 8.18817C14.4691 8.22157 14.5024 8.34846 14.4625 8.54215C14.409 8.82139 14.355 9.10034 14.301 9.37912L14.301 9.37917L14.301 9.37922L14.301 9.37927L14.301 9.37932L14.301 9.37937L14.301 9.37939L14.301 9.3794L14.301 9.37942L14.301 9.37943L14.301 9.37945C14.0993 10.4207 13.8981 11.4596 13.73 12.5027C13.6336 13.0998 13.5952 13.7114 13.5571 14.317V14.317C13.5505 14.4226 13.5439 14.5281 13.5369 14.6332C13.5236 14.8469 13.4703 14.9337 13.2506 14.9271C12.8378 14.9137 12.4249 14.9137 12.0121 14.9271C11.799 14.9337 11.7258 14.8536 11.7458 14.6466C11.7648 14.4177 11.777 14.1821 11.7897 13.9373C11.7948 13.8391 11.8 13.7394 11.8057 13.6381ZM12.2718 9.51057C11.6259 9.33024 11.0866 9.45714 10.6338 9.83783C9.78149 10.5591 9.39529 11.4942 9.46854 12.6095C9.48851 12.9501 9.62169 13.2774 9.98125 13.4243C10.3408 13.5713 10.6671 13.4644 10.9467 13.224C11.1132 13.077 11.273 12.9101 11.3929 12.7231C11.8625 12.004 11.9908 11.193 12.1211 10.3692C12.1663 10.0834 12.2118 9.79609 12.2718 9.51057ZM21.707 13.2507C22.0733 14.4262 23.0787 15.0807 24.8432 15.0807C26.0551 15.0473 27.2603 14.3594 28.0127 12.9435C28.4122 12.1821 28.5587 11.3673 28.5055 10.5124C28.4589 9.6909 28.1326 8.99631 27.4667 8.50208C26.7676 7.98113 25.9685 7.87427 25.1162 7.96777C22.2664 8.28836 21.1011 11.3138 21.707 13.2507ZM23.6033 12.2699C23.604 12.2358 23.6047 12.2019 23.6047 12.1687C23.6247 11.4007 23.8112 10.686 24.2706 10.0516C24.477 9.77105 24.7367 9.55733 25.0829 9.47718C25.7888 9.31689 26.3681 9.7243 26.4346 10.4924C26.5145 11.4341 26.2882 12.3023 25.6955 13.057C25.4691 13.3375 25.1828 13.5312 24.8166 13.5646C24.1574 13.6247 23.658 13.1772 23.6047 12.476C23.6003 12.4089 23.6018 12.3389 23.6033 12.2699ZM30.0902 8.10803H31.7815C31.7549 8.46868 31.7283 8.81598 31.695 9.16995C31.7564 9.11259 31.8158 9.0559 31.874 9.00031L31.8746 8.99977L31.8747 8.99965C31.9993 8.88075 32.1186 8.76692 32.241 8.66237C32.9002 8.08799 33.6526 7.8342 34.5249 7.97445C35.244 8.09467 35.7434 8.62229 35.8233 9.36364C35.9101 10.1351 35.7659 10.8833 35.6219 11.6299L35.5902 11.7947C35.5319 12.0977 35.4742 12.4007 35.4166 12.7035L35.4163 12.7048L35.4162 12.7057C35.2897 13.3699 35.1635 14.0332 35.0309 14.6933C35.0109 14.7801 34.9111 14.907 34.8445 14.9137C34.2719 14.9271 33.6993 14.9204 33.1266 14.9137H33.1266C33.1074 14.9137 33.0882 14.9033 33.059 14.8875C33.0477 14.8814 33.0349 14.8744 33.02 14.867C33.1266 14.3126 33.2331 13.7516 33.333 13.1906C33.4861 12.329 33.6326 11.4741 33.7658 10.6126C33.7924 10.4656 33.7791 10.312 33.7591 10.1651C33.7059 9.65083 33.3263 9.41707 32.8336 9.57068C32.3542 9.72429 32.0678 10.0983 31.8348 10.5124C31.4885 11.1202 31.3687 11.7947 31.2488 12.4693C31.2188 12.6365 31.1891 12.8033 31.1594 12.97C31.0576 13.5424 30.9561 14.1125 30.8427 14.6866C30.8227 14.7735 30.7228 14.907 30.6562 14.9137C30.1893 14.9297 29.7181 14.9287 29.2158 14.9276C29.0877 14.9273 28.9577 14.9271 28.8251 14.9271C29.2646 12.6296 29.6774 10.3788 30.0902 8.10803ZM39.6919 13.5245C38.9861 13.4377 38.5133 12.9435 38.5599 12.2489C38.7071 12.2489 38.8536 12.2511 38.9993 12.2534H38.9993L38.9994 12.2534C39.2887 12.2578 39.575 12.2622 39.8584 12.2489C40.5442 12.2088 41.2167 12.0953 41.8426 11.7814C42.6417 11.3806 43.0145 10.7194 42.9546 9.85788C42.8947 8.98296 42.4219 8.34847 41.5763 8.09468C40.3111 7.71399 39.1459 7.98114 38.1538 8.82935C36.9485 9.85788 36.4958 11.2204 36.6689 12.7765C36.7887 13.8785 37.388 14.6666 38.48 14.9471C39.6519 15.2477 40.8039 15.0874 41.9159 14.6332C41.9958 14.5998 42.089 14.4729 42.0823 14.3928C42.0663 14.0669 42.0333 13.741 42.0003 13.4151L42.0003 13.4149C41.992 13.3334 41.9838 13.252 41.9758 13.1706C41.9539 13.1706 41.9377 13.1694 41.9252 13.1686C41.9072 13.1673 41.8971 13.1666 41.8892 13.1706C41.816 13.1973 41.7427 13.224 41.6762 13.2507C41.0369 13.4978 40.3777 13.6047 39.6919 13.5245ZM40.7239 10.5658C40.3178 10.7796 39.2657 10.9064 38.753 10.7996C38.8595 9.91131 39.7984 9.21672 40.5908 9.4104C40.8571 9.47719 41.0502 9.61744 41.0968 9.90463C41.1434 10.1851 41.0036 10.4189 40.7239 10.5658ZM45.2119 12.2756C45.152 12.9301 45.6181 13.431 46.3305 13.5245C46.9964 13.6047 47.6356 13.5045 48.2615 13.2774C48.3191 13.2557 48.3748 13.2341 48.4359 13.2103L48.4362 13.2102C48.488 13.19 48.5437 13.1683 48.6078 13.1438C48.6208 13.2853 48.6352 13.4239 48.6495 13.5607L48.6495 13.5607C48.6789 13.8435 48.7075 14.1182 48.721 14.3928C48.7276 14.4729 48.6344 14.5998 48.5612 14.6332C47.4292 15.1007 46.264 15.261 45.0721 14.9338C44 14.6399 43.4407 13.8585 43.3075 12.7899C43.1411 11.4207 43.494 10.1851 44.4462 9.16996C45.4716 8.08131 46.7301 7.69394 48.1816 8.09467C49.0672 8.34179 49.54 8.98295 49.5933 9.88459C49.6465 10.7662 49.247 11.4274 48.4147 11.8148C47.5757 12.2021 46.6835 12.2622 45.7779 12.2823C45.5981 12.2756 45.4117 12.2756 45.2119 12.2756ZM45.7624 10.8335L45.7624 10.8335C46.0578 10.8187 46.3424 10.8044 46.6235 10.7662C46.8899 10.7328 47.1562 10.6526 47.3959 10.5391C47.6556 10.4256 47.7821 10.1851 47.7422 9.89126C47.7022 9.61075 47.5158 9.47717 47.2561 9.41038C46.4704 9.19666 45.4916 9.91797 45.405 10.853C45.5261 10.8454 45.6451 10.8394 45.7624 10.8335ZM49.9594 13.5245C49.8729 13.9787 49.793 14.4262 49.7064 14.9204C49.8398 14.9204 49.9712 14.9207 50.1011 14.9209C50.6135 14.922 51.1021 14.923 51.5908 14.907C51.6374 14.907 51.7106 14.7801 51.7239 14.7C51.7919 14.3664 51.8548 14.0312 51.9178 13.6961C52.0338 13.0784 52.1498 12.461 52.2966 11.8548C52.6229 10.5057 53.1755 10.0382 54.4873 9.86455C54.5405 9.85787 54.6271 9.79776 54.6404 9.75101C54.724 9.36718 54.7988 8.98042 54.8765 8.57921C54.9164 8.37306 54.957 8.16309 55 7.94774C53.7348 7.81416 53.029 8.54883 52.4164 9.45047L52.4263 9.32001C52.4564 8.92126 52.487 8.51548 52.523 8.08799C52.3845 8.08799 52.2487 8.08756 52.1147 8.08714C51.7204 8.0859 51.3426 8.0847 50.9649 8.09467C50.9116 8.10135 50.8117 8.22157 50.8051 8.29504C50.663 10.0116 50.3267 11.6905 49.9907 13.3683L49.9594 13.5245Z" fill="black"/>
<path fill-rule="evenodd" clip-rule="evenodd" d="M32.33 0.0507167C32.2626 0.0328719 32.1951 0.0150272 32.1277 0C31.9213 0 31.7149 0 31.4951 0.00667879C31.4201 0.0217349 31.345 0.0381486 31.2694 0.0546958C31.1772 0.0748497 31.0842 0.0952016 30.9891 0.113539C29.9703 0.307224 29.0115 0.6612 28.0859 1.12872C26.0817 2.14389 24.2839 3.45961 22.6725 5.01577C21.6005 6.0443 20.5617 7.11959 19.5563 8.22159C17.7918 10.1584 16.2802 12.289 15.075 14.6265C14.4558 15.8354 13.8965 17.071 13.6434 18.4134C13.5968 18.6605 13.6767 18.9477 13.7566 19.1948C13.7899 19.295 13.9764 19.3685 14.1029 19.4086C14.1362 19.4219 14.2361 19.2549 14.2827 19.1614C14.2992 19.1252 14.3162 19.0881 14.3335 19.0502C14.6226 18.4167 15.0137 17.56 15.3529 16.9929C16.0721 15.7907 16.6398 14.8603 17.4455 13.7182C18.7373 11.8816 20.2466 10.0795 21.8314 8.48996C23.3296 6.98723 24.8299 5.64358 26.7143 4.6284C27.5799 4.16756 28.4655 3.71341 29.3711 3.33939C30.9358 2.69155 32.5672 2.25075 34.2451 2.00364C34.4249 1.97692 34.6646 1.83667 34.7246 1.68973C34.7778 1.55616 34.6513 1.30236 34.5248 1.17547C34.0121 0.647843 33.4128 0.247115 32.6671 0.126897C32.5547 0.1102 32.4423 0.0804583 32.33 0.0507167ZM17.086 9.16331C17.4056 8.29507 17.5654 7.39343 17.5854 6.4584C17.5765 6.35822 17.5691 6.25804 17.5617 6.15786C17.5469 5.95749 17.5321 5.75713 17.5054 5.55677C17.3257 4.00729 16.6598 2.69157 15.6011 1.56285C15.4746 1.43595 15.3015 1.33577 15.1283 1.27566C14.9552 1.20888 14.842 1.30906 14.8553 1.50942C14.8556 1.51365 14.856 1.51789 14.8563 1.52213C14.8693 1.69185 14.8828 1.86763 14.9153 2.03705C14.962 2.30393 15.0085 2.57114 15.055 2.83853C15.2203 3.78897 15.3859 4.74169 15.5678 5.69034C15.7476 6.64541 15.9473 7.5938 16.1604 8.53551C16.2337 8.83605 16.3535 9.1366 16.5 9.41711C16.6132 9.63083 16.773 9.61079 16.9195 9.41711C16.9861 9.33696 17.0527 9.25682 17.086 9.16331Z" fill="#FC461E"/>
</svg>
