<svg width="49" height="10" viewBox="0 0 49 10" fill="none" xmlns="http://www.w3.org/2000/svg">
<path d="M21.6186 7.75652C21.5173 7.77099 21.416 7.77873 21.321 7.786C21.2114 7.79439 21.1101 7.80214 21.0267 7.81882C20.929 7.81882 20.8313 7.82733 20.738 7.83546C20.6529 7.84288 20.5715 7.84997 20.4971 7.84997C20.061 7.84997 19.7184 7.78767 19.5003 7.63191C19.2823 7.50731 19.1577 7.25811 19.1265 6.91545C19.0994 6.80694 19.1195 6.65119 19.1457 6.4482C19.1496 6.41809 19.1536 6.38693 19.1577 6.35474C19.1722 6.22413 19.1934 6.10029 19.2152 5.97375C19.2401 5.82868 19.2656 5.68005 19.2823 5.51367L19.9676 2.4609H18.8462L19.0331 1.68214H20.1856L20.4971 0.280356L21.6809 0L21.3071 1.68214H22.6154L22.4285 2.4609H21.1202L20.4971 5.63827C20.4776 5.71649 20.458 5.78857 20.4404 5.85356C20.4019 5.9956 20.3725 6.10371 20.3725 6.16783C20.3414 6.29244 20.3414 6.38589 20.3414 6.44819C20.3414 6.63509 20.4037 6.72854 20.5283 6.822C20.6529 6.91545 20.8398 6.9466 21.1202 6.9466C21.1609 6.9466 21.2077 6.94066 21.2603 6.93398C21.3283 6.92534 21.4062 6.91545 21.494 6.91545C21.6186 6.91545 21.7432 6.8843 21.8678 6.85315L21.6186 7.75652Z" fill="#004A99"/>
<path d="M14.2075 5.83352C14.2163 5.8038 14.2261 5.77083 14.2359 5.73173V5.66942H13.0833C13.0677 5.73173 13.0599 5.79403 13.0521 5.85633C13.0443 5.91863 13.0366 5.98093 13.021 6.04323C12.9898 6.19899 12.9898 6.29244 13.021 6.38589C13.0521 6.822 13.2702 7.16466 13.644 7.41386C14.049 7.66307 14.5474 7.78767 15.2327 7.78767C16.0737 7.78767 16.7591 7.56962 17.2886 7.19581C17.8182 6.822 18.0362 6.32359 18.0051 5.76288C17.9739 5.45137 17.8182 5.13986 17.6313 4.92181C17.4444 4.70375 16.946 4.4234 16.2295 4.08074C15.6999 3.83153 15.3573 3.64463 15.2327 3.52003C15.0769 3.39543 15.0146 3.23967 14.9835 3.08392C14.9523 2.80356 15.0458 2.58551 15.2638 2.42975C15.4507 2.274 15.7622 2.18055 16.136 2.18055C16.4787 2.18055 16.7279 2.24285 16.8837 2.36745C17.0394 2.49206 17.1329 2.67896 17.164 2.89701V3.23967H18.2543C18.2854 3.08392 18.2854 2.95932 18.2854 2.89701V2.67896C18.2231 2.24285 18.0674 1.93134 17.6936 1.74444C17.3509 1.55754 16.8214 1.43293 16.136 1.43293C15.3884 1.43293 14.7654 1.61984 14.3293 1.96249C13.8932 2.30515 13.7063 2.74126 13.7374 3.27082C13.7686 3.58233 13.8932 3.89384 14.1736 4.11189C14.3916 4.3611 14.8589 4.64145 15.4819 4.92181C15.9803 5.13986 16.2918 5.32677 16.4476 5.45137C16.6033 5.57597 16.6968 5.73173 16.6968 5.91863C16.6968 6.23014 16.6033 6.47934 16.3229 6.66625C16.0737 6.85315 15.6999 6.9466 15.2327 6.9466C14.89 6.9466 14.6408 6.8843 14.4539 6.7597C14.2982 6.66625 14.2047 6.47934 14.1736 6.23014C14.1424 6.16784 14.1424 6.10553 14.1736 6.01208C14.1736 5.94796 14.1882 5.8985 14.2075 5.83352Z" fill="#004A99"/>
<path d="M32.5524 2.60109C32.6147 2.5933 32.6771 2.58551 32.7394 2.58551C33.0197 2.58551 33.2378 2.67896 33.487 2.89702C33.6427 3.05277 33.7362 3.30198 33.7673 3.64463C33.7985 3.92499 33.7673 4.26765 33.6739 4.67261C33.5804 5.07756 33.4558 5.45137 33.3001 5.79403C33.1443 6.10554 32.9574 6.32359 32.7705 6.47934C32.677 6.5728 32.5213 6.6351 32.3967 6.66625V7.81882C32.4278 7.81882 32.4668 7.82661 32.5057 7.8344C32.5447 7.84219 32.5836 7.84997 32.6147 7.84997C33.5804 7.84997 34.328 7.41386 34.8887 6.5728C35.4495 5.73173 35.6987 4.70375 35.5741 3.48888C35.5118 2.83471 35.3249 2.3363 34.9822 1.99365C34.6395 1.65099 34.1723 1.46409 33.5804 1.46409C33.2066 1.46409 32.8328 1.52639 32.5213 1.68214C32.5038 1.69963 32.4765 1.7073 32.4449 1.71618C32.4202 1.72311 32.3929 1.73078 32.3655 1.74444V2.61666C32.4278 2.61666 32.4901 2.60887 32.5524 2.60109Z" fill="#004A99"/>
<path d="M31.3999 3.45773C31.6491 3.02162 31.9606 2.74126 32.3344 2.61666V1.77559C32.0852 1.93135 31.836 2.11825 31.5556 2.36745L31.5868 1.61984H29.9046L29.8975 1.66652C29.8352 2.07203 29.7418 2.67951 29.562 3.48888L28.1291 9.99937H29.9981L30.7146 6.79085C30.9015 7.10236 31.1507 7.38271 31.4622 7.53847C31.7114 7.66307 31.9917 7.75652 32.3344 7.78767V6.6351C32.2877 6.6351 32.2409 6.64288 32.1942 6.65067C32.1475 6.65846 32.1008 6.66625 32.054 6.66625C31.7425 6.66625 31.4933 6.54165 31.3064 6.35474C31.0884 6.16784 30.9949 5.85633 30.9638 5.48252C30.9015 4.73491 31.0261 4.04959 31.3999 3.45773Z" fill="#004A99"/>
<path fill-rule="evenodd" clip-rule="evenodd" d="M4.82835 1.52638C4.548 1.52638 4.23649 1.55753 3.95613 1.68213V1.74444C3.92498 1.76001 3.88605 1.77559 3.84711 1.79116C3.80817 1.80674 3.76923 1.82231 3.73808 1.83789C3.42657 1.99364 3.08392 2.24285 2.74126 2.5855L2.83471 1.65098H1.74444C1.72838 1.77948 1.7206 1.90797 1.71256 2.04073C1.70501 2.16546 1.69723 2.29395 1.68214 2.42975C1.66786 2.54395 1.64705 2.65814 1.62568 2.77533C1.60043 2.91389 1.57441 3.05663 1.55753 3.20852L0 9.99936H1.18373L1.90019 6.8843C2.11825 7.1958 2.3986 7.44501 2.67896 7.60076C3.02161 7.75652 3.33312 7.84997 3.76923 7.84997H3.95613V7.81882C4.42339 7.78767 4.7972 7.66306 5.17101 7.44501C5.63827 7.1958 5.98093 6.822 6.26128 6.35474C6.51049 5.98093 6.66624 5.54482 6.79084 5.01526C6.91545 4.48569 6.9466 3.98728 6.91545 3.55117C6.85315 2.92816 6.63509 2.42975 6.26128 2.05594C5.91863 1.71328 5.42022 1.52638 4.82835 1.52638ZM3.95613 6.91545V6.9466C3.80038 6.97775 3.61348 7.0089 3.42657 7.0089C3.08392 7.0089 2.77241 6.8843 2.55435 6.69739C2.3363 6.47934 2.2117 6.23013 2.18055 5.85632C2.18055 5.54482 2.18055 5.17101 2.30515 4.6726C2.3986 4.20534 2.58551 3.80038 2.77241 3.42657C2.95931 3.08391 3.20852 2.77241 3.48887 2.5855C3.64463 2.49205 3.80038 2.3986 3.95613 2.36745V2.274C4.08074 2.24285 4.23649 2.2117 4.39224 2.2117C4.76605 2.2117 5.07756 2.3363 5.32676 2.5855C5.54482 2.83471 5.70057 3.14622 5.73172 3.55117C5.73172 3.92498 5.70057 4.36109 5.60712 4.76605C5.51367 5.17101 5.32676 5.54482 5.13986 5.91863C4.92181 6.29243 4.6726 6.54164 4.39224 6.72854C4.36825 6.74054 4.3431 6.75369 4.31702 6.76733C4.20766 6.82452 4.08189 6.8903 3.95613 6.91545Z" fill="#004A99"/>
<path d="M39.7171 4.7972C39.6859 4.76605 39.6236 4.76605 39.5925 4.76605H39.4056C39.1252 4.76605 38.8449 4.7972 38.6268 4.8595V3.86268C38.876 3.83153 39.1564 3.83153 39.4679 3.83153H39.9663C39.9795 3.73944 39.9982 3.65847 40.0154 3.58391C40.039 3.48192 40.0598 3.39195 40.0598 3.30197C40.0909 3.17739 40.0909 3.11508 40.0909 3.02166C40.0598 2.83475 39.9975 2.71011 39.8729 2.61665C39.7483 2.5232 39.5925 2.49205 39.3433 2.49205C39.0629 2.49205 38.876 2.55435 38.7514 2.67896C38.742 2.68839 38.7297 2.69782 38.7163 2.70811C38.6854 2.73182 38.6485 2.76012 38.6268 2.80356V1.55753C38.8449 1.52638 39.0941 1.52638 39.3433 1.52638C40.1221 1.52638 40.7139 1.65098 41.15 1.90019C41.555 2.18054 41.773 2.55435 41.8353 3.05276C41.8665 3.20852 41.8665 3.36427 41.8353 3.55117C41.828 3.58794 41.8206 3.62817 41.8129 3.67064C41.7878 3.80812 41.7583 3.9691 41.7107 4.11189L41.2435 6.16783C41.1812 6.41704 41.15 6.66624 41.1189 6.91545C41.0877 7.1958 41.0877 7.44501 41.0877 7.69421H39.3744V7.2581C39.3744 7.18025 39.3822 7.11018 39.39 7.04011C39.3978 6.97004 39.4056 6.89985 39.4056 6.82199C39.1875 7.1335 38.9072 7.38271 38.658 7.50731V6.57279C38.8449 6.47934 39.0318 6.35474 39.1875 6.13668C39.4367 5.82517 39.6236 5.35791 39.7171 4.7972Z" fill="#004A99"/>
<path d="M38.5957 4.8595C38.3465 4.9218 38.1596 5.01526 37.9727 5.13986C37.5989 5.38906 37.4431 5.70057 37.4743 6.07438C37.4743 6.26128 37.5366 6.44819 37.6612 6.54164C37.7858 6.66624 37.9415 6.69739 38.1284 6.69739C38.2842 6.69739 38.4399 6.66624 38.5645 6.60394V7.53846L38.5334 7.56961C38.253 7.72536 37.9415 7.81882 37.5366 7.81882C37.007 7.81882 36.5709 7.66306 36.2282 7.38271C35.8856 7.10235 35.6987 6.69739 35.6675 6.23013C35.6052 5.48252 35.8856 4.89065 36.5086 4.48569C37.007 4.17419 37.6612 3.95613 38.5645 3.89383V4.8595H38.5957Z" fill="#004A99"/>
<path d="M38.5957 1.58868V2.83471C38.5302 2.92201 38.4953 3.0246 38.4589 3.13177C38.4433 3.1775 38.4274 3.22425 38.4088 3.27082H36.6332C36.6643 2.71011 36.9447 2.274 37.3808 1.96249C37.7546 1.77559 38.1284 1.65098 38.5957 1.58868Z" fill="#004A99"/>
<path d="M43.5798 7.72537L42.1157 9.96822H44.0782L45.1685 7.97457L49 1.58869H47.2556L44.857 5.79403L44.3586 1.58869H42.5207L43.5798 7.72537Z" fill="#004A99"/>
<path d="M10.4355 2.2117C10.3024 2.2117 10.1921 2.23443 10.0657 2.26046C10.0442 2.26491 10.0221 2.26946 9.99936 2.274V1.49524C10.1863 1.46409 10.3732 1.46409 10.5912 1.46409C11.3077 1.46409 11.8684 1.65099 12.3045 1.99365C12.7406 2.36746 12.9898 2.83471 13.0521 3.48888C13.0833 3.98729 13.0521 4.51685 12.8964 5.07756C12.7718 5.63828 12.5537 6.13669 12.3045 6.54165C11.993 7.00891 11.6192 7.35156 11.1831 7.53847C10.8716 7.69422 10.4978 7.78767 10.0305 7.81882V7.04006C10.2174 7.0089 10.4043 6.91545 10.5289 6.85315C10.8093 6.6974 11.0273 6.44819 11.2142 6.10554C11.4323 5.73173 11.588 5.29562 11.7127 4.82836C11.8373 4.32995 11.8684 3.92499 11.8373 3.58233C11.8061 3.11507 11.6503 2.77241 11.4323 2.58551C11.1831 2.30515 10.8716 2.2117 10.4355 2.2117Z" fill="#004A99"/>
<path d="M9.96821 2.274H9.99936C9.88509 2.29686 9.75404 2.35325 9.63083 2.40628C9.58611 2.42552 9.54243 2.44432 9.50095 2.46091C9.2206 2.64781 8.97139 2.92817 8.78449 3.30198C8.59758 3.64463 8.41068 4.04959 8.31723 4.548C8.22378 5.04641 8.19263 5.48252 8.19263 5.82518C8.22378 6.23014 8.37953 6.51049 8.59758 6.7597C8.84679 6.97775 9.1583 7.10236 9.56325 7.10236C9.64113 7.10236 9.71122 7.09457 9.78131 7.08678C9.8514 7.07899 9.92149 7.07121 9.99936 7.07121V7.84997C9.92503 7.84997 9.84361 7.85707 9.75848 7.86449C9.66522 7.87261 9.56751 7.88112 9.4698 7.88112C8.75334 7.88112 8.16147 7.69422 7.75652 7.32041C7.32041 6.9466 7.0712 6.44819 7.0089 5.79403C6.97775 5.26447 7.0089 4.70376 7.1958 4.14304C7.35156 3.55118 7.56961 3.05277 7.88112 2.64781C8.16147 2.274 8.53528 1.99365 8.97139 1.80674C9.23314 1.69041 9.57635 1.62838 9.89961 1.56996L9.96821 1.55754V2.274Z" fill="#004A99"/>
<path d="M27.0388 3.98729H25.5124V4.82836H28.1291C28.2225 4.57915 28.2537 4.29879 28.2537 4.04959C28.2848 3.80038 28.2848 3.55118 28.2537 3.33312C28.1914 2.67896 27.9422 2.2117 27.5683 1.93134C27.1634 1.65099 26.5404 1.49523 25.7616 1.49523H25.5124V2.24285C25.5436 2.24285 25.5825 2.23506 25.6214 2.22727C25.6604 2.21949 25.6993 2.2117 25.7305 2.2117C26.1354 2.2117 26.4469 2.30515 26.6961 2.49206C26.9142 2.64781 27.0388 2.89701 27.0699 3.23967C27.1011 3.33312 27.1011 3.39543 27.0699 3.52003C27.0699 3.61349 27.0699 3.8004 27.0388 3.98729Z" fill="#004A99"/>
<path d="M25.8862 6.66625C25.7928 6.72855 25.637 6.822 25.5124 6.85315V7.78767C26.0108 7.72537 26.4158 7.56961 26.7896 7.28926C27.288 6.97775 27.6306 6.47934 27.7864 5.88748H26.4781C26.3535 6.23014 26.1666 6.47934 25.8862 6.66625Z" fill="#004A99"/>
<path d="M25.4813 3.98729H23.9237C24.0483 3.36427 24.2664 2.92817 24.5467 2.61666C24.7959 2.36745 25.1074 2.2117 25.4813 2.18055V1.43293C24.9828 1.49523 24.609 1.58869 24.2352 1.77559C23.7991 1.96249 23.4565 2.30515 23.1761 2.71011C22.958 3.14622 22.7088 3.64463 22.5842 4.23649C22.4285 4.85951 22.3973 5.38907 22.4285 5.85633C22.4596 6.47934 22.7088 6.97775 23.1138 7.32041C23.5499 7.66307 24.1106 7.84997 24.8271 7.84997C25.0451 7.84997 25.2943 7.84997 25.4813 7.81882V6.8843C25.3255 6.9466 25.1386 6.97775 24.9517 6.97775C24.5156 6.97775 24.2041 6.85315 23.9549 6.66625C23.7368 6.47934 23.5811 6.16783 23.5499 5.79403C23.5499 5.66942 23.5499 5.51367 23.5811 5.35792C23.6122 5.17101 23.6434 5.01526 23.7057 4.82836H25.4813V3.98729Z" fill="#004A99"/>
</svg>
