<svg width="62" height="14" viewBox="0 0 62 14" fill="none" xmlns="http://www.w3.org/2000/svg">
<path d="M18.2905 9.12993H18.399C19.0339 9.25944 19.6017 9.35029 20.1558 9.35029C20.9939 9.35029 21.602 9.15571 21.602 8.46853C21.602 7.19792 18.3177 7.7034 18.3177 5.6029C18.3177 4.46179 19.4258 3.85226 20.8179 3.85226C21.3723 3.85226 21.9264 3.9299 22.4398 4.08551V5.04491H22.3316C21.7504 4.86385 21.2504 4.78589 20.8045 4.78589C20.1424 4.78589 19.453 4.92861 19.453 5.6029C19.453 6.80843 22.7369 6.32873 22.7369 8.36447C22.7369 9.8432 21.4939 10.2839 20.1152 10.2839C19.4392 10.2839 18.7636 10.1931 18.2905 10.089V9.12993Z" fill="#EF373F"/>
<path d="M33.7915 10.0505C33.4131 10.1803 32.9806 10.2837 32.44 10.2837C31.7775 10.2837 30.7372 10.141 30.7372 8.67582V4.94131H29.8988V4.03378H30.7372V2.58147L31.6966 2.38689H31.8047V4.03378H33.8865V4.94131H31.8047V8.65005C31.8047 9.31113 32.3859 9.36332 32.6559 9.36332C32.9265 9.36332 33.3587 9.27247 33.6968 9.16873L33.7915 10.0505Z" fill="#EF373F"/>
<path d="M37.7504 9.12993H37.8585C38.4938 9.25944 39.0616 9.35029 39.6156 9.35029C40.4537 9.35029 41.0618 9.15571 41.0618 8.46853C41.0618 7.19792 37.7776 7.7034 37.7776 5.6029C37.7776 4.46179 38.8856 3.85226 40.2778 3.85226C40.8318 3.85226 41.3862 3.9299 41.8996 4.08551V5.04491H41.7915C41.2102 4.86385 40.7099 4.78589 40.2644 4.78589C39.6022 4.78589 38.9125 4.92861 38.9125 5.6029C38.9125 6.80843 42.1968 6.32873 42.1968 8.36447C42.1968 9.8432 40.9537 10.2839 39.575 10.2839C38.8991 10.2839 38.2235 10.1931 37.7504 10.089V9.12993Z" fill="#EF373F"/>
<path d="M44.71 9.22054C45.1294 9.2853 45.575 9.35037 46.1428 9.35037C47.4671 9.35037 48.3052 8.54626 48.3052 6.977C48.3052 5.52469 47.8049 4.78597 46.724 4.78597C46.0884 4.78597 45.3856 5.04499 44.71 5.61586V9.22054ZM43.6288 4.04661L44.5747 3.85202H44.71V4.64325C45.3453 4.18933 46.0346 3.85202 46.9671 3.85202C48.3593 3.85202 49.4401 4.79886 49.4401 6.82172C49.4401 8.8056 48.3593 10.2837 46.1021 10.2837C45.575 10.2837 45.1559 10.2189 44.71 10.1281V13.1493L43.7641 13.3439H43.6288V4.04661Z" fill="#EF373F"/>
<path d="M58.3998 10.0372L56.2206 4.03371H57.4636L58.9945 8.75371H59.0888L60.7701 4.03371H62L59.6163 10.3355C59.0485 11.8916 58.3454 12.6438 57.1833 13.3439L56.5752 12.5916C57.7511 11.7878 58.0482 11.3339 58.4941 10.2837" fill="#EF373F"/>
<path d="M54.1968 7.28836L52.4535 7.53482C51.9941 7.59957 51.48 7.78127 51.48 8.48101C51.48 8.98712 51.8457 9.33732 52.3994 9.33732C52.9941 9.33732 53.67 8.97392 54.1968 8.61116V7.28836ZM55.278 10.0892L54.3996 10.2581H54.2509V9.40207H54.2237C53.6562 9.81702 52.9669 10.2452 52.0344 10.2452C51.2101 10.2452 50.3451 9.6743 50.3451 8.55897C50.3451 7.05544 51.7507 6.84764 52.5075 6.74358L54.1968 6.52322V6.1086C54.1968 5.07091 53.6834 4.7858 52.751 4.7858C52.3994 4.7858 51.521 4.88954 50.8048 5.20075L50.6829 4.24135C51.2779 4.02066 52.2104 3.85217 52.9538 3.85217C54.2912 3.85217 55.278 4.38374 55.278 6.1086V10.0892Z" fill="#EF373F"/>
<path d="M27.5748 8.61113C27.0479 8.97389 26.372 9.33729 25.7773 9.33729C25.2233 9.33729 24.858 8.98742 24.858 8.4813C24.858 7.78124 25.372 7.59954 25.8314 7.53478L27.5748 7.28833V8.61113ZM28.656 6.10857C28.656 4.38371 27.6691 3.85214 26.3314 3.85214C25.5883 3.85214 24.6555 4.02096 24.0608 4.24132L24.1827 5.20072C24.8989 4.88951 25.7773 4.78577 26.1289 4.78577C27.0614 4.78577 27.5748 5.07121 27.5748 6.10857V6.52352L25.8854 6.74388C25.1286 6.84761 23.723 7.05541 23.723 8.55894C23.723 9.67427 24.588 10.2451 25.4123 10.2451C26.3448 10.2451 27.0342 9.81699 27.6016 9.40204H27.6288V10.258H27.7776L28.656 10.0892V6.10857Z" fill="#EF373F"/>
<path d="M35.1155 10.258H35.1199L35.1155 10.2533V10.258Z" fill="#EF373F"/>
<path d="M36.0615 3.85207L35.1156 4.04665V9.55209V10.2534L35.1196 10.2576H35.255L36.1968 10.0643V9.75602V3.85207H36.0615Z" fill="#EF373F"/>
<path d="M36.0615 1.74866L35.1156 1.94324V2.34015V3.04149L35.1196 3.04601H35.255L36.1968 2.85239V2.54408V1.74866H36.0615Z" fill="#EF373F"/>
<path d="M44.71 6.60983C44.71 6.89655 44.4679 7.12851 44.1694 7.12851C43.8709 7.12851 43.6288 6.89655 43.6288 6.60983C43.6288 6.32343 43.8709 6.09115 44.1694 6.09115C44.4679 6.09115 44.71 6.32343 44.71 6.60983Z" fill="#EF373F"/>
<path d="M11.6584 0.373758C11.8021 0.235872 11.7004 4.89215e-05 11.4969 4.89215e-05H8.11121L10.0799 1.88824L11.6584 0.373758Z" fill="#EF373F"/>
<path d="M6.92698 4.91332L4.50567 2.59021L2.32679 4.68104L0.0669882 6.8492C-0.0223294 6.93457 -0.0223294 7.07342 0.0669882 7.15879L2.32679 9.32727L4.50567 11.4178L6.92698 9.09467L4.90928 7.15879L4.74777 7.00416L4.90928 6.8492L6.92698 4.91332Z" fill="#EF373F"/>
<path d="M10.0797 12.1195L8.11938 14.0002H11.4889C11.6921 14.0002 11.7942 13.7644 11.6504 13.6265L10.0797 12.1195Z" fill="#EF373F"/>
<path d="M14.5186 6.84918L12.2588 4.68103L9.71395 2.23935L7.44676 0.0641091C7.40579 0.0248053 7.35039 0.00322046 7.29263 0.00128749C7.29028 0.00128749 7.28793 -4.5739e-07 7.28525 -4.5739e-07H3.08833C2.88518 -4.5739e-07 2.78344 0.235823 2.92715 0.373708L4.87166 2.23935L7.29263 4.56247L9.67634 6.84918L9.83751 7.00414L9.67634 7.15878L7.29263 9.44549L4.87166 11.7686L2.93521 13.6265C2.7915 13.7644 2.89324 14.0002 3.09639 14.0002H7.29196H7.29364C7.35408 14.0002 7.41217 13.977 7.45481 13.9361L9.71395 11.7686L12.2588 9.32726L14.5186 7.15878C14.6079 7.07341 14.6079 6.93488 14.5186 6.84918Z" fill="#EF373F"/>
</svg>
