<svg width="50" height="18" viewBox="0 0 50 18" fill="none" xmlns="http://www.w3.org/2000/svg">
<path fill-rule="evenodd" clip-rule="evenodd" d="M33.8642 2.70188C33.8642 1.57462 34.7834 0.660217 35.9152 0.660217C37.049 0.660217 37.9675 1.57462 37.9675 2.70188C37.9675 3.8298 37.049 4.74222 35.9152 4.74222C34.7834 4.74222 33.8642 3.8298 33.8642 2.70188ZM39.7612 2.3299L43.9212 1.58923V17.4789H39.7612V2.3299ZM45.8374 2.3299V17.4789H50V1.58923L45.8374 2.3299ZM33.8355 5.85689V17.4789H37.9975V5.85689H33.8355ZM25.6888 10.9408C25.6888 7.52722 27.6424 5.80981 31.4878 5.68648C31.4878 5.68648 32.1823 5.65995 32.5923 5.74682V9.14384C30.1547 9.22739 29.8854 10.1033 29.8854 12.1463V17.4789H25.6888V10.9408ZM20.1753 5.89828L20.1753 5.89837C20.0263 6.2875 19.3481 8.05856 17.8261 9.88982V1.58923L13.5309 2.43467V17.4789H17.8261V12.828C19.0699 14.6846 19.6845 17.4789 19.6845 17.4789H24.8283C24.3197 15.3743 22.0941 11.4945 22.0941 11.4945C24.0924 8.97343 24.9689 6.28857 25.1089 5.84363H20.1964C20.1912 5.85672 20.1842 5.87503 20.1753 5.89828ZM4.58389 6.29719C4.58389 7.38797 5.80235 7.46688 6.32826 7.5007C10.1856 7.75798 12.4846 9.63652 12.4846 12.5269C12.4846 15.0772 10.4289 17.6493 5.84301 17.6493C3.7167 17.6493 1.90234 17.4411 0.293284 17.0201V13.3081C1.36777 13.7477 3.13814 14.2092 4.96183 14.2092C6.62621 14.2092 7.61604 13.6615 7.61604 12.7305C7.61604 11.6073 6.41563 11.5341 5.9553 11.5061L5.95033 11.5058C0.578569 11.1417 0 7.98012 0 6.63802C0 4.30725 1.66238 1.58923 6.35426 1.58923C9.0758 1.58923 10.5429 2.01162 11.8067 2.45125L11.87 2.47048V6.07571L11.8227 6.06245C11.3154 5.84894 10.7195 5.6394 10.7195 5.6394C9.64903 5.32045 8.15195 4.98095 6.99481 4.98095C6.33693 4.98095 4.58389 4.98095 4.58389 6.29719Z" fill="#862165"/>
</svg>
