<svg width="57" height="11" viewBox="0 0 57 11" fill="none" xmlns="http://www.w3.org/2000/svg">
<path fill-rule="evenodd" clip-rule="evenodd" d="M22.9788 2.21662H25.2571L25.6234 0.341049H23.3446L22.9788 2.21662ZM22.7424 3.42297H25.0213L23.5737 10.8285C23.468 10.866 23.1419 10.9977 22.6914 10.9977C22.0835 10.9977 21.5258 10.7569 21.5258 9.90329C21.5258 9.74272 21.5441 9.5599 21.5847 9.35211C22.0375 7.04125 22.7424 3.42297 22.7424 3.42297ZM45.3694 3.25381C43.8528 3.25381 43.2499 4.15638 42.9668 4.70581H42.94L43.0274 3.42453H40.7755C40.7608 3.70627 40.6633 4.5944 40.5189 5.3604C40.5189 5.3604 39.9989 8.0484 39.9005 8.5631C39.8255 8.95624 39.6884 9.53747 39.6884 9.87481C39.6884 10.593 40.047 10.9978 40.8471 10.9978C41.2958 10.9978 41.6193 10.8732 41.737 10.8285L42.4901 6.97179C42.6989 5.90689 43.457 5.20997 44.3583 5.20997C45.0854 5.20997 45.4331 5.74886 45.4331 6.18941C45.4331 6.5728 45.3384 6.99774 45.2651 7.37352L44.9412 9.02511C44.9027 9.22334 44.8202 9.60419 44.8202 9.9029C44.8202 10.633 45.2254 10.9978 45.995 10.9978C46.4151 10.9978 46.6815 10.8911 46.8702 10.8285L47.546 7.37118C47.6925 6.58977 47.7466 6.17829 47.7466 5.68096C47.7466 4.24926 46.9225 3.25381 45.3694 3.25381ZM35.2474 5.04453C33.9737 5.04453 33.2682 6.36755 33.2682 7.54698C33.2682 8.54164 33.7104 9.20774 34.7154 9.20774C35.8516 9.20774 36.7409 8.22537 36.7409 6.54861C36.7409 5.78145 36.3389 5.04453 35.2474 5.04453ZM34.5756 10.998C32.1358 10.998 30.9683 9.51132 30.9683 7.61624C30.9683 5.01603 32.7255 3.25381 35.4408 3.25381C37.7969 3.25381 39.0479 4.70327 39.0479 6.5648C39.0479 9.35426 37.1711 10.998 34.5756 10.998ZM26.0427 9.21495C25.9907 9.48147 25.9579 9.66819 25.9579 9.89764C25.9579 10.7466 26.5164 10.9979 27.1081 10.9979C27.5814 10.9979 27.8742 10.8663 27.9814 10.8285L29.077 5.21504L30.8487 5.21485L31.1985 3.42298L29.427 3.42317L29.5131 2.98184C29.6734 2.15419 30.0567 1.79031 30.7198 1.79031C31.1626 1.79031 31.5208 1.87031 31.6453 1.90328L31.9788 0.1994C31.8367 0.162915 31.182 0 30.213 0C28.6689 0 27.6574 0.952908 27.3582 2.48763L27.1751 3.42298H26.0216L25.6716 5.21485H26.8259C26.8259 5.21485 26.3706 7.53585 26.0427 9.21495ZM20.7969 3.25401C19.6532 3.25401 19.0242 4.06098 18.7782 4.70464H18.7519L18.8399 3.42298H16.5871C16.5672 3.86724 16.4757 4.6184 16.2461 5.79939C16.0135 6.99619 15.7869 8.19005 15.5529 9.35192C15.5128 9.55054 15.495 9.74487 15.495 9.90934C15.495 10.5179 15.7909 10.9973 16.6653 10.9973C17.0985 10.9973 17.3994 10.8829 17.5438 10.8285L18.214 7.39538C18.4555 6.08191 18.894 5.21348 20.1664 5.21348C20.7451 5.21348 21.2949 5.33894 21.4102 5.37328L21.7958 3.398C21.7126 3.36874 21.3785 3.25401 20.7969 3.25401ZM53.8484 6.42452C53.9704 5.74555 53.5817 5.04453 52.7032 5.04453C51.6305 5.04453 51.1593 5.78925 50.9489 6.42452H53.8484ZM54.8651 9.18022C54.8651 10.2102 53.8837 11 52.1457 11C49.7437 11 48.5691 9.47952 48.5691 7.61819C48.5691 5.77052 49.7761 3.25577 52.7221 3.25577C54.6645 3.25577 56.117 4.23638 56.117 6.48129C56.117 7.03345 55.996 7.6336 55.944 7.87398H50.7807C50.7721 8.41267 51.2189 9.34626 53.0136 9.34626C53.8135 9.34626 54.7192 9.05906 54.8651 8.9859C54.8651 9.04189 54.8651 9.14315 54.8651 9.18022ZM12.6757 6.42452C12.7975 5.74555 12.4088 5.04453 11.5303 5.04453C10.4576 5.04453 9.98662 5.78925 9.77606 6.42452H12.6757ZM13.6926 9.18022C13.6926 10.2102 12.7111 11 10.9733 11C8.5711 11 7.39673 9.47952 7.39673 7.61819C7.39673 5.77052 8.6035 3.25577 11.5498 3.25577C13.4922 3.25577 14.9446 4.23638 14.9446 6.48129C14.9446 7.03345 14.8236 7.6336 14.7714 7.87398H9.60835C9.59972 8.41267 10.0463 9.34626 11.8411 9.34626C12.6409 9.34626 13.5466 9.05906 13.6926 8.9859C13.6926 9.04189 13.6926 9.14315 13.6926 9.18022ZM0 0.903168H2.29236V8.26635C2.29236 9.37359 2.83467 9.93882 3.70528 9.93882C3.79406 9.93882 3.84642 9.92731 3.86367 9.92301C3.48206 10.5099 2.98731 10.9912 1.8513 10.9912C0.649315 10.9912 0 10.1433 0 8.8708V0.903168Z" fill="#1A1919"/>
<path fill-rule="evenodd" clip-rule="evenodd" d="M3.08479 7.26147C2.98418 7.42111 2.93079 7.60595 2.93079 7.79465V8.27864C2.93079 9.02513 3.32755 9.29262 3.76074 9.29262C4.20353 9.29262 4.44055 8.98747 4.65801 8.64057C5.02236 8.05973 9.47476 0.903168 9.47476 0.903168H7.09208L3.08479 7.26147Z" fill="#00A3DA"/>
</svg>
