<svg width="31" height="28" viewBox="0 0 31 28" fill="none" xmlns="http://www.w3.org/2000/svg">
<path d="M11.2739 17.7117C11.134 17.7841 10.9765 17.8259 10.8091 17.8259C10.4215 17.8259 10.0846 17.6076 9.90774 17.2845L9.83999 17.1328L7.01815 10.7936C6.98769 10.7247 6.96883 10.6467 6.96883 10.5708C6.96883 10.2786 7.20024 10.042 7.48562 10.042C7.60137 10.042 7.70857 10.0812 7.79474 10.1468L11.1247 12.5741C11.3679 12.7368 11.6586 12.8324 11.9711 12.8324C12.1576 12.8324 12.3354 12.7969 12.5012 12.7351L28.1608 5.60002C25.3538 2.21342 20.731 0 15.4997 0C6.93913 0 0 5.92014 0 13.2235C0 17.2076 2.08774 20.7943 5.3556 23.2185C5.61768 23.4102 5.78937 23.7249 5.78937 24.0802C5.78937 24.1977 5.76476 24.3049 5.73474 24.417C5.47374 25.4136 5.05602 27.0098 5.03662 27.0846C5.004 27.2096 4.95316 27.3403 4.95316 27.4712C4.95316 27.7633 5.18435 28 5.47017 28C5.58213 28 5.67383 27.9573 5.76845 27.9016L9.16171 25.8959C9.41696 25.7453 9.68717 25.6516 9.98501 25.6516C10.1434 25.6516 10.2964 25.6768 10.4403 25.7219C12.0233 26.188 13.7313 26.447 15.4998 26.447C24.0599 26.447 31 20.5265 31 13.2235C31 11.0114 30.3596 8.92815 29.2343 7.09554L11.3875 17.6447L11.2739 17.7117Z" fill="#1AAD19"/>
</svg>
