<svg width="133px" height="19px" viewBox="0 0 133 19" version="1.1" xmlns="http://www.w3.org/2000/svg" xmlns:xlink="http://www.w3.org/1999/xlink">
    <g id="Page-1" stroke="none" stroke-width="1" fill="none" fill-rule="evenodd">
        <g id="logo" fill="#000000" fill-rule="nonzero">
            <path d="M0.198698795,9.454875 C0.198698795,14.5215417 4.32650602,18.5495417 9.45421687,18.5495417 C13.1718072,18.5495417 15.7869398,16.8775417 15.7869398,16.8775417 C15.9041876,16.7725175 15.9773653,16.6279044 15.9920482,16.4722083 L15.9920482,10.6716667 C15.9920482,10.4183333 15.7869398,10.1903333 15.5305542,10.1903333 L11.0950843,10.1903333 C10.9645553,10.1858665 10.8380073,10.2351424 10.745654,10.3263962 C10.6533007,10.41765 10.6034311,10.5426916 10.6079518,10.6716667 L10.6079518,11.609 C10.6079518,11.8623333 10.8130602,12.065 11.0950843,12.065 L14.0435181,12.065 L14.0435181,15.6116667 C14.0435181,15.6116667 12.2488193,16.6756667 9.42857831,16.6756667 C5.37768675,16.6756667 2.30106024,13.2556667 2.30106024,9.35433333 C2.30106024,5.42766667 5.37768675,2.08366667 9.42857831,2.08366667 C11.1463614,2.08366667 12.9923373,2.91966667 14.2999036,4.05966667 C14.5819277,4.313 14.735759,4.33833333 14.966506,4.085 C15.1716145,3.857 15.4536386,3.60366667 15.6843855,3.37566667 C15.889494,3.173 15.8638554,2.869 15.658747,2.66633333 C13.9153253,1.19620833 12.0429096,0.309541667 9.45421687,0.309541667 C4.32650602,0.309541667 0.198698795,4.38820833 0.198698795,9.454875 Z M24.4127108,1.045 C24.4127108,0.791666667 24.6186205,0.563666667 24.9014458,0.563666667 L31.5410301,0.563666667 C34.6176566,0.563666667 37.1302349,2.945 37.1302349,5.95966667 C37.1302349,8.29033333 35.5662831,10.241 33.3357289,11.1276667 L36.8482108,17.5623333 C37.0276807,17.8916667 36.8482108,18.297 36.4123554,18.297 L35.1047892,18.297 C34.8740422,18.297 34.7458494,18.1703333 34.6945723,18.069 L31.2846446,11.3556667 L26.3876807,11.3556667 L26.3876807,17.8156667 C26.3785717,18.077681 26.1657194,18.2879994 25.9005482,18.297 L24.9014458,18.297 C24.6324099,18.297 24.4143133,18.0814997 24.4143133,17.8156667 L24.4127108,1.045 Z M26.439759,9.682875 L31.4128373,9.682875 C33.387006,9.682875 35.1047892,8.06154167 35.1047892,5.98420833 C35.1047892,4.058875 33.387006,2.41220833 31.4128373,2.41220833 L26.439759,2.41220833 L26.439759,9.682875 Z M44.1928554,9.454875 C44.1928554,4.38820833 48.2693855,0.309541667 53.3970964,0.309541667 C58.5248072,0.309541667 62.6269759,4.38820833 62.6269759,9.454875 C62.6269759,14.5215417 58.5248072,18.5495417 53.3970964,18.5495417 C48.2693855,18.5495417 44.1928554,14.5215417 44.1928554,9.454875 Z M45.9875542,9.454875 C45.9875542,13.482875 49.3205663,16.7762083 53.3970964,16.7762083 C57.4736265,16.7762083 60.8322771,13.482875 60.8322771,9.454875 C60.8322771,5.426875 57.4728253,2.082875 53.3970964,2.082875 C49.3205663,2.082875 45.9875542,5.426875 45.9875542,9.454875 Z M77.2273313,18.5495417 C81.2782229,18.5495417 84.0471867,15.610875 84.0471867,11.7602083 L84.0471867,1.045 C84.0380777,0.782985625 83.8252254,0.572667226 83.5600542,0.563666667 L82.5857892,0.563666667 C82.3167533,0.563666667 82.0986566,0.77916694 82.0986566,1.045 L82.0986566,11.6596667 C82.0986566,14.5476667 80.2526807,16.7516667 77.2273313,16.7516667 C74.2276205,16.7516667 72.4072831,14.497 72.4072831,11.609 L72.4072831,1.045 C72.4072831,0.77916694 72.1891865,0.563666667 71.9201506,0.563666667 L70.9466867,0.563666667 C70.6815156,0.572667226 70.4686632,0.782985625 70.4595542,1.045 L70.4595542,11.761 C70.458753,15.610875 73.2020783,18.5495417 77.2273313,18.5495417 Z M93.6736627,18.2962083 L94.571012,18.2962083 C94.8400479,18.2962083 95.0581446,18.0807081 95.0581446,17.814875 L95.0581446,4.03354167 L95.0837831,4.03354167 L106.85188,18.5495417 L107.313373,18.5495417 C107.569759,18.5495417 107.800506,18.346875 107.800506,18.0935417 L107.800506,1.045 C107.791397,0.782985625 107.578545,0.572667226 107.313373,0.563666667 L106.416024,0.563666667 C106.286829,0.563666667 106.162924,0.614378426 106.071569,0.704645936 C105.980214,0.794913446 105.928892,0.917342463 105.928892,1.045 L105.928892,14.5476667 L105.877614,14.5476667 L94.3146265,0.309541667 L93.6736627,0.309541667 C93.4172771,0.309541667 93.1865301,0.512208333 93.1865301,0.765541667 L93.1865301,17.814875 C93.1865301,18.0682083 93.4172771,18.2962083 93.6736627,18.2962083 Z M117.171398,1.045 C117.171398,0.791666667 117.376506,0.563666667 117.632892,0.563666667 L123.375928,0.563666667 C128.324169,0.563666667 132.37506,4.541 132.37506,9.405 C132.37506,14.3196667 128.324169,18.297 123.375928,18.297 L117.632892,18.297 C117.376506,18.297 117.171398,18.069 117.171398,17.8156667 L117.171398,1.045 Z M119.119928,16.5482083 L122.965711,16.5482083 C127.170434,16.5482083 130.221422,13.5842083 130.221422,9.40420833 C130.221422,5.24954167 127.170434,2.28554167 122.965711,2.28554167 L119.119928,2.28554167 L119.119928,16.5482083 Z" id="Shape"></path>
        </g>
    </g>
</svg>