<svg class="logo__img" width="166" height="24" xmlns="http://www.w3.org/2000/svg"><path d="M.248 11.943c0 6.4 5.152 11.488 11.552 11.488 4.64 0 7.904-2.112 7.904-2.112a.79.79 0 0 0 .256-.512V13.48c0-.32-.256-.608-.576-.608h-5.536a.588.588 0 0 0-.608.608v1.184c0 .32.256.576.608.576h3.68v4.48s-2.24 1.344-5.76 1.344c-5.056 0-8.896-4.32-8.896-9.248 0-4.96 3.84-9.184 8.896-9.184 2.144 0 4.448 1.056 6.08 2.496.352.32.544.352.832.032.256-.288.608-.608.896-.896.256-.256.224-.64-.032-.896C17.368 1.511 15.031.391 11.8.391 5.4.391.248 5.543.248 11.943zm30.222 10.56V1.32c0-.32.257-.608.61-.608h8.287c3.84 0 6.976 3.008 6.976 6.816 0 2.944-1.952 5.408-4.736 6.528l4.384 8.128c.224.416 0 .928-.544.928h-1.632c-.288 0-.448-.16-.512-.288l-4.256-8.48h-6.112v8.16a.63.63 0 0 1-.608.608H31.08a.608.608 0 0 1-.608-.608zM33 12.231h6.207c2.464 0 4.608-2.048 4.608-4.672 0-2.432-2.144-4.512-4.608-4.512H33v9.184zm22.158-.288c0-6.4 5.088-11.552 11.488-11.552 6.4 0 11.52 5.152 11.52 11.552 0 6.4-5.12 11.488-11.52 11.488-6.4 0-11.488-5.088-11.488-11.488zm2.24 0c0 5.088 4.16 9.248 9.248 9.248 5.088 0 9.28-4.16 9.28-9.248 0-5.088-4.193-9.312-9.28-9.312-5.088 0-9.248 4.224-9.248 9.312zm30.543 2.912c0 4.864 3.424 8.576 8.448 8.576 5.056 0 8.512-3.712 8.512-8.576V1.32a.63.63 0 0 0-.608-.608h-1.216a.608.608 0 0 0-.608.608v13.408c0 3.648-2.304 6.432-6.08 6.432-3.744 0-6.016-2.848-6.016-6.496V1.32a.608.608 0 0 0-.608-.608H88.55a.63.63 0 0 0-.608.608v13.536zm28.367 7.648c0 .32.288.608.608.608h1.12a.608.608 0 0 0 .608-.608V5.095h.032l14.688 18.336h.576c.32 0 .608-.256.608-.576V1.32a.63.63 0 0 0-.608-.608h-1.12a.608.608 0 0 0-.608.608v17.056h-.064L117.716.391h-.8c-.32 0-.608.256-.608.576v21.536zm29.936 0V1.32c0-.32.256-.608.576-.608h7.168c6.176 0 11.232 5.024 11.232 11.168 0 6.208-5.056 11.232-11.232 11.232h-7.168c-.32 0-.576-.288-.576-.608zm2.432-1.6h4.8c5.248 0 9.056-3.744 9.056-9.024 0-5.248-3.808-8.992-9.056-8.992h-4.8v18.016z" fill-rule="evenodd"/></svg>
