<svg width="1000px" height="750px" viewBox="0 0 1000 750" version="1.1" xmlns="http://www.w3.org/2000/svg" xmlns:xlink="http://www.w3.org/1999/xlink">
	<g id="Page-1" stroke="none" stroke-width="1" fill="none" fill-rule="evenodd">
		<g id="photo">
			<rect id="Rectangle" fill="#F3F3F3" x="0" y="0" width="1000" height="750"></rect>
			<path d="M550.187802,314.435 L545.189621,295.26 C544.013578,290.835 540.19144,287.885 535.78128,287.885 L465.512731,287.885 C461.102571,287.885 457.280432,290.835 456.10439,295.26 L451.106209,314.435 L406.416588,314.435 C394.36215,314.435 384.659799,324.17 384.659799,336.265 L384.659799,441.58 C384.659799,453.675 394.36215,463.41 406.416588,463.41 L594.583412,463.41 C606.63785,463.41 616.340201,453.675 616.340201,441.58 L616.340201,336.265 C616.340201,324.17 606.63785,314.435 594.583412,314.435 L550.187802,314.435 Z M604.579775,336.265 L604.579775,441.58 C604.579775,446.89 600.169615,451.61 594.583412,451.61 L406.416588,451.61 C401.124396,451.61 396.420225,447.185 396.420225,441.58 L396.420225,336.265 C396.420225,330.955 400.830385,326.235 406.416588,326.235 L455.516368,326.235 C458.162464,326.235 460.51455,324.465 461.102571,321.81 L466.982784,299.685 L534.311226,299.685 L540.19144,321.81 C540.779461,324.465 543.131546,326.235 545.777642,326.235 L594.583412,326.235 C600.169615,326.235 604.579775,330.66 604.579775,336.265 Z" id="Shape" fill="#6D6D6D" fill-rule="nonzero"></path>
			<path d="M500.5,337.74 C474.627062,337.74 453.458294,358.98 453.458294,384.94 C453.458294,410.9 474.627062,432.14 500.5,432.14 C526.372938,432.14 547.541706,410.9 547.541706,384.94 C547.541706,358.98 526.372938,337.74 500.5,337.74 Z M500.5,420.34 C481.095296,420.34 465.21872,404.41 465.21872,384.94 C465.21872,365.47 481.095296,349.54 500.5,349.54 C519.904704,349.54 535.78128,365.47 535.78128,384.94 C535.78128,404.41 519.904704,420.34 500.5,420.34 Z" id="Shape" fill="#6D6D6D" fill-rule="nonzero"></path>
		</g>
	</g>
</svg>
